<svg width="52" height="51" viewBox="0 0 52 51" fill="none" xmlns="http://www.w3.org/2000/svg">
<path d="M-6.94986 -0.599121H62.7297V51.6606H-6.94986V-0.599121Z" fill="#00008B"/>
<path d="M-2.86707 -0.599121L10.4156 9.25401L23.6438 -0.599121H27.8899V2.77598L14.825 12.5202L27.8899 22.2101V25.5307H23.535L10.47 15.7865L-2.54045 25.5307H-6.94986V22.2645L6.06063 12.5747L-6.94986 2.88486V-0.599121H-2.86707Z" fill="white"/>
<path d="M16.1315 14.6977L27.8899 23.3532V25.5307L13.1375 14.6977H16.1315ZM6.11506 15.7865L6.44169 17.6918L-4.01025 25.5307H-6.94986L6.11506 15.7865ZM27.8899 -0.599121V-0.43581L14.3351 9.79838L14.444 7.40314L25.1681 -0.599121H27.8899ZM-6.94986 -0.599121L6.06063 8.98182H2.7944L-6.94986 1.68724V-0.599121Z" fill="#FF0000"/>
<path d="M6.1695 -0.599121V25.5307H14.8794V-0.599121H6.1695ZM-6.94986 8.11083V16.8208H27.8899V8.11083H-6.94986Z" fill="white"/>
<path d="M-6.94986 9.90725V15.1332H27.8899V9.90725H-6.94986ZM7.91149 -0.599121V25.5307H13.1375V-0.599121H7.91149Z" fill="#FF0000"/>
<path d="M50.4263 42.5908L48.1943 42.8738L48.4339 45.1058L46.8225 43.538L45.2221 45.1167L45.4398 42.8847L43.2079 42.6234L45.0914 41.404L43.9047 39.4987L46.0386 40.2064L46.7899 38.0834L47.5629 40.1955L49.6859 39.4661L48.521 41.3823L50.4154 42.5908H50.4263ZM50.0234 29.8307L50.3174 28.4153L49.2504 27.4355L50.6876 27.2722L51.2864 25.9548L51.8852 27.2722L53.3223 27.4355L52.2553 28.4153L52.5493 29.8307L51.2864 29.1121L50.0234 29.8307ZM38.6896 23.2982L36.4795 23.5378L36.6754 25.7479L35.1076 24.1692L33.4963 25.7044L33.7576 23.4942L31.5583 23.2002L33.4419 22.0244L32.2987 20.1191L34.4 20.8595L35.1838 18.7799L35.9133 20.8812L38.0255 20.1953L36.8387 22.0788L38.7005 23.2982H38.6896ZM60.8782 19.7272L58.6027 20.0211L58.8531 22.2966L57.2091 20.6961L55.576 22.3075L55.8047 20.0211L53.5292 19.7598L55.4563 18.5078L54.2477 16.5589L56.4252 17.2884L57.1874 15.1327L57.9713 17.2884L60.1379 16.5371L58.9402 18.4969L60.8782 19.7272ZM50.4154 10.6361L48.1617 10.8866L48.3685 13.1511L46.7681 11.5398L45.1241 13.1076L45.3854 10.8539L43.1317 10.549L45.0588 9.35143L43.8938 7.40258L46.0386 8.15381L46.8334 6.03076L47.5737 8.17559L49.7295 7.4679L48.521 9.38409L50.4154 10.6361ZM18.5261 41.3932L13.5396 41.9811L14.0404 46.9784L10.4694 43.4509L6.87652 46.9566L7.41 41.9593L2.42355 41.3278L6.65877 38.6277L4.04578 34.3381L8.7927 35.9712L10.5129 31.2461L12.2005 35.9821L16.9583 34.3816L14.3126 38.6495L18.537 41.3823L18.5261 41.3932Z" fill="white"/>
</svg>
