<svg width="33" height="34" viewBox="0 0 33 34" fill="none" xmlns="http://www.w3.org/2000/svg">
<path d="M15.4566 1.10467C9.19513 1.57723 3.72839 5.77664 1.62332 11.7482C0.957428 13.6492 0.796326 14.6695 0.796326 17.1075C0.807066 18.9548 0.839286 19.4703 1.03261 20.351C2.49327 26.8596 7.40152 31.6389 13.8993 32.8526C15.3815 33.1318 18.1095 33.1318 19.5916 32.8526C26.0787 31.6389 31.0084 26.8488 32.4476 20.351C32.6516 19.4703 32.6839 18.9548 32.6946 17.1075C32.6946 15.185 32.6624 14.7661 32.4476 13.7888C31.3843 9.06312 28.5704 5.29333 24.3495 2.95197C21.8363 1.55575 18.5606 0.879124 15.4566 1.10467ZM18.7861 2.98419C21.0093 3.31714 23.211 4.20857 25.0476 5.51887C26.7553 6.73251 28.5704 8.84832 29.5048 10.7171C29.9773 11.6622 30.4606 13.1122 30.7184 14.3473C31.0299 15.7757 31.0514 18.2137 30.7829 19.61C29.7518 24.8082 26.1538 28.9432 21.2241 30.5864C19.7097 31.0912 18.378 31.2953 16.7025 31.2953C15.0378 31.2953 13.7704 31.0912 12.2668 30.5864C7.33708 28.9324 3.73913 24.7975 2.70807 19.61C2.43957 18.203 2.46105 15.765 2.77252 14.3365C3.41692 11.2863 4.77018 8.85906 6.96118 6.76473C10.1403 3.74674 14.533 2.32904 18.7861 2.98419Z" fill="white" stroke="#163057" stroke-width="0.6"/>
<path d="M16.1977 7.43061C16.0366 7.54876 15.4352 8.65499 14.7263 10.1479L13.5127 12.6503L11.021 13.0155C9.64624 13.2088 8.33594 13.4129 8.09966 13.4558C7.58413 13.574 7.29415 13.8962 7.29415 14.358C7.28341 14.648 7.53043 14.9272 9.39922 16.7531L11.5258 18.8152L11.0532 21.5861C10.7632 23.2938 10.6129 24.4645 10.6558 24.6471C10.7525 25.023 11.2895 25.313 11.6761 25.2163C11.8372 25.1734 13.0294 24.5826 14.329 23.906C15.6285 23.2186 16.7347 22.6602 16.7992 22.6602C16.8529 22.6602 18.0236 23.2509 19.3876 23.9705C20.7623 24.6901 21.9974 25.27 22.1585 25.27C22.5881 25.27 22.9748 24.8297 22.9748 24.3464C22.9748 24.1208 22.7707 22.7783 22.5344 21.3606L22.0833 18.783L24.1347 16.7746C25.3484 15.5931 26.2183 14.6587 26.2505 14.4976C26.3472 14.1432 26.1109 13.6599 25.7672 13.4988C25.6169 13.4236 24.2636 13.2088 22.7385 13.0155L19.989 12.6611L18.7754 10.1479C18.0558 8.64425 17.4543 7.5595 17.304 7.43061C16.971 7.17285 16.5199 7.17285 16.1977 7.43061ZM18.915 14.1325C19.0546 14.2291 20.1179 14.4332 21.2993 14.5943L23.4473 14.895L21.8148 16.4631C20.3327 17.8915 20.1823 18.0741 20.1823 18.4071C20.1823 18.6111 20.3327 19.5885 20.5045 20.5981C20.6871 21.5969 20.8267 22.4776 20.8267 22.5528C20.8267 22.6387 19.989 22.2628 18.8398 21.6613C17.3684 20.9095 16.7777 20.6625 16.6059 20.7055C16.477 20.7484 15.5533 21.2102 14.5545 21.7365C13.5449 22.252 12.7072 22.6709 12.6857 22.6387C12.6642 22.6172 12.8146 21.6506 13.0294 20.4906C13.2764 19.0944 13.3731 18.3104 13.3194 18.1493C13.2657 18.0204 12.5246 17.2364 11.6761 16.3986L10.1295 14.895L12.2776 14.5943C13.4697 14.4225 14.5223 14.2399 14.6297 14.1862C14.7478 14.1325 15.2633 13.1873 15.7896 12.0918L16.7455 10.1049L17.7014 12.0381C18.2921 13.2303 18.7646 14.0466 18.915 14.1325Z" fill="white" stroke="#163057" stroke-width="0.6"/>
</svg>
