<svg width="68" height="81" viewBox="0 0 68 81" fill="none" xmlns="http://www.w3.org/2000/svg">
<path fill-rule="evenodd" clip-rule="evenodd" d="M64.7076 19.9007L66.5491 15.2955C66.5491 15.2955 64.2053 12.737 61.3593 9.83745C58.5134 6.93786 52.4866 8.6435 52.4866 8.6435L45.6227 0.709717H21.5155L14.6517 8.6435C14.6517 8.6435 8.62488 6.93786 5.77889 9.83745C2.9329 12.737 0.589147 15.2955 0.589147 15.2955L2.43067 19.9007L0.0869141 26.7233C0.0869141 26.7233 6.98006 53.3236 7.78782 56.572C9.37822 62.9682 10.4664 65.4413 14.9865 68.6821C19.5066 71.9228 27.7097 77.5514 29.049 78.4042C30.3883 79.257 32.0624 80.7097 33.5691 80.7097C35.0758 80.7097 36.7499 79.257 38.0892 78.4042C39.4285 77.5514 47.6316 71.9228 52.1517 68.6821C56.6718 65.4413 57.76 62.9682 59.3504 56.572C60.158 53.3236 67.0513 26.7233 67.0513 26.7233L64.7076 19.9007Z" fill="url(#paint0_linear_66_718)"/>
<path fill-rule="evenodd" clip-rule="evenodd" d="M33.5732 50.4953C34.0321 50.4953 36.9721 51.5528 39.3314 52.7966C41.6906 54.0405 43.4004 54.9201 43.947 55.2686C44.4934 55.6172 44.1601 56.2744 43.6624 56.6329C43.1645 56.9915 36.4746 62.2694 35.8254 62.8527C35.176 63.4362 34.2219 64.3997 33.5732 64.3997C32.9245 64.3997 31.9702 63.4362 31.321 62.8527C30.6716 62.2694 23.9819 56.9915 23.484 56.6329C22.9861 56.2744 22.653 55.6172 23.1994 55.2686C23.746 54.9201 25.4558 54.0405 27.8151 52.7966C30.1741 51.5528 33.1143 50.4953 33.5732 50.4953ZM33.6091 12.9037C33.8344 12.9101 35.1038 12.9729 36.9214 13.5902C38.9304 14.2724 41.1067 15.1252 42.1112 15.1252C43.1156 15.1252 50.5654 13.6755 50.5654 13.6755C50.5654 13.6755 59.394 24.5489 59.394 26.8728C59.394 29.1968 58.2834 29.8101 57.1668 31.0182C56.0501 32.2263 51.1733 37.5026 50.547 38.18C49.9207 38.8577 48.6169 39.885 49.3838 41.7341C50.1507 43.5832 51.2821 45.9361 50.024 48.3226C48.7658 50.7092 46.6103 52.3021 45.2292 52.0387C43.8481 51.7752 40.6045 50.0482 39.4117 49.2594C38.2189 48.4705 34.4384 45.2939 34.4384 44.0785C34.4384 42.8632 38.3463 40.681 39.0681 40.1852C39.7904 39.6895 43.0833 37.7705 43.1508 37.0173C43.2181 36.2639 43.1925 36.043 42.2207 34.1819C41.2488 32.3205 39.4987 29.8367 39.79 28.1841C40.0813 26.5317 42.9039 25.6724 44.9181 24.8974C46.9321 24.1225 50.8102 22.6589 51.2945 22.4314C51.7792 22.2037 51.6539 21.9869 50.1862 21.8451C48.7189 21.7034 44.5544 21.1402 42.6769 21.6734C40.7993 22.2066 37.5917 23.0178 37.3319 23.4479C37.0721 23.8781 36.8429 23.8926 37.1098 25.3765C37.3765 26.8604 38.7502 33.9808 38.8835 35.2455C39.0169 36.5102 39.2777 37.3463 37.9393 37.6581C36.6007 37.9699 34.3475 38.5113 33.5732 38.5113C32.7989 38.5113 30.5456 37.9699 29.2071 37.6581C27.8685 37.3463 28.1293 36.5102 28.2628 35.2455C28.3962 33.9808 29.7698 26.8604 30.0366 25.3765C30.3033 23.8926 30.0742 23.8781 29.8145 23.4479C29.5547 23.0178 26.3469 22.2066 24.4694 21.6734C22.5919 21.1402 18.4275 21.7034 16.96 21.8451C15.4925 21.9869 15.3673 22.2037 15.8518 22.4314C16.3362 22.6589 20.2143 24.1225 22.2283 24.8974C24.2424 25.6724 27.0651 26.5317 27.3564 28.1841C27.6477 29.8367 25.8974 32.3205 24.9258 34.1819C23.9539 36.043 23.9282 36.2639 23.9956 37.0173C24.0629 37.7705 27.3561 39.6895 28.0781 40.1852C28.8002 40.681 32.7079 42.8632 32.7079 44.0785C32.7079 45.2939 28.9276 48.4705 27.7348 49.2594C26.542 50.0482 23.2984 51.7752 21.9172 52.0387C20.5361 52.3021 18.3807 50.7092 17.1224 48.3226C15.8643 45.9361 16.9957 43.5832 17.7624 41.7341C18.5293 39.885 17.2257 38.8577 16.5992 38.18C15.9731 37.5026 11.0961 32.2263 9.97948 31.0182C8.86284 29.8101 7.75241 29.1968 7.75241 26.8728C7.75241 24.5489 16.581 13.6755 16.581 13.6755C16.581 13.6755 24.0308 15.1252 25.0352 15.1252C26.0397 15.1252 28.2161 14.2724 30.225 13.5902C32.0426 12.9729 33.312 12.9101 33.5373 12.9037H33.6091Z" fill="white"/>
<path d="M52.4866 8.6435L45.6227 0.709717H21.5155L14.6517 8.6435C14.6517 8.6435 8.62488 6.93786 5.77889 9.83745C5.77889 9.83745 13.8155 9.0984 16.5778 13.6751C16.5778 13.6751 24.0275 15.1249 25.032 15.1249C26.0365 15.1249 28.2128 14.2721 30.2218 13.5899C32.2307 12.9076 33.57 12.9027 33.57 12.9027C33.57 12.9027 34.9093 12.9076 36.9182 13.5899C38.9271 14.2721 41.1035 15.1249 42.1079 15.1249C43.1124 15.1249 50.5622 13.6751 50.5622 13.6751C53.3245 9.0984 61.3593 9.83745 61.3593 9.83745C58.5134 6.93786 52.4866 8.6435 52.4866 8.6435Z" fill="url(#paint1_linear_66_718)"/>
<defs>
<linearGradient id="paint0_linear_66_718" x1="0.0869141" y1="4057.15" x2="6696.53" y2="4057.15" gradientUnits="userSpaceOnUse">
<stop stop-color="#FF5500"/>
<stop offset="0.409877" stop-color="#FF5500"/>
<stop offset="0.581981" stop-color="#FF2000"/>
<stop offset="1" stop-color="#FF2000"/>
</linearGradient>
<linearGradient id="paint1_linear_66_718" x1="125.191" y1="731.641" x2="5563.83" y2="731.641" gradientUnits="userSpaceOnUse">
<stop stop-color="#FF452A"/>
<stop offset="1" stop-color="#FF2000"/>
</linearGradient>
</defs>
</svg>
