<svg width="22" height="20" viewBox="0 0 22 20" fill="none" xmlns="http://www.w3.org/2000/svg">
<path d="M8.78552 14.125H12.8646" stroke="white" stroke-width="1.40736" stroke-linecap="round" stroke-linejoin="round"/>
<path d="M1.61609 4.72705H20.4027V15.4681C20.4027 17.5861 18.6858 19.303 16.5679 19.303H5.4509C3.333 19.303 1.61609 17.5861 1.61609 15.4681V4.72705Z" stroke="white" stroke-width="1.40736"/>
<path d="M1.61829 4.42446L4.09122 1.62042C4.4552 1.2077 4.97898 0.971261 5.52928 0.971263L16.5776 0.971303C17.1414 0.971305 17.6767 1.21948 18.041 1.64983L20.408 4.44579" stroke="white" stroke-width="1.40736" stroke-linecap="round"/>
<path d="M8.6543 4.72218H13.3635L12.6262 0.97179H9.3916L8.6543 4.72218Z" stroke="white" stroke-width="1.40736"/>
<path d="M8.6543 4.72705H13.3635V7.65825C13.3635 8.34953 12.6541 8.81359 12.0207 8.53667L11.393 8.26219C11.1481 8.15514 10.8697 8.15514 10.6248 8.26219L9.99706 8.53667C9.36368 8.81359 8.6543 8.34953 8.6543 7.65825V4.72705Z" stroke="white" stroke-width="1.40736"/>
</svg>
