<svg width="259" height="58" viewBox="0 0 259 58" fill="none" xmlns="http://www.w3.org/2000/svg">
<path d="M27.2357 57.4412C23.3957 57.4412 19.8224 56.7479 16.5157 55.3612C13.209 53.9212 10.329 51.9212 7.87569 49.3612C5.42236 46.8012 3.50236 43.8412 2.11569 40.4812C0.78236 37.0679 0.115693 33.4146 0.115693 29.5212C0.115693 25.5746 0.78236 21.9212 2.11569 18.5612C3.44903 15.2012 5.31569 12.2679 7.71569 9.76123C10.169 7.25457 13.0224 5.3079 16.2757 3.92123C19.529 2.48123 23.049 1.76123 26.8357 1.76123C30.729 1.76123 34.3557 2.5079 37.7157 4.00123C41.0757 5.49456 43.9824 7.57456 46.4357 10.2412L44.5957 12.0812C42.4624 9.6279 39.849 7.7079 36.7557 6.32123C33.7157 4.93457 30.409 4.24123 26.8357 4.24123C23.4224 4.24123 20.249 4.88123 17.3157 6.16123C14.4357 7.44123 11.9024 9.2279 9.71569 11.5212C7.52903 13.8146 5.82236 16.5079 4.59569 19.6012C3.42236 22.6412 2.83569 25.9479 2.83569 29.5212C2.83569 33.0946 3.44903 36.4279 4.67569 39.5212C5.90236 42.6146 7.58236 45.3346 9.71569 47.6812C11.9024 49.9746 14.4624 51.7612 17.3957 53.0412C20.3824 54.3212 23.5824 54.9612 26.9957 54.9612C30.6224 54.9612 33.9824 54.2679 37.0757 52.8812C40.2224 51.4412 42.8624 49.4946 44.9957 47.0412L46.8357 48.8812C44.4357 51.5479 41.5557 53.6546 38.1957 55.2012C34.8357 56.6946 31.1824 57.4412 27.2357 57.4412ZM85.9657 56.6412V34.6412C85.9657 30.6412 84.819 27.4146 82.5257 24.9612C80.2324 22.5079 77.1657 21.2812 73.3257 21.2812C70.7124 21.2812 68.3924 21.8679 66.3657 23.0412C64.3924 24.1612 62.819 25.7079 61.6457 27.6812C60.5257 29.6546 59.9657 31.9479 59.9657 34.5612L58.2857 33.6012C58.2857 30.8279 58.9524 28.3479 60.2857 26.1612C61.6724 23.9746 63.5124 22.2412 65.8057 20.9612C68.1524 19.6812 70.7924 19.0412 73.7257 19.0412C76.659 19.0412 79.219 19.7079 81.4057 21.0412C83.6457 22.3746 85.379 24.2146 86.6057 26.5612C87.8324 28.9079 88.4457 31.6012 88.4457 34.6412V56.6412H85.9657ZM57.4857 56.6412V0.961232H59.9657V56.6412H57.4857ZM117.014 57.4412C113.441 57.4412 110.214 56.5879 107.334 54.8812C104.508 53.1746 102.241 50.8546 100.534 47.9212C98.8811 44.9879 98.0544 41.7079 98.0544 38.0812C98.0544 34.5079 98.8811 31.2812 100.534 28.4012C102.241 25.5212 104.508 23.2546 107.334 21.6012C110.214 19.8946 113.441 19.0412 117.014 19.0412C120.534 19.0412 123.708 19.8946 126.534 21.6012C129.414 23.2546 131.681 25.5212 133.334 28.4012C135.041 31.2812 135.894 34.5079 135.894 38.0812C135.894 41.7612 135.041 45.0679 133.334 48.0012C131.681 50.8812 129.414 53.1746 126.534 54.8812C123.708 56.5879 120.534 57.4412 117.014 57.4412ZM117.014 55.1212C120.108 55.1212 122.881 54.3746 125.334 52.8812C127.788 51.3879 129.734 49.3612 131.174 46.8012C132.614 44.1879 133.334 41.2546 133.334 38.0012C133.334 34.8546 132.614 32.0279 131.174 29.5212C129.734 27.0146 127.788 25.0412 125.334 23.6012C122.881 22.1079 120.108 21.3612 117.014 21.3612C113.921 21.3612 111.121 22.1079 108.614 23.6012C106.161 25.0412 104.214 27.0146 102.774 29.5212C101.334 32.0279 100.614 34.8812 100.614 38.0812C100.614 41.3346 101.334 44.2412 102.774 46.8012C104.214 49.3612 106.161 51.3879 108.614 52.8812C111.121 54.3746 113.921 55.1212 117.014 55.1212ZM162.874 57.4412C159.3 57.4412 156.074 56.5879 153.194 54.8812C150.367 53.1746 148.1 50.8546 146.394 47.9212C144.74 44.9879 143.914 41.7079 143.914 38.0812C143.914 34.5079 144.74 31.2812 146.394 28.4012C148.1 25.5212 150.367 23.2546 153.194 21.6012C156.074 19.8946 159.3 19.0412 162.874 19.0412C166.394 19.0412 169.567 19.8946 172.394 21.6012C175.274 23.2546 177.54 25.5212 179.194 28.4012C180.9 31.2812 181.754 34.5079 181.754 38.0812C181.754 41.7612 180.9 45.0679 179.194 48.0012C177.54 50.8812 175.274 53.1746 172.394 54.8812C169.567 56.5879 166.394 57.4412 162.874 57.4412ZM162.874 55.1212C165.967 55.1212 168.74 54.3746 171.194 52.8812C173.647 51.3879 175.594 49.3612 177.034 46.8012C178.474 44.1879 179.194 41.2546 179.194 38.0012C179.194 34.8546 178.474 32.0279 177.034 29.5212C175.594 27.0146 173.647 25.0412 171.194 23.6012C168.74 22.1079 165.967 21.3612 162.874 21.3612C159.78 21.3612 156.98 22.1079 154.474 23.6012C152.02 25.0412 150.074 27.0146 148.634 29.5212C147.194 32.0279 146.474 34.8812 146.474 38.0812C146.474 41.3346 147.194 44.2412 148.634 46.8012C150.074 49.3612 152.02 51.3879 154.474 52.8812C156.98 54.3746 159.78 55.1212 162.874 55.1212ZM202.733 57.4412C200.76 57.4412 198.893 57.1746 197.133 56.6412C195.427 56.0546 193.88 55.2812 192.493 54.3212C191.107 53.3079 189.88 52.1612 188.813 50.8812L190.493 49.1212C192.093 51.2012 193.933 52.7479 196.013 53.7612C198.093 54.7212 200.36 55.2012 202.813 55.2012C205.853 55.2012 208.28 54.5612 210.093 53.2812C211.907 51.9479 212.813 50.1346 212.813 47.8412C212.813 45.8146 212.28 44.2146 211.213 43.0412C210.2 41.8679 208.867 40.9612 207.213 40.3212C205.56 39.6812 203.8 39.0946 201.933 38.5612C200.12 38.0279 198.387 37.4146 196.733 36.7212C195.08 35.9746 193.72 34.9612 192.653 33.6812C191.64 32.3479 191.133 30.5612 191.133 28.3212C191.133 26.5079 191.613 24.9079 192.573 23.5212C193.533 22.1346 194.893 21.0412 196.653 20.2412C198.413 19.4412 200.493 19.0412 202.893 19.0412C205.507 19.0412 207.907 19.5212 210.093 20.4812C212.28 21.3879 213.987 22.7212 215.213 24.4812L213.533 26.1612C212.467 24.6679 210.973 23.4946 209.053 22.6412C207.133 21.7346 205 21.2812 202.653 21.2812C199.667 21.2812 197.4 21.9479 195.853 23.2812C194.307 24.6146 193.533 26.2679 193.533 28.2412C193.533 30.1079 194.04 31.5746 195.053 32.6412C196.12 33.7079 197.48 34.5346 199.133 35.1212C200.787 35.7079 202.52 36.2679 204.333 36.8012C206.2 37.2812 207.96 37.9212 209.613 38.7212C211.267 39.4679 212.6 40.5346 213.613 41.9212C214.68 43.2546 215.213 45.1212 215.213 47.5212C215.213 50.5612 214.067 52.9879 211.773 54.8012C209.533 56.5612 206.52 57.4412 202.733 57.4412ZM242.413 57.4412C238.733 57.4412 235.426 56.6146 232.493 54.9612C229.613 53.2546 227.319 50.9612 225.613 48.0812C223.959 45.1479 223.133 41.8412 223.133 38.1612C223.133 34.5346 223.933 31.2812 225.533 28.4012C227.186 25.5212 229.426 23.2546 232.253 21.6012C235.133 19.8946 238.359 19.0412 241.933 19.0412C245.239 19.0412 248.146 19.7879 250.653 21.2812C253.213 22.7212 255.213 24.7479 256.653 27.3612C258.093 29.9746 258.813 32.9879 258.813 36.4012C258.813 36.6146 258.786 36.9612 258.733 37.4412C258.733 37.8679 258.679 38.4279 258.573 39.1212H224.893V36.8012H256.973L256.253 37.3612C256.466 34.2146 255.986 31.4412 254.813 29.0412C253.639 26.6412 251.933 24.7746 249.693 23.4412C247.506 22.0546 244.893 21.3612 241.853 21.3612C238.653 21.3612 235.826 22.0812 233.373 23.5212C230.973 24.9079 229.079 26.8546 227.693 29.3612C226.359 31.8146 225.693 34.6946 225.693 38.0012C225.693 41.4146 226.386 44.4012 227.773 46.9612C229.213 49.5212 231.213 51.5212 233.773 52.9612C236.333 54.4012 239.319 55.1212 242.733 55.1212C245.293 55.1212 247.639 54.6412 249.773 53.6812C251.959 52.7212 253.799 51.2812 255.293 49.3612L256.973 51.0412C255.319 53.0146 253.213 54.5879 250.653 55.7612C248.146 56.8812 245.399 57.4412 242.413 57.4412Z" fill="url(#paint0_linear_240_218)" fill-opacity="0.6"/>
<defs>
<linearGradient id="paint0_linear_240_218" x1="128.836" y1="-53.3459" x2="128.836" y2="56.6412" gradientUnits="userSpaceOnUse">
<stop stop-color="white"/>
<stop offset="1" stop-color="#070E2E"/>
</linearGradient>
</defs>
</svg>
