<svg width="80" height="81" viewBox="0 0 80 81" fill="none" xmlns="http://www.w3.org/2000/svg">
<path d="M38.9548 1.45456C38.9548 1.45456 62.0164 -0.0572572 74.7342 22.8769L37.4559 23.6558C37.4559 23.6558 30.41 23.5712 24.5877 32.238C22.9305 35.8531 21.1626 39.5857 23.3914 46.8116C20.2849 41.7969 6.88784 19.56 6.88784 19.56C6.88784 19.56 15.6609 2.86519 38.9548 1.45456Z" fill="#EA4335"/>
<path d="M74.3057 59.6426C74.3057 59.6426 64.0891 80.3742 37.866 79.9137L55.8297 47.2415C55.8297 47.2415 59.4256 41.1827 54.835 31.8041C52.533 28.5629 50.1865 25.1644 42.8124 23.4796C48.7096 23.2989 74.6632 22.8141 74.6632 22.8141C74.6632 22.8141 84.7331 38.7647 74.3057 59.6426Z" fill="#FBBC05"/>
<path d="M6.24342 61.222C6.24342 61.222 -6.60353 42.0005 6.91254 19.523L26.2219 51.4236C26.2219 51.4236 29.6701 57.5672 40.0867 58.2806C44.044 57.9085 48.1603 57.5726 53.3074 52.0332C50.5132 57.2305 37.9511 79.9487 37.9511 79.9487C37.9511 79.9487 19.1064 80.693 6.24342 61.222Z" fill="#34A853"/>
<path d="M22.2215 41.3603C22.1489 37.9054 23.1025 34.5065 24.9616 31.5936C26.8207 28.6807 29.5019 26.3845 32.666 24.9954C35.8301 23.6063 39.335 23.1868 42.7376 23.7898C46.1402 24.3928 49.2875 25.9912 51.7816 28.3831C54.2757 30.7749 56.0045 33.8526 56.7495 37.227C57.4944 40.6014 57.222 44.121 55.9667 47.3405C54.7113 50.5601 52.5295 53.3351 49.697 55.3146C46.8646 57.2941 43.5087 58.3892 40.0539 58.4614C35.4216 58.5582 30.9404 56.8109 27.5963 53.6039C24.2521 50.3968 22.3187 45.9927 22.2215 41.3603Z" fill="white"/>
<path d="M25.1455 41.2993C25.085 38.4229 25.8788 35.5932 27.4263 33.1679C28.9739 30.7427 31.2058 28.8307 33.8398 27.6738C36.4739 26.5169 39.3918 26.167 42.2247 26.6683C45.0576 27.1696 47.6782 28.4997 49.7553 30.4903C51.8324 32.4809 53.2726 35.0427 53.8939 37.8518C54.5152 40.6609 54.2897 43.5912 53.2458 46.2721C52.202 48.953 50.3866 51.2642 48.0294 52.9135C45.6722 54.5628 42.8789 55.4761 40.0026 55.538C38.0921 55.5791 36.1921 55.2434 34.4113 54.55C32.6306 53.8566 31.0039 52.8191 29.6241 51.4968C28.2444 50.1745 27.1388 48.5933 26.3703 46.8436C25.6018 45.0939 25.1856 43.2099 25.1455 41.2993Z" fill="#4285F4"/>
</svg>
