<svg width="85" height="85" viewBox="0 0 85 85" fill="none" xmlns="http://www.w3.org/2000/svg">
<path d="M41.0156 5.40469C40.3271 5.66837 39.5947 6.31291 35.1707 10.6636L30.1022 15.6149L24.5357 15.6588L18.9545 15.7028L18.1488 16.0837C16.9769 16.6257 16.3177 17.2702 15.7757 18.3835L15.2923 19.365L15.2484 24.785L15.2044 30.2051L12.7288 32.6954C10.927 34.5118 10.1652 35.3908 9.9162 35.9181C9.57928 36.6506 9.57928 36.7092 9.53533 43.6673C9.49139 51.2994 9.47674 51.1968 10.3117 51.5191C10.7512 51.6802 11.5129 51.4458 11.7034 51.0796C11.7912 50.9038 11.8498 48.2085 11.8498 44.1361C11.8498 40.4739 11.9084 37.4416 11.967 37.3977C12.0403 37.3537 17.3285 42.5247 23.73 48.897C30.1315 55.2545 35.3026 60.4988 35.2147 60.5427C35.1414 60.572 29.8679 63.4725 23.4956 66.9736L11.9231 73.3311L11.8498 63.9852C11.7912 56.5436 11.7327 54.5953 11.5862 54.4049C11.0295 53.7457 9.72577 54.0826 9.57928 54.9323C9.53533 55.1813 9.50604 60.1765 9.53533 66.0214L9.57928 76.6418L9.9162 77.3156C10.4143 78.3117 11.1321 79.0881 12.011 79.5715L12.802 80.011L34.1307 80.0549L55.4593 80.0842L55.723 79.7913C56.0745 79.3957 56.0745 78.5754 55.7376 78.1945C55.4593 77.9016 55.3568 77.8869 34.5555 77.8576L13.6663 77.8137L13.051 77.4181C12.4211 76.9933 11.8791 76.173 12.0989 75.9826C12.4358 75.6896 41.9824 59.5613 42.4072 59.4441C42.7148 59.3562 43.0957 59.3562 43.418 59.4441C43.8575 59.5613 73.3748 75.6896 73.7117 75.9826C73.9314 76.173 73.3894 76.9933 72.7595 77.4181L72.1443 77.8137L65.5963 77.8576C59.268 77.9016 59.0336 77.9162 58.7846 78.1945C58.4477 78.5754 58.4477 79.3957 58.7992 79.7913C59.0629 80.0842 59.1947 80.0842 65.7427 80.0842C69.6686 80.0842 72.6423 80.0256 72.9353 79.9377C73.7703 79.7034 74.7811 78.9856 75.3377 78.2238C76.3778 76.8029 76.3192 77.9602 76.2752 56.2067L76.2313 36.6506L75.8944 35.9181C75.6453 35.3908 74.8836 34.5118 73.0818 32.6954L70.5915 30.1904V28.916C70.5915 27.583 70.3864 26.8798 69.9323 26.704C69.4928 26.5429 69.0241 26.6161 68.6286 26.9238L68.2477 27.2167V33.252V39.2873L58.2572 49.2778L48.2521 59.2683L46.5675 58.3161C44.6485 57.2468 44.0625 57.0563 42.832 57.0563C41.7627 57.071 40.9716 57.3493 39.0234 58.448L37.5585 59.2683L27.5533 49.2778L17.5629 39.2873L17.5922 29.5459L17.6361 19.8045L17.973 19.2624C18.1635 18.9695 18.559 18.574 18.852 18.3835L19.394 18.0466H42.9053H66.4166L66.9586 18.3835C67.9694 19.0134 68.1744 19.5408 68.2184 21.7527C68.277 23.6278 68.2916 23.701 68.6432 23.9794C69.3756 24.5507 70.3132 24.2137 70.5329 23.3202C70.5769 23.1151 70.6062 22.1336 70.5622 21.1375C70.5036 19.4675 70.4743 19.2624 70.0349 18.3689C69.4928 17.2702 68.819 16.6257 67.6617 16.0837L66.8561 15.7028L61.2749 15.6588L55.7083 15.6149L50.6398 10.6636C46.0694 6.18108 45.4981 5.66837 44.751 5.39004C43.6524 4.97987 42.0996 4.97987 41.0156 5.40469ZM44.1065 7.76315C44.3995 7.93893 46.3624 9.78468 48.4572 11.8502L52.2659 15.6295H42.9053H33.5594L37.4413 11.7769C39.5654 9.66749 41.5283 7.82174 41.7773 7.6899C42.4512 7.32368 43.4473 7.35298 44.1065 7.76315ZM15.2191 35.2882V36.9142L14.3694 36.1232L13.5198 35.3322L14.3255 34.4825C14.765 34.0284 15.1605 33.6476 15.1751 33.6476C15.2044 33.6476 15.2191 34.38 15.2191 35.2882ZM72.3054 35.3322C72.2908 35.3468 71.8952 35.6984 71.4411 36.1379L70.5915 36.9142V35.2443V33.589L71.4704 34.4532C71.9538 34.922 72.3201 35.3175 72.3054 35.3322ZM73.9314 55.445L73.8875 73.3311L62.3149 66.9736C55.9574 63.4725 50.6838 60.572 50.5959 60.5427C50.5227 60.4988 55.6937 55.2545 62.0952 48.897C68.4967 42.5247 73.7849 37.3684 73.8435 37.4269C73.9168 37.5002 73.9461 45.601 73.9314 55.445Z" fill="white"/>
<path d="M40.9277 24.331C36.5916 25.1953 33.1931 28.418 32.1238 32.6955C31.7722 34.1457 31.8015 36.5921 32.197 38.1009C33.3836 42.5688 37.2655 45.9233 41.7334 46.3335C43.0811 46.4653 43.4619 46.3481 43.7256 45.7329C44.1358 44.7368 43.5645 44.1362 42.0996 44.0043C40.8398 43.9018 39.1991 43.2865 38.0272 42.4809C34.3797 40.0052 33.1931 35.303 35.1854 31.3038C35.8739 29.9122 37.6757 28.1397 39.0966 27.4366C41.1914 26.4258 43.4033 26.2354 45.5421 26.8946C48.1935 27.7149 50.6105 30.1319 51.343 32.6808C51.841 34.468 51.3283 37.6761 50.3469 38.7308C49.8927 39.2435 48.8234 39.6976 48.3839 39.5951C48.1935 39.5365 47.9298 39.3314 47.7833 39.1263C47.5636 38.7747 47.5489 38.262 47.5782 34.1018C47.6075 30.7618 47.5636 29.3555 47.4464 29.0772C47.256 28.6817 46.7433 28.3741 46.2598 28.3741C45.8204 28.3741 45.2491 29.0186 45.2491 29.5167V29.9415L44.5313 29.5899C42.8027 28.7257 40.6347 29.0919 39.1259 30.4835C37.7928 31.7287 37.2069 33.1642 37.1922 35.1858C37.1922 37.0755 37.7489 38.5843 38.9208 39.8441C40.3857 41.4115 42.4805 41.851 44.2969 41.0013C44.7803 40.767 45.2637 40.474 45.3809 40.3421C45.5567 40.1224 45.6006 40.1371 45.8936 40.5619C46.8458 41.9682 48.7794 42.349 50.6105 41.4701C52.5735 40.5326 53.9212 37.7493 53.9358 34.5998C53.9505 32.9152 53.7307 31.9923 52.9397 30.3517C51.841 28.0665 50.2736 26.5137 47.9591 25.3711C47.2413 25.0049 46.2452 24.6093 45.7618 24.4921C44.502 24.1699 42.1728 24.0966 40.9277 24.331ZM43.8721 31.963C45.3809 33.1203 45.6006 36.2698 44.2823 38.013C42.4219 40.4447 39.3163 38.3353 39.5653 34.8342C39.7558 32.1974 42.1289 30.63 43.8721 31.963Z" fill="white"/>
</svg>
