<svg width="241" height="83" viewBox="0 0 241 83" fill="none" xmlns="http://www.w3.org/2000/svg">
<path d="M13.5006 24.4048H78.3319" stroke="white" stroke-width="2.5625" stroke-miterlimit="10" stroke-linecap="round" stroke-linejoin="round"/>
<path d="M58.088 19.0234H62.5723" stroke="white" stroke-width="2.5625" stroke-miterlimit="10" stroke-linecap="round" stroke-linejoin="round"/>
<path d="M68.4661 19.0234H72.9505" stroke="white" stroke-width="2.5625" stroke-miterlimit="10" stroke-linecap="round" stroke-linejoin="round"/>
<path d="M40.0224 39.2676L36.3067 47.9801L32.5911 39.2676" stroke="white" stroke-width="2.5625" stroke-miterlimit="10" stroke-linecap="round" stroke-linejoin="round"/>
<path d="M43.4818 47.9801V39.2676H47.4537C48.6068 39.2676 49.6318 40.2926 49.6318 41.4457C49.6318 42.5988 48.6068 43.6238 47.4537 43.6238H43.4818" stroke="white" stroke-width="2.5625" stroke-miterlimit="10" stroke-linecap="round" stroke-linejoin="round"/>
<path d="M53.2194 47.9801V39.2676L59.3694 47.9801V39.2676" stroke="white" stroke-width="2.5625" stroke-miterlimit="10" stroke-linecap="round" stroke-linejoin="round"/>
<path d="M19.7786 71.2987H7.22237C5.3005 71.2987 3.763 69.7612 3.763 67.8394V55.2831C3.763 53.3612 5.3005 51.8237 7.22237 51.8237H19.7786C21.7005 51.8237 23.238 53.3612 23.238 55.2831V67.8394C23.3661 69.7612 21.8286 71.2987 19.7786 71.2987Z" stroke="white" stroke-width="2.5625" stroke-miterlimit="10" stroke-linecap="round" stroke-linejoin="round"/>
<path d="M19.7786 51.6954V46.186C19.7786 44.3923 18.3692 42.9829 16.5755 42.9829H10.4255C8.63173 42.9829 7.22235 44.3923 7.22235 46.186V51.6954" stroke="white" stroke-width="2.5625" stroke-miterlimit="10" stroke-linecap="round" stroke-linejoin="round"/>
<path d="M13.5006 38.883V17.6142C13.5006 14.6673 15.8069 12.3611 18.7537 12.3611H73.0787C75.8975 12.3611 78.3319 14.6673 78.3319 17.6142V60.1517C78.3319 63.0986 76.0256 65.4048 73.0787 65.4048H27.7225" stroke="white" stroke-width="2.5625" stroke-miterlimit="10" stroke-linecap="round" stroke-linejoin="round"/>
<path d="M13.5004 63.4827C15.0571 63.4827 16.3191 62.2207 16.3191 60.664C16.3191 59.1072 15.0571 57.8452 13.5004 57.8452C11.9436 57.8452 10.6816 59.1072 10.6816 60.664C10.6816 62.2207 11.9436 63.4827 13.5004 63.4827Z" stroke="white" stroke-width="2.5625" stroke-miterlimit="10" stroke-linecap="round" stroke-linejoin="round"/>
<path d="M13.5006 63.6111V66.6861" stroke="white" stroke-width="2.5625" stroke-miterlimit="10" stroke-linecap="round" stroke-linejoin="round"/>
<path d="M100.963 51.7729V34.2489H103.407V51.7729H100.963ZM94.8275 35.9649V33.7289H109.517V35.9649H94.8275ZM109.246 51.7729V39.4229H111.586V51.7729H109.246ZM111.586 44.7269L110.702 44.3369C110.702 42.7596 111.066 41.5029 111.794 40.5669C112.522 39.6309 113.571 39.1629 114.94 39.1629C115.564 39.1629 116.127 39.2756 116.63 39.5009C117.133 39.7089 117.601 40.0643 118.034 40.5669L116.5 42.1529C116.24 41.8756 115.954 41.6763 115.642 41.5549C115.33 41.4336 114.966 41.3729 114.55 41.3729C113.683 41.3729 112.973 41.6503 112.418 42.2049C111.863 42.7596 111.586 43.6003 111.586 44.7269ZM124.673 52.0329C123.651 52.0329 122.732 51.8076 121.917 51.3569C121.12 50.8889 120.496 50.2476 120.045 49.4329C119.595 48.6183 119.369 47.6736 119.369 46.5989V39.4229H121.709V46.4949C121.709 47.1709 121.822 47.7603 122.047 48.2629C122.29 48.7483 122.637 49.1209 123.087 49.3809C123.538 49.6409 124.067 49.7709 124.673 49.7709C125.592 49.7709 126.311 49.4849 126.831 48.9129C127.351 48.3236 127.611 47.5176 127.611 46.4949V39.4229H129.951V46.5989C129.951 47.6736 129.726 48.6183 129.275 49.4329C128.825 50.2476 128.201 50.8889 127.403 51.3569C126.623 51.8076 125.713 52.0329 124.673 52.0329ZM138.808 52.0329C137.577 52.0329 136.468 51.7556 135.48 51.2009C134.492 50.6289 133.712 49.8576 133.14 48.8869C132.568 47.9163 132.282 46.8156 132.282 45.5849C132.282 44.3716 132.559 43.2796 133.114 42.3089C133.686 41.3383 134.448 40.5756 135.402 40.0209C136.372 39.4489 137.456 39.1629 138.652 39.1629C139.796 39.1629 140.801 39.4229 141.668 39.9429C142.552 40.4629 143.236 41.1823 143.722 42.1009C144.224 43.0196 144.476 44.0596 144.476 45.2209C144.476 45.3943 144.467 45.5849 144.45 45.7929C144.432 45.9836 144.398 46.2089 144.346 46.4689H133.92V44.5189H143.098L142.24 45.2729C142.24 44.4409 142.092 43.7389 141.798 43.1669C141.503 42.5776 141.087 42.1269 140.55 41.8149C140.012 41.4856 139.362 41.3209 138.6 41.3209C137.802 41.3209 137.1 41.4943 136.494 41.8409C135.887 42.1876 135.419 42.6729 135.09 43.2969C134.76 43.9209 134.596 44.6576 134.596 45.5069C134.596 46.3736 134.769 47.1363 135.116 47.7949C135.462 48.4363 135.956 48.9389 136.598 49.3029C137.239 49.6496 137.976 49.8229 138.808 49.8229C139.501 49.8229 140.134 49.7016 140.706 49.4589C141.295 49.2163 141.798 48.8523 142.214 48.3669L143.722 49.9009C143.132 50.5943 142.404 51.1229 141.538 51.4869C140.688 51.8509 139.778 52.0329 138.808 52.0329ZM158.935 52.0329C157.999 52.0329 157.15 51.8423 156.387 51.4609C155.642 51.0623 155.044 50.5163 154.593 49.8229C154.143 49.1296 153.891 48.3409 153.839 47.4569V43.7389C153.891 42.8376 154.143 42.0489 154.593 41.3729C155.061 40.6796 155.668 40.1423 156.413 39.7609C157.176 39.3623 158.017 39.1629 158.935 39.1629C160.062 39.1629 161.076 39.4489 161.977 40.0209C162.896 40.5929 163.615 41.3643 164.135 42.3349C164.655 43.3056 164.915 44.3976 164.915 45.6109C164.915 46.8243 164.655 47.9163 164.135 48.8869C163.615 49.8576 162.896 50.6289 161.977 51.2009C161.076 51.7556 160.062 52.0329 158.935 52.0329ZM152.435 56.9469V39.4229H154.775V42.6729L154.333 45.6629L154.775 48.6789V56.9469H152.435ZM158.545 49.8229C159.325 49.8229 160.01 49.6409 160.599 49.2769C161.189 48.9129 161.657 48.4189 162.003 47.7949C162.35 47.1536 162.523 46.4169 162.523 45.5849C162.523 44.7703 162.35 44.0423 162.003 43.4009C161.657 42.7596 161.189 42.2656 160.599 41.9189C160.01 41.5549 159.334 41.3729 158.571 41.3729C157.791 41.3729 157.107 41.5549 156.517 41.9189C155.928 42.2656 155.469 42.7596 155.139 43.4009C154.81 44.0423 154.645 44.7789 154.645 45.6109C154.645 46.4256 154.801 47.1536 155.113 47.7949C155.443 48.4189 155.902 48.9129 156.491 49.2769C157.098 49.6409 157.783 49.8229 158.545 49.8229ZM167.568 51.7729V39.4229H169.908V51.7729H167.568ZM169.908 44.7269L169.024 44.3369C169.024 42.7596 169.388 41.5029 170.116 40.5669C170.844 39.6309 171.893 39.1629 173.262 39.1629C173.886 39.1629 174.45 39.2756 174.952 39.5009C175.455 39.7089 175.923 40.0643 176.356 40.5669L174.822 42.1529C174.562 41.8756 174.276 41.6763 173.964 41.5549C173.652 41.4336 173.288 41.3729 172.872 41.3729C172.006 41.3729 171.295 41.6503 170.74 42.2049C170.186 42.7596 169.908 43.6003 169.908 44.7269ZM178.03 51.7729V39.4229H180.37V51.7729H178.03ZM179.2 36.9529C178.766 36.9529 178.411 36.8143 178.134 36.5369C177.856 36.2423 177.718 35.8783 177.718 35.4449C177.718 35.0289 177.856 34.6823 178.134 34.4049C178.411 34.1103 178.766 33.9629 179.2 33.9629C179.633 33.9629 179.988 34.1103 180.266 34.4049C180.543 34.6823 180.682 35.0289 180.682 35.4449C180.682 35.8783 180.543 36.2423 180.266 36.5369C179.988 36.8143 179.633 36.9529 179.2 36.9529ZM188.056 51.7729L182.388 39.4229H184.988L189.538 49.8489H188.03L192.606 39.4229H195.102L189.434 51.7729H188.056ZM201.892 52.0329C200.766 52.0329 199.743 51.7556 198.824 51.2009C197.906 50.6289 197.178 49.8576 196.64 48.8869C196.12 47.9163 195.86 46.8243 195.86 45.6109C195.86 44.3976 196.12 43.3056 196.64 42.3349C197.178 41.3643 197.897 40.5929 198.798 40.0209C199.717 39.4489 200.748 39.1629 201.892 39.1629C202.828 39.1629 203.66 39.3623 204.388 39.7609C205.134 40.1423 205.732 40.6796 206.182 41.3729C206.633 42.0489 206.884 42.8376 206.936 43.7389V47.4569C206.884 48.3409 206.633 49.1296 206.182 49.8229C205.749 50.5163 205.16 51.0623 204.414 51.4609C203.686 51.8423 202.846 52.0329 201.892 52.0329ZM202.282 49.8229C203.444 49.8229 204.38 49.4329 205.09 48.6529C205.801 47.8556 206.156 46.8416 206.156 45.6109C206.156 44.7616 205.992 44.0249 205.662 43.4009C205.35 42.7596 204.9 42.2656 204.31 41.9189C203.721 41.5549 203.036 41.3729 202.256 41.3729C201.476 41.3729 200.783 41.5549 200.176 41.9189C199.587 42.2829 199.119 42.7856 198.772 43.4269C198.443 44.0509 198.278 44.7703 198.278 45.5849C198.278 46.4169 198.443 47.1536 198.772 47.7949C199.119 48.4189 199.596 48.9129 200.202 49.2769C200.809 49.6409 201.502 49.8229 202.282 49.8229ZM206 51.7729V48.4449L206.442 45.4289L206 42.4389V39.4229H208.366V51.7729H206ZM217.415 52.0329C216.202 52.0329 215.101 51.7469 214.113 51.1749C213.143 50.6029 212.371 49.8316 211.799 48.8609C211.245 47.8729 210.967 46.7809 210.967 45.5849C210.967 44.3716 211.245 43.2796 211.799 42.3089C212.371 41.3383 213.143 40.5756 214.113 40.0209C215.101 39.4489 216.202 39.1629 217.415 39.1629C218.369 39.1629 219.253 39.3449 220.067 39.7089C220.882 40.0556 221.584 40.5669 222.173 41.2429L220.613 42.8029C220.232 42.3523 219.764 42.0143 219.209 41.7889C218.672 41.5463 218.074 41.4249 217.415 41.4249C216.635 41.4249 215.942 41.6069 215.335 41.9709C214.729 42.3176 214.252 42.8029 213.905 43.4269C213.559 44.0509 213.385 44.7703 213.385 45.5849C213.385 46.3996 213.559 47.1189 213.905 47.7429C214.252 48.3669 214.729 48.8609 215.335 49.2249C215.942 49.5889 216.635 49.7709 217.415 49.7709C218.074 49.7709 218.672 49.6583 219.209 49.4329C219.764 49.1903 220.241 48.8436 220.639 48.3929L222.173 49.9529C221.601 50.6116 220.899 51.1229 220.067 51.4869C219.253 51.8509 218.369 52.0329 217.415 52.0329ZM228.55 51.8769L223.194 39.4229H225.794L229.772 49.1729H228.94L233.126 39.4229H235.726L229.954 51.8769H228.55ZM225.014 56.9469L228.654 49.4849L229.954 51.8769L227.614 56.9469H225.014Z" fill="white"/>
</svg>
