<svg width="321" height="83" viewBox="0 0 321 83" fill="none" xmlns="http://www.w3.org/2000/svg">
<path d="M59.1129 36.833C59.1129 46.8267 41.0473 69.7611 41.0473 69.7611C41.0473 69.7611 22.9817 46.8267 22.9817 36.833C22.9817 26.8392 31.0536 18.7673 41.0473 18.7673C51.0411 18.7673 59.1129 26.9673 59.1129 36.833Z" stroke="white" stroke-width="2.5625" stroke-miterlimit="10" stroke-linecap="round" stroke-linejoin="round"/>
<path d="M52.1942 62.4578H56.5504C60.3942 62.4578 63.5973 65.6609 63.5973 69.5046C63.5973 71.4265 62.8286 73.2203 61.5473 74.5015C60.2661 75.7828 58.4723 76.5515 56.5504 76.5515H25.5442C21.7004 76.5515 18.4973 73.3484 18.4973 69.5046C18.4973 67.5828 19.2661 65.789 20.5473 64.5078C21.8286 63.2265 23.6223 62.4578 25.5442 62.4578H29.9004" stroke="white" stroke-width="2.5625" stroke-miterlimit="10" stroke-linecap="round" stroke-linejoin="round"/>
<path d="M35.0255 35.5515L32.3349 42.0859L29.5161 35.5515" stroke="white" stroke-width="2.5625" stroke-miterlimit="10" stroke-linecap="round" stroke-linejoin="round"/>
<path d="M38.8691 38.8828V35.5515H41.816C42.7129 35.5515 43.4816 36.3203 43.4816 37.2171C43.4816 38.114 42.7129 38.8828 41.816 38.8828H38.8691ZM38.8691 38.8828V42.214" stroke="white" stroke-width="2.5625" stroke-miterlimit="10" stroke-linecap="round" stroke-linejoin="round"/>
<path d="M47.1974 42.0859V35.5515L51.938 42.0859V35.5515" stroke="white" stroke-width="2.5625" stroke-miterlimit="10" stroke-linecap="round" stroke-linejoin="round"/>
<path d="M53.3472 16.9736C57.319 16.9736 60.6503 20.1768 60.6503 24.2768" stroke="white" stroke-width="2.5625" stroke-miterlimit="10" stroke-linecap="round" stroke-linejoin="round"/>
<path d="M53.3472 12.2329C60.0097 12.2329 65.3909 17.6142 65.3909 24.2767" stroke="white" stroke-width="2.5625" stroke-miterlimit="10" stroke-linecap="round" stroke-linejoin="round"/>
<path d="M53.3472 7.10815C62.8284 7.10815 70.5159 14.7957 70.5159 24.2769" stroke="white" stroke-width="2.5625" stroke-miterlimit="10" stroke-linecap="round" stroke-linejoin="round"/>
<path d="M28.7473 16.9736C24.7755 16.9736 21.4442 20.1768 21.4442 24.2768" stroke="white" stroke-width="2.5625" stroke-miterlimit="10" stroke-linecap="round" stroke-linejoin="round"/>
<path d="M28.7472 12.2329C22.0847 12.2329 16.7035 17.6142 16.7035 24.2767" stroke="white" stroke-width="2.5625" stroke-miterlimit="10" stroke-linecap="round" stroke-linejoin="round"/>
<path d="M28.7472 7.10815C19.266 7.10815 11.5785 14.7957 11.5785 24.2769" stroke="white" stroke-width="2.5625" stroke-miterlimit="10" stroke-linecap="round" stroke-linejoin="round"/>
<path d="M102.939 51.5898C101.605 51.5898 100.409 51.2952 99.3515 50.7058C98.3115 50.0992 97.4882 49.2758 96.8815 48.2358C96.2748 47.1785 95.9715 45.9825 95.9715 44.6478V33.2858H98.4155V44.5958C98.4155 45.5492 98.6148 46.3725 99.0135 47.0658C99.4122 47.7592 99.9495 48.2965 100.625 48.6778C101.319 49.0592 102.09 49.2498 102.939 49.2498C103.823 49.2498 104.595 49.0592 105.253 48.6778C105.929 48.2965 106.458 47.7592 106.839 47.0658C107.238 46.3725 107.437 45.5578 107.437 44.6218V33.2858H109.907V44.6738C109.907 46.0085 109.604 47.1958 108.997 48.2358C108.391 49.2758 107.567 50.0992 106.527 50.7058C105.487 51.2952 104.291 51.5898 102.939 51.5898ZM113.512 51.3298V32.7658H115.852V51.3298H113.512ZM121.173 51.3298V33.8058H123.513V51.3298H121.173ZM118.131 41.1118V38.9798H126.555V41.1118H118.131ZM128.847 51.3298V38.9798H131.187V51.3298H128.847ZM131.187 44.2838L130.303 43.8938C130.303 42.3165 130.667 41.0598 131.395 40.1238C132.123 39.1878 133.172 38.7198 134.541 38.7198C135.165 38.7198 135.729 38.8325 136.231 39.0578C136.734 39.2658 137.202 39.6212 137.635 40.1238L136.101 41.7098C135.841 41.4325 135.555 41.2332 135.243 41.1118C134.931 40.9905 134.567 40.9298 134.151 40.9298C133.285 40.9298 132.574 41.2072 132.019 41.7618C131.465 42.3165 131.187 43.1572 131.187 44.2838ZM144.129 51.5898C143.002 51.5898 141.979 51.3125 141.061 50.7578C140.142 50.1858 139.414 49.4145 138.877 48.4438C138.357 47.4732 138.097 46.3812 138.097 45.1678C138.097 43.9545 138.357 42.8625 138.877 41.8918C139.414 40.9212 140.133 40.1498 141.035 39.5778C141.953 39.0058 142.985 38.7198 144.129 38.7198C145.065 38.7198 145.897 38.9192 146.625 39.3178C147.37 39.6992 147.968 40.2365 148.419 40.9298C148.869 41.6058 149.121 42.3945 149.173 43.2958V47.0138C149.121 47.8978 148.869 48.6865 148.419 49.3798C147.985 50.0732 147.396 50.6192 146.651 51.0178C145.923 51.3992 145.082 51.5898 144.129 51.5898ZM144.519 49.3798C145.68 49.3798 146.616 48.9898 147.327 48.2098C148.037 47.4125 148.393 46.3985 148.393 45.1678C148.393 44.3185 148.228 43.5818 147.899 42.9578C147.587 42.3165 147.136 41.8225 146.547 41.4758C145.957 41.1118 145.273 40.9298 144.493 40.9298C143.713 40.9298 143.019 41.1118 142.413 41.4758C141.823 41.8398 141.355 42.3425 141.009 42.9838C140.679 43.6078 140.515 44.3272 140.515 45.1418C140.515 45.9738 140.679 46.7105 141.009 47.3518C141.355 47.9758 141.832 48.4698 142.439 48.8338C143.045 49.1978 143.739 49.3798 144.519 49.3798ZM148.237 51.3298V48.0018L148.679 44.9858L148.237 41.9958V38.9798H150.603V51.3298H148.237ZM154.01 45.8178V43.6078H162.564V45.8178H154.01ZM167.28 51.3298V37.1338C167.28 36.2152 167.479 35.4178 167.878 34.7418C168.276 34.0485 168.822 33.5025 169.516 33.1038C170.226 32.7052 171.05 32.5058 171.986 32.5058C172.696 32.5058 173.312 32.6272 173.832 32.8698C174.352 33.1125 174.828 33.4678 175.262 33.9358L173.728 35.4438C173.502 35.2012 173.251 35.0192 172.974 34.8978C172.696 34.7592 172.358 34.6898 171.96 34.6898C171.214 34.6898 170.634 34.9065 170.218 35.3398C169.819 35.7732 169.62 36.3712 169.62 37.1338V51.3298H167.28ZM164.238 41.1118V38.9798H173.546V41.1118H164.238ZM180.437 51.5898C179.311 51.5898 178.288 51.3125 177.369 50.7578C176.451 50.1858 175.723 49.4145 175.185 48.4438C174.665 47.4732 174.405 46.3812 174.405 45.1678C174.405 43.9545 174.665 42.8625 175.185 41.8918C175.723 40.9212 176.442 40.1498 177.343 39.5778C178.262 39.0058 179.293 38.7198 180.437 38.7198C181.373 38.7198 182.205 38.9192 182.933 39.3178C183.679 39.6992 184.277 40.2365 184.727 40.9298C185.178 41.6058 185.429 42.3945 185.481 43.2958V47.0138C185.429 47.8978 185.178 48.6865 184.727 49.3798C184.294 50.0732 183.705 50.6192 182.959 51.0178C182.231 51.3992 181.391 51.5898 180.437 51.5898ZM180.827 49.3798C181.989 49.3798 182.925 48.9898 183.635 48.2098C184.346 47.4125 184.701 46.3985 184.701 45.1678C184.701 44.3185 184.537 43.5818 184.207 42.9578C183.895 42.3165 183.445 41.8225 182.855 41.4758C182.266 41.1118 181.581 40.9298 180.801 40.9298C180.021 40.9298 179.328 41.1118 178.721 41.4758C178.132 41.8398 177.664 42.3425 177.317 42.9838C176.988 43.6078 176.823 44.3272 176.823 45.1418C176.823 45.9738 176.988 46.7105 177.317 47.3518C177.664 47.9758 178.141 48.4698 178.747 48.8338C179.354 49.1978 180.047 49.3798 180.827 49.3798ZM184.545 51.3298V48.0018L184.987 44.9858L184.545 41.9958V38.9798H186.911V51.3298H184.545ZM194.244 51.5898C193.551 51.5898 192.892 51.5032 192.268 51.3298C191.662 51.1392 191.098 50.8792 190.578 50.5498C190.058 50.2032 189.608 49.7958 189.226 49.3278L190.734 47.8198C191.185 48.3745 191.705 48.7905 192.294 49.0678C192.884 49.3278 193.542 49.4578 194.27 49.4578C194.998 49.4578 195.562 49.3365 195.96 49.0938C196.359 48.8338 196.558 48.4785 196.558 48.0278C196.558 47.5772 196.394 47.2305 196.064 46.9878C195.752 46.7278 195.345 46.5198 194.842 46.3638C194.34 46.1905 193.802 46.0258 193.23 45.8698C192.676 45.6965 192.147 45.4798 191.644 45.2198C191.142 44.9598 190.726 44.6045 190.396 44.1538C190.084 43.7032 189.928 43.1052 189.928 42.3598C189.928 41.6145 190.11 40.9732 190.474 40.4358C190.838 39.8812 191.341 39.4565 191.982 39.1618C192.641 38.8672 193.43 38.7198 194.348 38.7198C195.319 38.7198 196.177 38.8932 196.922 39.2398C197.685 39.5692 198.309 40.0718 198.794 40.7478L197.286 42.2558C196.94 41.8052 196.506 41.4585 195.986 41.2158C195.484 40.9732 194.912 40.8518 194.27 40.8518C193.594 40.8518 193.074 40.9732 192.71 41.2158C192.364 41.4412 192.19 41.7618 192.19 42.1778C192.19 42.5938 192.346 42.9145 192.658 43.1398C192.97 43.3652 193.378 43.5558 193.88 43.7118C194.4 43.8678 194.938 44.0325 195.492 44.2058C196.047 44.3618 196.576 44.5785 197.078 44.8558C197.581 45.1332 197.988 45.5058 198.3 45.9738C198.63 46.4418 198.794 47.0572 198.794 47.8198C198.794 48.9812 198.378 49.8998 197.546 50.5758C196.732 51.2518 195.631 51.5898 194.244 51.5898ZM203.312 51.3298V33.8058H205.652V51.3298H203.312ZM200.27 41.1118V38.9798H208.694V41.1118H200.27ZM222.894 51.5898C221.958 51.5898 221.109 51.3992 220.346 51.0178C219.601 50.6192 219.003 50.0732 218.552 49.3798C218.102 48.6865 217.85 47.8978 217.798 47.0138V43.2958C217.85 42.3945 218.102 41.6058 218.552 40.9298C219.02 40.2365 219.627 39.6992 220.372 39.3178C221.135 38.9192 221.976 38.7198 222.894 38.7198C224.021 38.7198 225.035 39.0058 225.936 39.5778C226.855 40.1498 227.574 40.9212 228.094 41.8918C228.614 42.8625 228.874 43.9545 228.874 45.1678C228.874 46.3812 228.614 47.4732 228.094 48.4438C227.574 49.4145 226.855 50.1858 225.936 50.7578C225.035 51.3125 224.021 51.5898 222.894 51.5898ZM216.394 51.3298V32.7658H218.734V41.9958L218.292 44.9858L218.734 48.0018V51.3298H216.394ZM222.504 49.3798C223.284 49.3798 223.969 49.1978 224.558 48.8338C225.148 48.4698 225.616 47.9758 225.962 47.3518C226.309 46.7105 226.482 45.9738 226.482 45.1418C226.482 44.3272 226.309 43.5992 225.962 42.9578C225.616 42.3165 225.148 41.8225 224.558 41.4758C223.969 41.1118 223.293 40.9298 222.53 40.9298C221.75 40.9298 221.066 41.1118 220.476 41.4758C219.887 41.8225 219.428 42.3165 219.098 42.9578C218.769 43.5992 218.604 44.3358 218.604 45.1678C218.604 45.9825 218.76 46.7105 219.072 47.3518C219.402 47.9758 219.861 48.4698 220.45 48.8338C221.057 49.1978 221.742 49.3798 222.504 49.3798ZM231.527 51.3298V38.9798H233.867V51.3298H231.527ZM233.867 44.2838L232.983 43.8938C232.983 42.3165 233.347 41.0598 234.075 40.1238C234.803 39.1878 235.852 38.7198 237.221 38.7198C237.845 38.7198 238.408 38.8325 238.911 39.0578C239.414 39.2658 239.882 39.6212 240.315 40.1238L238.781 41.7098C238.521 41.4325 238.235 41.2332 237.923 41.1118C237.611 40.9905 237.247 40.9298 236.831 40.9298C235.964 40.9298 235.254 41.2072 234.699 41.7618C234.144 42.3165 233.867 43.1572 233.867 44.2838ZM247.198 51.5898C245.985 51.5898 244.893 51.3038 243.922 50.7318C242.952 50.1598 242.18 49.3885 241.608 48.4178C241.036 47.4298 240.75 46.3292 240.75 45.1158C240.75 43.9198 241.036 42.8452 241.608 41.8918C242.18 40.9212 242.952 40.1498 243.922 39.5778C244.893 39.0058 245.985 38.7198 247.198 38.7198C248.394 38.7198 249.478 39.0058 250.448 39.5778C251.436 40.1325 252.216 40.8952 252.788 41.8658C253.36 42.8365 253.646 43.9198 253.646 45.1158C253.646 46.3292 253.36 47.4298 252.788 48.4178C252.216 49.3885 251.436 50.1598 250.448 50.7318C249.478 51.3038 248.394 51.5898 247.198 51.5898ZM247.198 49.3278C247.978 49.3278 248.672 49.1458 249.278 48.7818C249.885 48.4178 250.362 47.9238 250.708 47.2998C251.055 46.6585 251.228 45.9305 251.228 45.1158C251.228 44.3185 251.046 43.6078 250.682 42.9838C250.336 42.3598 249.859 41.8745 249.252 41.5278C248.663 41.1638 247.978 40.9818 247.198 40.9818C246.418 40.9818 245.725 41.1638 245.118 41.5278C244.512 41.8745 244.035 42.3598 243.688 42.9838C243.342 43.6078 243.168 44.3185 243.168 45.1158C243.168 45.9305 243.342 46.6585 243.688 47.2998C244.035 47.9238 244.512 48.4178 245.118 48.7818C245.725 49.1458 246.418 49.3278 247.198 49.3278ZM259.464 51.3298L254.576 38.9798H257.02L260.556 48.5998H259.776L263.286 38.9798H264.638L268.148 48.5998H267.368L270.904 38.9798H273.348L268.486 51.3298H267.108L263.546 41.9958H264.404L260.816 51.3298H259.464ZM279.049 51.5898C278.356 51.5898 277.697 51.5032 277.073 51.3298C276.466 51.1392 275.903 50.8792 275.383 50.5498C274.863 50.2032 274.412 49.7958 274.031 49.3278L275.539 47.8198C275.99 48.3745 276.51 48.7905 277.099 49.0678C277.688 49.3278 278.347 49.4578 279.075 49.4578C279.803 49.4578 280.366 49.3365 280.765 49.0938C281.164 48.8338 281.363 48.4785 281.363 48.0278C281.363 47.5772 281.198 47.2305 280.869 46.9878C280.557 46.7278 280.15 46.5198 279.647 46.3638C279.144 46.1905 278.607 46.0258 278.035 45.8698C277.48 45.6965 276.952 45.4798 276.449 45.2198C275.946 44.9598 275.53 44.6045 275.201 44.1538C274.889 43.7032 274.733 43.1052 274.733 42.3598C274.733 41.6145 274.915 40.9732 275.279 40.4358C275.643 39.8812 276.146 39.4565 276.787 39.1618C277.446 38.8672 278.234 38.7198 279.153 38.7198C280.124 38.7198 280.982 38.8932 281.727 39.2398C282.49 39.5692 283.114 40.0718 283.599 40.7478L282.091 42.2558C281.744 41.8052 281.311 41.4585 280.791 41.2158C280.288 40.9732 279.716 40.8518 279.075 40.8518C278.399 40.8518 277.879 40.9732 277.515 41.2158C277.168 41.4412 276.995 41.7618 276.995 42.1778C276.995 42.5938 277.151 42.9145 277.463 43.1398C277.775 43.3652 278.182 43.5558 278.685 43.7118C279.205 43.8678 279.742 44.0325 280.297 44.2058C280.852 44.3618 281.38 44.5785 281.883 44.8558C282.386 45.1332 282.793 45.5058 283.105 45.9738C283.434 46.4418 283.599 47.0572 283.599 47.8198C283.599 48.9812 283.183 49.8998 282.351 50.5758C281.536 51.2518 280.436 51.5898 279.049 51.5898ZM286.245 51.3298V38.9798H288.585V51.3298H286.245ZM287.415 36.5098C286.981 36.5098 286.626 36.3712 286.349 36.0938C286.071 35.7992 285.933 35.4352 285.933 35.0018C285.933 34.5858 286.071 34.2392 286.349 33.9618C286.626 33.6672 286.981 33.5198 287.415 33.5198C287.848 33.5198 288.203 33.6672 288.481 33.9618C288.758 34.2392 288.897 34.5858 288.897 35.0018C288.897 35.4352 288.758 35.7992 288.481 36.0938C288.203 36.3712 287.848 36.5098 287.415 36.5098ZM300.769 51.3298V44.1278C300.769 43.1918 300.474 42.4205 299.885 41.8138C299.296 41.2072 298.533 40.9038 297.597 40.9038C296.973 40.9038 296.418 41.0425 295.933 41.3198C295.448 41.5972 295.066 41.9785 294.789 42.4638C294.512 42.9492 294.373 43.5038 294.373 44.1278L293.411 43.5818C293.411 42.6458 293.619 41.8138 294.035 41.0858C294.451 40.3578 295.032 39.7858 295.777 39.3698C296.522 38.9365 297.363 38.7198 298.299 38.7198C299.235 38.7198 300.058 38.9538 300.769 39.4218C301.497 39.8898 302.069 40.5052 302.485 41.2678C302.901 42.0132 303.109 42.8105 303.109 43.6598V51.3298H300.769ZM292.033 51.3298V38.9798H294.373V51.3298H292.033ZM311.399 56.7638C310.134 56.7638 309.007 56.5298 308.019 56.0618C307.048 55.5938 306.268 54.9352 305.679 54.0858L307.187 52.5518C307.69 53.1932 308.288 53.6785 308.981 54.0078C309.674 54.3545 310.498 54.5278 311.451 54.5278C312.716 54.5278 313.713 54.1898 314.441 53.5138C315.186 52.8552 315.559 51.9625 315.559 50.8358V47.7678L315.975 44.9858L315.559 42.2298V38.9798H317.899V50.8358C317.899 52.0145 317.622 53.0458 317.067 53.9298C316.53 54.8138 315.767 55.5072 314.779 56.0098C313.808 56.5125 312.682 56.7638 311.399 56.7638ZM311.399 51.1218C310.272 51.1218 309.258 50.8532 308.357 50.3158C307.473 49.7785 306.771 49.0418 306.251 48.1058C305.731 47.1525 305.471 46.0865 305.471 44.9078C305.471 43.7292 305.731 42.6805 306.251 41.7618C306.771 40.8258 307.473 40.0892 308.357 39.5518C309.258 38.9972 310.272 38.7198 311.399 38.7198C312.37 38.7198 313.228 38.9105 313.973 39.2918C314.718 39.6732 315.308 40.2105 315.741 40.9038C316.192 41.5798 316.434 42.3772 316.469 43.2958V46.5718C316.417 47.4732 316.166 48.2705 315.715 48.9638C315.282 49.6398 314.692 50.1685 313.947 50.5498C313.202 50.9312 312.352 51.1218 311.399 51.1218ZM311.867 48.9118C312.63 48.9118 313.297 48.7472 313.869 48.4178C314.458 48.0885 314.909 47.6292 315.221 47.0398C315.533 46.4332 315.689 45.7312 315.689 44.9338C315.689 44.1365 315.524 43.4432 315.195 42.8538C314.883 42.2472 314.441 41.7792 313.869 41.4498C313.297 41.1032 312.621 40.9298 311.841 40.9298C311.061 40.9298 310.376 41.1032 309.787 41.4498C309.198 41.7792 308.73 42.2472 308.383 42.8538C308.054 43.4432 307.889 44.1278 307.889 44.9078C307.889 45.6878 308.054 46.3812 308.383 46.9878C308.73 47.5945 309.198 48.0712 309.787 48.4178C310.394 48.7472 311.087 48.9118 311.867 48.9118Z" fill="white"/>
</svg>
