<svg width="55" height="67" viewBox="0 0 55 67" fill="none" xmlns="http://www.w3.org/2000/svg">
<g clip-path="url(#clip0_166_210)">
<path d="M20.5869 63.0903C20.5869 63.0903 26.0172 61.8429 27.5656 61.9122C29.114 61.9815 32.4415 62.8109 35.5611 62.5001C38.6807 62.1894 46.3762 52.6217 46.3762 52.6217C46.3762 52.6217 51.3679 46.5904 49.9116 39.2414C48.4552 31.8923 42.6318 26.2769 41.6616 25.0977C40.6914 23.9185 38.3342 20.5911 38.75 14.6984C39.1668 8.80467 37.6412 0.000338525 28.421 0.346838C19.1998 0.693337 18.784 8.18097 18.7147 12.0628C18.6454 15.9458 19.4077 19.5505 17.8138 22.8086C16.2188 26.0668 9.77179 33.6238 8.52332 38.269C7.27484 42.9143 7.89962 47.6981 7.89962 47.6981L20.5869 63.0903Z" fill="black"/>
<path d="M20.941 62.7426C20.941 62.7426 19.1998 66.4858 13.9547 64.8789C13.2271 64.7295 10.4821 63.6012 9.63755 63.2352C9.14162 63.0208 8.61537 62.8844 8.07614 62.8433C5.50879 62.6505 1.31074 62.5747 0.743346 60.0377C0.218183 57.688 1.94418 57.2267 1.23819 54.38C0.532198 51.5344 1.80667 50.2036 2.64909 49.8842C3.4926 49.5648 5.33663 49.0515 5.85746 48.3834C7.26511 46.5784 8.41072 44.5026 10.65 44.9715C12.6153 45.3829 13.9558 47.2161 14.9033 49.5258C15.8518 51.8354 16.1192 52.5706 17.4305 54.0768C18.7396 55.583 22.4169 59.5905 20.941 62.7426Z" fill="#F5B721"/>
<path d="M16.4019 65.6248C15.6547 65.6248 14.808 65.5046 13.8529 65.2112C13.0473 65.0477 10.0209 63.7797 9.49895 63.5534C9.02576 63.3488 8.53741 63.2264 8.04906 63.1896L7.42753 63.1463C4.70751 62.9611 0.982646 62.7077 0.403342 60.1144C0.133723 58.9082 0.412005 58.1459 0.682707 57.4096C0.973983 56.6159 1.24793 55.8676 0.900352 54.4654C0.13264 51.3707 1.56087 49.9263 2.52457 49.5613C2.69349 49.4975 2.9003 49.426 3.12986 49.348C3.9647 49.0611 5.22726 48.628 5.58242 48.1721C5.76975 47.9317 5.95166 47.687 6.13357 47.4434C7.32899 45.8397 8.56665 44.183 10.7193 44.6324C12.5687 45.02 14.0846 46.6226 15.2227 49.3946L15.3483 49.701C16.1929 51.7616 16.4766 52.4557 17.6904 53.8493L17.8528 54.0344C19.3244 55.716 22.7699 59.6531 21.255 62.8886C21.2258 62.9514 19.9145 65.6248 16.4019 65.6248ZM10.0306 45.2528C8.63162 45.2528 7.72422 46.471 6.69014 47.8581C6.50606 48.105 6.3209 48.354 6.13032 48.5976C5.64847 49.2148 4.37725 49.6512 3.35616 50.002C3.13419 50.0778 2.93387 50.1471 2.77145 50.2089C2.07195 50.4742 0.922008 51.6696 1.57386 54.2976C1.97342 55.9055 1.6345 56.8313 1.33456 57.6478C1.07793 58.3494 0.855957 58.9558 1.08118 59.9628C1.54787 62.0516 4.97388 62.2844 7.47626 62.4554L8.10212 62.4998C8.66843 62.5421 9.23149 62.6828 9.77614 62.9189C10.7139 63.3249 13.3537 64.4034 14.0251 64.542C18.954 66.0504 20.6107 62.633 20.6281 62.5984V62.5973C21.9502 59.7722 18.7137 56.0734 17.332 54.4935L17.1685 54.3062C15.8799 52.826 15.5605 52.0475 14.7073 49.9663L14.5827 49.6599C13.5378 47.1131 12.1897 45.6502 10.5796 45.3135C10.3869 45.2712 10.2049 45.2528 10.0306 45.2528Z" fill="black"/>
<path d="M18.9054 55.0933C18.9054 55.0933 21.1836 60.5529 27.8028 59.7397C34.422 58.9254 35.6153 56.593 35.6153 56.593L39.901 51.8189L48.1477 46.2847C48.1477 46.2847 48.9068 44.5489 47.1169 43.3546C45.327 42.1613 44.1327 41.6189 44.1327 41.6189C44.1327 41.6189 44.9794 40.1679 44.2409 37.0613C43.3704 33.3993 41.129 30.8027 39.6802 29.4427C38.9124 28.7215 38.8096 28.8937 39.4235 29.708C40.7229 31.4307 42.7889 34.3565 43.0466 35.867C43.6432 38.7418 42.9383 41.0753 42.9383 41.0753L41.6368 41.0212C41.6368 41.0212 40.7684 37.4403 38.4901 32.7745C36.2119 28.1086 33.8243 21.2729 33.2818 19.5913C32.7393 17.9097 28.1277 21.327 28.1277 21.327L20.8035 21.0011C20.8035 21.0011 20.966 23.6594 20.0445 26.1553C19.1219 28.6511 15.867 35.4869 14.8903 38.3076C13.9136 41.1283 13.9136 43.896 13.9136 43.896C13.9136 43.896 12.0144 40.8576 12.7204 38.0911C13.1773 36.299 14.4431 33.2574 15.279 31.3376C15.7327 30.2938 15.6115 30.2201 15.0008 31.2347C13.5898 33.5779 11.3116 37.9243 11.6895 41.0201C12.2136 45.3123 14.703 46.3475 15.4631 46.8012C15.6851 46.9333 15.9027 47.0697 16.1128 47.2213C17.4468 48.185 21.5593 51.3663 20.967 53.5525C20.5328 55.507 18.9054 55.0933 18.9054 55.0933Z" fill="white"/>
<path d="M18.9054 55.0933C18.9054 55.0933 21.1836 60.5529 27.8028 59.7397C34.422 58.9254 35.6153 56.593 35.6153 56.593L39.901 51.8189L48.1477 46.2847C48.1477 46.2847 48.9068 44.5489 47.1169 43.3546C45.327 42.1613 44.1327 41.6189 44.1327 41.6189C44.1327 41.6189 44.9794 40.1679 44.2409 37.0613C43.3704 33.3993 41.129 30.8027 39.6802 29.4427C38.9124 28.7215 38.8096 28.8937 39.4235 29.708C40.7229 31.4307 42.7889 34.3565 43.0466 35.867C43.6432 38.7418 42.9383 41.0753 42.9383 41.0753L41.6368 41.0212C41.6368 41.0212 40.7684 37.4403 38.4901 32.7745C36.2119 28.1086 33.8243 21.2729 33.2818 19.5913C32.7393 17.9097 28.1277 21.327 28.1277 21.327L20.8035 21.0011C20.8035 21.0011 20.966 23.6594 20.0445 26.1553C19.1219 28.6511 15.867 35.4869 14.8903 38.3076C13.9136 41.1284 13.9136 43.896 13.9136 43.896C13.9136 43.896 12.0144 40.8576 12.7204 38.0911C13.1773 36.299 14.4431 33.2574 15.279 31.3376C15.7327 30.2938 15.6115 30.2201 15.0008 31.2347C13.5898 33.5779 11.3116 37.9243 11.6895 41.0201C12.2136 45.3123 14.703 46.3475 15.4631 46.8012C15.6851 46.9333 15.9027 47.0697 16.1128 47.2213C17.4468 48.185 21.5593 51.3663 20.967 53.5525C20.5328 55.507 18.9054 55.0933 18.9054 55.0933Z" stroke="black" stroke-width="0.0541405" stroke-miterlimit="10"/>
<path d="M24.7557 15.1558C24.7557 15.1558 24.9344 12.5289 23.8538 11.0953C22.8652 9.7851 20.9107 9.46242 20.1365 12.0839C19.3634 14.7054 20.5447 16.4671 21.4467 17.3258C22.3487 18.1845 24.7557 15.1558 24.7557 15.1558Z" fill="white"/>
<path d="M32.1676 17.4789C32.1676 17.4789 33.5644 16.1005 33.65 14.146C33.7355 12.1916 32.8768 9.46289 30.4708 9.46289C28.0648 9.46289 27.1618 11.3784 27.1195 13.4715C27.0762 15.5645 27.2484 15.9511 27.2484 15.9511L32.1676 17.4789Z" fill="white"/>
<path d="M23.3589 15.8211C23.3589 15.8211 23.5527 13.9305 23.0579 13.1574C22.5641 12.3843 21.3232 12.2522 21.3178 13.9522C21.3113 15.7995 22.5208 16.7448 22.5208 16.7448L23.3589 15.8211Z" fill="black"/>
<path d="M30.5131 16.5943C30.5131 16.5943 31.5656 15.9934 31.6944 14.9831C31.8233 13.9728 31.6479 12.1136 30.3831 11.9967C29.2235 11.8895 28.7936 13.7151 28.7936 14.8109C28.7936 15.9067 29.3307 17.0881 29.3307 17.0881L30.5131 16.5943Z" fill="black"/>
<path d="M25.8938 24.0063C25.8938 24.0063 27.5657 24.1569 29.9771 22.3518C30.6907 21.8559 32.7588 21.6209 33.6554 19.988C34.552 18.3552 33.1335 17.3027 33.1335 17.3027C33.1335 17.3027 32.682 16.8685 31.087 16.3823C30.486 16.1993 29.9067 15.9524 29.3675 15.6286C28.4363 15.0699 27.2138 14.3477 26.0432 14.4235C24.3671 14.5307 23.2507 15.5193 22.6053 16.1202C21.9611 16.7212 19.6406 17.6665 19.6406 18.784C19.6406 19.9014 19.2908 20.0389 22.1495 21.9945C23.2734 22.8607 24.2176 23.8775 25.8938 24.0063Z" fill="#F5B721"/>
<path d="M25.9999 24.2412C25.9295 24.2412 25.8884 24.238 25.8754 24.2369C24.4082 24.1243 23.4683 23.3576 22.5587 22.617C22.3779 22.4697 22.1971 22.3225 22.0108 22.1795C19.4717 20.4438 19.3688 20.0832 19.4045 19.1022C19.4078 19.0058 19.4121 18.9008 19.4121 18.7871C19.4121 17.8754 20.6043 17.1434 21.5615 16.5565C21.9275 16.3313 22.274 16.1191 22.4505 15.9545C23.0211 15.4217 24.2079 14.3119 26.0302 14.1949C27.3058 14.1104 28.5629 14.876 29.4887 15.4326C29.9879 15.7325 30.5488 15.9783 31.1563 16.1624C32.7588 16.6507 33.245 17.0882 33.2959 17.1369C33.2981 17.1369 34.8389 18.3172 33.86 20.0995C33.1865 21.3252 31.9131 21.8049 30.983 22.1546C30.6159 22.2932 30.2987 22.4124 30.1113 22.5423C28.0074 24.1156 26.445 24.2412 25.9999 24.2412ZM25.9133 23.7767C25.9458 23.7756 27.5527 23.8785 29.8385 22.1676C30.0799 21.9998 30.421 21.872 30.8173 21.7226C31.728 21.3804 32.8617 20.9538 33.4518 19.8786C34.2379 18.4471 33.0458 17.5278 32.9949 17.4888C32.97 17.4682 32.5173 17.0611 31.0198 16.6052C30.3766 16.4093 29.7811 16.1483 29.2494 15.8289C28.3756 15.3037 27.1715 14.589 26.0584 14.6551C24.4017 14.7612 23.2961 15.7942 22.7645 16.2901C22.5533 16.4861 22.2047 16.7005 21.8019 16.9474C20.9876 17.4477 19.8723 18.132 19.8723 18.7849C19.8723 18.9062 19.868 19.0156 19.8647 19.1174C19.8376 19.8721 19.8279 20.1276 22.2805 21.8038C22.4808 21.9576 22.6649 22.1081 22.8489 22.2575C23.7423 22.9852 24.5869 23.6727 25.91 23.7745L25.9133 23.7767Z" fill="black"/>
<path d="M26.6961 16.1233C26.8423 16.2078 27.1758 16.2522 27.3047 16.4189C27.4335 16.5846 27.9143 16.5424 27.923 16.1612C27.9316 15.779 27.0881 15.7898 26.8304 15.8775C26.5792 15.9631 26.6355 16.0876 26.6961 16.1233Z" fill="black"/>
<path d="M24.7665 16.2769C24.9744 16.1686 25.165 16.1913 25.2083 16.1166C25.2516 16.043 24.8845 15.7268 24.2673 15.9997C23.831 16.1924 23.9772 16.3581 24.0649 16.4545C24.223 16.6331 24.5261 16.4014 24.7665 16.2769Z" fill="black"/>
<path d="M25.5344 21.9209C22.5437 21.9209 20.6509 19.1543 20.5708 19.0341C20.4928 18.9183 20.5242 18.7613 20.639 18.6833C20.7549 18.6053 20.9119 18.6357 20.9909 18.7515C21.0093 18.7797 22.862 21.5019 25.6914 21.4109C28.5489 21.308 31.7248 18.3303 31.7573 18.3C31.8591 18.2036 32.0193 18.208 32.1157 18.3097C32.2121 18.4115 32.2077 18.5718 32.1059 18.6682C31.9706 18.7959 28.7568 21.8072 25.7098 21.9166C25.6513 21.9198 25.5918 21.9209 25.5344 21.9209Z" fill="black"/>
<path d="M36.4631 64.6842C36.4631 64.6842 39.2362 67.8038 43.535 64.6842C45.824 63.2983 45.8381 62.7623 46.9913 61.6188C47.3757 61.2377 47.824 60.928 48.3134 60.6995C50.6458 59.6113 54.9175 58.0845 54.4194 55.5323C53.865 52.69 51.8542 53.2444 51.5077 50.3327C51.1612 47.421 49.7048 46.6587 48.8039 46.6587C47.903 46.6587 44.8278 46.5309 44.1337 46.0458C43.4407 45.5607 41.5242 43.6853 39.5827 44.8948C37.6412 46.1043 37.0868 48.2526 37.0175 50.7485C36.9482 53.2444 37.1561 53.9374 36.4631 55.8095C35.7701 57.6817 33.9672 62.2577 36.4631 64.6842Z" fill="#F5B721"/>
<path d="M39.8123 66.4154C37.6835 66.4154 36.356 65.0749 36.2163 64.9265C33.6381 62.4111 35.3457 57.8179 36.0755 55.8558L36.1373 55.688C36.6473 54.3106 36.6483 53.6166 36.6516 52.236C36.6527 51.8094 36.6538 51.3232 36.67 50.7385C36.7285 48.6346 37.0912 46.0358 39.3987 44.6C41.3066 43.4111 43.1495 44.8469 44.0353 45.5366C44.1501 45.6254 44.2497 45.7034 44.332 45.7608C44.8539 46.1268 47.4797 46.3108 48.8029 46.3108C49.9907 46.3108 51.5012 47.3536 51.851 50.2913C52.0134 51.6621 52.5505 52.1678 53.172 52.7536C53.7784 53.3253 54.4671 53.9739 54.7583 55.466C55.2499 57.9857 51.8423 59.5016 49.353 60.6094C49.0357 60.7512 48.7336 60.8855 48.4586 61.0132C47.9984 61.2276 47.5869 61.5146 47.2339 61.8643C46.9145 62.1816 46.6849 62.4501 46.4629 62.71C45.8901 63.3824 45.3953 63.9628 43.7126 64.9807C42.2346 66.0548 40.9157 66.4154 39.8123 66.4154ZM36.722 64.4533C36.8346 64.5789 39.3565 67.2881 43.3304 64.4024C44.9416 63.4268 45.3801 62.9114 45.9367 62.2596C46.1673 61.9889 46.4066 61.7095 46.7466 61.3717C47.1559 60.9656 47.6335 60.6332 48.1662 60.3841C48.4445 60.2542 48.7509 60.1178 49.0725 59.9748C51.3475 58.9624 54.4649 57.5764 54.0783 55.5981C53.8304 54.3247 53.2792 53.8061 52.6967 53.2571C52.0372 52.6355 51.3551 51.9934 51.1623 50.3725C50.8667 47.8853 49.707 47.0038 48.8029 47.0038C48.7639 47.0038 44.8571 46.9746 43.9335 46.3282C43.8436 46.2654 43.7353 46.1809 43.6097 46.0835C42.79 45.4446 41.2622 44.2557 39.7658 45.188C38.1849 46.1723 37.4442 47.8896 37.3641 50.7569C37.3478 51.3351 37.3468 51.8159 37.3457 52.236C37.3424 53.6534 37.3403 54.4341 36.788 55.9284L36.7263 56.0973C36.0431 57.9337 34.4427 62.2347 36.7047 64.4338C36.7111 64.4414 36.7166 64.4468 36.722 64.4533Z" fill="black"/>
<path d="M41.7927 48.9714C41.7927 48.9714 43.8338 50.0022 46.176 47.8323C48.5181 45.6623 47.5078 44.717 46.8419 44.1161C46.176 43.514 43.1896 41.7317 41.4711 42.0966C39.7527 42.4615 39.6574 44.3803 39.8383 45.632C40.0094 46.8231 40.4024 48.3271 41.7927 48.9714Z" fill="black"/>
</g>
<defs>
<clipPath id="clip0_166_210">
<rect width="54.5119" height="66.0785" fill="white" transform="translate(0.295044 0.336914)"/>
</clipPath>
</defs>
</svg>
