<svg width="170" height="61" viewBox="0 0 170 61" fill="none" xmlns="http://www.w3.org/2000/svg">
<rect x="0.791016" y="0.15625" width="168.666" height="60.3179" rx="15" fill="white"/>
<g clip-path="url(#clip0_276_522)">
<path d="M57.7046 36.9899H67.1429V34.147H61.0592V23.439H57.7046V36.9899Z" fill="#3C2B1F"/>
<path d="M72.7348 35.0947C71.3892 35.0947 70.6879 33.9196 70.6879 32.1571C70.6879 30.3945 71.3892 29.2005 72.7348 29.2005C74.0804 29.2005 74.8006 30.3945 74.8006 32.1571C74.8006 33.9196 74.0804 35.0947 72.7348 35.0947ZM72.7537 37.2932C75.8809 37.2932 77.9277 35.0757 77.9277 32.1571C77.9277 29.2384 75.8809 27.021 72.7537 27.021C69.6455 27.021 67.5608 29.2384 67.5608 32.1571C67.5608 35.0757 69.6455 37.2932 72.7537 37.2932Z" fill="#3C2B1F"/>
<path d="M83.3404 40.3449C84.7807 40.3449 86.0505 40.0227 86.9034 39.2646C87.6804 38.5634 88.1922 37.502 88.1922 36.0427V27.2867H85.2356V28.3291H85.1977C84.6291 27.5142 83.7573 27.0024 82.4686 27.0024C80.0616 27.0024 78.3938 29.0114 78.3938 31.8542C78.3938 34.8298 80.4217 36.4597 82.6012 36.4597C83.7763 36.4597 84.5154 35.9859 85.084 35.3415H85.1598V36.308C85.1598 37.4831 84.6102 38.1654 83.3025 38.1654C82.279 38.1654 81.7673 37.7295 81.5967 37.2178H78.6023C78.9055 39.2457 80.6681 40.3449 83.3404 40.3449ZM83.3214 34.1664C82.1653 34.1664 81.4072 33.2188 81.4072 31.7595C81.4072 30.2812 82.1653 29.3336 83.3214 29.3336C84.6102 29.3336 85.2925 30.4328 85.2925 31.7405C85.2925 33.1051 84.667 34.1664 83.3214 34.1664Z" fill="#3C2B1F"/>
<path d="M94.2714 35.0947C92.9258 35.0947 92.2245 33.9196 92.2245 32.1571C92.2245 30.3945 92.9258 29.2005 94.2714 29.2005C95.617 29.2005 96.3372 30.3945 96.3372 32.1571C96.3372 33.9196 95.617 35.0947 94.2714 35.0947ZM94.2904 37.2932C97.4175 37.2932 99.4639 35.0757 99.4639 32.1571C99.4639 29.2384 97.4175 27.021 94.2904 27.021C91.1822 27.021 89.0974 29.2384 89.0974 32.1571C89.0974 35.0757 91.1822 37.2932 94.2904 37.2932Z" fill="#3C2B1F"/>
<path d="M100.367 36.9899H103.456V27.2863H100.367V36.9899ZM100.367 25.9407H103.456V23.439H100.367V25.9407Z" fill="#3C2B1F"/>
<path d="M104.796 40.1933H107.885V35.9859H107.923C108.53 36.8008 109.42 37.2936 110.671 37.2936C113.211 37.2936 114.897 35.2846 114.897 32.1385C114.897 29.2199 113.324 27.0024 110.747 27.0024C109.42 27.0024 108.473 27.59 107.809 28.4618H107.752V27.2867H104.796V40.1933ZM109.875 34.9056C108.548 34.9056 107.79 33.8253 107.79 32.2522C107.79 30.6792 108.473 29.4852 109.818 29.4852C111.145 29.4852 111.77 30.5844 111.77 32.2522C111.77 33.9011 111.05 34.9056 109.875 34.9056Z" fill="#3C2B1F"/>
<path d="M119.927 37.2936C122.467 37.2936 124.343 36.1943 124.343 34.0717C124.343 31.5889 122.334 31.153 120.628 30.8687C119.396 30.6413 118.297 30.5465 118.297 29.8642C118.297 29.2578 118.885 28.9735 119.643 28.9735C120.496 28.9735 121.083 29.2388 121.197 30.1106H124.04C123.888 28.1964 122.41 27.0024 119.662 27.0024C117.369 27.0024 115.473 28.0638 115.473 30.1106C115.473 32.3849 117.274 32.8398 118.961 33.124C120.249 33.3515 121.424 33.4462 121.424 34.318C121.424 34.9435 120.837 35.2846 119.908 35.2846C118.885 35.2846 118.24 34.8108 118.127 33.8442H115.208C115.303 35.9859 117.084 37.2936 119.927 37.2936Z" fill="#3C2B1F"/>
<path d="M128.539 37.2745C129.885 37.2745 130.738 36.7438 131.439 35.7962H131.496V36.9902H134.452V27.2866H131.363V32.707C131.363 33.8631 130.719 34.6591 129.658 34.6591C128.672 34.6591 128.198 34.0716 128.198 33.0102V27.2866H125.128V33.6546C125.128 35.8152 126.303 37.2745 128.539 37.2745Z" fill="#3C2B1F"/>
<path d="M135.796 36.9903H138.886V31.551C138.886 30.3949 139.454 29.58 140.421 29.58C141.349 29.58 141.785 30.1864 141.785 31.2288V36.9903H144.875V31.551C144.875 30.3949 145.424 29.58 146.41 29.58C147.338 29.58 147.774 30.1864 147.774 31.2288V36.9903H150.863V30.6792C150.863 28.4997 149.764 27.0024 147.566 27.0024C146.315 27.0024 145.273 27.5331 144.514 28.7082H144.477C143.984 27.6658 143.017 27.0024 141.747 27.0024C140.345 27.0024 139.416 27.6658 138.81 28.6702H138.753V27.2867H135.796V36.9903Z" fill="#3C2B1F"/>
<path d="M38.8568 15.6882L35.751 14.856L33.1337 24.624L30.7707 15.8053L27.6648 16.6376L30.2179 26.1654L23.8589 19.8064L21.5852 22.0801L28.5603 29.0552L19.874 26.7277L19.0417 29.8335L28.5326 32.3766C28.424 31.9079 28.3665 31.4196 28.3665 30.9178C28.3665 27.3661 31.2456 24.487 34.7973 24.487C38.349 24.487 41.2282 27.3661 41.2282 30.9178C41.2282 31.4163 41.1714 31.9017 41.0641 32.3676L49.6895 34.6787L50.5217 31.5729L40.9931 29.0197L49.68 26.6921L48.8477 23.5862L39.3195 26.1393L45.6785 19.7803L43.4048 17.5067L36.5266 24.385L38.8568 15.6882Z" fill="#F97316"/>
<path d="M41.0554 32.4038C40.7891 33.5296 40.2269 34.5409 39.4556 35.3512L45.7043 41.6L47.978 39.3264L41.0554 32.4038Z" fill="#F97316"/>
<path d="M39.3926 35.4165C38.6119 36.2138 37.6254 36.8089 36.519 37.1155L38.7929 45.6014L41.8987 44.7692L39.3926 35.4165Z" fill="#F97316"/>
<path d="M36.403 37.1464C35.8897 37.2784 35.3517 37.3485 34.7973 37.3485C34.2033 37.3485 33.6281 37.2679 33.082 37.1172L30.8062 45.6108L33.912 46.443L36.403 37.1464Z" fill="#F97316"/>
<path d="M32.9721 37.0859C31.8826 36.7641 30.9136 36.1614 30.1489 35.3618L23.8848 41.626L26.1584 43.8996L32.9721 37.0859Z" fill="#F97316"/>
<path d="M30.0969 35.3064C29.3452 34.5017 28.7977 33.5039 28.5372 32.3955L19.8835 34.7142L20.7158 37.8201L30.0969 35.3064Z" fill="#F97316"/>
</g>
<defs>
<clipPath id="clip0_276_522">
<rect width="132.666" height="32.3769" fill="white" transform="translate(18.791 14.127)"/>
</clipPath>
</defs>
</svg>
