<svg width="193" height="61" viewBox="0 0 193 61" fill="none" xmlns="http://www.w3.org/2000/svg">
<rect x="0.329102" y="0.15625" width="191.839" height="60.3179" rx="15" fill="white"/>
<path d="M42.0323 40.2061L21.7733 26.2314C19.7203 24.8153 20.4182 21.8668 22.9782 21.1734L44.5099 15.3294C44.9661 15.1649 45.4548 15.1114 45.9358 15.1736C46.4166 15.2358 46.8758 15.4117 47.2751 15.6869C47.6743 15.962 48.0022 16.3285 48.2314 16.7557C48.4607 17.183 48.5848 17.6588 48.5934 18.1436L47.3173 37.9611C47.166 40.3133 44.0853 41.6222 42.0323 40.2061Z" fill="#E9327C"/>
<path d="M35.6067 43.6558L23.6714 20.3151C23.3986 19.7811 23.2786 19.1822 23.3245 18.5843C23.3705 17.9864 23.5806 17.4129 23.9319 16.9269C24.2831 16.4409 24.7617 16.0613 25.3149 15.83C25.8682 15.5987 26.4745 15.5248 27.0672 15.6162L49.1861 19.03C49.6953 19.1086 50.1786 19.3069 50.5963 19.6087C51.0139 19.9105 51.354 20.3072 51.5885 20.766C51.8229 21.2248 51.9452 21.7328 51.9451 22.248C51.945 22.7633 51.8226 23.2712 51.588 23.73L41.3987 43.657C41.1251 44.1894 40.7099 44.6361 40.199 44.9479C39.688 45.2598 39.101 45.4247 38.5023 45.4246C37.9037 45.4245 37.3167 45.2594 36.8058 44.9474C36.295 44.6352 35.8801 44.1884 35.6067 43.6558Z" fill="#1DACE3"/>
<path d="M48.5391 18.9298L37.513 17.228L23.9753 20.9038L29.3789 31.4748L42.0323 40.2063C42.3115 40.3968 42.6185 40.5427 42.9425 40.6388L47.7486 31.2399L48.5391 18.9298Z" fill="#001A49"/>
<path d="M104.389 21.6581C104.389 21.2483 104.511 20.8477 104.738 20.5069C104.966 20.1661 105.29 19.9005 105.668 19.7437C106.047 19.5868 106.464 19.5458 106.866 19.6258C107.268 19.7057 107.637 19.9031 107.927 20.1929C108.216 20.4827 108.414 20.8519 108.494 21.2539C108.574 21.6558 108.533 22.0725 108.376 22.4511C108.219 22.8298 107.953 23.1534 107.613 23.3811C107.272 23.6088 106.871 23.7303 106.461 23.7303C105.913 23.7248 105.39 23.5046 105.002 23.1172C104.615 22.7298 104.395 22.206 104.389 21.6581ZM104.735 24.7433H108.189V36.255H104.735V24.7433Z" fill="#001A49"/>
<path d="M123.107 30.4987C123.147 31.2596 123.036 32.021 122.781 32.739C122.526 33.4568 122.131 34.1173 121.62 34.6823C121.109 35.2472 120.491 35.7054 119.802 36.0308C119.113 36.356 118.366 36.5419 117.605 36.5776C116.965 36.6123 116.325 36.5044 115.731 36.2615C115.138 36.0185 114.606 35.6466 114.174 35.1728V40.8597H110.721V24.7429H114.174V25.8247C114.606 25.351 115.138 24.9793 115.732 24.7365C116.325 24.4938 116.965 24.386 117.605 24.421C118.366 24.4566 119.113 24.6423 119.802 24.9674C120.491 25.2926 121.109 25.7507 121.62 26.3156C122.131 26.8804 122.526 27.5407 122.781 28.2587C123.036 28.9766 123.147 29.7378 123.107 30.4987ZM119.653 30.4987C119.64 29.9597 119.468 29.4368 119.158 28.9951C118.849 28.5536 118.416 28.213 117.914 28.0162C117.413 27.8192 116.864 27.7748 116.337 27.8883C115.81 28.0018 115.328 28.2682 114.951 28.6542C114.575 29.0402 114.321 29.5287 114.221 30.0584C114.12 30.5882 114.179 31.1357 114.388 31.6325C114.598 32.1293 114.949 32.5532 115.398 32.8513C115.848 33.1495 116.375 33.3083 116.914 33.3083C117.284 33.3251 117.654 33.2632 117.998 33.127C118.343 32.9907 118.655 32.783 118.914 32.5177C119.172 32.2524 119.372 31.9354 119.5 31.5873C119.627 31.2394 119.68 30.8683 119.653 30.4987Z" fill="#001A49"/>
<path d="M133.766 32.7992C133.766 35.4474 131.463 36.5755 128.977 36.5755C127.972 36.6664 126.964 36.4538 126.081 35.9651C125.199 35.4766 124.483 34.7345 124.027 33.8348L127.02 32.1318C127.142 32.5477 127.402 32.9092 127.759 33.1559C128.115 33.4025 128.545 33.5194 128.977 33.487C129.806 33.487 130.219 33.2329 130.219 32.7733C130.219 31.5062 124.556 32.1748 124.556 28.1907C124.556 25.6815 126.673 24.4156 129.073 24.4156C129.973 24.3873 130.864 24.6009 131.653 25.0341C132.444 25.4673 133.102 26.1042 133.562 26.8785L130.615 28.4674C130.487 28.1652 130.272 27.9076 129.997 27.7269C129.723 27.5461 129.401 27.4502 129.073 27.451C128.474 27.451 128.106 27.6769 128.106 28.0958C128.103 29.4171 133.766 28.5419 133.766 32.7992Z" fill="#001A49"/>
<path d="M146.388 24.7432V36.2549H142.934V35.1708C142.536 35.6484 142.029 36.0246 141.456 36.2689C140.885 36.513 140.263 36.6182 139.641 36.5756C137.316 36.5756 135.337 34.9178 135.337 31.809V24.7432H138.79V31.3053C138.761 31.5797 138.792 31.8572 138.881 32.1183C138.971 32.3794 139.115 32.618 139.306 32.8174C139.497 33.0168 139.728 33.1722 139.985 33.2728C140.242 33.3736 140.518 33.4169 140.793 33.4001C142.059 33.4001 142.939 32.6638 142.939 31.0287V24.7432H146.388Z" fill="#001A49"/>
<path d="M166.181 29.1856V36.2548H162.728V29.486C162.728 28.3353 162.175 27.5979 161.07 27.5979C159.919 27.5979 159.275 28.4042 159.275 29.7627V36.2548H155.82V29.486C155.82 28.3353 155.268 27.5979 154.163 27.5979C153.012 27.5979 152.367 28.4042 152.367 29.7627V36.2548H148.914V24.7431H152.373V25.7978C152.731 25.3282 153.201 24.9557 153.739 24.7144C154.278 24.4732 154.87 24.3709 155.458 24.4168C156.049 24.3879 156.638 24.5126 157.166 24.7788C157.695 25.045 158.146 25.4435 158.474 25.9356C158.857 25.4208 159.364 25.0113 159.948 24.7457C160.532 24.48 161.174 24.3669 161.813 24.4168C164.456 24.4213 166.181 26.3083 166.181 29.1856Z" fill="#001A49"/>
<path d="M169.107 24.6718C170.523 24.6718 171.671 23.5241 171.671 22.1084C171.671 20.6926 170.523 19.5449 169.107 19.5449C167.691 19.5449 166.544 20.6926 166.544 22.1084C166.544 23.5241 167.691 24.6718 169.107 24.6718Z" fill="#001A49"/>
<path d="M57.2402 19.4482H60.6947V36.2552H57.2402V19.4482ZM62.6505 30.4993C62.6468 29.2923 63.0012 28.1115 63.6689 27.1062C64.3367 26.1008 65.2877 25.3162 66.4016 24.8517C67.5156 24.3872 68.7423 24.2637 69.9265 24.4969C71.1107 24.73 72.1991 25.3092 73.0538 26.1613C73.9085 27.0134 74.4912 28.0998 74.728 29.2833C74.9648 30.4668 74.8453 31.6938 74.3843 32.8092C73.9233 33.9246 73.1418 34.8781 72.1385 35.549C71.1353 36.2199 69.9555 36.5781 68.7486 36.5781C67.947 36.5866 67.1518 36.4354 66.4093 36.1332C65.6669 35.831 64.9921 35.3838 64.4244 34.8179C63.8566 34.252 63.4074 33.5786 63.1028 32.8371C62.7983 32.0956 62.6446 31.3008 62.6505 30.4993ZM71.4001 30.4993C71.3865 29.9786 71.2199 29.4736 70.9207 29.0473C70.6217 28.621 70.2035 28.2923 69.7186 28.1023C69.2336 27.9125 68.7035 27.8697 68.1944 27.9796C67.6854 28.0893 67.22 28.3469 66.8565 28.7198C66.493 29.0928 66.2476 29.5646 66.1508 30.0763C66.0542 30.5881 66.1104 31.1169 66.3128 31.5968C66.515 32.0767 66.8544 32.4862 67.2882 32.7743C67.7221 33.0624 68.2313 33.2161 68.752 33.2163C69.1086 33.2265 69.4635 33.1626 69.7942 33.0287C70.1249 32.895 70.4243 32.6941 70.6735 32.4388C70.9228 32.1836 71.1164 31.8795 71.2422 31.5457C71.368 31.2117 71.4234 30.8555 71.4046 30.4993H71.4001ZM88.6203 24.74V35.677C88.6203 39.5447 85.604 41.1788 82.5426 41.1788C81.465 41.2601 80.3858 41.0431 79.4232 40.5517C78.4607 40.0603 77.652 39.3133 77.0859 38.3929L80.0322 36.6888C80.27 37.1692 80.6489 37.5656 81.1181 37.825C81.5873 38.0842 82.1244 38.1941 82.6577 38.1399C82.9982 38.1863 83.3447 38.1558 83.6717 38.0505C83.9987 37.9451 84.2979 37.7678 84.5472 37.5313C84.7965 37.295 84.9895 37.0057 85.112 36.6846C85.2345 36.3637 85.2834 36.0193 85.2551 35.677V34.6177C84.8506 35.1123 84.3357 35.5053 83.752 35.7652C83.1682 36.025 82.5316 36.1445 81.8932 36.114C80.3738 36.0667 78.9323 35.4299 77.8742 34.3383C76.8161 33.2468 76.2243 31.7863 76.2243 30.2661C76.2243 28.7458 76.8161 27.2853 77.8742 26.1937C78.9323 25.1022 80.3738 24.4654 81.8932 24.4181C82.5316 24.3876 83.1682 24.507 83.752 24.7669C84.3357 25.0268 84.8506 25.4197 85.2551 25.9145V24.74H88.6203ZM85.2596 30.2655C85.2824 29.7095 85.1383 29.1594 84.8459 28.6859C84.5536 28.2124 84.1262 27.8372 83.6189 27.6085C83.1116 27.3798 82.5474 27.3081 81.999 27.4026C81.4507 27.4971 80.9431 27.7535 80.5415 28.1388C80.1399 28.5241 79.8628 29.0206 79.7458 29.5646C79.6287 30.1087 79.677 30.6752 79.8846 31.1916C80.0921 31.7079 80.4494 32.1504 80.9103 32.4621C81.3713 32.7737 81.915 32.9404 82.4714 32.9408C82.8342 32.9662 83.1984 32.9155 83.5405 32.7918C83.8825 32.6682 84.1949 32.4743 84.4576 32.2226C84.7201 31.971 84.9272 31.6671 85.0653 31.3307C85.2034 30.9941 85.2696 30.6324 85.2596 30.2689V30.2655ZM90.5762 30.4914C90.5724 29.2844 90.9268 28.1036 91.5945 27.0983C92.2623 26.0929 93.2133 25.3083 94.3272 24.8438C95.4413 24.3793 96.6679 24.2558 97.8521 24.4889C99.0363 24.7221 100.125 25.3013 100.979 26.1534C101.834 27.0055 102.417 28.0919 102.654 29.2754C102.89 30.4589 102.771 31.6859 102.31 32.8013C101.849 33.9167 101.067 34.8702 100.064 35.5411C99.0609 36.212 97.8811 36.5702 96.6742 36.5702C95.8733 36.5787 95.0788 36.4277 94.3368 36.126C93.5949 35.8243 92.9204 35.3778 92.3528 34.8128C91.7851 34.2477 91.3358 33.5753 91.0308 32.8346C90.7257 32.094 90.5712 31.3002 90.5762 30.4993V30.4914ZM99.3257 30.4914C99.3124 29.9705 99.1457 29.465 98.8467 29.0382C98.5475 28.6116 98.1291 28.2827 97.644 28.0925C97.1588 27.9023 96.6283 27.8595 96.1189 27.9694C95.6095 28.0792 95.1438 28.3369 94.7802 28.71C94.4164 29.0832 94.1708 29.5553 94.0742 30.0674C93.9774 30.5794 94.0339 31.1086 94.2363 31.5887C94.4389 32.0689 94.7785 32.4786 95.2127 32.7667C95.647 33.0548 96.1565 33.2084 96.6776 33.2084C97.0332 33.2178 97.3868 33.1537 97.7164 33.0202C98.046 32.8866 98.3445 32.6862 98.5932 32.4319C98.8417 32.1776 99.0351 31.8746 99.1612 31.5421C99.2873 31.2095 99.3433 30.8544 99.3257 30.4993V30.4914Z" fill="#001A49"/>
</svg>
