<svg width="160" height="61" viewBox="0 0 160 61" fill="none" xmlns="http://www.w3.org/2000/svg">
<rect x="0.921631" y="0.15625" width="158.401" height="60.3179" rx="15" fill="white"/>
<g clip-path="url(#clip0_276_587)">
<path d="M59.6549 22.6426H56.8262V35.4064H64.657V32.9054H59.6549V22.6426Z" fill="#243A5A"/>
<path d="M64.9272 31.0771C64.9272 33.8023 66.7556 35.6134 69.5153 35.6134C72.2578 35.6134 74.0861 33.8023 74.0861 31.0771C74.0861 28.3518 72.2578 26.5234 69.5153 26.5234C66.7556 26.5234 64.9272 28.3518 64.9272 31.0771ZM67.6007 31.0598C67.6007 29.7662 68.3597 28.9038 69.5153 28.9038C70.6537 28.9038 71.4127 29.7662 71.4127 31.0598C71.4127 32.3707 70.6537 33.2331 69.5153 33.2331C68.3597 33.2331 67.6007 32.3707 67.6007 31.0598Z" fill="#243A5A"/>
<path d="M74.5135 30.9389C74.5135 33.5433 76.2039 35.3026 78.6014 35.3026C79.7571 35.3026 80.7574 34.8887 81.2576 34.216V35.4062C81.2576 36.5963 80.516 37.3897 79.2051 37.3897C78.0322 37.3897 77.2215 36.8378 77.1698 35.8546H74.479C74.7205 38.2177 76.5488 39.8044 79.0498 39.8044C81.9993 39.8044 83.8621 37.8899 83.8621 34.8542V26.782H81.4646L81.3266 27.6616C80.8437 26.9544 79.826 26.4888 78.6532 26.4888C76.2383 26.4888 74.5135 28.2998 74.5135 30.9389ZM77.2043 30.8698C77.2043 29.6279 78.0322 28.8 79.0843 28.8C80.309 28.8 81.2059 29.6107 81.2059 30.8698C81.2059 32.129 80.3262 32.9914 79.1016 32.9914C78.0495 32.9914 77.2043 32.129 77.2043 30.8698Z" fill="#243A5A"/>
<path d="M84.6362 31.0771C84.6362 33.8023 86.4646 35.6134 89.2244 35.6134C91.9668 35.6134 93.7951 33.8023 93.7951 31.0771C93.7951 28.3518 91.9668 26.5234 89.2244 26.5234C86.4646 26.5234 84.6362 28.3518 84.6362 31.0771ZM87.3098 31.0598C87.3098 29.7662 88.0687 28.9038 89.2244 28.9038C90.3627 28.9038 91.1216 29.7662 91.1216 31.0598C91.1216 32.3707 90.3627 33.2331 89.2244 33.2331C88.0687 33.2331 87.3098 32.3707 87.3098 31.0598Z" fill="#243A5A"/>
<path d="M96.0852 25.4364C96.9131 25.4364 97.5859 24.7637 97.5859 23.9186C97.5859 23.0734 96.9131 22.418 96.0852 22.418C95.24 22.418 94.5674 23.0734 94.5674 23.9186C94.5674 24.7637 95.24 25.4364 96.0852 25.4364ZM94.7398 35.406H97.4134V26.7818H94.7398V35.406Z" fill="#243A5A"/>
<path d="M98.9702 39.5461H101.592V34.5441C102.092 35.1995 103.231 35.648 104.421 35.648C106.99 35.648 108.543 33.6817 108.474 30.9564C108.405 28.1794 106.801 26.5063 104.403 26.5063C103.178 26.5063 102.023 27.041 101.54 27.8345L101.402 26.7823H98.9702V39.5461ZM101.643 31.0944C101.643 29.8008 102.506 28.9384 103.748 28.9384C105.007 28.9384 105.8 29.818 105.8 31.0944C105.8 32.3708 105.007 33.2505 103.748 33.2505C102.506 33.2505 101.643 32.388 101.643 31.0944Z" fill="#243A5A"/>
<path d="M108.756 32.6813C108.825 34.4234 110.205 35.6307 112.379 35.6307C114.466 35.6307 115.915 34.5268 115.915 32.7503C115.915 31.4739 115.156 30.6287 113.741 30.2837L112.206 29.9043C111.654 29.7663 111.309 29.6283 111.309 29.1798C111.309 28.7314 111.671 28.4381 112.206 28.4381C112.81 28.4381 113.206 28.8349 113.19 29.4213H115.587C115.518 27.6275 114.155 26.5063 112.258 26.5063C110.344 26.5063 108.912 27.6448 108.912 29.3696C108.912 30.5252 109.55 31.4739 111.257 31.9224L112.775 32.319C113.224 32.4398 113.413 32.6467 113.413 32.94C113.413 33.3712 113.017 33.6472 112.344 33.6472C111.568 33.6472 111.154 33.285 111.154 32.6813H108.756Z" fill="#243A5A"/>
<path d="M119.98 35.6306C121.033 35.6306 122.085 35.1476 122.619 34.4405L122.792 35.4064H125.293V26.7822H122.637V31.2668C122.637 32.5604 122.258 33.2676 121.033 33.2676C120.084 33.2676 119.463 32.8364 119.463 31.2323V26.7822H116.807V32.1982C116.807 34.2508 117.945 35.6306 119.98 35.6306Z" fill="#243A5A"/>
<path d="M129.505 35.4062V30.6974C129.505 29.2485 130.282 28.8345 131.041 28.8345C131.886 28.8345 132.437 29.352 132.437 30.4214V35.4062H135.059V30.6974C135.059 29.2313 135.818 28.8173 136.577 28.8173C137.422 28.8173 137.991 29.3347 137.991 30.4214V35.4062H140.579V29.7659C140.579 27.7996 139.544 26.4888 137.319 26.4888C136.077 26.4888 135.059 27.0924 134.611 28.0238C134.093 27.0924 133.196 26.4888 131.765 26.4888C130.816 26.4888 129.937 26.9199 129.419 27.6099L129.316 26.782H126.832V35.4062H129.505Z" fill="#243A5A"/>
<path d="M18.9216 30.3151C18.9216 22.8699 18.9216 19.1473 21.2346 16.8344C23.5475 14.5215 27.2701 14.5215 34.7152 14.5215C42.1604 14.5215 45.883 14.5215 48.196 16.8344C50.5089 19.1473 50.5089 22.8699 50.5089 30.3151C50.5089 37.7603 50.5089 41.4828 48.196 43.7958C45.883 46.1087 42.1604 46.1087 34.7152 46.1087C27.2701 46.1087 23.5475 46.1087 21.2346 43.7958C18.9216 41.4828 18.9216 37.7603 18.9216 30.3151Z" fill="#243A5A"/>
<path d="M37.8739 35.0532C38.31 35.0532 38.6715 35.4102 38.5849 35.8377C38.4318 36.5926 38.0598 37.2924 37.507 37.8451C36.7666 38.5856 35.7623 39.0016 34.7151 39.0016C33.6679 39.0016 32.6637 38.5856 31.9232 37.8451C31.3704 37.2924 30.9985 36.5926 30.8455 35.8377C30.7588 35.4102 31.1203 35.0532 31.5564 35.0532H37.8739Z" fill="#2DF8BB"/>
<path d="M39.534 28.559C39.1127 28.6719 38.8547 29.1126 39.0683 29.4928C39.2931 29.893 39.6041 30.2423 39.9824 30.5134C40.5764 30.939 41.2996 31.1456 42.0289 31.0978C42.7581 31.05 43.4482 30.7509 43.9816 30.2513C44.515 29.7518 44.8586 29.0827 44.954 28.3581C45.0494 27.6336 44.8906 26.8984 44.5047 26.2778C44.1188 25.6573 43.5296 25.1897 42.8376 24.9548C42.1456 24.7198 41.3936 24.7321 40.7097 24.9896C40.2741 25.1535 39.8833 25.4104 39.5626 25.7388C39.2578 26.0508 39.393 26.5433 39.7707 26.7613L40.1713 26.9926C40.7805 27.3444 40.6604 28.2572 39.9808 28.4393L39.534 28.559Z" fill="#2DF8BB"/>
<path d="M29.8965 28.559C30.3178 28.6719 30.5758 29.1126 30.3621 29.4928C30.1373 29.893 29.8264 30.2423 29.4481 30.5134C28.8541 30.939 28.1308 31.1456 27.4016 31.0978C26.6724 31.05 25.9823 30.7509 25.4489 30.2513C24.9155 29.7518 24.5719 29.0827 24.4765 28.3581C24.3811 27.6336 24.5399 26.8984 24.9258 26.2778C25.3117 25.6573 25.9008 25.1897 26.5929 24.9548C27.2848 24.7198 28.0369 24.7321 28.7209 24.9896C29.1564 25.1535 29.5472 25.4104 29.868 25.7388C30.1727 26.0508 30.0375 26.5433 29.6598 26.7613L29.2592 26.9926C28.65 27.3444 28.7702 28.2572 29.4497 28.4393L29.8965 28.559Z" fill="#2DF8BB"/>
</g>
<defs>
<clipPath id="clip0_276_587">
<rect width="122.401" height="31.5872" fill="white" transform="translate(18.9216 14.5215)"/>
</clipPath>
</defs>
</svg>
