<svg width="76" height="79" viewBox="0 0 76 79" fill="none" xmlns="http://www.w3.org/2000/svg">
<path d="M72.7335 26.9521C71.1015 23.0265 67.796 18.7884 65.2004 17.4489C67.3129 21.5903 68.5356 25.7446 69.0028 28.8451C69.0028 28.8512 69.0051 28.8664 69.0101 28.9076C64.764 18.3243 57.5642 14.0568 51.685 4.76495C51.3881 4.29511 51.0904 3.82401 50.8004 3.32745C50.6528 3.07386 50.5148 2.81464 50.387 2.55058C50.1428 2.07901 49.9543 1.58058 49.8256 1.06526C49.8275 1.01495 49.7901 0.971045 49.7403 0.964639C49.7173 0.958076 49.6928 0.958076 49.6698 0.964639C49.6645 0.966514 49.6567 0.972607 49.651 0.974795C49.6428 0.978076 49.6323 0.985576 49.6235 0.99042C49.6278 0.984795 49.6365 0.972139 49.6392 0.96917C40.2064 6.49354 37.0064 16.7131 36.7123 21.826C32.946 22.085 29.3437 23.4731 26.3776 25.8085C26.067 25.5462 25.7423 25.301 25.405 25.0742C24.5492 22.08 24.5128 18.9103 25.2996 15.8973C21.4421 17.6537 18.4418 20.4301 16.2606 22.8817H16.2432C14.7546 20.9962 14.8596 14.7765 14.9445 13.4779C14.9267 13.3975 13.834 14.0451 13.6909 14.1428C12.3773 15.0804 11.1493 16.1325 10.0212 17.2865C8.73745 18.5884 7.56464 19.995 6.51464 21.4917C6.51464 21.4935 6.51355 21.4957 6.51292 21.4976C6.51292 21.4956 6.51401 21.4935 6.51464 21.4917C4.10011 24.9134 2.38745 28.78 1.47604 32.8675C1.45808 32.9489 1.44292 33.0332 1.42542 33.1153C1.35479 33.4459 1.10042 35.0996 1.05589 35.459C1.05245 35.4867 1.05089 35.5132 1.04761 35.5409C0.718701 37.2507 0.515107 38.9823 0.438232 40.7217C0.438232 40.7857 0.434326 40.8492 0.434326 40.9134C0.434951 61.6498 17.2475 78.4595 37.9856 78.4595C56.5582 78.4595 71.9793 64.977 74.9984 47.2673C75.062 46.7867 75.1129 46.3035 75.169 45.8187C75.9154 39.3796 75.0862 32.6117 72.7335 26.9521ZM29.4531 56.3418C29.6287 56.4257 29.7937 56.5175 29.974 56.5979C29.9815 56.6031 29.9918 56.6089 29.9995 56.6135C29.8159 56.5257 29.6339 56.4353 29.4531 56.3418ZM69.0131 28.9168L69.0081 28.8804C69.01 28.8937 69.0123 28.9076 69.0143 28.9209L69.0131 28.9168Z" fill="url(#paint0_linear_66_1072)"/>
<path d="M72.7352 26.9523C71.1032 23.0266 67.7977 18.7885 65.2021 17.449C67.3146 21.5904 68.5372 25.7448 69.0044 28.8452C69.0044 28.8362 69.0061 28.8527 69.01 28.8805C69.0119 28.8938 69.0143 28.9077 69.0163 28.921C72.5592 38.5257 70.6291 48.2926 67.8477 54.2608C63.5447 63.4952 53.1266 72.9593 36.8202 72.4977C19.2022 71.9988 3.68128 58.9265 0.783935 41.8049C0.255967 39.1049 0.783936 37.734 1.04956 35.5418C0.725967 37.2318 0.602686 37.7199 0.440186 40.7226C0.440186 40.7866 0.436279 40.8501 0.436279 40.9143C0.436592 61.6499 17.2491 78.4596 37.9872 78.4596C56.5599 78.4596 71.981 64.9771 75 47.2674C75.0636 46.7868 75.1146 46.3037 75.1707 45.8188C75.9171 39.3798 75.0878 32.6118 72.7352 26.9523Z" fill="url(#paint1_radial_66_1072)"/>
<path d="M72.7352 26.9523C71.1032 23.0266 67.7977 18.7885 65.2021 17.449C67.3146 21.5904 68.5372 25.7448 69.0044 28.8452C69.0044 28.8362 69.0061 28.8527 69.01 28.8805C69.0119 28.8938 69.0143 28.9077 69.0163 28.921C72.5592 38.5257 70.6291 48.2926 67.8477 54.2608C63.5447 63.4952 53.1266 72.9593 36.8202 72.4977C19.2022 71.9988 3.68128 58.9265 0.783935 41.8049C0.255967 39.1049 0.783936 37.734 1.04956 35.5418C0.725967 37.2318 0.602686 37.7199 0.440186 40.7226C0.440186 40.7866 0.436279 40.8501 0.436279 40.9143C0.436592 61.6499 17.2491 78.4596 37.9872 78.4596C56.5599 78.4596 71.981 64.9771 75 47.2674C75.0636 46.7868 75.1146 46.3037 75.1707 45.8188C75.9171 39.3798 75.0878 32.6118 72.7352 26.9523Z" fill="url(#paint2_radial_66_1072)"/>
<path d="M54.486 31.3657C54.5678 31.4232 54.6422 31.4804 54.7192 31.5376C53.7769 29.8651 52.6033 28.3337 51.2333 26.9888C39.5607 15.3176 48.1725 1.68226 49.6249 0.989756C49.6291 0.984131 49.6378 0.971475 49.6405 0.968506C40.2077 6.49288 37.0077 16.7124 36.7136 21.8254C37.1511 21.7951 37.5874 21.7584 38.0327 21.7584C45.0719 21.7584 51.2028 25.6287 54.486 31.3657Z" fill="url(#paint3_radial_66_1072)"/>
<path d="M38.0565 33.6964C37.9951 34.6304 34.695 37.8515 33.5409 37.8515C22.8629 37.8515 21.1296 44.3101 21.1296 44.3101C21.6026 49.7492 25.3892 54.2281 29.9751 56.5981C30.1843 56.7062 30.396 56.8039 30.6079 56.9004C30.9712 57.0612 31.339 57.2117 31.7109 57.3514C33.2832 57.9081 34.9303 58.2257 36.597 58.2937C55.3126 59.1715 58.9385 35.9196 45.4321 29.1675C48.891 28.5659 52.4814 29.957 54.4864 31.3654C51.2032 25.6289 45.0723 21.7585 38.0332 21.7585C37.5879 21.7585 37.1518 21.7953 36.7142 21.8256C32.9479 22.0845 29.3456 23.4726 26.3795 25.8081C26.952 26.2925 27.5982 26.94 28.9598 28.2812C31.507 30.7917 38.0426 33.3914 38.0565 33.6964Z" fill="url(#paint4_radial_66_1072)"/>
<path d="M38.0565 33.6964C37.9951 34.6304 34.695 37.8515 33.5409 37.8515C22.8629 37.8515 21.1296 44.3101 21.1296 44.3101C21.6026 49.7492 25.3892 54.2281 29.9751 56.5981C30.1843 56.7062 30.396 56.8039 30.6079 56.9004C30.9712 57.0612 31.339 57.2117 31.7109 57.3514C33.2832 57.9081 34.9303 58.2257 36.597 58.2937C55.3126 59.1715 58.9385 35.9196 45.4321 29.1675C48.891 28.5659 52.4814 29.957 54.4864 31.3654C51.2032 25.6289 45.0723 21.7585 38.0332 21.7585C37.5879 21.7585 37.1518 21.7953 36.7142 21.8256C32.9479 22.0845 29.3456 23.4726 26.3795 25.8081C26.952 26.2925 27.5982 26.94 28.9598 28.2812C31.507 30.7917 38.0426 33.3914 38.0565 33.6964Z" fill="url(#paint5_radial_66_1072)"/>
<path d="M24.6285 24.5594C24.8901 24.7282 25.1495 24.9001 25.4068 25.0751C24.551 22.0809 24.5146 18.9112 25.3015 15.8982C21.444 17.6546 18.4437 20.431 16.2625 22.8826C16.4429 22.8774 21.8896 22.7794 24.6285 24.5594Z" fill="url(#paint6_radial_66_1072)"/>
<path d="M0.78254 41.8052C3.67988 58.9267 19.2008 71.9991 36.8188 72.498C53.1252 72.9595 63.5433 63.4949 67.8463 54.2611C70.6275 48.2924 72.5579 38.5267 69.0149 28.9213L69.0136 28.9172L69.0086 28.8808C69.0047 28.853 69.0024 28.8364 69.003 28.8455C69.003 28.8516 69.0054 28.8667 69.0104 28.908C70.3422 37.605 65.9182 46.0305 59.0024 51.7274L58.9816 51.7763C45.5058 62.7486 32.6107 58.3963 29.9997 56.6147C29.8163 56.5264 29.6339 56.4356 29.4529 56.3424C21.5963 52.5878 18.3507 45.4302 19.0466 39.2917C12.4127 39.2917 10.1507 33.6966 10.1507 33.6966C10.1507 33.6966 16.1068 29.4499 23.9566 33.1433C31.2269 36.5641 38.0547 33.6969 38.0555 33.6966C38.0416 33.3916 31.506 30.7919 28.9582 28.2816C27.5968 26.9403 26.9504 26.2936 26.3779 25.8085C26.0672 25.5461 25.7425 25.301 25.4052 25.0741C25.1475 24.8994 24.8882 24.7275 24.6269 24.5585C21.8882 22.7785 16.4413 22.8764 16.2608 22.8811H16.2435C14.7549 20.9956 14.8599 14.776 14.9447 13.4774C14.9269 13.3969 13.8343 14.0445 13.6911 14.1422C12.3775 15.0799 11.1496 16.1319 10.0214 17.286C8.7377 18.5881 7.56473 19.995 6.51488 21.4921C6.51488 21.4939 6.51379 21.4961 6.51316 21.498C6.51316 21.496 6.51426 21.4939 6.51488 21.4921C4.10035 24.9138 2.3877 28.7803 1.47629 32.8678C1.45832 32.9492 0.124728 38.7806 0.78254 41.8052Z" fill="url(#paint7_radial_66_1072)"/>
<path d="M51.2331 26.9887C52.6031 28.3335 53.7767 29.865 54.719 31.5375C54.9257 31.6928 55.1189 31.8476 55.2828 31.9987C63.7956 39.8425 59.3353 50.9362 59.0026 51.7268C65.9184 46.03 70.3424 37.6045 69.0106 28.9075C64.7645 18.3243 57.5646 14.0568 51.6854 4.76495C51.3885 4.29511 51.0909 3.82401 50.8009 3.32745C50.6532 3.07386 50.5153 2.81464 50.3874 2.55058C50.1432 2.07901 49.9548 1.58058 49.826 1.06526C49.8279 1.01495 49.7906 0.971045 49.7407 0.964639C49.7178 0.958076 49.6932 0.958076 49.6703 0.964639C49.6649 0.966514 49.6571 0.972607 49.6515 0.974795C49.6432 0.978076 49.6328 0.985576 49.624 0.99042C48.1723 1.68229 39.5604 15.3176 51.2331 26.9887Z" fill="url(#paint8_radial_66_1072)"/>
<path d="M55.2836 31.9992C55.1197 31.8481 54.9266 31.6932 54.7199 31.5379C54.6435 31.4804 54.5685 31.4232 54.4866 31.366C52.4816 29.9576 48.8913 28.5665 45.4324 29.1681C58.9388 35.9203 55.3128 59.1721 36.5972 58.2943C34.9305 58.2264 33.2835 57.9087 31.7111 57.352C31.3392 57.2121 30.9714 57.0618 30.6082 56.901C30.3963 56.8045 30.1846 56.7068 29.9753 56.5987C29.9828 56.6039 29.9932 56.6096 30.0008 56.6143C32.6117 58.3956 45.5069 62.7482 58.9827 51.7759L59.0035 51.727C59.3361 50.9373 63.7964 39.8431 55.2836 31.9992Z" fill="url(#paint9_radial_66_1072)"/>
<path d="M21.1291 44.31C21.1291 44.31 22.8624 37.8514 33.5403 37.8514C34.6947 37.8514 37.9949 34.6303 38.056 33.6962C38.1171 32.7622 31.2278 36.5637 23.9571 33.143C16.1072 29.4495 10.1511 33.6962 10.1511 33.6962C10.1511 33.6962 12.4132 39.2914 19.0471 39.2914C18.3513 45.4298 21.5969 52.5883 29.4533 56.342C29.6289 56.4259 29.7939 56.5177 29.9742 56.5981C25.3886 54.228 21.6021 49.7491 21.1291 44.31Z" fill="url(#paint10_radial_66_1072)"/>
<path d="M72.7349 26.9521C71.1028 23.0265 67.7974 18.7884 65.2017 17.4489C67.3142 21.5903 68.5369 25.7446 69.0041 28.8451C69.0041 28.8512 69.0064 28.8664 69.0114 28.9076C64.7653 18.3243 57.5655 14.0568 51.6863 4.76495C51.3894 4.29511 51.0917 3.82401 50.8017 3.32745C50.6541 3.07386 50.5161 2.81464 50.3883 2.55058C50.1441 2.07901 49.9557 1.58058 49.8269 1.06526C49.8288 1.01495 49.7914 0.971045 49.7416 0.964639C49.7186 0.958076 49.6941 0.958076 49.6711 0.964639C49.6658 0.966514 49.658 0.972607 49.6524 0.974795C49.6441 0.978076 49.6336 0.985576 49.6249 0.99042C49.6291 0.984795 49.6378 0.972139 49.6405 0.96917C40.2077 6.49354 37.0077 16.7131 36.7136 21.826C37.1511 21.7957 37.5874 21.759 38.0327 21.759C45.0722 21.759 51.2032 25.6293 54.4858 31.3659C52.4808 29.9575 48.8905 28.5664 45.4316 29.1679C58.938 35.9201 55.3121 59.172 36.5964 58.2942C34.9297 58.2262 33.2827 57.9085 31.7103 57.3518C31.3385 57.212 30.9707 57.0617 30.6074 56.9009C30.3955 56.8043 30.1838 56.7067 29.9746 56.5985C29.9821 56.6037 29.9924 56.6095 30 56.6142C29.8166 56.5259 29.6342 56.4351 29.4532 56.3418C29.6288 56.4257 29.7938 56.5175 29.9741 56.5979C25.3882 54.2279 21.6016 49.749 21.1286 44.31C21.1286 44.31 22.8619 37.8514 33.5399 37.8514C34.6942 37.8514 37.9944 34.6303 38.0555 33.6962C38.0416 33.3912 31.506 30.7915 28.9582 28.2812C27.5967 26.94 26.9503 26.2932 26.3778 25.8081C26.0672 25.5457 25.7425 25.3006 25.4052 25.0737C24.5494 22.0795 24.513 18.9098 25.2999 15.8968C21.4424 17.6532 18.4421 20.4296 16.2608 22.8812H16.2435C14.7549 20.9957 14.8599 14.776 14.9447 13.4775C14.9269 13.397 13.8342 14.0446 13.6911 14.1423C12.3775 15.08 11.1496 16.132 10.0214 17.286C8.73815 18.5881 7.5655 19.9948 6.51597 21.4917C6.51597 21.4935 6.51487 21.4957 6.51425 21.4976C6.51425 21.4956 6.51534 21.4935 6.51597 21.4917C4.10144 24.9134 2.38878 28.78 1.47737 32.8675C1.4594 32.9489 1.44425 33.0332 1.42675 33.1153C1.35612 33.4459 1.03831 35.1235 0.993936 35.4834C0.990498 35.511 0.997217 35.4559 0.993936 35.4834C0.704092 37.217 0.519248 38.9665 0.440185 40.7225C0.440185 40.7865 0.436279 40.85 0.436279 40.9142C0.436279 61.6498 17.2488 78.4595 37.9869 78.4595C56.5596 78.4595 71.9807 64.977 74.9997 47.2673C75.0633 46.7867 75.1143 46.3035 75.1703 45.8187C75.9167 39.3796 75.0875 32.6117 72.7349 26.9521ZM69.0097 28.8804C69.0116 28.8937 69.0139 28.9076 69.016 28.9209L69.0147 28.9168L69.0097 28.8804Z" fill="url(#paint11_linear_66_1072)"/>
<defs>
<linearGradient id="paint0_linear_66_1072" x1="65.8723" y1="12.9722" x2="7.48433" y2="73.112" gradientUnits="userSpaceOnUse">
<stop stop-color="#FFF44F"/>
<stop offset="0.05" stop-color="#FFF44F"/>
<stop offset="0.37" stop-color="#FF980E"/>
<stop offset="0.53" stop-color="#FF3647"/>
<stop offset="0.7" stop-color="#E31587"/>
<stop offset="1" stop-color="#E31587"/>
</linearGradient>
<radialGradient id="paint1_radial_66_1072" cx="0" cy="0" r="1" gradientUnits="userSpaceOnUse" gradientTransform="translate(131.537 9.5786) scale(96.0003 96.0003)">
<stop stop-color="#FFBD4F"/>
<stop offset="0.13" stop-color="#FFBD4F"/>
<stop offset="0.28" stop-color="#FF980E"/>
<stop offset="0.47" stop-color="#FF3750"/>
<stop offset="0.78" stop-color="#EB0878"/>
<stop offset="0.86" stop-color="#E50080"/>
<stop offset="1" stop-color="#E50080"/>
</radialGradient>
<radialGradient id="paint2_radial_66_1072" cx="0" cy="0" r="1" gradientUnits="userSpaceOnUse" gradientTransform="translate(73.9366 66.2574) scale(96.0003 96.0003)">
<stop stop-color="#960E18"/>
<stop offset="0.3" stop-color="#960E18"/>
<stop offset="0.35" stop-color="#B11927" stop-opacity="0.74"/>
<stop offset="0.43" stop-color="#DB293D" stop-opacity="0.34"/>
<stop offset="0.5" stop-color="#F5334B" stop-opacity="0.09"/>
<stop offset="0.53" stop-color="#FF3750" stop-opacity="0"/>
<stop offset="1" stop-color="#FF3750" stop-opacity="0"/>
</radialGradient>
<radialGradient id="paint3_radial_66_1072" cx="0" cy="0" r="1" gradientUnits="userSpaceOnUse" gradientTransform="translate(45.3563 -2.69978) scale(42.7967 42.7967)">
<stop stop-color="#FFF44F"/>
<stop offset="0.13" stop-color="#FFF44F"/>
<stop offset="0.53" stop-color="#FF980E"/>
<stop offset="1" stop-color="#FF980E"/>
</radialGradient>
<radialGradient id="paint4_radial_66_1072" cx="0" cy="0" r="1" gradientUnits="userSpaceOnUse" gradientTransform="translate(28.7217 62.014) scale(36.5594 36.5594)">
<stop stop-color="#3A8EE6"/>
<stop offset="0.35" stop-color="#3A8EE6"/>
<stop offset="0.67" stop-color="#9059FF"/>
<stop offset="1" stop-color="#C139E6"/>
</radialGradient>
<radialGradient id="paint5_radial_66_1072" cx="0" cy="0" r="1" gradientUnits="userSpaceOnUse" gradientTransform="translate(36.7406 33.8231) scale(19.413 21.57)">
<stop stop-color="#9059FF" stop-opacity="0"/>
<stop offset="0.21" stop-color="#9059FF" stop-opacity="0"/>
<stop offset="0.97" stop-color="#6E008B" stop-opacity="0.6"/>
<stop offset="1" stop-color="#6E008B" stop-opacity="0.6"/>
</radialGradient>
<radialGradient id="paint6_radial_66_1072" cx="0" cy="0" r="1" gradientUnits="userSpaceOnUse" gradientTransform="translate(35.4656 6.72132) scale(26.613 26.613)">
<stop stop-color="#FFE226"/>
<stop offset="0.1" stop-color="#FFE226"/>
<stop offset="0.79" stop-color="#FF7139"/>
<stop offset="1" stop-color="#FF7139"/>
</radialGradient>
<radialGradient id="paint7_radial_66_1072" cx="0" cy="0" r="1" gradientUnits="userSpaceOnUse" gradientTransform="translate(59.6832 -10.7375) scale(126.606 126.606)">
<stop stop-color="#FFF44F"/>
<stop offset="0.11" stop-color="#FFF44F"/>
<stop offset="0.46" stop-color="#FF980E"/>
<stop offset="0.72" stop-color="#FF3647"/>
<stop offset="0.9" stop-color="#E31587"/>
<stop offset="1" stop-color="#E31587"/>
</radialGradient>
<radialGradient id="paint8_radial_66_1072" cx="0" cy="0" r="1" gradientUnits="userSpaceOnUse" gradientTransform="translate(52.9217 -18.1288) scale(177.077 177.077)">
<stop stop-color="#FFF44F"/>
<stop offset="0.3" stop-color="#FF980E"/>
<stop offset="0.57" stop-color="#FF3647"/>
<stop offset="0.74" stop-color="#E31587"/>
<stop offset="1" stop-color="#E31587"/>
</radialGradient>
<radialGradient id="paint9_radial_66_1072" cx="0" cy="0" r="1" gradientUnits="userSpaceOnUse" gradientTransform="translate(35.7382 16.2932) scale(72.6903)">
<stop stop-color="#FFF44F"/>
<stop offset="0.14" stop-color="#FFF44F"/>
<stop offset="0.48" stop-color="#FF980E"/>
<stop offset="0.66" stop-color="#FF3647"/>
<stop offset="0.9" stop-color="#E31587"/>
<stop offset="1" stop-color="#E31587"/>
</radialGradient>
<radialGradient id="paint10_radial_66_1072" cx="0" cy="0" r="1" gradientUnits="userSpaceOnUse" gradientTransform="translate(54.6042 20.4694) scale(87.3714 87.3714)">
<stop stop-color="#FFF44F"/>
<stop offset="0.09" stop-color="#FFF44F"/>
<stop offset="0.63" stop-color="#FF980E"/>
<stop offset="1" stop-color="#FF980E"/>
</radialGradient>
<linearGradient id="paint11_linear_66_1072" x1="60.4363" y1="11.8097" x2="13.9363" y2="66.0595" gradientUnits="userSpaceOnUse">
<stop stop-color="#FFF44F" stop-opacity="0.8"/>
<stop offset="0.17" stop-color="#FFF44F" stop-opacity="0.8"/>
<stop offset="0.6" stop-color="#FFF44F" stop-opacity="0"/>
<stop offset="1" stop-color="#FFF44F" stop-opacity="0"/>
</linearGradient>
</defs>
</svg>
