<svg width="81" height="81" viewBox="0 0 81 81" fill="none" xmlns="http://www.w3.org/2000/svg">
<path d="M27.0057 62.8904C22.5817 57.6664 19.7177 49.9544 19.5257 41.2904C19.5257 41.2664 19.5257 39.4264 19.5257 39.4024C19.7177 30.7384 22.5817 23.0264 27.0057 17.8024C32.7497 10.3544 41.2777 5.62644 50.7977 5.62644C56.6537 5.62644 62.1417 7.41844 66.8297 10.5304C59.7897 4.22644 50.5097 0.386436 40.3257 0.346436C40.2777 0.346436 40.2217 0.346436 40.1737 0.346436C18.0857 0.346436 0.173706 18.2584 0.173706 40.3464C0.173706 61.8024 17.0617 79.3064 38.2697 80.2984C38.9017 80.3304 39.5337 80.3464 40.1737 80.3464C50.4137 80.3464 59.7577 76.4984 66.8297 70.1704C62.1417 73.2744 56.6617 75.0664 50.7977 75.0664C41.2777 75.0664 32.7497 70.3384 27.0057 62.8904Z" fill="url(#paint0_linear_66_734)"/>
<path d="M27.0096 17.8017C30.6816 13.4657 35.4176 10.8577 40.6016 10.8577C52.2496 10.8577 61.6816 24.0577 61.6816 40.3457C61.6816 56.6337 52.2416 69.8337 40.6016 69.8337C35.4256 69.8337 30.6816 67.2177 27.0096 62.8897C32.7536 70.3377 41.2816 75.0657 50.8016 75.0657C56.6576 75.0657 62.1456 73.2737 66.8336 70.1697C75.0256 62.8417 80.1776 52.1937 80.1776 40.3457C80.1776 28.4977 75.0256 17.8497 66.8336 10.5297C62.1456 7.41773 56.6656 5.62573 50.8016 5.62573C41.2816 5.62573 32.7536 10.3537 27.0096 17.8017Z" fill="url(#paint1_linear_66_734)"/>
<defs>
<linearGradient id="paint0_linear_66_734" x1="33.5035" y1="1.65076" x2="33.5035" y2="79.1821" gradientUnits="userSpaceOnUse">
<stop offset="0.3" stop-color="#FF1B2D"/>
<stop offset="0.4381" stop-color="#FA1A2C"/>
<stop offset="0.5939" stop-color="#ED1528"/>
<stop offset="0.7581" stop-color="#D60E21"/>
<stop offset="0.9272" stop-color="#B70519"/>
<stop offset="1" stop-color="#A70014"/>
</linearGradient>
<linearGradient id="paint1_linear_66_734" x1="53.5944" y1="6.21979" x2="53.5944" y2="74.7925" gradientUnits="userSpaceOnUse">
<stop stop-color="#9C0000"/>
<stop offset="0.7" stop-color="#FF4B4B"/>
</linearGradient>
</defs>
</svg>
