<svg width="29" height="33" viewBox="0 0 29 33" fill="none" xmlns="http://www.w3.org/2000/svg">
<path d="M10.1623 0.205761C9.59354 0.480761 9.03104 1.23076 8.53729 2.3745C8.29354 2.94325 7.88104 3.5745 7.63104 3.762C7.38729 3.937 6.79354 4.1245 6.2373 4.19325C4.1498 4.45575 3.58105 4.69325 3.1623 5.44325C2.98105 5.7745 2.9748 5.7995 2.98105 6.62449C2.98105 7.25574 3.01855 7.62449 3.11855 8.08699C3.20605 8.46824 3.25605 8.91824 3.25605 9.26199C3.25605 9.79323 3.24355 9.83698 3.0373 10.162C2.91855 10.3495 2.41231 10.9057 1.91856 11.3932C0.931059 12.3682 0.66856 12.762 0.59356 13.3932C0.49981 14.1932 0.831059 14.7932 2.04356 15.9682C2.4998 16.412 2.9623 16.9182 3.0623 17.087C3.2373 17.3745 3.25605 17.4495 3.25605 17.937C3.25605 18.2682 3.19355 18.762 3.09355 19.2432C2.8998 20.2057 2.8748 21.012 3.0373 21.4932C3.2248 22.0557 3.75605 22.4994 4.5498 22.7494L4.8748 22.8494L3.58105 25.2494C2.29981 27.6369 2.28731 27.6557 2.28731 28.0432C2.28731 28.4682 2.39356 28.6744 2.74355 28.9119C2.99355 29.0869 3.25605 29.1119 5.1748 29.1619L6.75604 29.2057L7.85604 30.5369C8.56229 31.3869 9.03729 31.9057 9.16854 31.9682C9.27479 32.0182 9.51854 32.0619 9.70604 32.0619C10.3185 32.0619 10.2935 32.0932 12.0123 28.9619L13.556 26.1557L13.9185 25.9682C14.4185 25.7119 15.056 25.6994 15.5623 25.9369L15.906 26.0994L17.4685 28.9369C19.231 32.1244 19.181 32.0619 19.831 32.0619C20.0748 32.0619 20.2685 32.0244 20.3935 31.9494C20.4935 31.8932 21.0685 31.2494 21.6685 30.5244L22.756 29.2057L24.3997 29.1619C25.2997 29.1369 26.156 29.1057 26.306 29.0807C26.856 29.0119 27.256 28.5682 27.256 28.0369C27.256 27.7494 27.1622 27.5432 25.9747 25.3369C25.2685 24.0307 24.6935 22.9244 24.6935 22.8932C24.6935 22.8557 24.7935 22.8119 24.9122 22.7932C25.4997 22.6994 26.206 22.1494 26.4497 21.5995C26.6497 21.1495 26.6372 20.2995 26.4185 19.2495C26.3185 18.7557 26.256 18.2745 26.256 17.9307C26.256 17.412 26.2685 17.3745 26.481 17.0557C26.5997 16.8682 27.106 16.3245 27.5935 15.8432C28.3435 15.112 28.5185 14.8995 28.6997 14.5307C28.8872 14.1432 28.9122 14.037 28.9122 13.5932C28.9122 12.812 28.756 12.5495 27.6185 11.4182C27.106 10.912 26.5935 10.3432 26.4747 10.1557C26.2685 9.83698 26.256 9.78698 26.256 9.26199C26.256 8.93074 26.306 8.46824 26.3872 8.11824C26.456 7.79324 26.531 7.21824 26.5497 6.84324C26.5935 5.96824 26.4997 5.587 26.1247 5.162C25.6747 4.65575 25.106 4.44325 23.731 4.28075C22.4373 4.13075 21.981 3.962 21.6123 3.512C21.481 3.3495 21.1248 2.712 20.8185 2.09326C20.1998 0.837009 19.9185 0.47451 19.3623 0.212011C19.106 0.0932617 18.931 0.0620117 18.5498 0.0620117C17.9748 0.0620117 17.5623 0.205761 16.6623 0.712009C15.8373 1.17451 15.581 1.29326 15.1498 1.39951C14.7935 1.49326 14.7248 1.49326 14.356 1.39951C14.1373 1.34326 13.7748 1.20576 13.556 1.08701C13.3373 0.968258 12.8123 0.699509 12.381 0.487009C11.6248 0.105761 11.5873 0.0995102 11.0373 0.0745106C10.5435 0.0557594 10.4373 0.0745106 10.1623 0.205761ZM18.956 1.17451C19.2498 1.36826 19.5123 1.76201 19.956 2.687C20.4185 3.6495 20.7998 4.23075 21.156 4.54325C21.4435 4.7995 22.2685 5.112 22.8685 5.19325C24.2747 5.38075 24.6872 5.45575 24.9935 5.59325C25.2747 5.72449 25.3435 5.78699 25.456 6.03699C25.5622 6.28699 25.5747 6.40574 25.5435 6.80574C25.5185 7.06824 25.4372 7.54949 25.3622 7.87449C25.2622 8.30574 25.2247 8.67449 25.2247 9.22449C25.2247 9.97448 25.231 9.98073 25.4685 10.4745C25.6872 10.9057 25.831 11.0807 26.6622 11.9057C28.2935 13.5182 28.2935 13.662 26.6685 15.2807C25.4497 16.4932 25.2685 16.8057 25.2122 17.762C25.181 18.312 25.206 18.5307 25.356 19.2807C25.5747 20.3807 25.5935 21.0432 25.406 21.2932C25.1872 21.587 24.831 21.7432 24.1247 21.8432C22.4498 22.0869 22.231 22.1307 21.7873 22.3182C21.3998 22.4807 21.2498 22.5807 20.9123 22.9494C20.5748 23.3182 20.4248 23.5619 19.981 24.4682C19.681 25.0869 19.3498 25.6619 19.2248 25.8057C18.7935 26.2807 18.406 26.2619 17.4123 25.7182C16.3123 25.1119 15.9185 24.9369 15.356 24.7994C14.8123 24.6619 14.7935 24.6619 14.2623 24.7744C13.731 24.8807 13.4685 24.9932 12.0185 25.7494C11.4998 26.0182 11.2935 26.0932 10.9998 26.1119L10.6248 26.1369L10.3498 25.8494C10.1498 25.6494 9.91854 25.2494 9.53729 24.4744C9.09979 23.5869 8.92479 23.3057 8.61229 22.9619C8.04354 22.3432 7.39979 22.0807 6.0998 21.937C4.83105 21.8057 4.3248 21.6307 4.10605 21.2557C3.9373 20.962 3.95605 20.362 4.1623 19.2495C4.30605 18.4995 4.3248 18.237 4.2998 17.737C4.24355 16.812 3.93105 16.2932 2.78105 15.2245C1.26231 13.7995 1.26231 13.4682 2.74355 12.0682C3.49355 11.3557 3.8498 10.9307 4.1373 10.3745C4.3498 9.96823 4.3498 8.74324 4.1373 7.84324C3.9498 7.04324 3.93105 6.22449 4.0873 5.98075C4.2998 5.65575 4.91855 5.44325 6.06855 5.312C6.91854 5.212 7.41229 5.087 7.91229 4.84325C8.53729 4.54325 8.93104 4.037 9.57479 2.70575C10.1623 1.48701 10.456 1.12451 10.8623 1.12451C11.2123 1.12451 11.8373 1.33076 12.2873 1.59326C14.3248 2.79325 15.1498 2.787 17.2998 1.56201C18.131 1.08701 18.6435 0.968258 18.956 1.17451ZM24.8747 25.4994C25.6247 26.8932 26.231 28.0369 26.231 28.0432C26.2247 28.0494 25.3497 28.0869 24.2872 28.1307C23.0935 28.1744 22.2998 28.2307 22.2185 28.2744C22.1435 28.3119 21.5873 28.9432 20.9748 29.6807C20.2498 30.5557 19.8498 30.9932 19.806 30.9494C19.7248 30.8682 17.631 27.0369 17.656 27.0119C17.6685 27.0057 17.8123 27.0244 17.9685 27.0682C18.381 27.1682 19.106 27.1119 19.4123 26.9494C19.9435 26.6744 20.4248 26.0307 20.9123 24.9369C21.181 24.3244 21.5685 23.6932 21.7998 23.4869C21.9935 23.3119 22.4998 23.1119 22.9685 23.0307C23.2122 22.9869 23.4373 22.9557 23.4622 22.9619C23.4935 22.9682 24.1247 24.1119 24.8747 25.4994ZM6.72479 23.0932C7.68104 23.3182 7.91229 23.5557 8.69354 25.1557C9.26229 26.3119 9.57479 26.7119 10.1185 26.9807C10.4185 27.1307 10.5498 27.1557 10.9435 27.1494C11.1998 27.1494 11.5248 27.0994 11.6685 27.0494L11.9248 26.9557L11.6685 27.4369C11.5248 27.6994 11.031 28.6182 10.5685 29.4869C10.106 30.3494 9.71229 31.0557 9.69354 31.0557C9.67479 31.0557 9.15604 30.4307 8.53729 29.6744C7.91854 28.9182 7.35604 28.2744 7.28729 28.2494C7.21229 28.2244 6.2873 28.1619 5.21855 28.1182L3.28105 28.0369L4.63105 25.5244C6.15605 22.6682 5.9498 22.9057 6.72479 23.0932Z" fill="white"/>
<path d="M14.0061 4.31187C10.3623 4.58686 7.1811 7.03061 5.9561 10.5056C5.5686 11.6118 5.47485 12.2056 5.47485 13.6243C5.4811 14.6993 5.49985 14.9993 5.61235 15.5118C6.46235 19.2993 9.31859 22.0806 13.0998 22.7868C13.9623 22.9493 15.5498 22.9493 16.4123 22.7868C20.1873 22.0806 23.0561 19.2931 23.8936 15.5118C24.0123 14.9993 24.0311 14.6993 24.0373 13.6243C24.0373 12.5056 24.0186 12.2618 23.8936 11.6931C23.2748 8.9431 21.6373 6.74936 19.1811 5.38686C17.7186 4.57437 15.8123 4.18062 14.0061 4.31187ZM15.9436 5.40561C17.2373 5.59936 18.5186 6.11811 19.5873 6.88061C20.5811 7.58686 21.6373 8.8181 22.1811 9.9056C22.4561 10.4556 22.7373 11.2993 22.8873 12.0181C23.0686 12.8493 23.0811 14.2681 22.9248 15.0806C22.3248 18.1056 20.2311 20.5118 17.3623 21.4681C16.4811 21.7618 15.7061 21.8806 14.7311 21.8806C13.7623 21.8806 13.0248 21.7618 12.1498 21.4681C9.28109 20.5056 7.18735 18.0993 6.58735 15.0806C6.4311 14.2618 6.4436 12.8431 6.62485 12.0118C6.99985 10.2368 7.78735 8.82435 9.06234 7.60561C10.9123 5.84936 13.4686 5.02436 15.9436 5.40561Z" fill="white"/>
<path d="M14.4373 7.99329C14.3435 8.06204 13.9935 8.70579 13.581 9.57454L12.8748 11.0308L11.4248 11.2433C10.6248 11.3558 9.8623 11.4745 9.7248 11.4995C9.4248 11.5683 9.25605 11.7558 9.25605 12.0245C9.2498 12.1933 9.39355 12.3558 10.481 13.4183L11.7185 14.6183L11.4435 16.2308C11.2748 17.2245 11.1873 17.9058 11.2123 18.012C11.2685 18.2308 11.581 18.3995 11.806 18.3433C11.8998 18.3183 12.5935 17.9745 13.3498 17.5808C14.106 17.1808 14.7498 16.8558 14.7873 16.8558C14.8185 16.8558 15.4998 17.1995 16.2935 17.6183C17.0935 18.037 17.8123 18.3745 17.906 18.3745C18.156 18.3745 18.381 18.1183 18.381 17.837C18.381 17.7058 18.2623 16.9245 18.1248 16.0995L17.8623 14.5995L19.056 13.4308C19.7623 12.7433 20.2685 12.1995 20.2873 12.1058C20.3435 11.8995 20.206 11.6183 20.006 11.5245C19.9185 11.4808 19.131 11.3558 18.2435 11.2433L16.6435 11.037L15.9373 9.57454C15.5185 8.69954 15.1685 8.06829 15.081 7.99329C14.8873 7.84329 14.6248 7.84329 14.4373 7.99329ZM16.0185 11.8933C16.0998 11.9495 16.7185 12.0683 17.406 12.162L18.656 12.337L17.706 13.2495C16.8435 14.0808 16.756 14.187 16.756 14.3808C16.756 14.4995 16.8435 15.0683 16.9435 15.6558C17.0498 16.237 17.131 16.7495 17.131 16.7933C17.131 16.8433 16.6435 16.6245 15.9748 16.2745C15.1185 15.837 14.7748 15.6933 14.6748 15.7183C14.5998 15.7433 14.0623 16.012 13.481 16.3183C12.8935 16.6183 12.406 16.862 12.3935 16.8433C12.381 16.8308 12.4685 16.2683 12.5935 15.5933C12.7373 14.7808 12.7935 14.3245 12.7623 14.2308C12.731 14.1558 12.2998 13.6995 11.806 13.212L10.906 12.337L12.156 12.162C12.8498 12.062 13.4623 11.9558 13.5248 11.9245C13.5935 11.8933 13.8935 11.3433 14.1998 10.7058L14.756 9.54953L15.3123 10.6745C15.656 11.3683 15.931 11.8433 16.0185 11.8933Z" fill="white"/>
</svg>
