<svg width="68" height="55" viewBox="0 0 68 55" fill="none" xmlns="http://www.w3.org/2000/svg">
<path d="M39.2489 44.3237H28.75V50.8535H39.2489V44.3237Z" fill="#32314B"/>
<path d="M39.2489 44.3237H28.75V46.6538H39.2489V44.3237Z" fill="#27273D"/>
<path d="M67.1459 1.93929V39.914C67.1459 40.4929 67.0163 41.0662 66.7646 41.6011C66.5128 42.136 66.1438 42.622 65.6786 43.0314C65.2134 43.4408 64.6611 43.7655 64.0533 43.987C63.4454 44.2086 62.794 44.3226 62.1361 44.3226H5.86334C5.20544 44.3226 4.55399 44.2086 3.94617 43.987C3.33835 43.7655 2.78607 43.4408 2.32086 43.0314C1.85565 42.622 1.48663 42.136 1.23487 41.6011C0.983099 41.0662 0.853516 40.4929 0.853516 39.914V1.93929C0.853322 1.6698 0.935958 1.40528 1.09267 1.17374C1.24938 0.942206 1.47434 0.75228 1.74371 0.624079C1.79206 0.600303 1.84041 0.580281 1.88591 0.560258C1.93711 0.541488 1.9883 0.525219 2.04091 0.510203C2.20481 0.465287 2.3755 0.442503 2.54716 0.442627H65.4466C65.8969 0.444277 66.3283 0.60253 66.6466 0.882887C66.965 1.16325 67.1444 1.54297 67.1459 1.93929Z" fill="#3E436D"/>
<path d="M18.3573 44.3226H5.86334C4.53466 44.3226 3.26039 43.8582 2.32086 43.0314C1.38134 42.2046 0.853516 41.0832 0.853516 39.914V1.93929C0.853322 1.6698 0.935958 1.40528 1.09267 1.17374C1.24938 0.942206 1.47434 0.75228 1.74371 0.624079C1.79206 0.600303 1.84041 0.580281 1.88591 0.560258C1.93711 0.541488 1.9883 0.525219 2.04092 0.510203C2.20481 0.465287 2.3755 0.442503 2.54716 0.442627H15.0412C14.5901 0.444612 14.1582 0.603699 13.84 0.885102C13.5219 1.1665 13.3432 1.54733 13.3432 1.9443V39.914C13.3432 40.4933 13.473 41.0668 13.725 41.602C13.977 42.1371 14.3464 42.6233 14.8121 43.0327C15.2778 43.4421 15.8305 43.7668 16.4389 43.9881C17.0472 44.2095 17.6991 44.3231 18.3573 44.3226Z" fill="#32314B"/>
<path d="M47.2322 50.8535H20.7667C19.6405 50.8535 18.7275 51.6569 18.7275 52.648C18.7275 53.6391 19.6405 54.4425 20.7667 54.4425H47.2322C48.3584 54.4425 49.2714 53.6391 49.2714 52.648C49.2714 51.6569 48.3584 50.8535 47.2322 50.8535Z" fill="#3E436D"/>
<path d="M34.0099 42.224C35.0639 42.224 35.9183 41.4721 35.9183 40.5446C35.9183 39.6171 35.0639 38.8652 34.0099 38.8652C32.956 38.8652 32.1016 39.6171 32.1016 40.5446C32.1016 41.4721 32.956 42.224 34.0099 42.224Z" fill="#27273D"/>
<path d="M67.1459 1.93929V37.1972H0.853516V1.93929C0.853322 1.6698 0.935958 1.40528 1.09267 1.17374C1.24938 0.942206 1.47434 0.75228 1.74371 0.624079C1.79206 0.600303 1.84041 0.580281 1.88591 0.560258C1.93711 0.541488 1.9883 0.525219 2.04091 0.510203C2.20481 0.465287 2.3755 0.442503 2.54716 0.442627H65.4466C65.8969 0.444277 66.3283 0.60253 66.6466 0.882887C66.965 1.16325 67.1444 1.54297 67.1459 1.93929Z" fill="white"/>
<path d="M15.0468 0.442627C14.5957 0.444612 14.1639 0.603699 13.8457 0.885102C13.5275 1.1665 13.3489 1.54733 13.3489 1.9443V37.1972H0.853516V1.93929C0.853322 1.6698 0.935958 1.40528 1.09267 1.17374C1.24938 0.942206 1.47434 0.75228 1.74371 0.624079C1.79206 0.600303 1.84041 0.580281 1.88591 0.560258C1.93711 0.541488 1.9883 0.525219 2.04092 0.510203C2.20481 0.465287 2.3755 0.442503 2.54716 0.442627H15.0468Z" fill="#DDDDDD"/>
<path d="M10.832 13.8237H24.6599C24.8519 13.8237 25.036 13.8908 25.1717 14.0103C25.3075 14.1297 25.3837 14.2918 25.3837 14.4607V16.2126H10.832V13.835V13.8237Z" fill="#F7BB38"/>
<path d="M26.2853 15.8335V28.3311C26.2853 28.4971 26.2104 28.6562 26.0771 28.7735C25.9437 28.8909 25.7629 28.9568 25.5743 28.9568H4.95906C4.77049 28.9568 4.58964 28.8909 4.4563 28.7735C4.32296 28.6562 4.24805 28.4971 4.24805 28.3311V13.9526C4.24842 13.7889 4.3226 13.632 4.4543 13.5163C4.586 13.4007 4.76447 13.3357 4.95053 13.3357H11.044C11.1505 13.3355 11.2557 13.3567 11.3516 13.3977C11.4474 13.4387 11.5314 13.4984 11.5971 13.5722L11.8204 13.8225L11.8332 13.8363L12.6793 14.7873C12.7942 14.9168 12.9411 15.0216 13.1089 15.0936C13.2767 15.1656 13.461 15.2029 13.6477 15.2028H25.5715C25.6655 15.2024 25.7588 15.2185 25.8457 15.2501C25.9327 15.2818 26.0117 15.3282 26.0781 15.3869C26.1445 15.4456 26.197 15.5153 26.2326 15.5919C26.2681 15.6686 26.2861 15.7507 26.2853 15.8335Z" fill="#F6D372"/>
<path d="M25.3839 14.7797V15.2177H13.6478C13.4611 15.2178 13.2768 15.1805 13.109 15.1085C12.9412 15.0365 12.7943 14.9317 12.6794 14.8022L11.8262 13.8374H12.6467L13.116 14.3655C13.2311 14.4946 13.3781 14.599 13.5459 14.6708C13.7137 14.7426 13.8978 14.7798 14.0844 14.7797H25.3839Z" fill="#DBA12C"/>
<path d="M26.2853 26.1848V28.3309C26.2853 28.4969 26.2104 28.656 26.0771 28.7734C25.9437 28.8907 25.7629 28.9566 25.5743 28.9566H4.95906C4.77049 28.9566 4.58964 28.8907 4.4563 28.7734C4.32296 28.656 4.24805 28.4969 4.24805 28.3309V26.1848H26.2853Z" fill="#F6C752"/>
<path d="M8.14584 28.9606H4.95906C4.77049 28.9606 4.58964 28.8946 4.4563 28.7773C4.32296 28.66 4.24805 28.5008 4.24805 28.3349V13.9526C4.24842 13.7889 4.3226 13.632 4.4543 13.5163C4.586 13.4007 4.76447 13.3357 4.95053 13.3357H8.13589C7.94996 13.3357 7.77164 13.4007 7.64016 13.5164C7.50869 13.6321 7.43483 13.789 7.43483 13.9526V28.3311C7.43426 28.4136 7.45224 28.4954 7.48772 28.5717C7.5232 28.648 7.57548 28.7175 7.64156 28.776C7.70764 28.8345 7.78622 28.8809 7.87276 28.9126C7.9593 28.9442 8.05211 28.9606 8.14584 28.9606Z" fill="#F6C752"/>
<path d="M8.14584 28.9604H4.95906C4.77049 28.9604 4.58964 28.8945 4.4563 28.7771C4.32296 28.6598 4.24805 28.5006 4.24805 28.3347V26.1848H7.43056V28.3309C7.42999 28.4137 7.44811 28.4958 7.48385 28.5724C7.5196 28.649 7.57227 28.7186 7.6388 28.7771C7.70533 28.8357 7.78441 28.882 7.87145 28.9135C7.95849 28.945 8.05175 28.9609 8.14584 28.9604Z" fill="#F7BB38"/>
<path d="M24.7468 19.2747C25.244 19.2747 25.647 18.92 25.647 18.4826C25.647 18.0451 25.244 17.6904 24.7468 17.6904C24.2497 17.6904 23.8467 18.0451 23.8467 18.4826C23.8467 18.92 24.2497 19.2747 24.7468 19.2747Z" fill="#F7D98F"/>
<path d="M24.7469 17.3928C25.0995 17.3928 25.3854 17.1412 25.3854 16.8309C25.3854 16.5206 25.0995 16.269 24.7469 16.269C24.3943 16.269 24.1084 16.5206 24.1084 16.8309C24.1084 17.1412 24.3943 17.3928 24.7469 17.3928Z" fill="#F7D98F"/>
<path d="M48.2402 13.8237H62.0681C62.2601 13.8237 62.4442 13.8908 62.5799 14.0103C62.7157 14.1297 62.7919 14.2918 62.7919 14.4607V16.2126H48.2402V13.835V13.8237Z" fill="#F7BB38"/>
<path d="M63.6949 15.8335V28.3311C63.6949 28.4971 63.6199 28.6562 63.4866 28.7735C63.3533 28.8909 63.1724 28.9568 62.9838 28.9568H42.3643C42.1758 28.9568 41.9949 28.8909 41.8616 28.7735C41.7282 28.6562 41.6533 28.4971 41.6533 28.3311V13.9526C41.6533 13.789 41.7272 13.6321 41.8587 13.5164C41.9901 13.4007 42.1684 13.3357 42.3544 13.3357H48.4521C48.5587 13.3353 48.664 13.3565 48.7598 13.3975C48.8557 13.4385 48.9397 13.4982 49.0052 13.5722L49.2285 13.8225L49.2413 13.8363L50.0874 14.7873C50.2024 14.9167 50.3494 15.0213 50.5172 15.0933C50.685 15.1653 50.8692 15.2027 51.0558 15.2028H62.9796C63.0738 15.2023 63.1672 15.2183 63.2543 15.2498C63.3414 15.2813 63.4206 15.3278 63.4871 15.3865C63.5537 15.4451 63.6063 15.5149 63.642 15.5916C63.6776 15.6684 63.6956 15.7506 63.6949 15.8335Z" fill="#F6D372"/>
<path d="M62.7935 14.7797V15.2177H51.056C50.8693 15.2178 50.685 15.1805 50.5172 15.1085C50.3494 15.0365 50.2025 14.9317 50.0876 14.8022L49.2344 13.8374H50.0549L50.5242 14.3655C50.6393 14.4946 50.7863 14.599 50.9541 14.6708C51.1219 14.7426 51.306 14.7798 51.4926 14.7797H62.7935Z" fill="#DBA12C"/>
<path d="M63.6949 26.1848V28.3309C63.6949 28.4969 63.6199 28.656 63.4866 28.7734C63.3533 28.8907 63.1724 28.9566 62.9838 28.9566H42.3643C42.1758 28.9566 41.9949 28.8907 41.8616 28.7734C41.7282 28.656 41.6533 28.4969 41.6533 28.3309V26.1848H63.6949Z" fill="#F6C752"/>
<path d="M45.554 28.9606H42.3673C42.1787 28.9606 41.9978 28.8946 41.8645 28.7773C41.7312 28.66 41.6562 28.5008 41.6562 28.3349V13.9526C41.6562 13.789 41.7301 13.6321 41.8616 13.5164C41.9931 13.4007 42.1714 13.3357 42.3573 13.3357H45.5427C45.3567 13.3357 45.1784 13.4007 45.0469 13.5164C44.9155 13.6321 44.8416 13.789 44.8416 13.9526V28.3311C44.841 28.4137 44.8591 28.4956 44.8946 28.572C44.9302 28.6484 44.9826 28.7179 45.0488 28.7764C45.1151 28.8349 45.1938 28.8813 45.2805 28.9129C45.3672 28.9445 45.4602 28.9607 45.554 28.9606Z" fill="#F6C752"/>
<path d="M45.554 28.9604H42.3673C42.1787 28.9604 41.9978 28.8945 41.8645 28.7771C41.7312 28.6598 41.6562 28.5006 41.6562 28.3347V26.1848H44.8416V28.3309C44.841 28.4135 44.8591 28.4954 44.8946 28.5718C44.9302 28.6483 44.9826 28.7177 45.0488 28.7763C45.1151 28.8348 45.1938 28.8812 45.2805 28.9128C45.3672 28.9444 45.4602 28.9606 45.554 28.9604Z" fill="#F7BB38"/>
<path d="M62.155 19.2747C62.6522 19.2747 63.0552 18.92 63.0552 18.4826C63.0552 18.0451 62.6522 17.6904 62.155 17.6904C61.6579 17.6904 61.2549 18.0451 61.2549 18.4826C61.2549 18.92 61.6579 19.2747 62.155 19.2747Z" fill="#F7D98F"/>
<path d="M62.1551 17.3928C62.5077 17.3928 62.7936 17.1412 62.7936 16.8309C62.7936 16.5206 62.5077 16.269 62.1551 16.269C61.8025 16.269 61.5166 16.5206 61.5166 16.8309C61.5166 17.1412 61.8025 17.3928 62.1551 17.3928Z" fill="#F7D98F"/>
<path d="M36.329 22.6473H29.0852C29.0098 22.6473 28.9374 22.6737 28.8841 22.7206C28.8307 22.7675 28.8008 22.8312 28.8008 22.8976V25.9622C28.8008 26.0286 28.8307 26.0923 28.8841 26.1392C28.9374 26.1861 29.0098 26.2125 29.0852 26.2125H36.0446C36.1201 26.2125 36.1924 26.2389 36.2457 26.2858C36.2991 26.3327 36.329 26.3964 36.329 26.4628V27.1085C36.3297 27.1631 36.3506 27.2161 36.3886 27.2592C36.4266 27.3024 36.4796 27.3335 36.5396 27.3476C36.5995 27.3618 36.6631 27.3584 36.7206 27.3378C36.7781 27.3172 36.8264 27.2806 36.858 27.2336L38.5503 24.7709C38.6213 24.6682 38.6589 24.5502 38.6589 24.4299C38.6589 24.3096 38.6213 24.1916 38.5503 24.0889L36.858 21.6299C36.8264 21.5829 36.7781 21.5464 36.7206 21.5258C36.6631 21.5052 36.5995 21.5017 36.5396 21.5159C36.4796 21.5301 36.4266 21.5611 36.3886 21.6043C36.3506 21.6475 36.3297 21.7004 36.329 21.755" fill="#B0D46C"/>
<path d="M38.5574 24.7709L36.858 27.2399C36.8264 27.2868 36.7781 27.3234 36.7206 27.344C36.6631 27.3646 36.5995 27.368 36.5396 27.3539C36.4796 27.3397 36.4266 27.3086 36.3886 27.2655C36.3506 27.2223 36.3297 27.1693 36.329 27.1147V26.469C36.329 26.4026 36.2991 26.339 36.2457 26.292C36.1924 26.2451 36.1201 26.2187 36.0446 26.2187H29.0852C29.0098 26.2187 28.9374 26.1924 28.8841 26.1454C28.8307 26.0985 28.8008 26.0348 28.8008 25.9684V24.9448C28.8008 25.0112 28.8307 25.0748 28.8841 25.1218C28.9374 25.1687 29.0098 25.1951 29.0852 25.1951H36.0446C36.1201 25.1951 36.1924 25.2215 36.2457 25.2684C36.2991 25.3153 36.329 25.379 36.329 25.4454V26.0923C36.3297 26.147 36.3506 26.1999 36.3886 26.2431C36.4266 26.2862 36.4796 26.3173 36.5396 26.3315C36.5995 26.3457 36.6631 26.3422 36.7206 26.3216C36.7781 26.301 36.8264 26.2645 36.858 26.2175L38.4393 23.9199L38.5559 24.0901C38.6264 24.1928 38.6637 24.3104 38.6639 24.4303C38.6642 24.5502 38.6273 24.668 38.5574 24.7709Z" fill="#9EBC5C"/>
<path d="M31.1364 16.0773H38.3802C38.4556 16.0773 38.528 16.1037 38.5813 16.1506C38.6347 16.1976 38.6646 16.2612 38.6646 16.3276V19.391C38.6646 19.4574 38.6347 19.521 38.5813 19.568C38.528 19.6149 38.4556 19.6413 38.3802 19.6413H31.4208C31.3453 19.6413 31.273 19.6676 31.2197 19.7146C31.1663 19.7615 31.1364 19.8252 31.1364 19.8916V20.5373C31.1357 20.5919 31.1148 20.6448 31.0768 20.688C31.0388 20.7312 30.9858 20.7622 30.9258 20.7764C30.8659 20.7906 30.8023 20.7871 30.7448 20.7665C30.6873 20.746 30.639 20.7094 30.6074 20.6624L28.9095 18.2009C28.8384 18.0982 28.8008 17.9802 28.8008 17.8599C28.8008 17.7396 28.8384 17.6217 28.9095 17.5189L30.6074 15.0562C30.639 15.0092 30.6873 14.9726 30.7448 14.952C30.8023 14.9315 30.8659 14.928 30.9258 14.9422C30.9858 14.9564 31.0388 14.9874 31.0768 15.0306C31.1148 15.0738 31.1357 15.1267 31.1364 15.1813" fill="#B0D46C"/>
<path d="M28.9082 18.201L30.6076 20.6713C30.6395 20.7187 30.6884 20.7556 30.7466 20.776C30.8049 20.7965 30.8691 20.7995 30.9294 20.7845C30.9898 20.7695 31.0428 20.7374 31.0802 20.6932C31.1177 20.6489 31.1375 20.595 31.1366 20.5399V19.8942C31.1366 19.8278 31.1665 19.7641 31.2199 19.7172C31.2732 19.6703 31.3455 19.6439 31.421 19.6439H38.3804C38.4558 19.6439 38.5282 19.6175 38.5815 19.5706C38.6349 19.5237 38.6648 19.46 38.6648 19.3936V18.37C38.6648 18.4364 38.6349 18.5 38.5815 18.547C38.5282 18.5939 38.4558 18.6203 38.3804 18.6203H31.421C31.3455 18.6203 31.2732 18.6466 31.2199 18.6936C31.1665 18.7405 31.1366 18.8042 31.1366 18.8705V19.5163C31.1359 19.5709 31.115 19.6238 31.077 19.667C31.039 19.7102 30.986 19.7412 30.926 19.7554C30.8661 19.7696 30.8025 19.7661 30.745 19.7455C30.6875 19.7249 30.6392 19.6884 30.6076 19.6414L29.0234 17.3501L28.9068 17.519C28.8366 17.6221 28.7996 17.74 28.7998 17.8602C28.8001 17.9804 28.8375 18.0982 28.9082 18.201Z" fill="#9EBC5C"/>
<path d="M61.9633 43.2538C63.5238 43.2538 64.7889 42.1405 64.7889 40.7673C64.7889 39.394 63.5238 38.2808 61.9633 38.2808C60.4028 38.2808 59.1377 39.394 59.1377 40.7673C59.1377 42.1405 60.4028 43.2538 61.9633 43.2538Z" fill="#4F4F74"/>
<path d="M56.076 42.528C57.181 42.528 58.0768 41.7397 58.0768 40.7673C58.0768 39.7949 57.181 39.0066 56.076 39.0066C54.971 39.0066 54.0752 39.7949 54.0752 40.7673C54.0752 41.7397 54.971 42.528 56.076 42.528Z" fill="#4F4F74"/>
</svg>
