<svg width="55" height="82" viewBox="0 0 55 82" fill="none" xmlns="http://www.w3.org/2000/svg">
<path d="M28.3318 20.283V20.1855C28.3318 20.1855 28.1277 20.1966 27.76 20.2352C24.3476 20.6029 6.7502 23.4454 5.24622 43.0873C5.24622 43.0873 10.8613 55.5899 28.3337 59.2064V53.9002L28.4238 59.2064C45.8906 55.5991 51.5112 43.0873 51.5112 43.0873C50.0036 23.4142 31.8123 20.6342 28.3318 20.283Z" fill="#1F1F30"/>
<path d="M54.8585 82.5955C54.1047 83.125 53.3343 83.6319 52.5474 84.116C46.2994 87.9631 39.2417 90.3029 31.9329 90.9501L31.7876 90.963H31.7784L31.5725 90.9796C30.2978 91.0825 29.0107 91.1346 27.7114 91.1358C26.3398 91.1358 24.9829 91.0782 23.6407 90.963H24.1225C19.4999 90.5957 14.9578 89.5423 10.6454 87.8374C9.80213 87.5028 8.96985 87.1448 8.1486 86.7636L8.06771 86.7269C5.49155 85.5231 3.02997 84.088 0.713257 82.4392C0.961469 81.268 1.26484 80.1226 1.36413 79.4827C2.425 72.1595 4.45115 65.3732 9.40621 60.4807C9.56985 60.317 9.73533 60.1589 9.90448 60.0026L9.93206 59.9769C10.35 59.592 10.7864 59.2212 11.2411 58.8645C12.6072 57.8016 14.0872 56.8939 15.6538 56.1581C15.794 56.0914 15.9384 56.0337 16.0859 55.9853L16.2164 55.9393L16.4885 55.8492C16.8342 55.7426 17.2387 55.6249 17.6726 55.5054L17.7774 55.476L17.8638 55.4521L18.0845 55.3914L18.1157 55.3822H18.1323C18.5221 55.2719 18.9265 55.1597 19.3274 55.0402C19.9543 54.8563 20.5703 54.6725 21.1108 54.4629C21.2377 54.4169 21.3609 54.3691 21.4785 54.3158C22.043 54.0841 22.4879 53.8396 22.7067 53.5804C23.6444 52.4901 23.3208 50.6036 23.2583 49.107L24.641 49.0132L26.9466 48.8735L29.2283 48.7374L31.0485 48.6271L32.957 48.5131L33.7513 48.4653C33.7384 48.5628 33.7237 48.6584 33.7108 48.754C33.527 50.0704 33.367 51.3538 33.6538 52.0856C33.992 53.0311 34.6777 53.8121 35.5715 54.2698C35.6469 54.3121 35.7259 54.3526 35.805 54.3912C36.2275 54.5877 36.6602 54.7614 37.1012 54.9115C37.5498 55.0696 38.0205 55.2314 38.5188 55.4282H38.5353L38.7468 55.5146L38.9306 55.5881L39.2837 55.7462L39.3756 55.7904C39.7194 55.9503 40.054 56.1195 40.3832 56.2886L40.4677 56.3328C41.9866 57.1206 43.4193 58.0646 44.7425 59.1495C45.1102 59.4584 45.4779 59.7728 45.8144 60.0964C46.3854 60.6327 46.9274 61.1992 47.4379 61.7934C47.7523 62.1612 48.0502 62.5289 48.3352 62.9076L48.5006 63.1283C48.9358 63.724 49.3421 64.3368 49.7196 64.9669C49.7821 65.0698 49.841 65.171 49.9035 65.2739C50.2001 65.7826 50.479 66.3023 50.7401 66.8331C50.7934 66.9379 50.8449 67.0445 50.8945 67.1511L51.0471 67.4711C51.5969 68.6669 52.074 69.8949 52.4757 71.1483C52.5125 71.2605 52.5474 71.3744 52.586 71.4866C52.7276 71.9407 52.8637 72.4059 52.9887 72.8637C53.0438 73.0476 53.0972 73.2498 53.1468 73.4447C53.1964 73.6396 53.2553 73.8547 53.3049 74.0625C53.3546 74.2703 53.406 74.4651 53.452 74.6674C53.452 74.6876 53.463 74.7078 53.4667 74.7281C53.5072 74.8954 53.5439 75.0609 53.5844 75.2282L53.6947 75.732C53.7682 76.0684 53.84 76.4086 53.9061 76.7487C53.9356 76.8903 53.9631 77.0337 53.9907 77.1789C54.0183 77.3242 54.0496 77.4897 54.0808 77.6441C54.1268 77.8942 54.1727 78.1461 54.2169 78.3961C54.4485 79.7052 54.6569 81.0333 54.842 82.3804L54.8585 82.4815C54.8512 82.5275 54.8549 82.5606 54.8585 82.5955Z" fill="#FCC8BC"/>
<path d="M54.87 82.6598C54.87 82.6378 54.87 82.6139 54.8608 82.5918C54.8516 82.5697 54.8516 82.5238 54.8461 82.4888L54.8295 82.3877C54.642 81.0394 54.4336 79.7113 54.2044 78.4034C54.1603 78.1534 54.1143 77.9015 54.0683 77.6515C54.0371 77.497 54.0076 77.3407 53.9782 77.1863C53.9488 77.0318 53.9231 76.8976 53.8937 76.7561C53.8275 76.4159 53.7558 76.0758 53.6822 75.7393L53.5719 75.2355C53.5314 75.0682 53.4947 74.9027 53.4542 74.7354C53.4542 74.7152 53.4542 74.695 53.4395 74.6747C53.3936 74.4725 53.3439 74.2702 53.2924 74.0698C53.2409 73.8694 53.1895 73.658 53.1343 73.4521C53.0792 73.2461 53.0313 73.0623 52.9762 72.8711C52.8512 72.4077 52.7151 71.9518 52.5735 71.4939C52.5349 71.3818 52.5 71.2678 52.4632 71.1556C52.0615 69.9022 51.5844 68.6743 51.0346 67.4784L50.882 67.1585C50.8324 67.0519 50.7809 66.9452 50.7276 66.8404C50.4653 66.3097 50.1864 65.79 49.891 65.2813C49.8322 65.1783 49.7733 65.0772 49.7071 64.9742C49.3296 64.3466 48.9233 63.7338 48.4881 63.1356L48.3227 62.915C48.0377 62.5362 47.7398 62.163 47.4254 61.8008C46.9149 61.2066 46.3729 60.6401 45.8019 60.1037C45.4599 59.7801 45.1014 59.4657 44.73 59.1569C43.4061 58.0732 41.9728 57.1304 40.4534 56.3438L40.3688 56.2997C40.0397 56.1305 39.7051 55.9613 39.3613 55.8014L39.2693 55.7573L38.9163 55.5991L38.7325 55.5256L38.521 55.4392H38.5045C38.0753 55.2705 37.6128 55.2036 37.1534 55.2438C36.694 55.284 36.2502 55.4302 35.8569 55.6708L31.1059 58.5593L29.9733 59.2488C29.5098 59.5313 28.9793 59.6849 28.4365 59.6936C27.8938 59.7023 27.3586 59.5659 26.8863 59.2984L25.511 58.5225L20.4346 55.6561C19.7338 55.2605 18.905 55.1581 18.129 55.3711H18.1124L18.0812 55.3803L17.8605 55.441L17.7741 55.4649L17.6693 55.4943C17.2354 55.6138 16.8309 55.7315 16.4853 55.8382L16.2131 55.9282L16.0826 55.9742C15.9351 56.0226 15.7908 56.0804 15.6505 56.147C14.0839 56.8829 12.6039 57.7906 11.2379 58.8535C10.7819 59.2126 10.3455 59.5834 9.92876 59.9658L9.90118 59.9916C9.73203 60.1479 9.56656 60.306 9.40292 60.4696C4.44786 65.3622 2.41619 72.1485 1.36083 79.4717C1.26706 80.1115 0.958174 81.257 0.709961 82.4282C3.02668 84.0769 5.48826 85.512 8.06441 86.7158L8.14531 86.7526C8.96533 87.135 9.79761 87.4929 10.6421 87.8263C14.9545 89.5312 19.4966 90.5847 24.1192 90.952H23.6375C24.9858 91.066 26.3427 91.1236 27.7081 91.1248C29.0074 91.1248 30.2945 91.0727 31.5692 90.9685L31.7752 90.952H31.7843L31.9296 90.9391C39.2384 90.2918 46.2961 87.952 52.5441 84.105C53.331 83.622 54.1014 83.1152 54.8552 82.5844C54.8552 82.6083 54.8552 82.6304 54.8552 82.6543L54.87 82.6598Z" fill="#32314B"/>
<path d="M46.1056 60.4123C46.0045 60.3112 45.8997 60.2101 45.7949 60.1126C45.4493 59.789 45.0926 59.4728 44.7212 59.1657C43.1675 59.8037 41.1248 60.3461 38.7438 60.7543V60.0832C38.7316 59.7669 38.5973 59.4676 38.3692 59.2482C38.141 59.0287 37.8368 58.9061 37.5202 58.9061C37.2037 58.9061 36.8994 59.0287 36.6713 59.2482C36.4432 59.4676 36.3089 59.7669 36.2967 60.0832V61.1073C33.6489 61.4185 30.9849 61.5708 28.3189 61.5633C25.3825 61.5716 22.4489 61.383 19.5377 60.9988V60.0795C19.5377 59.7553 19.4089 59.4443 19.1796 59.215C18.9503 58.9857 18.6393 58.8569 18.315 58.8569C17.9907 58.8569 17.6798 58.9857 17.4505 59.215C17.2212 59.4443 17.0923 59.7553 17.0923 60.0795V60.5962C14.7022 60.1402 12.6797 59.5427 11.2253 58.8477C10.7694 59.2043 10.3318 59.5831 9.9144 59.9619L9.8905 59.9858C11.3062 61.0154 13.8417 61.8924 17.0923 62.5102V81.5453C17.0921 81.706 17.1236 81.8651 17.1849 82.0135C17.2463 82.162 17.3363 82.2968 17.4499 82.4104C17.5635 82.524 17.6984 82.6141 17.8468 82.6754C17.9953 82.7368 18.1544 82.7682 18.315 82.768C18.6393 82.768 18.9503 82.6392 19.1796 82.4099C19.4089 82.1806 19.5377 81.8696 19.5377 81.5453V62.9147C22.4489 63.2981 25.3826 63.4861 28.3189 63.4773C30.9843 63.4835 33.6477 63.33 36.2948 63.0176V81.5453C36.3071 81.8616 36.4414 82.1609 36.6695 82.3804C36.8976 82.5998 37.2019 82.7224 37.5184 82.7224C37.835 82.7224 38.1392 82.5998 38.3673 82.3804C38.5955 82.1609 38.7297 81.8616 38.742 81.5453V62.6628C41.9246 62.1204 44.4877 61.3316 46.1056 60.4123Z" fill="#27273D"/>
<path d="M44.0964 51.9731C41.6051 50.5132 38.0841 49.1857 34.0061 48.5109C33.9215 48.4962 33.8351 48.4815 33.7487 48.4705C33.5501 48.4374 33.3497 48.408 33.1475 48.3822C32.2282 48.2499 31.2856 48.1561 30.3197 48.1009C29.667 48.0642 29.0051 48.0439 28.334 48.0439C26.7539 48.0441 25.1757 48.1528 23.6106 48.3694C23.4892 48.3841 23.3679 48.4006 23.2429 48.4209C23.0112 48.4521 22.7795 48.4889 22.5515 48.5312C18.5452 49.2041 15.0849 50.5058 12.623 51.9418C10.1611 53.3778 8.64612 54.9773 8.64612 56.1927C8.64612 57.1616 9.58749 58.0699 11.233 58.855C11.4757 58.9727 11.735 59.0848 12.0071 59.197C12.2792 59.3091 12.5587 59.4066 12.8437 59.5095L13.1397 59.6088C13.3235 59.6713 13.5203 59.732 13.7188 59.7927L13.9193 59.8515L14.3256 59.9673L14.7466 60.0813C15.2026 60.199 15.6806 60.3112 16.1752 60.4178H16.2065C16.4933 60.4785 16.7875 60.5373 17.0872 60.6017C17.4831 60.6777 17.8907 60.7494 18.3099 60.8168C18.707 60.8793 19.117 60.94 19.5325 61.0006L19.7936 61.0356L20.2275 61.0907L20.6651 61.1422L20.7552 61.1532L20.9041 61.1698H20.9795L21.3473 61.2102L21.726 61.2489H21.7426L22.0055 61.2746H22.0974L22.2813 61.2911L22.4651 61.3077L22.6306 61.3206L22.9285 61.3445C23.1583 61.361 23.39 61.3794 23.6235 61.3941L24.3276 61.4364C24.495 61.4474 24.6659 61.4566 24.8351 61.464C25.0043 61.4713 25.2028 61.4824 25.3867 61.4879H25.5099C25.7489 61.4989 25.9879 61.5063 26.2306 61.5118H26.3133L26.7105 61.5228H27.0212H27.3117H27.8173H28.9205H29.3268C29.5401 61.5228 29.7515 61.5228 29.963 61.5118L30.5017 61.4971L31.3199 61.4676L31.7887 61.4456L32.105 61.429C32.2986 61.4205 32.4899 61.4094 32.6786 61.3959H32.8331C33.0923 61.3794 33.3479 61.361 33.6016 61.3408L34.0539 61.3059L34.4106 61.2746L34.8886 61.2305L35.3593 61.1827C36.0948 61.1073 36.8173 61.019 37.5087 60.9197C37.9279 60.8572 38.3324 60.7929 38.7313 60.723L39.1744 60.6458C39.4392 60.5998 39.6984 60.5502 39.954 60.4987C41.5792 60.1953 43.1724 59.7397 44.7123 59.1381C46.7826 58.2887 47.9887 57.2683 47.9887 56.1706C48.0108 54.9847 46.5565 53.4145 44.0964 51.9731ZM28.3321 48.6452C28.6319 48.6446 28.9308 48.676 29.2239 48.7389C29.8488 48.8727 30.4372 49.1405 30.9485 49.524C31.2213 49.725 31.4716 49.955 31.695 50.2098C32.5929 51.2367 33.0818 52.558 33.0684 53.922C33.0684 56.1283 31.8402 58.0368 30.1009 58.8164C29.5808 59.0539 29.0177 59.1827 28.4461 59.1951H28.3377C27.6867 59.1949 27.0443 59.0471 26.4586 58.7631C24.7781 57.9522 23.6014 56.086 23.6014 53.9183C23.5889 52.5772 24.0609 51.2767 24.9307 50.2558C25.1747 49.9714 25.4511 49.7165 25.7544 49.4964C26.1195 49.2298 26.5223 49.0192 26.9495 48.8713C27.395 48.7212 27.862 48.6448 28.3321 48.6452Z" fill="#32314B"/>
<path d="M31.5396 46.0216C30.4788 45.9296 29.383 45.8818 28.2596 45.8818C27.1362 45.8818 26.0422 45.9296 24.9813 46.0216C25.8749 44.9349 27.0148 44.2822 28.2596 44.2822C29.5043 44.2822 30.6479 44.9349 31.5396 46.0216Z" fill="#E88032"/>
<path d="M46.0671 19.4866V31.5129C46.0671 31.9487 46.0506 32.3679 46.0175 32.7742C45.3795 40.7667 38.6759 43.5779 33.7208 47.9207C32.2535 49.2304 30.3556 49.9542 28.3888 49.9542C26.4221 49.9542 24.5241 49.2304 23.0569 47.9207C18.0522 43.5338 11.2567 40.7078 10.7382 32.5186C10.7179 32.1932 10.7069 31.8586 10.7069 31.5129V19.4866C10.7069 19.4461 10.7069 19.4057 10.7069 19.3652C10.7474 13.0882 14.1157 7.64957 19.0321 4.93946C19.1921 4.84937 23.3694 3.20565 25.5059 3.11372C25.7192 3.10085 25.9325 3.09717 26.1457 3.09717H30.6246C34.2437 3.1054 37.7353 4.43532 40.4428 6.83691C40.857 7.19866 41.2516 7.58224 41.625 7.98604C44.2925 10.8865 45.8545 14.6328 46.0377 18.5691C46.0597 18.8761 46.0671 19.1795 46.0671 19.4866Z" fill="#FCC8BC"/>
<path d="M17.7592 31.5129V19.4866C17.7592 10.8984 23.9848 3.85835 31.9165 3.156C31.49 3.11555 31.0616 3.09717 30.6295 3.09717H26.147C17.6158 3.09717 10.7026 10.4369 10.7026 19.4866V25.44C10.2312 25.4292 9.76233 25.5128 9.32362 25.6858C8.88492 25.8588 8.48521 26.1177 8.14797 26.4473C7.81074 26.777 7.54277 27.1707 7.35983 27.6053C7.17688 28.04 7.08264 28.5068 7.08264 28.9784C7.08264 29.45 7.17688 29.9168 7.35983 30.3514C7.54277 30.7861 7.81074 31.1798 8.14797 31.5094C8.48521 31.8391 8.88492 32.098 9.32362 32.271C9.76233 32.444 10.2312 32.5275 10.7026 32.5168H10.7357C11.2487 40.706 18.0405 43.5356 23.0544 47.9207C24.2424 48.9846 25.7218 49.6685 27.3019 49.8841C28.8821 50.0997 30.4906 49.8372 31.9202 49.1305C31.2661 48.8093 30.6577 48.4025 30.111 47.9207C24.8986 43.3591 17.7592 40.4853 17.7592 31.5129Z" fill="#FAB3A7"/>
<path d="M46.0667 32.5154C48.0204 32.5154 49.6042 30.9316 49.6042 28.9779C49.6042 27.0242 48.0204 25.4404 46.0667 25.4404C44.113 25.4404 42.5292 27.0242 42.5292 28.9779C42.5292 30.9316 44.113 32.5154 46.0667 32.5154Z" fill="#FCC8BC"/>
<path d="M29.9906 32.5171H26.637C26.1435 32.5171 25.7434 32.9172 25.7434 33.4107V33.5725C25.7434 34.066 26.1435 34.466 26.637 34.466H29.9906C30.4841 34.466 30.8842 34.066 30.8842 33.5725V33.4107C30.8842 32.9172 30.4841 32.5171 29.9906 32.5171Z" fill="#FAB3A7"/>
<path d="M10.8062 27.5712C10.6171 27.5644 10.4285 27.5957 10.2518 27.6634C10.0751 27.731 9.91379 27.8336 9.77758 27.965C9.64138 28.0964 9.53304 28.2538 9.45905 28.428C9.38506 28.6022 9.34692 28.7895 9.34692 28.9787C9.34692 29.1679 9.38506 29.3552 9.45905 29.5294C9.53304 29.7036 9.64138 29.861 9.77758 29.9924C9.91379 30.1238 10.0751 30.2263 10.2518 30.294C10.4285 30.3616 10.6171 30.393 10.8062 30.3861V27.5712Z" fill="#F9A195"/>
<path d="M46.0673 30.3862C46.4317 30.373 46.7769 30.219 47.0301 29.9565C47.2833 29.694 47.4248 29.3435 47.4248 28.9787C47.4248 28.614 47.2833 28.2635 47.0301 28.001C46.7769 27.7385 46.4317 27.5845 46.0673 27.5713V30.3862Z" fill="#FAB3A7"/>
<path d="M23.5714 26.3301H16.0386C15.0841 26.3301 14.3103 27.1039 14.3103 28.0584V32.7137C14.3103 33.6683 15.0841 34.442 16.0386 34.442H23.5714C24.5259 34.442 25.2997 33.6683 25.2997 32.7137V28.0584C25.2997 27.1039 24.5259 26.3301 23.5714 26.3301Z" fill="#27273D"/>
<path d="M40.7333 26.3301H33.2005C32.246 26.3301 31.4722 27.1039 31.4722 28.0584V32.7137C31.4722 33.6683 32.246 34.442 33.2005 34.442H40.7333C41.6878 34.442 42.4616 33.6683 42.4616 32.7137V28.0584C42.4616 27.1039 41.6878 26.3301 40.7333 26.3301Z" fill="#27273D"/>
<path d="M20.7618 60.0777C20.7618 59.4024 20.2143 58.855 19.5391 58.855C18.8638 58.855 18.3164 59.4024 18.3164 60.0777V81.5453C18.3164 82.2206 18.8638 82.768 19.5391 82.768C20.2143 82.768 20.7618 82.2206 20.7618 81.5453V60.0777Z" fill="#F6C752"/>
<path d="M39.9661 60.0777C39.9661 59.4024 39.4187 58.855 38.7434 58.855C38.0682 58.855 37.5208 59.4024 37.5208 60.0777V81.5453C37.5208 82.2206 38.0682 82.768 38.7434 82.768C39.4187 82.768 39.9661 82.2206 39.9661 81.5453V60.0777Z" fill="#F6C752"/>
<path d="M7.62715 16.4256C5.1818 23.0446 3.94993 31.7339 5.23695 43.0855C5.23695 43.0855 10.6976 29.2444 28.3777 29.2444C46.0578 29.2444 51.5203 43.0855 51.5203 43.0855C52.8074 31.7321 51.581 23.0446 49.1301 16.4256C41.5422 -4.17052 15.228 -4.17052 7.62715 16.4256Z" fill="#32314B"/>
<path d="M31.5345 1.20919C24.1709 2.33075 17.2504 7.3998 13.9225 16.4182C12.0636 21.456 10.9071 27.6907 11.0303 35.3816C6.82175 39.0846 5.24422 43.0873 5.24422 43.0873C3.95719 31.7338 5.18171 23.0464 7.62522 16.4274C11.8982 4.84964 22.0822 -0.21941 31.5345 1.20919Z" fill="#27273D"/>
<path d="M30.8338 40.3716H25.9376C25.3669 40.3716 24.9043 40.8342 24.9043 41.4049V41.4067C24.9043 41.9774 25.3669 42.44 25.9376 42.44H30.8338C31.4045 42.44 31.8671 41.9774 31.8671 41.4067V41.4049C31.8671 40.8342 31.4045 40.3716 30.8338 40.3716Z" fill="#FAB3A7"/>
<path d="M29.3758 43.2471H27.3956C26.8249 43.2471 26.3623 43.7097 26.3623 44.2804V44.2822C26.3623 44.8529 26.8249 45.3155 27.3956 45.3155H29.3758C29.9465 45.3155 30.4091 44.8529 30.4091 44.2822V44.2804C30.4091 43.7097 29.9465 43.2471 29.3758 43.2471Z" fill="#FAB3A7"/>
<path d="M44.9765 21.9338C46.3027 21.9338 47.3778 20.8587 47.3778 19.5326C47.3778 18.2064 46.3027 17.1313 44.9765 17.1313C43.6504 17.1313 42.5753 18.2064 42.5753 19.5326C42.5753 20.8587 43.6504 21.9338 44.9765 21.9338Z" fill="#3E436D"/>
<path d="M43.5608 16.4327C44.5001 16.4327 45.2615 15.6712 45.2615 14.732C45.2615 13.7927 44.5001 13.0312 43.5608 13.0312C42.6215 13.0312 41.8601 13.7927 41.8601 14.732C41.8601 15.6712 42.6215 16.4327 43.5608 16.4327Z" fill="#3E436D"/>
<path d="M48.7509 65.9468L47.5319 86.8021V86.8628C42.6097 89.119 37.3328 90.502 31.9368 90.9501L31.7915 90.9629H31.7823L31.5764 90.9795C30.3016 91.0824 29.0146 91.1345 27.7153 91.1357C26.3437 91.1357 24.9868 91.0781 23.6446 90.9629H24.1263C19.5038 90.5956 14.9616 89.5422 10.6493 87.8373C9.80599 87.5027 8.97371 87.1447 8.15247 86.7635L6.9353 65.9504C6.93543 65.3265 7.17142 64.7257 7.59594 64.2684C8.02047 63.8111 8.60215 63.5313 9.22437 63.4849C9.28321 63.4849 9.34572 63.4849 9.40824 63.4849H46.2779C46.9319 63.4849 47.5592 63.7439 48.0227 64.2053C48.4861 64.6666 48.7479 65.2928 48.7509 65.9468Z" fill="white"/>
<path d="M10.6461 87.8336C9.80277 87.499 8.97049 87.1411 8.14924 86.7599L8.06834 86.7231L6.85486 65.9468C6.85476 65.3095 7.10088 64.6968 7.54182 64.2367C7.98277 63.7765 8.58443 63.5046 9.22115 63.4775L10.6461 87.8336Z" fill="#E2E2E2"/>
<path d="M27.8408 83.3437C30.4911 83.3437 32.6395 81.1952 32.6395 78.5449C32.6395 75.8946 30.4911 73.7461 27.8408 73.7461C25.1905 73.7461 23.042 75.8946 23.042 78.5449C23.042 81.1952 25.1905 83.3437 27.8408 83.3437Z" fill="#D3D3D3"/>
</svg>
