<svg width="68" height="69" viewBox="0 0 68 69" fill="none" xmlns="http://www.w3.org/2000/svg">
<path d="M39.2515 56.7407H28.752V64.1608H39.2515V56.7407Z" fill="#32314B"/>
<path d="M39.2515 56.7407H28.752V59.389H39.2515V56.7407Z" fill="#27273D"/>
<path d="M67.1455 8.58019V51.7314C67.1455 53.0591 66.6181 54.3324 65.6793 55.2712C64.7405 56.21 63.4672 56.7374 62.1396 56.7374H5.8663C4.53864 56.7374 3.26536 56.21 2.32656 55.2712C1.38776 54.3324 0.860352 53.0591 0.860352 51.7314V8.58019C0.86023 8.27372 0.943019 7.97292 1.09994 7.70967C1.25687 7.44643 1.48209 7.23053 1.75173 7.08487C1.80018 7.05742 1.84862 7.03481 1.89707 7.0122C1.94874 6.99121 2.00041 6.97345 2.05855 6.95568C2.22267 6.90433 2.39363 6.8782 2.5656 6.87817H65.4467C65.8976 6.87903 66.3296 7.05873 66.6481 7.37782C66.9666 7.69692 67.1455 8.12935 67.1455 8.58019Z" fill="#3E436D"/>
<path d="M18.3602 56.7406H5.8663C4.53864 56.7406 3.26536 56.2132 2.32656 55.2744C1.38776 54.3356 0.860352 53.0623 0.860352 51.7347V8.58019C0.86023 8.27372 0.943019 7.97292 1.09994 7.70967C1.25687 7.44643 1.48209 7.23053 1.75173 7.08487C1.80018 7.05742 1.84862 7.03481 1.89707 7.0122C1.94874 6.99121 2.00041 6.97345 2.05855 6.95568C2.22267 6.90433 2.39364 6.8782 2.5656 6.87817H15.0466C14.5959 6.87903 14.1639 7.05878 13.8457 7.37792C13.5275 7.69707 13.3489 8.1295 13.3494 8.58019V51.7314C13.349 52.3895 13.4783 53.0412 13.73 53.6492C13.9817 54.2573 14.3507 54.8097 14.8161 55.275C15.2816 55.7402 15.8341 56.1091 16.4422 56.3606C17.0504 56.6121 17.7021 56.7412 18.3602 56.7406Z" fill="#32314B"/>
<path d="M47.2321 64.1606H20.77C19.6436 64.1606 18.7305 65.0734 18.7305 66.1994C18.7305 67.3253 19.6436 68.2381 20.77 68.2381H47.2321C48.3584 68.2381 49.2716 67.3253 49.2716 66.1994C49.2716 65.0734 48.3584 64.1606 47.2321 64.1606Z" fill="#3E436D"/>
<path d="M34.0113 54.357C35.0654 54.357 35.92 53.5024 35.92 52.4483C35.92 51.3941 35.0654 50.5396 34.0113 50.5396C32.9571 50.5396 32.1025 51.3941 32.1025 52.4483C32.1025 53.5024 32.9571 54.357 34.0113 54.357Z" fill="#27273D"/>
<path d="M67.1455 8.58019V48.6439H0.855469V8.58019C0.855347 8.27372 0.938136 7.97292 1.09506 7.70967C1.25199 7.44643 1.47721 7.23053 1.74685 7.08487C1.79529 7.05742 1.84374 7.03481 1.89218 7.0122C1.94386 6.99121 1.99553 6.97345 2.05367 6.95568C2.21779 6.90433 2.38875 6.8782 2.56072 6.87817H65.4467C65.8975 6.87903 66.3296 7.05873 66.6481 7.37782C66.9666 7.69692 67.1455 8.12935 67.1455 8.58019Z" fill="#7CC8FB"/>
<path d="M15.0465 6.87817C14.5958 6.87903 14.1639 7.05878 13.8457 7.37792C13.5274 7.69707 13.3489 8.1295 13.3493 8.58019V48.6439H0.855469V8.58019C0.855347 8.27372 0.938136 7.97292 1.09506 7.70967C1.25199 7.44643 1.47721 7.23053 1.74685 7.08487C1.79529 7.05742 1.84374 7.03481 1.89218 7.0122C1.94386 6.99121 1.99553 6.97345 2.05367 6.95568C2.21779 6.90433 2.38875 6.8782 2.56072 6.87817H15.0465Z" fill="#41C0E3"/>
<path d="M14.1625 0.646729L8.53809 6.26953V47.7252C8.53809 47.9869 8.64204 48.2378 8.82707 48.4229C9.0121 48.6079 9.26306 48.7119 9.52474 48.7119H41.9455C42.2072 48.7119 42.4581 48.6079 42.6432 48.4229C42.8282 48.2378 42.9321 47.9869 42.9321 47.7252V1.63338C42.9321 1.37171 42.8282 1.12075 42.6432 0.935713C42.4581 0.750679 42.2072 0.646729 41.9455 0.646729H14.1625Z" fill="#EAEAEA"/>
<path d="M14.1625 5.3071V0.646729L8.53809 6.26953H13.2001C13.4548 6.26784 13.6986 6.1659 13.8787 5.98577C14.0589 5.80565 14.1608 5.56183 14.1625 5.3071Z" fill="#C9C9C9"/>
<path d="M24.2758 3.41461L18.9775 8.71445V47.7802C18.9773 47.9023 19.0012 48.0232 19.0478 48.136C19.0943 48.2489 19.1627 48.3514 19.2489 48.4378C19.3352 48.5242 19.4376 48.5927 19.5504 48.6395C19.6631 48.6863 19.784 48.7103 19.9061 48.7103H50.4585C50.7052 48.7103 50.9417 48.6123 51.1162 48.4379C51.2906 48.2635 51.3886 48.0269 51.3886 47.7802V4.34151C51.3886 4.21937 51.3645 4.09841 51.3178 3.98557C51.2711 3.87272 51.2025 3.77018 51.1162 3.68381C51.0298 3.59744 50.9273 3.52892 50.8144 3.48218C50.7016 3.43544 50.5806 3.41138 50.4585 3.41138L24.2758 3.41461Z" fill="white"/>
<path d="M24.2758 7.80848V3.41455L18.9775 8.71439H23.3699C23.4888 8.71439 23.6066 8.69096 23.7165 8.64543C23.8264 8.59991 23.9263 8.53318 24.0104 8.44906C24.0946 8.36493 24.1613 8.26507 24.2068 8.15516C24.2523 8.04525 24.2758 7.92744 24.2758 7.80848Z" fill="#C9C9C9"/>
<path d="M30.4258 10.9651H39.9371" stroke="#32314B" stroke-width="2.42223" stroke-miterlimit="10" stroke-linecap="round"/>
<path d="M25.7334 18.6274H44.63" stroke="#32314B" stroke-width="2.42223" stroke-miterlimit="10" stroke-linecap="round"/>
<path d="M25.7334 24.2617H44.63" stroke="#32314B" stroke-width="2.42223" stroke-miterlimit="10" stroke-linecap="round"/>
<path d="M25.7334 29.8943H44.63" stroke="#32314B" stroke-width="2.42223" stroke-miterlimit="10" stroke-linecap="round"/>
<path d="M25.7334 35.5266H44.63" stroke="#32314B" stroke-width="2.42223" stroke-miterlimit="10" stroke-linecap="round"/>
<path d="M25.7334 41.1609H44.63" stroke="#32314B" stroke-width="2.42223" stroke-miterlimit="10" stroke-linecap="round"/>
<path d="M61.5764 20.4476C62.8811 20.4476 63.9388 19.3899 63.9388 18.0851C63.9388 16.7804 62.8811 15.7227 61.5764 15.7227C60.2716 15.7227 59.2139 16.7804 59.2139 18.0851C59.2139 19.3899 60.2716 20.4476 61.5764 20.4476Z" fill="#A4DCFC"/>
<path d="M61.5763 14.8361C62.5002 14.8361 63.2492 14.0871 63.2492 13.1632C63.2492 12.2392 62.5002 11.4902 61.5763 11.4902C60.6523 11.4902 59.9033 12.2392 59.9033 13.1632C59.9033 14.0871 60.6523 14.8361 61.5763 14.8361Z" fill="#A4DCFC"/>
<path d="M49.2725 31.8384L52.1355 34.3543L58.8483 27.375" stroke="#9CBA5A" stroke-width="2.42223" stroke-linecap="round" stroke-linejoin="round"/>
</svg>
