<svg width="70" height="63" viewBox="0 0 70 63" fill="none" xmlns="http://www.w3.org/2000/svg">
<path d="M69.1455 28.3192C69.1455 29.836 68.8468 31.338 68.2663 32.7394C67.6859 34.1407 66.8351 35.414 65.7625 36.4866C64.69 37.5591 63.4167 38.4099 62.0153 38.9904C60.614 39.5708 59.112 39.8696 57.5952 39.8696H12.3753C9.46535 39.8607 6.66597 38.7537 4.53692 36.77C2.40786 34.7862 1.10603 32.072 0.891734 29.1699C0.677436 26.2678 1.56646 23.3917 3.38105 21.1168C5.19563 18.8419 7.80205 17.3357 10.6792 16.8995C10.6505 16.5168 10.6361 16.1341 10.6361 15.7515C10.6397 12.1791 11.8825 8.71855 14.1526 5.96021C16.4228 3.20187 19.5796 1.31657 23.0846 0.625902C26.5896 -0.0647678 30.2256 0.481979 33.3725 2.17288C36.5194 3.86378 38.9821 6.59409 40.3407 9.89807C43.2314 8.92323 46.3903 9.13185 49.1277 10.4783C51.865 11.8248 53.9584 14.1998 54.9505 17.0846C56.6458 16.6856 58.4093 16.6754 60.1091 17.0546C61.8089 17.4338 63.4009 18.1926 64.7659 19.2742C66.1309 20.3558 67.2335 21.7322 67.9912 23.3004C68.7489 24.8685 69.1421 26.5877 69.1412 28.3293L69.1455 28.3192Z" fill="white"/>
<path d="M33.8601 2.42167C31.5903 1.87434 29.2259 1.84876 26.9448 2.34685C24.6637 2.84494 22.5251 3.85375 20.69 5.2974C18.855 6.74105 17.3711 8.58198 16.3499 10.6817C15.3288 12.7815 14.7971 15.0855 14.7947 17.4203C14.7947 17.8092 14.809 18.1924 14.8363 18.5683C12.5188 18.9123 10.3608 19.9528 8.6485 21.5518C6.93622 23.1509 5.75068 25.2328 5.24923 27.5213C4.74778 29.8099 4.95412 32.1968 5.84087 34.3653C6.72761 36.5338 8.25284 38.3814 10.2141 39.6629C7.53999 39.1458 5.13455 37.7005 3.42259 35.582C1.71063 33.4636 0.80226 30.8084 0.857879 28.0853C0.913499 25.3622 1.92953 22.7463 3.72656 20.6996C5.5236 18.6528 7.98604 17.3069 10.6791 16.8994C10.6504 16.5192 10.636 16.136 10.636 15.7514C10.6348 13.0345 11.3509 10.3653 12.7118 8.01376C14.0728 5.66222 16.0304 3.71163 18.3868 2.35913C20.7432 1.00664 23.4149 0.30018 26.1319 0.311161C28.8488 0.322142 31.5147 1.05017 33.8601 2.42167Z" fill="#BEE6FC"/>
<path d="M36.4464 16.6857C35.993 16.4009 35.4685 16.2498 34.9332 16.2498C34.3978 16.2498 33.8733 16.4009 33.4199 16.6857C28.3974 19.9374 23.3749 21.1902 18.361 22.6625C17.2273 22.994 16.4668 23.9067 16.4668 24.9327V40.9172C16.4668 49.2675 21.8395 56.9362 30.4394 60.8638L33.496 62.26C33.9473 62.4625 34.4364 62.5672 34.931 62.5672C35.4256 62.5672 35.9147 62.4625 36.366 62.26L39.434 60.8666C48.034 56.9362 53.4067 49.2675 53.4067 40.9201V24.9356C53.4067 23.9095 52.6447 22.9969 51.511 22.6654C46.4842 21.1902 41.466 19.9374 36.4464 16.6857Z" fill="#E88032"/>
<path d="M49.8133 27.7439V40.6245C49.8133 47.3532 45.4825 53.5323 38.5528 56.6965L36.0889 57.8216C35.7253 57.9852 35.3311 58.0698 34.9323 58.0698C34.5335 58.0698 34.1393 57.9852 33.7757 57.8216L31.3118 56.6965C24.3821 53.5295 20.0527 47.3503 20.0527 40.6245V27.7439C20.0527 26.9173 20.6655 26.1826 21.5796 25.9142C25.6249 24.7289 29.6687 23.7187 33.714 21.0984C34.0795 20.8691 34.5023 20.7476 34.9337 20.7476C35.3652 20.7476 35.7879 20.8691 36.1535 21.0984C40.1973 23.7187 44.2426 24.7289 48.2865 25.9142C49.1991 26.1826 49.8133 26.9173 49.8133 27.7439Z" fill="#F6D372"/>
<path d="M34.9323 20.7481V58.0726C34.5334 58.074 34.1389 57.9893 33.7757 57.8243L31.3118 56.6993C24.3821 53.5322 20.0527 47.3531 20.0527 40.6272V27.7437C20.0527 26.9172 20.6655 26.1825 21.5796 25.9141C25.6249 24.7288 29.6687 23.7185 33.714 21.0982C34.078 20.8669 34.501 20.7454 34.9323 20.7481Z" fill="#F7BB38"/>
<path d="M36.9301 60.8666L38.1785 61.4406L36.3676 62.2672C35.9163 62.4697 35.4272 62.5743 34.9326 62.5743C34.4379 62.5743 33.9489 62.4697 33.4976 62.2672L30.441 60.8709C21.8367 56.9362 16.4727 49.2675 16.4727 40.9172V24.9355C16.4727 23.911 17.2346 22.9969 18.3669 22.6639C23.3894 21.1931 28.4119 19.9374 33.4244 16.6886C33.878 16.4038 34.4027 16.2527 34.9383 16.2527C35.4739 16.2527 35.9986 16.4038 36.4522 16.6886C37.0262 17.0636 37.6041 17.4118 38.1857 17.7333C33.7444 20.2316 29.3016 21.3624 24.8588 22.6639C23.7266 22.9969 22.9646 23.911 22.9646 24.9355V40.9172C22.9646 46.4377 25.3137 51.6611 29.392 55.6977C31.5811 57.8507 34.1329 59.6005 36.9301 60.8666Z" fill="#D1702F"/>
<path d="M29.3891 55.7035C23.5916 52.3399 20.0615 46.7061 20.0615 40.6245V27.7439C20.0615 26.9174 20.6743 26.1826 21.5884 25.9143L22.9674 25.5139V40.9173C22.9588 46.4377 25.3079 51.6611 29.3891 55.7035Z" fill="#F6D372"/>
<path d="M29.3891 55.7035C23.5916 52.3399 20.0615 46.7061 20.0615 40.6245V27.7439C20.0615 26.9174 20.6743 26.1826 21.5884 25.9143L22.9674 25.5139V40.9173C22.9588 46.4377 25.3079 51.6611 29.3891 55.7035Z" fill="#DDA32F"/>
<path d="M47.0707 33.4524C48.0082 33.4524 48.7683 32.6923 48.7683 31.7547C48.7683 30.8172 48.0082 30.0571 47.0707 30.0571C46.1331 30.0571 45.373 30.8172 45.373 31.7547C45.373 32.6923 46.1331 33.4524 47.0707 33.4524Z" fill="#F9DF9B"/>
<path d="M47.0707 29.4214C47.7348 29.4214 48.2732 28.883 48.2732 28.2189C48.2732 27.5548 47.7348 27.0164 47.0707 27.0164C46.4066 27.0164 45.8682 27.5548 45.8682 28.2189C45.8682 28.883 46.4066 29.4214 47.0707 29.4214Z" fill="#F9DF9B"/>
<path d="M34.3284 46.2554C38.1087 46.2554 41.1733 43.1908 41.1733 39.4104C41.1733 35.63 38.1087 32.5654 34.3284 32.5654C30.548 32.5654 27.4834 35.63 27.4834 39.4104C27.4834 43.1908 30.548 46.2554 34.3284 46.2554Z" fill="#DB1B1B"/>
<path d="M34.3285 44.6753C37.2363 44.6753 39.5935 42.3181 39.5935 39.4103C39.5935 36.5025 37.2363 34.1453 34.3285 34.1453C31.4207 34.1453 29.0635 36.5025 29.0635 39.4103C29.0635 42.3181 31.4207 44.6753 34.3285 44.6753Z" fill="#C11A1A"/>
<path d="M34.7311 43.8906C34.2967 43.8908 33.877 43.7332 33.5501 43.4472L30.2898 40.5772C29.9397 40.2611 29.7283 39.8198 29.7012 39.3489C29.6741 38.878 29.8336 38.4154 30.1451 38.0612C30.4566 37.7071 30.8951 37.4899 31.3656 37.4566C31.8361 37.4234 32.3008 37.5768 32.659 37.8837L34.6321 39.6186L41.0896 32.9028C41.2515 32.7269 41.4468 32.5852 41.6642 32.4859C41.8816 32.3866 42.1167 32.3317 42.3556 32.3245C42.5944 32.3174 42.8324 32.358 43.0553 32.444C43.2783 32.5301 43.4818 32.6598 43.654 32.8256C43.8261 32.9915 43.9633 33.19 44.0576 33.4096C44.152 33.6292 44.2014 33.8654 44.2032 34.1044C44.2049 34.3434 44.1589 34.5803 44.0678 34.8013C43.9767 35.0223 43.8423 35.2228 43.6726 35.3911L36.0241 43.3424C35.8565 43.5161 35.6556 43.6541 35.4335 43.7483C35.2113 43.8425 34.9724 43.8909 34.7311 43.8906Z" fill="#E88032"/>
</svg>
