<svg width="32" height="74" viewBox="0 0 32 74" fill="none" xmlns="http://www.w3.org/2000/svg">
<path d="M28.3506 0.792969H3.64764C3.17961 0.792759 2.71613 0.884788 2.28369 1.0638C1.85124 1.24281 1.45832 1.50529 1.12737 1.83624C0.796424 2.16718 0.533945 2.56011 0.354935 2.99255C0.175925 3.42499 0.0838963 3.88848 0.0841068 4.35651V52.5804C0.0841068 53.5255 0.45955 54.4319 1.12784 55.1002C1.79614 55.7685 2.70254 56.1439 3.64764 56.1439H5.07947V72.1598C5.07947 72.4754 5.20484 72.7781 5.428 73.0012C5.65117 73.2244 5.95384 73.3498 6.26945 73.3498H25.7288C26.0444 73.3498 26.347 73.2244 26.5702 73.0012C26.7934 72.7781 26.9187 72.4754 26.9187 72.1598V56.1439H28.3506C29.2957 56.1439 30.2021 55.7685 30.8704 55.1002C31.5387 54.4319 31.9141 53.5255 31.9141 52.5804V4.36131C31.9149 3.89288 31.8234 3.42888 31.6447 2.99588C31.4659 2.56288 31.2035 2.16939 30.8725 1.83793C30.5415 1.50648 30.1484 1.24357 29.7156 1.06426C29.2829 0.884946 28.819 0.792758 28.3506 0.792969ZM15.9991 4.81456C16.7471 4.81424 17.4784 5.03579 18.1005 5.45117C18.7226 5.86654 19.2075 6.4571 19.4939 7.14811C19.7803 7.83913 19.8553 8.59957 19.7095 9.33323C19.5636 10.0669 19.2035 10.7408 18.6745 11.2697C18.1456 11.7987 17.4717 12.1588 16.738 12.3047C16.0044 12.4505 15.2439 12.3755 14.5529 12.0891C13.8619 11.8027 13.2713 11.3178 12.856 10.6957C12.4406 10.0736 12.219 9.34233 12.2194 8.59431C12.2198 7.59199 12.6181 6.63084 13.3269 5.92209C14.0356 5.21334 14.9968 4.81499 15.9991 4.81456Z" fill="#4F4F74"/>
<path d="M7.429 52.3305C6.48389 52.3305 5.57749 51.9551 4.9092 51.2868C4.2409 50.6185 3.86546 49.7121 3.86546 48.767V0.792969H3.64764C3.17961 0.792759 2.71613 0.884788 2.28369 1.0638C1.85124 1.24281 1.45832 1.50529 1.12737 1.83624C0.796424 2.16718 0.533945 2.56011 0.354935 2.99255C0.175925 3.42499 0.0838963 3.88848 0.0841068 4.35651V52.5804C0.0841068 53.5255 0.45955 54.4319 1.12784 55.1002C1.79614 55.7685 2.70253 56.1439 3.64764 56.1439H28.3506C29.2957 56.1439 30.2021 55.7685 30.8704 55.1002C31.5387 54.4319 31.9141 53.5255 31.9141 52.5804V52.3305H7.429Z" fill="#3E436D"/>
<path d="M15.9983 40.5924C21.8008 40.5924 26.5047 35.8886 26.5047 30.086C26.5047 24.2835 21.8008 19.5796 15.9983 19.5796C10.1957 19.5796 5.49182 24.2835 5.49182 30.086C5.49182 35.8886 10.1957 40.5924 15.9983 40.5924Z" fill="#3E436D"/>
<path d="M15.9986 39.5738C21.2385 39.5738 25.4864 35.3259 25.4864 30.086C25.4864 24.846 21.2385 20.5981 15.9986 20.5981C10.7586 20.5981 6.51074 24.846 6.51074 30.086C6.51074 35.3259 10.7586 39.5738 15.9986 39.5738Z" fill="#F6D372"/>
<path d="M17.2334 39.4873C16.8088 39.5454 16.3807 39.5743 15.9522 39.5738C13.4358 39.5738 11.0226 38.5742 9.24327 36.7949C7.46396 35.0156 6.46436 32.6023 6.46436 30.086C6.46436 27.5696 7.46396 25.1564 9.24327 23.3771C11.0226 21.5978 13.4358 20.5982 15.9522 20.5982C16.3807 20.5976 16.8088 20.6265 17.2334 20.6846C14.9594 20.9938 12.8746 22.1167 11.3651 23.8453C9.85557 25.5739 9.02377 27.791 9.02377 30.086C9.02377 32.3809 9.85557 34.598 11.3651 36.3266C12.8746 38.0552 14.9594 39.1781 17.2334 39.4873Z" fill="#F6C752"/>
<path d="M27.6716 15.723C29.3752 15.723 30.7562 14.342 30.7562 12.6384C30.7562 10.9348 29.3752 9.55371 27.6716 9.55371C25.968 9.55371 24.5869 10.9348 24.5869 12.6384C24.5869 14.342 25.968 15.723 27.6716 15.723Z" fill="#5A5A82"/>
<path d="M27.671 8.39697C28.8775 8.39697 29.8556 7.4189 29.8556 6.2124C29.8556 5.0059 28.8775 4.02783 27.671 4.02783C26.4645 4.02783 25.4865 5.0059 25.4865 6.2124C25.4865 7.4189 26.4645 8.39697 27.671 8.39697Z" fill="#5A5A82"/>
<path d="M11.9955 23.8667H13.5746C13.646 23.8667 13.7157 23.8878 13.775 23.9275C13.8343 23.9671 13.8805 24.0234 13.9078 24.0893L15.8889 28.8749C15.9158 28.9399 15.961 28.9957 16.0191 29.0353C16.0772 29.0749 16.1457 29.0966 16.216 29.0978C16.2863 29.099 16.3554 29.0796 16.4149 29.042C16.4743 29.0044 16.5214 28.9502 16.5504 28.8861L18.7478 24.0813C18.7761 24.018 18.8222 23.9643 18.8805 23.9268C18.9388 23.8892 19.0068 23.8695 19.0761 23.8699H20.6441C20.7044 23.8702 20.7637 23.8855 20.8167 23.9146C20.8696 23.9436 20.9144 23.9854 20.947 24.0362C20.9796 24.087 20.999 24.1451 21.0035 24.2053C21.0079 24.2655 20.9972 24.3258 20.9724 24.3808L15.5398 36.2326C15.5119 36.2945 15.467 36.3473 15.4103 36.3847C15.3536 36.4221 15.2874 36.4427 15.2195 36.444H13.6323C13.5721 36.4431 13.513 36.427 13.4605 36.3974C13.4081 36.3677 13.3639 36.3254 13.332 36.2742C13.3002 36.2231 13.2816 36.1648 13.2781 36.1046C13.2746 36.0445 13.2863 35.9844 13.312 35.9299L14.8976 32.5345C14.9173 32.4888 14.9276 32.4394 14.9276 32.3896C14.9276 32.3397 14.9173 32.2904 14.8976 32.2446L11.664 24.3744C11.6393 24.3193 11.6288 24.2589 11.6336 24.1988C11.6383 24.1386 11.6581 24.0806 11.6911 24.03C11.7241 23.9795 11.7692 23.9381 11.8224 23.9095C11.8756 23.881 11.9351 23.8663 11.9955 23.8667Z" fill="#27273D"/>
<path d="M9.65787 58.5015H7.21384C6.82553 58.5015 6.51074 58.8162 6.51074 59.2046V70.7088C6.51074 71.0971 6.82553 71.4119 7.21384 71.4119H9.65787C10.0462 71.4119 10.361 71.0971 10.361 70.7088V59.2046C10.361 58.8162 10.0462 58.5015 9.65787 58.5015Z" fill="#F6D372"/>
<path d="M14.7 58.5015H12.256C11.8676 58.5015 11.5529 58.8162 11.5529 59.2046V68.095C11.5529 68.4833 11.8676 68.7981 12.256 68.7981H14.7C15.0883 68.7981 15.4031 68.4833 15.4031 68.095V59.2046C15.4031 58.8162 15.0883 58.5015 14.7 58.5015Z" fill="#F6D372"/>
<path d="M19.7422 58.5015H17.2982C16.9099 58.5015 16.5951 58.8162 16.5951 59.2046V68.095C16.5951 68.4833 16.9099 68.7981 17.2982 68.7981H19.7422C20.1305 68.7981 20.4453 68.4833 20.4453 68.095V59.2046C20.4453 58.8162 20.1305 58.5015 19.7422 58.5015Z" fill="#F6D372"/>
<path d="M24.7836 58.5015H22.3396C21.9513 58.5015 21.6365 58.8162 21.6365 59.2046V70.7088C21.6365 71.0971 21.9513 71.4119 22.3396 71.4119H24.7836C25.1719 71.4119 25.4867 71.0971 25.4867 70.7088V59.2046C25.4867 58.8162 25.1719 58.5015 24.7836 58.5015Z" fill="#F6D372"/>
<path d="M26.9183 56.144H5.07898V58.0579H26.9183V56.144Z" fill="#32314B"/>
</svg>
