<svg width="56" height="70" viewBox="0 0 56 70" fill="none" xmlns="http://www.w3.org/2000/svg">
<path d="M30.2536 1.2259C29.5781 0.801999 28.7968 0.577148 27.9993 0.577148C27.2018 0.577148 26.4205 0.801999 25.745 1.2259C18.2671 6.07558 10.7939 7.93567 3.31753 10.1274C1.63109 10.6233 0.501587 11.9828 0.501587 13.5112V37.3169C0.501587 49.7524 8.50356 61.1758 21.3083 67.0283L25.8623 69.1089C26.5349 69.4105 27.2637 69.5665 28.0008 69.5665C28.738 69.5665 29.4668 69.4105 30.1394 69.1089L34.6934 67.0283C47.5028 61.1758 55.5001 49.7524 55.5001 37.3169V13.5112C55.5001 11.9828 54.3659 10.6233 52.6842 10.1274C45.2047 7.93567 37.7284 6.07558 30.2536 1.2259Z" fill="#E88032"/>
<path d="M50.1608 17.6972V36.88C50.1608 46.9016 43.7123 56.1051 33.3919 60.8155L29.7233 62.4926C29.1821 62.7352 28.5956 62.8607 28.0024 62.8607C27.4093 62.8607 26.8228 62.7352 26.2816 62.4926L22.6115 60.8155C12.2863 56.1004 5.84253 46.8922 5.84253 36.88V17.6972C5.84253 16.466 6.75615 15.3724 8.11719 14.9719C14.137 13.2057 20.16 11.707 26.1846 7.79598C26.7286 7.45455 27.3578 7.27344 28.0001 7.27344C28.6424 7.27344 29.2716 7.45455 29.8156 7.79598C35.8386 11.707 41.8616 13.2026 47.8861 14.9688C49.2425 15.3724 50.1608 16.466 50.1608 17.6972Z" fill="#F6D372"/>
<path d="M27.9993 7.27643V62.8632C27.4058 62.8651 26.8189 62.7392 26.2784 62.494L22.6083 60.8169C12.2832 56.1018 5.83936 46.8936 5.83936 36.8814V17.697C5.83936 16.4658 6.75297 15.3723 8.11401 14.9718C14.137 13.2056 20.16 11.7069 26.1846 7.79582C26.7273 7.4527 27.3571 7.27245 27.9993 7.27643Z" fill="#F7BB38"/>
<path d="M30.9762 67.0278L32.8347 67.8694L30.1377 69.1022C29.4651 69.4038 28.7363 69.5597 27.9991 69.5597C27.262 69.5597 26.5332 69.4038 25.8606 69.1022L21.3066 67.0215C8.49716 61.169 0.499878 49.7457 0.499878 37.3102V13.5092C0.499878 11.9823 1.63408 10.6228 3.31582 10.1269C10.7937 7.93674 18.2669 6.07509 25.7448 1.22541C26.4203 0.801511 27.2017 0.57666 27.9991 0.57666C28.7966 0.57666 29.578 0.801511 30.2535 1.22541C31.1139 1.78442 31.9743 2.3059 32.8347 2.78982C26.2204 6.50374 19.6045 8.18861 12.9886 10.1269C11.3022 10.6228 10.1726 11.9823 10.1726 13.5092V37.3164C10.1726 45.539 13.6707 53.3188 19.7453 59.3387C23.0078 62.542 26.8097 65.1449 30.9762 67.0278Z" fill="#D1702F"/>
<path d="M19.7391 59.3388C11.1051 54.3327 5.83777 45.938 5.83777 36.8801V17.6972C5.83777 16.466 6.75139 15.3725 8.11242 14.972L10.1665 14.376V37.3165C10.1665 45.5391 13.6645 53.3205 19.7391 59.3388Z" fill="#F6D372"/>
<path d="M19.7391 59.3388C11.1051 54.3327 5.83777 45.938 5.83777 36.8801V17.6972C5.83777 16.466 6.75139 15.3725 8.11242 14.972L10.1665 14.376V37.3165C10.1665 45.5391 13.6645 53.3205 19.7391 59.3388Z" fill="#DDA32F"/>
<path d="M46.0773 26.1983C47.4735 26.1983 48.6054 25.0664 48.6054 23.6702C48.6054 22.274 47.4735 21.1421 46.0773 21.1421C44.6811 21.1421 43.5492 22.274 43.5492 23.6702C43.5492 25.0664 44.6811 26.1983 46.0773 26.1983Z" fill="#F9DF9B"/>
<path d="M46.0774 20.1958C47.0667 20.1958 47.8686 19.3938 47.8686 18.4045C47.8686 17.4153 47.0667 16.6133 46.0774 16.6133C45.0881 16.6133 44.2861 17.4153 44.2861 18.4045C44.2861 19.3938 45.0881 20.1958 46.0774 20.1958Z" fill="#F9DF9B"/>
<path d="M27.1 45.2654C32.7298 45.2654 37.2937 40.7015 37.2937 35.0716C37.2937 29.4418 32.7298 24.8779 27.1 24.8779C21.4701 24.8779 16.9062 29.4418 16.9062 35.0716C16.9062 40.7015 21.4701 45.2654 27.1 45.2654Z" fill="#DB1B1B"/>
<path d="M27.1 42.9122C31.4304 42.9122 34.9408 39.4017 34.9408 35.0713C34.9408 30.7409 31.4304 27.2305 27.1 27.2305C22.7696 27.2305 19.2592 30.7409 19.2592 35.0713C19.2592 39.4017 22.7696 42.9122 27.1 42.9122Z" fill="#C11A1A"/>
<path d="M27.6992 41.0288C27.2241 41.0292 26.7652 40.8562 26.4085 40.5423L21.5526 36.2683C21.171 35.9236 20.9405 35.4426 20.9109 34.9292C20.8814 34.4159 21.0553 33.9115 21.3949 33.5254C21.7345 33.1393 22.2125 32.9025 22.7255 32.8663C23.2384 32.8301 23.7449 32.9973 24.1354 33.3319L27.5865 36.3684L37.6833 25.8727C38.046 25.513 38.5352 25.3094 39.0461 25.3057C39.557 25.302 40.0491 25.4984 40.417 25.8528C40.785 26.2073 40.9996 26.6917 41.015 27.2024C41.0303 27.7131 40.8452 28.2095 40.4992 28.5854L29.1087 40.4296C28.9264 40.6195 28.7075 40.7705 28.4653 40.8734C28.223 40.9764 27.9624 41.0293 27.6992 41.0288Z" fill="#E88032"/>
</svg>
