<svg width="51" height="51" viewBox="0 0 51 51" fill="none" xmlns="http://www.w3.org/2000/svg">
<mask id="mask0_110_119" style="mask-type:luminance" maskUnits="userSpaceOnUse" x="-7" y="-2" width="78" height="55">
<path d="M-6.43152 -1.48633H70.4268V52.5137H-6.43152V-1.48633Z" fill="white"/>
</mask>
<g mask="url(#mask0_110_119)">
<path fill-rule="evenodd" clip-rule="evenodd" d="M-4.64685 -1.48633H76.7211V54.4171H-4.64685V-1.48633Z" fill="white"/>
<path fill-rule="evenodd" clip-rule="evenodd" d="M-6.43152 -1.48633H76.7209V30.7913H-6.43152V-1.48633Z" fill="#DF0000"/>
<path fill-rule="evenodd" clip-rule="evenodd" d="M22.3173 6.36397C20.3299 6.82192 18.5499 7.99909 17.2762 9.69782C16.0026 11.3966 15.3127 13.5134 15.3226 15.693C15.3324 17.8726 16.0413 19.9822 17.3303 21.6677C18.6193 23.3531 20.4098 24.5117 22.4013 24.949C21.2604 25.303 20.0656 25.412 18.8854 25.2697C17.7052 25.1275 16.5627 24.7369 15.5236 24.1202C14.4845 23.5036 13.5691 22.673 12.83 21.6762C12.0909 20.6794 11.5426 19.536 11.2165 18.3115C10.5689 15.8501 10.8566 13.2139 12.0166 10.9792C13.1766 8.74459 15.1147 7.09333 17.407 6.38647C19.0857 5.86897 20.6386 5.85772 22.3278 6.36397H22.3173Z" fill="white"/>
<path fill-rule="evenodd" clip-rule="evenodd" d="M20.954 14.2161L21.4681 15.9036L20.1041 14.8686L18.7611 15.9261L19.2543 14.2161L17.9113 13.1698L19.5795 13.1473L20.1041 11.4598L20.6287 13.1473H22.2865L20.954 14.2161ZM22.7901 20.0661L23.3148 21.7648L21.9508 20.7298L20.5973 21.7761L21.1009 20.0773L19.7579 19.0198L21.4262 19.0086L21.9403 17.3098L22.4649 18.9973H24.1436L22.7901 20.0661ZM28.9281 20.0211L29.4422 21.7311L28.0782 20.6848L26.7352 21.7311L27.2284 20.0323L25.8854 18.9861L27.5536 18.9636L28.0782 17.2761L28.6028 18.9636H30.2606L28.9281 20.0211ZM30.7538 14.2161L31.2679 15.9148L29.9039 14.8798L28.5609 15.9261L29.0645 14.2273L27.711 13.1698L29.3898 13.1586L29.8934 11.4598L30.418 13.1473H32.0968L30.7538 14.2161ZM25.8959 10.3573L26.4205 12.0673L25.0565 11.0211L23.703 12.0786L24.2066 10.3686L22.8636 9.31108L24.5214 9.29983L25.046 7.60107L25.5706 9.28858H27.2494L25.8959 10.3573Z" fill="white"/>
</g>
</svg>
