<svg width="33" height="34" viewBox="0 0 33 34" fill="none" xmlns="http://www.w3.org/2000/svg">
<path d="M20.3486 1.20879C19.5435 1.48147 18.9267 2.09826 18.4009 3.13707C18.2645 3.40327 17.9009 4.26678 17.5893 5.05238C16.966 6.63007 16.5115 7.54552 15.9272 8.40253C15.1805 9.48679 14.0768 10.5321 12.9471 11.2008C12.3693 11.5449 9.69434 12.9603 9.67486 12.9278C9.66837 12.9149 9.62941 12.7655 9.58397 12.5902C9.48009 12.1812 9.30479 11.941 8.96068 11.7397L8.6815 11.5774H6.08448C3.2797 11.5774 3.18231 11.5904 2.46164 11.9475C2.02014 12.1747 1.38387 12.8045 1.13716 13.259C0.721632 14.0381 0.74111 13.6355 0.74111 22.0109C0.74111 27.3024 0.760588 29.7241 0.812528 29.9643C1.06574 31.1849 2.16298 32.2497 3.39656 32.4834C3.59134 32.5224 4.79246 32.5483 6.1559 32.5483C8.36337 32.5483 8.58411 32.5354 8.82434 32.425C9.25934 32.2237 9.63591 31.7043 9.63591 31.3148C9.63591 31.2433 9.65539 31.1849 9.67486 31.1849C9.70083 31.1849 10.9734 31.503 12.5186 31.8991C14.0573 32.2886 15.7129 32.6782 16.1934 32.7691C17.7256 33.0483 18.3944 33.0807 23.0106 33.0548L27.3281 33.0353L27.7696 32.8275C28.8928 32.2951 29.5096 31.2174 29.4187 29.9383C29.3862 29.4449 29.172 28.8346 28.9513 28.5879C28.8733 28.497 28.9058 28.4645 29.2174 28.3022C29.8083 27.9906 30.3471 27.2894 30.5419 26.5817C30.7302 25.8805 30.5809 24.8092 30.2173 24.3028C30.1394 24.1924 30.081 24.095 30.0939 24.0885C30.1069 24.082 30.2368 24.0171 30.3796 23.9457C30.7627 23.7574 31.2821 23.212 31.5028 22.7706C31.9833 21.8226 31.9248 20.6735 31.3535 19.8164L31.1912 19.5632L31.386 19.4658C31.7301 19.2905 32.217 18.7387 32.4572 18.2452C33.3207 16.4923 32.178 14.2523 30.2757 13.9796C30.0485 13.9472 28.2046 13.9147 26.1789 13.9147C24.1468 13.9147 22.4912 13.9017 22.4912 13.8887C22.4912 13.8693 22.6145 13.6745 22.7638 13.4537C23.6079 12.1747 24.2247 10.4931 24.4844 8.74015C24.6467 7.61044 24.6272 4.02006 24.4519 3.38379C24.1468 2.29304 23.2833 1.44252 22.199 1.15685C21.6341 1.01401 20.8615 1.03349 20.3486 1.20879ZM22.0562 2.66961C22.4392 2.83842 22.7963 3.20849 23.0041 3.64999C23.1729 4.00708 23.1729 4.03954 23.1924 5.63671C23.2053 6.54566 23.1859 7.57149 23.1404 7.97403C22.9262 10.0971 22.3288 11.6228 20.9979 13.4927C20.2512 14.5315 20.1993 14.7198 20.5369 15.0964L20.7252 15.3106L25.5232 15.3431L30.3212 15.3755L30.6004 15.5573C30.9445 15.7846 31.2301 16.2326 31.2886 16.6286C31.3665 17.2259 31.0419 17.8752 30.5224 18.1543C30.2563 18.2907 30.1783 18.2972 27.9254 18.3296L25.5946 18.3621L25.4388 18.5439C25.2115 18.8036 25.218 19.2841 25.4518 19.5178L25.6141 19.6801L27.445 19.7061C29.185 19.7255 29.2889 19.732 29.5421 19.8684C30.0615 20.1476 30.3471 20.6215 30.3471 21.2188C30.3471 21.8161 30.0615 22.2901 29.5421 22.5693C29.2824 22.7056 29.198 22.7121 26.8217 22.7446L24.361 22.777L24.2377 22.9329C24.0624 23.1536 24.0234 23.3679 24.1078 23.66C24.2377 24.0885 24.3221 24.108 26.2309 24.108C28.0488 24.108 28.2501 24.134 28.6331 24.4521C29.2694 24.9845 29.3473 25.9454 28.7954 26.5817C28.3669 27.0881 28.3474 27.0946 25.718 27.0946C23.2443 27.0946 23.108 27.1076 22.9456 27.4127C22.8482 27.601 22.8677 28.088 22.9781 28.2438C23.1469 28.4905 23.4845 28.5294 25.1986 28.51C26.8022 28.4905 26.8087 28.4905 27.1333 28.6528C27.7436 28.958 28.0683 29.6267 27.9384 30.3084C27.8215 30.9382 27.2567 31.5225 26.6853 31.6069C26.536 31.6329 24.5039 31.6394 22.1665 31.6199C17.0374 31.5874 16.953 31.5809 13.4341 30.6525C12.7588 30.4707 11.6161 30.1721 10.902 29.9838L9.60344 29.6462L9.58397 22.0823L9.57098 14.5185L10.0384 14.3043C11.5252 13.6225 13.447 12.6487 13.9535 12.3111C14.7715 11.7722 15.674 10.9996 16.2388 10.3503C17.2647 9.17515 18.0113 7.87014 18.9203 5.6432C19.7513 3.59805 19.8812 3.35133 20.3551 2.89036C20.7641 2.48782 21.4524 2.40342 22.0562 2.66961ZM8.20755 21.9655V31.0486L6.08448 31.068C3.83806 31.0875 3.46798 31.055 3.05895 30.8018C2.72134 30.5941 2.39671 30.211 2.26037 29.8474C2.1435 29.5423 2.13701 29.2306 2.13701 21.9655C2.13701 13.7394 2.11753 14.2588 2.50059 13.681C2.70186 13.3823 3.11738 13.0837 3.50044 12.9668C3.68873 12.9084 4.39642 12.8824 5.98709 12.8824L8.20755 12.8759V21.9655Z" fill="white" stroke="#163257" stroke-width="0.3"/>
</svg>
