<svg width="27" height="19" viewBox="0 0 27 19" fill="none" xmlns="http://www.w3.org/2000/svg">
<path d="M1.72998 8.67282C1.72998 6.8647 3.19575 5.39893 5.00387 5.39893L22.6506 5.39893C24.4587 5.39893 25.9245 6.8647 25.9245 8.67281V14.2223C25.9245 16.0304 24.4587 17.4962 22.6506 17.4962H18.5699C17.8569 17.4962 17.1732 17.2129 16.669 16.7088L15.7281 15.7679C14.6783 14.7181 12.9762 14.7181 11.9263 15.7679L10.9854 16.7088C10.4813 17.2129 9.7975 17.4962 9.08453 17.4962H5.00387C3.19575 17.4962 1.72998 16.0304 1.72998 14.2223L1.72998 8.67282Z" stroke="white" stroke-width="1.57147"/>
<path d="M5.76001 8.54688H6.75807" stroke="white" stroke-width="1.57147" stroke-linecap="round"/>
<path d="M9.7948 8.54688L21.8554 8.54688" stroke="white" stroke-width="1.57147" stroke-linecap="round"/>
<path d="M19.2046 5.32899L18.488 3.26641C18.1123 2.18521 17.0932 1.46045 15.9486 1.46045L11.7075 1.46045C10.5629 1.46045 9.54385 2.18521 9.16819 3.26641L8.45154 5.32899" stroke="white" stroke-width="1.57147" stroke-linecap="round" stroke-linejoin="round"/>
</svg>
