<svg width="85" height="85" viewBox="0 0 85 85" fill="none" xmlns="http://www.w3.org/2000/svg">
<path d="M42.2043 5.71846C36.0211 6.55362 29.9552 9.26424 25.0468 13.3814C21.8234 16.0628 18.6585 20.0774 16.9149 23.6818L16.5047 24.5316H15.4644C13.6622 24.5316 13.208 24.8393 9.28126 28.7953C6.71716 31.3741 5.80874 32.3997 5.545 32.9565C5.23731 33.6451 5.20801 33.8796 5.20801 36.3997C5.20801 38.6854 5.26662 39.3448 5.545 40.6048C6.23365 43.6671 7.55233 47.0957 8.15306 47.3741C8.68053 47.6085 9.00287 47.5792 9.45708 47.2275C9.79408 46.9491 9.83804 46.8319 9.77943 46.3045C9.75012 45.9675 9.44243 44.9711 9.09078 44.092C8.00654 41.2935 7.61093 39.4473 7.52302 36.8246C7.44976 34.8613 7.47907 34.4803 7.69885 34.0407C7.99188 33.4693 13.9552 27.4034 14.5413 27.0811C15.1567 26.7587 16.2849 26.8173 16.871 27.2129C17.5303 27.6525 24.0358 36.2972 24.0358 36.7367C24.0358 36.9711 23.3325 37.7624 21.6768 39.4034C20.3728 40.6927 19.23 41.9528 19.1127 42.2166C18.6292 43.3155 18.9223 44.2239 20.5193 46.5975C24.3288 52.2532 29.6182 57.9528 34.9369 62.114C38.2043 64.6634 41.0761 66.5389 41.9552 66.6854C43.186 66.8758 43.4204 66.744 46.087 64.0773C47.8013 62.3777 48.6951 61.6011 48.9149 61.6011C49.3398 61.6011 57.9991 68.1066 58.424 68.766C58.8196 69.352 58.8782 70.4802 58.5559 71.0956C58.1749 71.7989 52.1383 77.689 51.5376 77.9381C50.805 78.2458 48.153 78.2458 46.4533 77.9528C40.49 76.9125 33.3398 73.015 25.794 66.7293C21.3398 63.0077 16.6512 57.5718 13.2666 52.1799C11.7428 49.7623 11.7135 49.733 11.0102 49.733C10.556 49.733 10.3655 49.8209 10.1311 50.114C9.72082 50.6414 9.75012 50.9638 10.2776 51.9162C12.197 55.3008 16.3435 60.7806 19.6988 64.3264C22.893 67.7257 28.6365 72.2824 33.2666 75.081C39.3911 78.8026 44.4607 80.5022 49.3837 80.5022C51.5229 80.5022 52.3288 80.341 53.3398 79.6817C53.6182 79.5059 55.3178 77.8795 57.1053 76.0773C60.8416 72.3264 61.1053 71.9454 61.1053 70.1579V69.1176L61.8672 68.766C65.4423 67.1103 70.1456 63.3008 72.8269 59.9162C76.6804 55.037 79.1712 49.2056 79.9331 43.2422C80.2262 40.9858 80.2115 36.766 79.9331 34.5536C79.1273 28.473 76.6218 22.5975 72.8416 17.8943C72.3288 17.2789 71.8013 16.6928 71.6548 16.6195C71.1419 16.3411 70.5266 16.4437 70.2042 16.854C69.6914 17.5133 69.8086 17.9382 70.8343 19.2129C74.4972 23.7551 76.7976 29.0444 77.5742 34.7587C77.8379 36.6635 77.8819 40.7221 77.6621 42.5536C76.402 52.6927 70.38 61.4986 61.3837 66.3484L60.1236 67.0224L59.772 66.6414C59.5815 66.4363 59.098 66.026 58.7171 65.7476L57.9991 65.2202L59.772 64.3118C62.805 62.7293 64.8855 61.1909 67.2592 58.7293C69.5302 56.3704 71.1126 54.1286 72.4606 51.3154C76.5046 42.9052 76.1529 32.7221 71.5375 24.7074C69.8819 21.8356 67.2592 18.7441 64.783 16.7368C54.1896 8.17999 39.142 8.2093 28.6072 16.81C27.142 17.9968 26.9516 18.5243 27.6988 19.2862C28.3288 19.9016 28.7391 19.7844 30.2922 18.5096C33.2519 16.1214 36.6805 14.4071 40.4021 13.4694C53.5889 10.158 67.1566 17.5866 71.5522 30.5536C73.75 37.0151 73.2811 44.2092 70.2628 50.3924C67.5376 55.9455 62.9222 60.385 57.2812 62.8612C56.4753 63.2275 55.7427 63.4766 55.6694 63.418C55.5815 63.374 54.3947 62.4803 53.0174 61.44C50.4533 59.5059 49.9552 59.2568 48.7977 59.2568C47.6841 59.2715 47.142 59.6378 44.6951 62.114L42.3801 64.4436L41.0761 63.5938C37.0907 60.9564 34.0871 58.4949 30.6145 55.0224C27.142 51.5499 24.6805 48.5462 22.0431 44.5609L21.1933 43.2568L23.523 40.9418C25.9992 38.4949 26.3655 37.9528 26.3801 36.8393C26.3801 35.6818 26.131 35.1836 24.197 32.6195C23.1567 31.2422 22.2629 30.0554 22.219 29.9821C22.175 29.9089 22.3362 29.3521 22.5853 28.766C23.3179 26.9638 24.2702 25.3228 25.9259 22.9345C26.4534 22.1726 26.4973 21.777 26.0724 21.2496C25.6475 20.7221 24.7538 20.7074 24.2556 21.2496C23.6109 21.9382 22.2336 24.1214 21.3252 25.8796L20.4168 27.6378L19.8893 26.9199C19.6109 26.5389 19.2007 26.0554 18.9955 25.8649L18.6146 25.5133L19.2886 24.2532C23.1127 17.1617 29.3691 11.9016 36.9882 9.3668C42.3654 7.57926 48.2848 7.30087 53.8526 8.59025C58.087 9.57193 62.761 11.843 66.1017 14.5536C66.8489 15.1543 67.1419 15.3009 67.5815 15.3009C68.2555 15.3009 68.7244 14.8906 68.7244 14.2899C68.7244 13.6012 68.6218 13.4694 67.435 12.5463C62.6291 8.82468 56.9881 6.48036 51.098 5.7038C48.9442 5.42542 44.3288 5.44007 42.2043 5.71846Z" fill="white"/>
<path d="M32.1528 31.6526C30.3067 32.3266 28.9001 34.7881 29.7499 35.843C29.9697 36.1361 30.2041 36.2533 30.4972 36.2533C31.1858 36.2533 31.4935 36.0042 31.8744 35.1544C32.2847 34.2167 32.9001 33.7625 33.7792 33.7625C34.6876 33.7625 35.5228 34.4511 35.6986 35.3449C35.8891 36.3265 35.2737 37.3815 31.7865 42.0848C29.6913 44.898 29.5448 45.2936 30.2627 45.9969L30.6144 46.3632H34.2481C38.2188 46.3632 38.4092 46.3192 38.5997 45.5426C38.7169 45.0738 38.4678 44.3851 38.1308 44.2093C37.9843 44.1507 36.8708 44.0628 35.6547 44.0188L33.4129 43.9456L35.1125 41.6013C37.1492 38.7734 37.9843 37.191 38.0722 35.9602C38.1895 34.3192 37.325 32.7222 35.8891 31.931C35.2444 31.5793 34.8928 31.506 33.9257 31.4621C33.1492 31.4328 32.5484 31.4914 32.1528 31.6526Z" fill="white"/>
<path d="M43.787 31.9895C43.2595 32.4437 42.4097 33.821 39.9481 38.2019C38.732 40.3558 38.395 41.0884 38.395 41.5133C38.395 42.5096 38.5415 42.5536 41.7357 42.5536H44.5489V44.0334C44.5489 44.8393 44.6075 45.6305 44.6954 45.777C44.8858 46.1433 45.6478 46.3777 46.0727 46.2166C46.732 45.9675 46.8932 45.5426 46.8932 43.9895V42.5536H47.3913C47.9628 42.5536 48.5049 42.0115 48.5049 41.4547C48.5049 40.9565 47.9628 40.3851 47.406 40.2679L46.8932 40.18V36.5902C46.8932 32.7221 46.8492 32.4877 46.0727 31.8723C45.4573 31.3888 44.4023 31.4474 43.787 31.9895ZM44.5489 37.6452V40.2093H43.069C42.2631 40.2093 41.6185 40.1506 41.6478 40.0774C41.721 39.8576 44.4609 35.0811 44.5049 35.0811C44.5342 35.0811 44.5489 36.2386 44.5489 37.6452Z" fill="white"/>
<path d="M55.0682 31.8136C54.7019 32.2239 49.7788 44.7806 49.7642 45.2934C49.7642 45.9528 50.1744 46.363 50.8484 46.363C51.1414 46.363 51.4931 46.2751 51.625 46.1726C52.0059 45.9088 57.0022 33.2495 57.0022 32.5902C57.0022 32.2532 56.8997 31.9601 56.7385 31.8136C56.3722 31.4766 55.3612 31.4913 55.0682 31.8136Z" fill="white"/>
<path d="M59.3468 31.8576C59.1709 32.0334 59.0537 32.3411 59.0537 32.6635C59.0537 32.9858 59.1709 33.2935 59.3468 33.4693C59.6251 33.7477 59.8303 33.7624 62.4383 33.7624C64.6215 33.7624 65.2222 33.8063 65.1636 33.9382C65.1196 34.0408 64.0354 36.5462 62.7314 39.4913C61.4273 42.4363 60.3724 45.0151 60.3724 45.2056C60.387 46.4363 62.1013 46.6708 62.6581 45.5133C64.094 42.4949 68.1379 33.0151 68.1379 32.6635C68.1379 32.4144 68.0354 32.0627 67.9035 31.8869C67.6837 31.5646 67.6544 31.5646 63.6544 31.5646C59.8303 31.5646 59.6251 31.5792 59.3468 31.8576Z" fill="white"/>
</svg>
