<svg width="72" height="72" viewBox="0 0 72 72" fill="none" xmlns="http://www.w3.org/2000/svg">
<path d="M35.5625 71.2058C51.1406 71.2058 59.7969 71.2058 65.4688 65.5652C71.125 59.9246 71.125 51.2996 71.125 35.7683C71.125 20.2371 71.125 11.6121 65.4688 5.97144C59.7969 0.346436 51.1406 0.346436 35.5625 0.346436C19.9844 0.346436 11.3281 0.346436 5.65625 5.98706C-4.76837e-07 11.6277 0 20.2527 0 35.7839C0 51.3152 -4.76837e-07 59.9402 5.65625 65.5808C11.3281 71.2058 19.9844 71.2058 35.5625 71.2058Z" fill="#EF3939"/>
<path d="M58.6839 22.6747C55.2776 16.7216 49.5745 12.081 42.4026 10.1591C28.1682 6.36223 13.5432 14.7685 9.73073 28.9404C7.80886 36.0654 8.99636 43.2997 12.4651 49.206C12.512 49.2841 12.5589 49.3779 12.6214 49.456L25.1526 71.0966C27.2307 71.1591 29.4807 71.1747 31.9026 71.1747H31.9182C32.137 71.1747 32.3557 71.1747 32.5745 71.1747H32.5901C33.0276 71.1747 33.4807 71.1747 33.9495 71.1747C33.9964 71.1747 34.0276 71.1747 34.0745 71.1747C34.5276 71.1747 34.9651 71.1747 35.4339 71.1747C42.3557 71.1747 47.9182 71.1747 52.4651 70.6747C58.137 70.0497 62.1995 68.6591 65.3401 65.5341C69.9182 60.9716 70.7932 54.4404 70.9651 43.8622C63.6526 31.2372 58.6995 22.6904 58.6839 22.6747Z" fill="url(#paint0_linear_66_702)"/>
<path d="M54.281 17.0339C43.8904 6.65894 27.031 6.65894 16.6248 17.0339C6.23413 27.4089 6.23413 44.2214 16.6248 54.5808C27.0154 64.9558 43.8748 64.9558 54.281 54.5808C64.6873 44.2058 64.6873 27.3933 54.281 17.0339ZM52.6873 29.2371C48.2966 36.8464 43.906 44.4558 39.5154 52.0808C38.7029 53.5027 37.5154 54.3464 35.8904 54.4714C34.0779 54.5964 32.6404 53.8308 31.7185 52.2683C28.9373 47.5027 26.1873 42.7058 23.4373 37.9246C21.7654 35.0183 20.0779 32.1121 18.406 29.1902C16.7185 26.2527 18.6248 22.6746 21.9998 22.5027C23.781 22.4089 25.156 23.2371 26.0623 24.7839C27.2966 26.8933 28.5154 29.0339 29.7498 31.1589C30.6404 32.6902 31.4998 34.2371 32.406 35.7371C33.7185 37.9402 35.656 39.1746 38.2341 39.3308C41.8748 39.5496 45.2654 36.9089 45.7029 33.0496C45.7341 32.7683 45.7498 32.4714 45.7654 32.3308C45.7498 31.0808 45.5154 30.0183 45.0154 29.0339C43.656 26.3152 45.1091 23.2683 48.0623 22.6121C50.4685 22.0808 52.9685 23.8464 53.281 26.2839C53.4373 27.3308 53.2185 28.3152 52.6873 29.2371Z" fill="white"/>
<defs>
<linearGradient id="paint0_linear_66_702" x1="15.3541" y1="4.39155" x2="54.1296" y2="71.5616" gradientUnits="userSpaceOnUse">
<stop stop-opacity="0.2"/>
<stop offset="0.7908" stop-opacity="0.05"/>
</linearGradient>
</defs>
</svg>
