<svg width="186" height="36" viewBox="0 0 186 36" fill="none" xmlns="http://www.w3.org/2000/svg">
<circle cx="17.8232" cy="18.3519" r="15.7627" stroke="white" stroke-width="2.80211"/>
<path d="M17.8232 9.12581C20.865 13.9851 22.8914 15.982 27.0493 18.3519C22.6756 20.8372 20.6668 22.8773 17.8232 27.578C15.2605 23.1087 13.2119 21.1123 8.59716 18.3519C13.5116 15.7236 15.5786 13.7375 17.8232 9.12581Z" stroke="#6DDFFF" stroke-width="2.80211" stroke-linejoin="round"/>
<path d="M42.5863 29.8534V11.0813H45.3821V29.8534H42.5863ZM45.3821 18.9097L44.2238 18.3904C44.2238 16.0206 44.7963 14.1434 45.9413 12.7588C47.1129 11.3742 48.7105 10.6819 50.7342 10.6819C51.6661 10.6819 52.5182 10.855 53.2904 11.2011C54.0626 11.5206 54.7815 12.0399 55.4472 12.7588L53.6099 14.7159C53.1572 14.21 52.6513 13.8505 52.0922 13.6375C51.5596 13.4245 50.9472 13.318 50.2549 13.318C48.817 13.318 47.6454 13.7973 46.7401 14.7558C45.8348 15.6878 45.3821 17.0724 45.3821 18.9097ZM66.4262 30.2528C64.5356 30.2528 62.8448 29.8268 61.3537 28.9747C59.8626 28.1226 58.6777 26.9511 57.799 25.4599C56.9469 23.9688 56.5209 22.2913 56.5209 20.4274C56.5209 18.5901 56.9469 16.9393 57.799 15.4748C58.6511 13.9837 59.8093 12.8121 61.2738 11.96C62.7383 11.1079 64.3759 10.6819 66.1865 10.6819C67.8907 10.6819 69.3951 11.068 70.6998 11.8402C72.0312 12.6124 73.0696 13.6908 73.8152 15.0754C74.5874 16.4333 74.9735 18.0043 74.9735 19.7884C74.9735 20.0014 74.9602 20.2543 74.9335 20.5472C74.9069 20.8135 74.8536 21.133 74.7738 21.5058H58.5179V19.1094H73.256L72.2575 19.9881C72.2841 18.6035 72.0445 17.4186 71.5386 16.4333C71.0593 15.4215 70.3537 14.6493 69.4217 14.1168C68.5164 13.5576 67.4114 13.278 66.1066 13.278C64.7487 13.278 63.5638 13.5709 62.5519 14.1567C61.5401 14.7425 60.7413 15.568 60.1555 16.6331C59.5963 17.6715 59.3167 18.9097 59.3167 20.3475C59.3167 21.7854 59.6096 23.0502 60.1954 24.1419C60.8078 25.2336 61.6466 26.0857 62.7117 26.6981C63.8034 27.3105 65.0549 27.6167 66.4661 27.6167C67.6111 27.6167 68.6628 27.417 69.6214 27.0176C70.58 26.5916 71.3921 25.9659 72.0578 25.1404L73.8551 26.9777C72.9764 28.0161 71.8847 28.8283 70.58 29.4141C69.3019 29.9732 67.9173 30.2528 66.4262 30.2528ZM79.2505 29.8534V11.0813H82.0863V29.8534H79.2505ZM80.6485 7.00735C80.1159 7.00735 79.6633 6.82096 79.2905 6.44818C78.9177 6.04878 78.7313 5.5828 78.7313 5.05026C78.7313 4.49109 78.9177 4.02512 79.2905 3.65234C79.6633 3.27956 80.1159 3.09317 80.6485 3.09317C81.2343 3.09317 81.7002 3.27956 82.0464 3.65234C82.4192 4.02512 82.6056 4.49109 82.6056 5.05026C82.6056 5.5828 82.4192 6.04878 82.0464 6.44818C81.7002 6.82096 81.2343 7.00735 80.6485 7.00735ZM87.7535 29.8534V11.0813H90.5494V29.8534H87.7535ZM100.654 29.8534V18.3505C100.654 16.8061 100.188 15.5813 99.2564 14.676C98.3245 13.744 97.1529 13.278 95.7417 13.278C94.7831 13.278 93.9044 13.4911 93.1056 13.9171C92.3334 14.3165 91.7077 14.889 91.2284 15.6345C90.7757 16.3801 90.5494 17.2721 90.5494 18.3106L89.2713 17.7913C89.2713 16.3535 89.5908 15.102 90.2299 14.0369C90.8689 12.9718 91.721 12.1464 92.7861 11.5606C93.8778 10.9748 95.1026 10.6819 96.4606 10.6819C97.792 10.6819 98.9769 10.9748 100.015 11.5606C101.08 12.1464 101.919 12.9718 102.532 14.0369C103.171 15.102 103.49 16.3668 103.49 17.8313V29.8534H100.654ZM113.595 29.8534V18.3505C113.595 16.8061 113.129 15.5813 112.197 14.676C111.265 13.744 110.08 13.278 108.643 13.278C107.711 13.278 106.845 13.4911 106.046 13.9171C105.274 14.3165 104.648 14.889 104.169 15.6345C103.716 16.3801 103.49 17.2721 103.49 18.3106L101.813 17.7913C101.893 16.3535 102.265 15.102 102.931 14.0369C103.623 12.9718 104.515 12.1464 105.607 11.5606C106.725 10.9748 107.95 10.6819 109.282 10.6819C110.613 10.6819 111.811 10.9748 112.876 11.5606C113.968 12.1464 114.82 12.9718 115.432 14.0369C116.071 15.102 116.391 16.3668 116.391 17.8313V29.8534H113.595Z" fill="white"/>
<path d="M127.546 29.0288L118.479 5.49384H124.079L130.98 24.5285H128.68L135.68 5.49384H141.214L132.046 29.0288H127.546ZM147.977 20.4616V16.3946H153.044C153.689 16.3946 154.278 16.2613 154.811 15.9946C155.344 15.7279 155.767 15.339 156.078 14.8278C156.389 14.3167 156.545 13.6944 156.545 12.961C156.545 12.2499 156.389 11.6387 156.078 11.1276C155.767 10.6164 155.344 10.2275 154.811 9.96082C154.278 9.69414 153.689 9.56079 153.044 9.56079H147.977V5.49384H153.811C155.3 5.49384 156.645 5.79386 157.845 6.39391C159.045 6.99395 159.989 7.86068 160.678 8.99409C161.389 10.1053 161.745 11.4276 161.745 12.961C161.745 14.4945 161.389 15.8279 160.678 16.9613C159.989 18.0725 159.045 18.9392 157.845 19.5615C156.645 20.1615 155.3 20.4616 153.811 20.4616H147.977ZM143.977 29.0288V5.49384H149.211V29.0288H143.977ZM164.682 29.0288V5.49384H168.349L169.915 10.1942V29.0288H164.682ZM180.916 29.0288L167.048 11.2609L168.349 5.49384L182.216 23.2618L180.916 29.0288ZM180.916 29.0288L179.516 24.3285V5.49384H184.75V29.0288H180.916Z" fill="#6DDFFF"/>
</svg>
