<svg width="105" height="85" viewBox="0 0 105 85" fill="none" xmlns="http://www.w3.org/2000/svg">
<path d="M101.098 0.32959H7.94314C5.94271 0.32959 4.32104 1.95126 4.32104 3.95169V69.0312C4.32104 71.0316 5.94271 72.6533 7.94314 72.6533H101.098C103.098 72.6533 104.72 71.0316 104.72 69.0312V3.95169C104.72 1.95126 103.098 0.32959 101.098 0.32959Z" fill="white"/>
<path d="M27.608 72.6509H7.94314C7.46739 72.6512 6.99625 72.5577 6.55666 72.3758C6.11706 72.1939 5.71764 71.9271 5.38124 71.5907C5.04483 71.2543 4.77805 70.8549 4.59613 70.4153C4.41421 69.9757 4.32073 69.5045 4.32105 69.0288V3.95169C4.32105 2.99105 4.70266 2.06975 5.38193 1.39048C6.06121 0.711202 6.9825 0.32959 7.94314 0.32959H27.608C26.6475 0.330217 25.7266 0.712029 25.0475 1.39117C24.3683 2.07031 23.9865 2.99124 23.9859 3.95169V69.0288C23.9859 69.9894 24.3675 70.9107 25.0468 71.59C25.726 72.2693 26.6473 72.6509 27.608 72.6509Z" fill="#DDDDDD"/>
<path d="M104.718 3.95169V11.9742H4.32104V3.95169C4.32104 2.99105 4.70266 2.06975 5.38193 1.39048C6.06121 0.711202 6.9825 0.32959 7.94314 0.32959H101.096C102.056 0.330217 102.977 0.712029 103.656 1.39117C104.335 2.07031 104.717 2.99124 104.718 3.95169Z" fill="#4F4F74"/>
<path d="M27.608 0.32959C26.6475 0.330217 25.7266 0.712029 25.0475 1.39117C24.3683 2.07031 23.9865 2.99124 23.9859 3.95169V11.9742H4.32104V3.95169C4.32104 2.99105 4.70266 2.06975 5.38193 1.39048C6.06121 0.711202 6.9825 0.32959 7.94314 0.32959H27.608Z" fill="#3E436D"/>
<path d="M83.2411 8.47945C84.5268 8.47945 85.5691 7.43718 85.5691 6.15147C85.5691 4.86576 84.5268 3.82349 83.2411 3.82349C81.9554 3.82349 80.9131 4.86576 80.9131 6.15147C80.9131 7.43718 81.9554 8.47945 83.2411 8.47945Z" fill="#DB1B1B"/>
<path d="M90.3573 8.47945C91.643 8.47945 92.6853 7.43718 92.6853 6.15147C92.6853 4.86576 91.643 3.82349 90.3573 3.82349C89.0716 3.82349 88.0293 4.86576 88.0293 6.15147C88.0293 7.43718 89.0716 8.47945 90.3573 8.47945Z" fill="#F6C752"/>
<path d="M97.474 8.47945C98.7597 8.47945 99.802 7.43718 99.802 6.15147C99.802 4.86576 98.7597 3.82349 97.474 3.82349C96.1883 3.82349 95.146 4.86576 95.146 6.15147C95.146 7.43718 96.1883 8.47945 97.474 8.47945Z" fill="#00B564"/>
<path d="M98.1532 18.4304H41.7161C41.3411 18.4304 41.0371 18.7344 41.0371 19.1094V57.9778C41.0371 58.3528 41.3411 58.6568 41.7161 58.6568H98.1532C98.5282 58.6568 98.8322 58.3528 98.8322 57.9778V19.1094C98.8322 18.7344 98.5282 18.4304 98.1532 18.4304Z" fill="#F7BB38"/>
<path d="M69.9358 58.645H98.2218C98.3021 58.645 98.3817 58.6291 98.4559 58.5983C98.5301 58.5675 98.5975 58.5223 98.6542 58.4654C98.7109 58.4084 98.7558 58.3409 98.7864 58.2666C98.8169 58.1922 98.8325 58.1126 98.8322 58.0322C98.8323 57.9333 98.8085 57.8358 98.7628 57.748C98.7171 57.6602 98.6508 57.5849 98.5695 57.5283L71.379 38.6016C70.9554 38.3069 70.4518 38.1489 69.9358 38.1489C69.4198 38.1489 68.9162 38.3069 68.4927 38.6016L41.2997 57.5283C41.2185 57.5849 41.1522 57.6602 41.1065 57.748C41.0607 57.8358 41.0369 57.9333 41.0371 58.0322C41.0371 58.1948 41.1017 58.3506 41.2166 58.4655C41.3315 58.5804 41.4873 58.645 41.6499 58.645H69.9358Z" fill="#F6D372"/>
<path d="M69.9358 18.4304H41.6499C41.4878 18.4304 41.3323 18.4947 41.2174 18.6091C41.1026 18.7235 41.0377 18.8787 41.0371 19.0408C41.0369 19.1398 41.0607 19.2373 41.1065 19.325C41.1522 19.4128 41.2185 19.4882 41.2997 19.5447L68.4927 43.1747C68.9162 43.4694 69.4198 43.6274 69.9358 43.6274C70.4518 43.6274 70.9554 43.4694 71.379 43.1747L98.5696 19.5447C98.6508 19.4882 98.7171 19.4128 98.7628 19.325C98.8085 19.2373 98.8323 19.1398 98.8322 19.0408C98.8322 18.8789 98.7678 18.7237 98.6534 18.6092C98.5389 18.4947 98.3837 18.4304 98.2218 18.4304H69.9358Z" fill="#F6D372"/>
<path d="M98.8342 19.1755V21.1108L75.3982 41.457L71.4756 44.8662C71.0242 45.1799 70.4876 45.348 69.9378 45.348C69.3881 45.348 68.8515 45.1799 68.4 44.8662L64.4727 41.457L41.0367 21.1108V19.185C41.0356 19.1716 41.0356 19.1582 41.0367 19.1448C41.0404 19.2384 41.0658 19.33 41.111 19.4121C41.1561 19.4942 41.2198 19.5647 41.297 19.6179L65.5681 40.7094L68.4899 43.2479C68.9131 43.5436 69.4169 43.7022 69.9331 43.7022C70.4493 43.7022 70.9531 43.5436 71.3762 43.2479L74.2957 40.7094L98.5692 19.6179C98.646 19.5643 98.7094 19.4938 98.7545 19.4117C98.7996 19.3297 98.8252 19.2383 98.8294 19.1448C98.8317 19.1549 98.8333 19.1652 98.8342 19.1755Z" fill="#EDA820"/>
<path d="M74.298 40.7028L75.3981 41.4575L71.4755 44.8667C71.0241 45.1804 70.4875 45.3486 69.9377 45.3486C69.388 45.3486 68.8514 45.1804 68.3999 44.8667L64.4727 41.4575L65.5704 40.6934L68.4922 43.2319C68.9154 43.5276 69.4191 43.6861 69.9354 43.6861C70.4516 43.6861 70.9554 43.5276 71.3785 43.2319L74.298 40.7028Z" fill="#DDBA64"/>
<path d="M84.8615 24.667C86.2308 24.667 87.3409 23.557 87.3409 22.1876C87.3409 20.8183 86.2308 19.7083 84.8615 19.7083C83.4921 19.7083 82.3821 20.8183 82.3821 22.1876C82.3821 23.557 83.4921 24.667 84.8615 24.667Z" fill="#FFEABB"/>
<path d="M90.0262 23.943C90.9957 23.943 91.7817 23.1571 91.7817 22.1876C91.7817 21.2181 90.9957 20.4321 90.0262 20.4321C89.0567 20.4321 88.2708 21.2181 88.2708 22.1876C88.2708 23.1571 89.0567 23.943 90.0262 23.943Z" fill="#FFEABB"/>
<path d="M26.3308 24.4684C25.7374 24.0961 25.0511 23.8987 24.3506 23.8987C23.6501 23.8987 22.9638 24.0961 22.3704 24.4684C15.8052 28.7269 9.23999 30.3617 2.67479 32.2757C1.19377 32.711 0.197754 33.9057 0.197754 35.2472V56.1541C0.197754 67.0748 7.22429 77.1059 18.4739 82.2469L22.4721 84.0733C23.0628 84.3388 23.703 84.476 24.3506 84.476C24.9982 84.476 25.6384 84.3388 26.2291 84.0733L30.2273 82.2469C41.4769 77.1154 48.4987 67.0842 48.4987 56.1635V35.2566C48.4987 33.9152 47.5027 32.7204 46.0217 32.2851C39.4612 30.3617 32.896 28.7222 26.3308 24.4684Z" fill="#DB1B1B"/>
<path d="M43.814 38.933V55.7801C43.814 64.581 38.1502 72.6627 29.0866 76.8053L25.8644 78.2768C25.3882 78.4906 24.8722 78.601 24.3502 78.601C23.8283 78.601 23.3123 78.4906 22.8361 78.2768L19.6138 76.8053C10.5503 72.6627 4.88647 64.581 4.88647 55.7801V38.933C4.88647 37.8518 5.68849 36.8912 6.88561 36.5387C12.1756 34.9891 17.4656 33.669 22.7556 30.2409C23.2335 29.941 23.7861 29.782 24.3502 29.782C24.9143 29.782 25.467 29.941 25.9448 30.2409C31.2348 33.669 36.5248 34.9891 41.8148 36.5387C43.0096 36.8912 43.814 37.8518 43.814 38.933Z" fill="#F6D372"/>
<path d="M24.3502 29.782V78.6011C23.8281 78.6032 23.3116 78.4927 22.8361 78.277L19.6138 76.8054C10.5503 72.6628 4.88647 64.5811 4.88647 55.7802V38.9331C4.88647 37.8519 5.68849 36.8914 6.88561 36.5389C12.1756 34.9892 17.4656 33.6691 22.7556 30.241C23.2323 29.9386 23.7857 29.7793 24.3502 29.782Z" fill="#F7BB38"/>
<path d="M26.9696 82.2562L28.602 82.999L26.2361 84.0826C25.6452 84.347 25.0051 84.4837 24.3577 84.4837C23.7103 84.4837 23.0701 84.347 22.4792 84.0826L18.4786 82.2562C7.23137 77.1152 0.204834 67.0841 0.204834 56.1633V35.2564C0.204834 33.915 1.20085 32.7203 2.68187 32.2849C9.24707 30.3615 15.8123 28.722 22.3775 24.4777C22.9709 24.1054 23.6572 23.908 24.3577 23.908C25.0582 23.908 25.7445 24.1054 26.3379 24.4777C27.0918 24.9666 27.8473 25.4224 28.6044 25.8451C22.7891 29.1029 16.9786 30.5744 11.1681 32.2849C9.68711 32.7203 8.68873 33.915 8.68873 35.2564V56.1633C8.68873 63.3839 11.7643 70.2164 17.0969 75.5017C19.9637 78.3178 23.3061 80.6046 26.9696 82.2562Z" fill="#C11A1A"/>
<path d="M17.0966 75.5017C9.52588 71.1036 4.88647 63.734 4.88647 55.7801V38.9329C4.88647 37.8518 5.68849 36.8912 6.88561 36.5387L8.68838 36.0159V56.1633C8.68838 63.3839 11.7616 70.2164 17.0966 75.5017Z" fill="#F6D372"/>
<path d="M17.0966 75.5017C9.52588 71.1036 4.88647 63.734 4.88647 55.7801V38.9329C4.88647 37.8518 5.68849 36.8912 6.88561 36.5387L8.68838 36.0159V56.1633C8.68838 63.3839 11.7616 70.2164 17.0966 75.5017Z" fill="#DDA32F"/>
<path d="M40.2277 46.3971C41.4533 46.3971 42.4469 45.4035 42.4469 44.1779C42.4469 42.9523 41.4533 41.9587 40.2277 41.9587C39.0021 41.9587 38.0085 42.9523 38.0085 44.1779C38.0085 45.4035 39.0021 46.3971 40.2277 46.3971Z" fill="#F9DF9B"/>
<path d="M40.2276 41.1258C41.0965 41.1258 41.8009 40.4214 41.8009 39.5525C41.8009 38.6836 41.0965 37.9792 40.2276 37.9792C39.3587 37.9792 38.6543 38.6836 38.6543 39.5525C38.6543 40.4214 39.3587 41.1258 40.2276 41.1258Z" fill="#F9DF9B"/>
<path d="M19.8225 53.9534L24.0881 57.7056L34.0932 47.3054" stroke="#00B564" stroke-width="6.49023" stroke-linecap="round" stroke-linejoin="round"/>
</svg>
