<svg width="78" height="101" viewBox="0 0 78 101" fill="none" xmlns="http://www.w3.org/2000/svg">
<path d="M72.3844 33.1765V42.3829C72.3844 43.8532 71.8003 45.2634 70.7607 46.3031C69.721 47.3428 68.3108 47.9269 66.8405 47.9269C65.3701 47.9269 63.96 47.3428 62.9203 46.3031C61.8806 45.2634 61.2965 43.8532 61.2965 42.3829V33.1765C61.2965 32.4735 61.2637 31.7893 61.2004 31.1098C60.6577 25.674 58.1144 20.6338 54.0643 16.9679C50.0141 13.302 44.7462 11.272 39.2834 11.272C33.8206 11.272 28.5527 13.302 24.5026 16.9679C20.4525 20.6338 17.9091 25.674 17.3664 31.1098C17.3055 31.7893 17.2704 32.4806 17.2704 33.1765V42.3829C17.2855 43.1204 17.1534 43.8535 16.8816 44.5392C16.6099 45.225 16.204 45.8496 15.6878 46.3765C15.1716 46.9035 14.5555 47.3221 13.8755 47.6078C13.1954 47.8936 12.4652 48.0408 11.7276 48.0408C10.9899 48.0408 10.2597 47.8936 9.57968 47.6078C8.89966 47.3221 8.2835 46.9035 7.7673 46.3765C7.2511 45.8496 6.84524 45.225 6.5735 44.5392C6.30176 43.8535 6.1696 43.1204 6.18477 42.3829V33.1765C6.18477 32.4735 6.20585 31.794 6.25037 31.1098C7.31887 13.8171 21.7295 0.076661 39.2893 0.076661C43.3612 0.0757154 47.398 0.829683 51.195 2.30034C59.3639 5.47207 65.9518 11.7383 69.5281 19.7383C71.1349 23.3343 72.081 27.1902 72.3212 31.1215C72.3657 31.794 72.3844 32.4806 72.3844 33.1765Z" fill="#32314B"/>
<path d="M72.2696 42.3828H5.74187C2.88448 42.3828 0.568115 44.6992 0.568115 47.5566V94.8655C0.568115 97.7229 2.88448 100.039 5.74187 100.039H72.2696C75.127 100.039 77.4433 97.7229 77.4433 94.8655V47.5566C77.4433 44.6992 75.127 42.3828 72.2696 42.3828Z" fill="#DB1B1B"/>
<path d="M77.4433 94.3711V94.8561C77.4436 95.5356 77.31 96.2085 77.0501 96.8364C76.7902 97.4642 76.4092 98.0347 75.9287 98.5152C75.4482 98.9957 74.8777 99.3768 74.2499 99.6367C73.622 99.8966 72.9491 100.03 72.2696 100.03H5.74421C5.06459 100.03 4.39156 99.8966 3.76358 99.6367C3.1356 99.3768 2.56498 98.9958 2.0843 98.5153C1.60362 98.0349 1.22232 97.4644 0.962167 96.8366C0.702015 96.2087 0.568115 95.5357 0.568115 94.8561V47.5566C0.568737 46.1842 1.11435 44.8682 2.08499 43.898C3.05563 42.9278 4.37183 42.3828 5.74421 42.3828H6.48232V89.1973C6.48294 90.5693 7.02823 91.8849 7.99836 92.855C8.96849 93.8252 10.2841 94.3704 11.6561 94.3711H77.4433Z" fill="#C61C1C"/>
<path d="M60.4435 57.3275C63.1495 57.3275 65.3431 55.1339 65.3431 52.4279C65.3431 49.7219 63.1495 47.5283 60.4435 47.5283C57.7376 47.5283 55.5439 49.7219 55.5439 52.4279C55.5439 55.1339 57.7376 57.3275 60.4435 57.3275Z" fill="#E23B3B"/>
<path d="M70.6504 55.8983C72.567 55.8983 74.1207 54.3446 74.1207 52.428C74.1207 50.5115 72.567 48.9578 70.6504 48.9578C68.7339 48.9578 67.1802 50.5115 67.1802 52.428C67.1802 54.3446 68.7339 55.8983 70.6504 55.8983Z" fill="#E23B3B"/>
<path d="M17.371 31.1216C17.3078 31.8011 17.275 32.4923 17.275 33.1859V42.3946H6.18701V33.1859C6.18701 32.483 6.2081 31.8058 6.25262 31.1216H17.371Z" fill="#27273D"/>
<path d="M72.3844 33.1742V42.3829H61.3011V33.1742C61.3011 32.4713 61.266 31.7894 61.2051 31.1099H72.3212C72.3657 31.7941 72.3844 32.4806 72.3844 33.1742Z" fill="#27273D"/>
<path d="M69.528 19.729C69.1296 19.7571 68.7289 19.7712 68.3259 19.7712C63.7812 19.7712 59.4227 17.9658 56.2091 14.7522C52.9956 11.5387 51.1902 7.18014 51.1902 2.63546C51.1902 2.52065 51.1902 2.40115 51.1902 2.29102C59.3608 5.46171 65.9505 11.7281 69.528 19.729Z" fill="#3E436D"/>
<path d="M67.1638 63.6355H11.41C7.29088 63.6355 3.95166 66.9747 3.95166 71.0939V71.0962C3.95166 75.2153 7.29088 78.5546 11.41 78.5546H67.1638C71.2829 78.5546 74.6221 75.2153 74.6221 71.0962V71.0939C74.6221 66.9747 71.2829 63.6355 67.1638 63.6355Z" fill="#F6D372"/>
<path d="M16.6164 71.094L19.3861 68.3244C19.6559 68.0394 19.8039 67.6603 19.7985 67.2679C19.7932 66.8755 19.6349 66.5006 19.3574 66.2231C19.0799 65.9456 18.705 65.7873 18.3126 65.782C17.9202 65.7766 17.5411 65.9246 17.2561 66.1944L14.5076 68.964L11.7379 66.1944C11.5981 66.0544 11.432 65.9433 11.2492 65.8675C11.0664 65.7916 10.8705 65.7526 10.6726 65.7524C10.4747 65.7523 10.2787 65.7912 10.0959 65.8668C9.91299 65.9425 9.74681 66.0534 9.6068 66.1932C9.46679 66.3331 9.35569 66.4991 9.27986 66.6819C9.20403 66.8647 9.16495 67.0607 9.16484 67.2586C9.16473 67.4564 9.2036 67.6524 9.27923 67.8353C9.35486 68.0182 9.46577 68.1843 9.60562 68.3244L12.3753 71.094L9.58688 73.8636C9.30412 74.1464 9.14526 74.5299 9.14526 74.9298C9.14526 75.3297 9.30412 75.7132 9.58688 75.9959C9.86964 76.2787 10.2531 76.4376 10.653 76.4376C11.0529 76.4376 11.4364 76.2787 11.7192 75.9959L14.5076 73.2263L17.2772 75.9959C17.4172 76.1358 17.5834 76.2467 17.7663 76.3223C17.9491 76.398 18.1451 76.4368 18.343 76.4367C18.5409 76.4366 18.7368 76.3975 18.9196 76.3217C19.1024 76.2459 19.2685 76.1348 19.4083 75.9948C19.5482 75.8548 19.6591 75.6886 19.7347 75.5057C19.8104 75.3228 19.8492 75.1269 19.8491 74.929C19.849 74.7311 19.8099 74.5351 19.7341 74.3524C19.6583 74.1696 19.5472 74.0035 19.4072 73.8636L16.6164 71.094Z" fill="#32314B"/>
<path d="M29.2112 71.094L31.9808 68.3244C32.2633 68.0416 32.4218 67.6582 32.4216 67.2586C32.4214 66.8589 32.2624 66.4757 31.9796 66.1932C31.6969 65.9108 31.3135 65.7522 30.9138 65.7524C30.5142 65.7527 30.131 65.9116 29.8485 66.1944L27.0789 68.964L24.3092 66.1944C24.0242 65.9246 23.6452 65.7766 23.2528 65.782C22.8603 65.7873 22.4855 65.9456 22.208 66.2231C21.9305 66.5006 21.7722 66.8755 21.7668 67.2679C21.7615 67.6603 21.9094 68.0394 22.1793 68.3244L24.9489 71.094L22.1793 73.8636C21.8965 74.1461 21.7375 74.5293 21.7373 74.929C21.7371 75.3286 21.8956 75.712 22.1781 75.9948C22.4605 76.2775 22.8437 76.4365 23.2434 76.4367C23.6431 76.437 24.0265 76.2784 24.3092 75.9959L27.0789 73.2263L29.8485 75.9959C29.9885 76.136 30.1547 76.247 30.3377 76.3228C30.5206 76.3986 30.7167 76.4376 30.9147 76.4376C31.1127 76.4376 31.3087 76.3986 31.4917 76.3228C31.6746 76.247 31.8408 76.136 31.9808 75.9959C32.1208 75.8559 32.2319 75.6897 32.3076 75.5068C32.3834 75.3239 32.4224 75.1278 32.4224 74.9298C32.4224 74.7318 32.3834 74.5357 32.3076 74.3528C32.2319 74.1699 32.1208 74.0037 31.9808 73.8636L29.2112 71.094Z" fill="#32314B"/>
<path d="M41.7938 71.094L44.5635 68.3244C44.8333 68.0394 44.9813 67.6603 44.9759 67.2679C44.9706 66.8755 44.8123 66.5006 44.5348 66.2231C44.2572 65.9456 43.8824 65.7873 43.49 65.782C43.0975 65.7766 42.7185 65.9246 42.4335 66.1944L39.6639 68.964L36.8942 66.1944C36.6118 65.9116 36.2286 65.7527 35.8289 65.7524C35.4292 65.7522 35.0459 65.9108 34.7631 66.1932C34.4803 66.4757 34.3214 66.8589 34.3211 67.2586C34.3209 67.6582 34.4795 68.0416 34.7619 68.3244L37.5316 71.094L34.7619 73.8636C34.6219 74.0037 34.5109 74.1699 34.4351 74.3528C34.3593 74.5357 34.3203 74.7318 34.3203 74.9298C34.3203 75.1278 34.3593 75.3239 34.4351 75.5068C34.5109 75.6897 34.6219 75.8559 34.7619 75.9959C34.9019 76.136 35.0681 76.247 35.2511 76.3228C35.434 76.3986 35.6301 76.4376 35.8281 76.4376C36.0261 76.4376 36.2221 76.3986 36.4051 76.3228C36.588 76.247 36.7542 76.136 36.8942 75.9959L39.6639 73.2263L42.4335 75.9959C42.7163 76.2784 43.0997 76.437 43.4993 76.4367C43.899 76.4365 44.2822 76.2775 44.5646 75.9948C44.8471 75.712 45.0056 75.3286 45.0054 74.929C45.0052 74.5293 44.8462 74.1461 44.5635 73.8636L41.7938 71.094Z" fill="#32314B"/>
<path d="M54.3794 71.094L57.1538 68.3244C57.4362 68.0416 57.5948 67.6582 57.5945 67.2586C57.5943 66.8589 57.4353 66.4757 57.1526 66.1932C56.8698 65.9108 56.4864 65.7522 56.0868 65.7524C55.6871 65.7527 55.3039 65.9116 55.0215 66.1944L52.2471 68.964L49.4775 66.1944C49.1925 65.9246 48.8135 65.7766 48.421 65.782C48.0286 65.7873 47.6537 65.9456 47.3762 66.2231C47.0987 66.5006 46.9404 66.8755 46.9351 67.2679C46.9297 67.6603 47.0777 68.0394 47.3475 68.3244L50.1242 71.094L47.3546 73.8636C47.0718 74.1461 46.9128 74.5293 46.9126 74.929C46.9124 75.3286 47.0709 75.712 47.3534 75.9948C47.6358 76.2775 48.019 76.4365 48.4187 76.4367C48.8184 76.437 49.2017 76.2784 49.4845 75.9959L52.2542 73.2263L55.0238 75.9959C55.3066 76.2787 55.6901 76.4376 56.09 76.4376C56.4898 76.4376 56.8733 76.2787 57.1561 75.9959C57.4389 75.7132 57.5977 75.3297 57.5977 74.9298C57.5977 74.5299 57.4389 74.1464 57.1561 73.8636L54.3794 71.094Z" fill="#32314B"/>
<path d="M66.962 71.094L69.734 68.3244C70.0165 68.0416 70.175 67.6582 70.1748 67.2586C70.1746 66.8589 70.0156 66.4757 69.7329 66.1932C69.4501 65.9108 69.0667 65.7522 68.6671 65.7524C68.2674 65.7527 67.8842 65.9116 67.6017 66.1944L64.8321 68.964L62.0742 66.1944C61.7917 65.9116 61.4085 65.7527 61.0088 65.7524C60.6092 65.7522 60.2258 65.9108 59.943 66.1932C59.6603 66.4757 59.5013 66.8589 59.5011 67.2586C59.5009 67.6582 59.6594 68.0416 59.9419 68.3244L62.7115 71.094L59.9419 73.8636C59.8018 74.0037 59.6908 74.1699 59.615 74.3528C59.5392 74.5357 59.5002 74.7318 59.5002 74.9298C59.5002 75.1278 59.5392 75.3239 59.615 75.5068C59.6908 75.6897 59.8018 75.8559 59.9419 75.9959C60.0819 76.136 60.2481 76.247 60.431 76.3228C60.6139 76.3986 60.81 76.4376 61.008 76.4376C61.206 76.4376 61.4021 76.3986 61.585 76.3228C61.7679 76.247 61.9341 76.136 62.0742 75.9959L64.8438 73.2263L67.6135 75.9959C67.8962 76.2787 68.2797 76.4376 68.6796 76.4376C69.0795 76.4376 69.463 76.2787 69.7457 75.9959C70.0285 75.7132 70.1874 75.3297 70.1874 74.9298C70.1874 74.5299 70.0285 74.1464 69.7457 73.8636L66.962 71.094Z" fill="#32314B"/>
</svg>
