<svg width="98" height="90" viewBox="0 0 98 90" fill="none" xmlns="http://www.w3.org/2000/svg">
<path d="M57.049 73.2014H41.7148V84.038H57.049V73.2014Z" fill="#32314B"/>
<path d="M57.049 73.2014H41.7148V77.0699H57.049V73.2014Z" fill="#27273D"/>
<path d="M97.7894 2.86299V65.8837C97.7894 67.8244 97.0185 69.6857 95.6461 71.058C94.2738 72.4303 92.4126 73.2013 90.4718 73.2013H8.29218C6.35144 73.2013 4.49019 72.4303 3.11788 71.058C1.74557 69.6857 0.974609 67.8244 0.974609 65.8837V2.86299C0.975477 2.41448 1.09778 1.97458 1.32854 1.58999C1.55929 1.20539 1.88989 0.890466 2.28522 0.678638C2.3573 0.63932 2.4272 0.606554 2.50366 0.571605C2.58011 0.541024 2.65438 0.514811 2.72209 0.488599C2.96122 0.414667 3.2101 0.377114 3.4604 0.377197H95.3124C95.9701 0.379509 96.6001 0.642425 97.0644 1.10835C97.5287 1.57428 97.7894 2.20523 97.7894 2.86299Z" fill="#3E436D"/>
<path d="M26.5403 73.2013H8.29219C6.35144 73.2013 4.49019 72.4303 3.11788 71.058C1.74557 69.6857 0.974609 67.8244 0.974609 65.8837V2.86299C0.975477 2.41448 1.09778 1.97458 1.32854 1.58999C1.55929 1.20539 1.88989 0.890466 2.28522 0.678638C2.3573 0.63932 2.4272 0.606554 2.50366 0.571605C2.58011 0.541024 2.65438 0.514811 2.72209 0.488599C2.96122 0.414667 3.2101 0.377114 3.4604 0.377197H21.7085C21.0502 0.377776 20.419 0.639697 19.9537 1.1054C19.4884 1.5711 19.227 2.20249 19.227 2.8608V65.8837C19.227 67.8237 19.9974 69.6843 21.3688 71.0565C22.7401 72.4286 24.6003 73.2001 26.5403 73.2013Z" fill="#32314B"/>
<path d="M68.7048 84.0378H30.0549C28.4106 84.0378 27.0776 85.3708 27.0776 87.0151V87.0173C27.0776 88.6616 28.4106 89.9946 30.0549 89.9946H68.7048C70.3491 89.9946 71.6821 88.6616 71.6821 87.0173V87.0151C71.6821 85.3708 70.3491 84.0378 68.7048 84.0378Z" fill="#3E436D"/>
<path d="M49.3971 69.7195C50.9364 69.7195 52.1843 68.4716 52.1843 66.9322C52.1843 65.3929 50.9364 64.145 49.3971 64.145C47.8578 64.145 46.6099 65.3929 46.6099 66.9322C46.6099 68.4716 47.8578 69.7195 49.3971 69.7195Z" fill="#27273D"/>
<path d="M97.7894 2.86299V61.3752H0.974609V2.86299C0.975477 2.41448 1.09778 1.97458 1.32854 1.58999C1.55929 1.20539 1.88989 0.890466 2.28522 0.678638C2.3573 0.63932 2.4272 0.606554 2.50366 0.571605C2.58011 0.541024 2.65438 0.514811 2.72209 0.488599C2.96122 0.414667 3.2101 0.377114 3.4604 0.377197H95.3124C95.9701 0.379509 96.6001 0.642425 97.0644 1.10835C97.5287 1.57428 97.7894 2.20523 97.7894 2.86299Z" fill="white"/>
<path d="M21.7041 0.379381C21.0458 0.37996 20.4146 0.641881 19.9493 1.10758C19.484 1.57329 19.2227 2.20467 19.2227 2.86299V61.3752H0.974609V2.86299C0.975477 2.41448 1.09778 1.97458 1.32854 1.58999C1.55929 1.20539 1.88989 0.890466 2.28522 0.678638C2.3573 0.63932 2.4272 0.606554 2.50366 0.571605C2.58011 0.541024 2.65438 0.514811 2.72209 0.488599C2.96122 0.414667 3.2101 0.377114 3.4604 0.377197L21.7041 0.379381Z" fill="#DDDDDD"/>
<path d="M61.1559 14.3877V17.6424C61.1559 17.8991 61.1053 18.1533 61.0071 18.3905C60.9088 18.6277 60.7648 18.8432 60.5833 19.0248C60.4018 19.2063 60.1862 19.3503 59.9491 19.4486C59.7119 19.5468 59.4576 19.5974 59.2009 19.5974C58.9442 19.5974 58.69 19.5468 58.4528 19.4486C58.2156 19.3503 58.0001 19.2063 57.8185 19.0248C57.637 18.8432 57.493 18.6277 57.3947 18.3905C57.2965 18.1533 57.2459 17.8991 57.2459 17.6424V14.3877C57.2459 14.1409 57.2328 13.8984 57.211 13.6581C57.0279 11.7347 56.1343 9.94865 54.7048 8.64879C53.2754 7.34894 51.4127 6.62866 49.4805 6.62866C47.5484 6.62866 45.6857 7.34894 44.2563 8.64879C42.8268 9.94865 41.9332 11.7347 41.7501 13.6581C41.7283 13.8984 41.7174 14.1409 41.7174 14.3877V17.6424C41.7174 18.1609 41.5114 18.6581 41.1448 19.0248C40.7781 19.3914 40.2809 19.5974 39.7624 19.5974C39.2439 19.5974 38.7466 19.3914 38.38 19.0248C38.0133 18.6581 37.8074 18.1609 37.8074 17.6424V14.3877C37.8074 14.1409 37.8074 13.8984 37.8292 13.6581C38.011 10.6913 39.3176 7.90561 41.4827 5.86911C43.6478 3.83261 46.5082 2.69873 49.4805 2.69873C52.4529 2.69873 55.3133 3.83261 57.4784 5.86911C59.6435 7.90561 60.9501 10.6913 61.1319 13.6581C61.1494 13.9071 61.1559 14.1496 61.1559 14.3877Z" fill="#32314B"/>
<path d="M61.1141 17.6423H37.6477C36.6403 17.6423 35.8237 18.4589 35.8237 19.4663V36.1547C35.8237 37.162 36.6403 37.9786 37.6477 37.9786H61.1141C62.1215 37.9786 62.9381 37.162 62.9381 36.1547V19.4663C62.9381 18.4589 62.1215 17.6423 61.1141 17.6423Z" fill="#DB1B1B"/>
<path d="M62.9403 35.98V36.1547C62.9397 36.6386 62.747 37.1026 62.4046 37.4446C62.0622 37.7866 61.5981 37.9786 61.1141 37.9786H37.6498C37.1659 37.9786 36.7018 37.7866 36.3594 37.4446C36.017 37.1026 35.8243 36.6386 35.8237 36.1547V19.4685C35.8237 18.9841 36.0161 18.5197 36.3586 18.1772C36.7011 17.8347 37.1655 17.6423 37.6498 17.6423H37.9098V34.156C37.9098 34.3957 37.957 34.6331 38.0488 34.8545C38.1406 35.076 38.2752 35.2771 38.4448 35.4465C38.6144 35.6159 38.8157 35.7502 39.0372 35.8418C39.2588 35.9333 39.4962 35.9803 39.7359 35.98H62.9403Z" fill="#C61C1C"/>
<path d="M53.0323 25.3333C53.0323 24.7421 52.8887 24.1598 52.6139 23.6364C52.3391 23.1129 51.9412 22.6641 51.4546 22.3285C50.9679 21.9928 50.407 21.7804 49.8201 21.7095C49.2332 21.6385 48.6379 21.7112 48.0853 21.9213C47.5327 22.1314 47.0394 22.4725 46.6478 22.9154C46.2562 23.3583 45.978 23.8897 45.8372 24.4638C45.6964 25.038 45.6972 25.6378 45.8395 26.2116C45.9817 26.7854 46.2612 27.316 46.654 27.7579C46.7913 27.9121 46.8963 28.0922 46.9627 28.2877C47.0291 28.4832 47.0556 28.6901 47.0406 28.896L46.6234 34.4661C46.6138 34.5982 46.6315 34.731 46.6754 34.856C46.7194 34.981 46.7886 35.0957 46.8787 35.1928C46.9689 35.2899 47.0781 35.3675 47.1995 35.4206C47.3209 35.4737 47.452 35.5012 47.5845 35.5014H51.18C51.3125 35.5012 51.4435 35.4737 51.5649 35.4206C51.6864 35.3675 51.7956 35.2899 51.8857 35.1928C51.9759 35.0957 52.0451 34.981 52.089 34.856C52.1329 34.731 52.1507 34.5982 52.1411 34.4661L51.7239 28.896C51.7081 28.6905 51.734 28.484 51.8001 28.2888C51.8661 28.0936 51.971 27.9138 52.1083 27.7601C52.7048 27.0926 53.0338 26.2284 53.0323 25.3333Z" fill="#A01717"/>
<path d="M49.0609 35.5016H47.5843C47.4517 35.5013 47.3207 35.4738 47.1993 35.4207C47.0778 35.3676 46.9686 35.2901 46.8785 35.193C46.7883 35.0958 46.7191 34.9812 46.6752 34.8561C46.6313 34.7311 46.6135 34.5984 46.6231 34.4662L47.0382 28.8961C47.0542 28.6903 47.0285 28.4833 46.9624 28.2878C46.8963 28.0922 46.7913 27.912 46.6537 27.7581C46.1443 27.1846 45.8286 26.4652 45.7513 25.7021C45.6739 24.939 45.839 24.1709 46.223 23.5069C46.607 22.8429 47.1904 22.3167 47.8904 22.0031C48.5904 21.6895 49.3714 21.6044 50.1225 21.7598C49.4949 21.8886 48.9122 22.1804 48.4332 22.6059C47.9542 23.0313 47.5957 23.5755 47.3937 24.1835C47.1918 24.7915 47.1535 25.442 47.2828 26.0695C47.4122 26.697 47.7045 27.2794 48.1303 27.7581C48.2677 27.9122 48.3727 28.0924 48.4391 28.2879C48.5055 28.4834 48.532 28.6902 48.517 28.8961L48.1019 34.4662C48.092 34.5983 48.1095 34.731 48.1531 34.856C48.1968 34.981 48.2658 35.0957 48.3558 35.1928C48.4458 35.29 48.5548 35.3676 48.6762 35.4207C48.7975 35.4738 48.9284 35.5014 49.0609 35.5016Z" fill="#8E1616"/>
<path d="M59.7227 26.5631C60.6769 26.5631 61.4505 25.7895 61.4505 24.8352C61.4505 23.881 60.6769 23.1074 59.7227 23.1074C58.7684 23.1074 57.9949 23.881 57.9949 24.8352C57.9949 25.7895 58.7684 26.5631 59.7227 26.5631Z" fill="#E23B3B"/>
<path d="M59.7227 22.4587C60.3983 22.4587 60.946 21.911 60.946 21.2354C60.946 20.5599 60.3983 20.0122 59.7227 20.0122C59.0472 20.0122 58.4995 20.5599 58.4995 21.2354C58.4995 21.911 59.0472 22.4587 59.7227 22.4587Z" fill="#E23B3B"/>
<path d="M41.7499 13.6667C41.728 13.907 41.7171 14.1494 41.7171 14.3963V17.6422H37.8049V14.3875C37.8049 14.1407 37.8049 13.8982 37.8268 13.658L41.7499 13.6667Z" fill="#27273D"/>
<path d="M61.1556 14.3875V17.6422H57.2456V14.3875C57.2456 14.1407 57.2325 13.8982 57.2107 13.658H61.1425C61.1491 13.907 61.1556 14.1494 61.1556 14.3875Z" fill="#27273D"/>
<path d="M34.9655 56.2527C34.4453 56.2663 33.9248 56.2532 33.4059 56.2134C33.3333 56.1917 33.2666 56.1539 33.2106 56.1028C33.1547 56.0518 33.1109 55.9888 33.0826 55.9185C32.3137 54.4011 31.5405 52.8786 30.7628 51.351C29.5411 48.9002 28.9302 47.5131 28.9302 47.1898C28.9302 46.6569 28.9498 45.853 28.987 44.7871C29.0241 43.7211 29.0416 42.9151 29.0416 42.3843C29.0416 42.1352 29.1093 42.0107 29.2447 42.0107C29.6488 42.0107 30.2648 42.0282 31.0883 42.061C31.9118 42.0937 32.53 42.1112 32.9406 42.1112C33.1088 42.1112 33.194 42.1833 33.194 42.3297C33.194 42.8757 33.1554 43.6978 33.0783 44.7958C33.0011 45.8938 32.9618 46.7158 32.9603 47.2619C32.9603 47.6799 33.6462 49.1747 35.018 51.7464C35.3893 51.078 35.8109 50.2581 36.2827 49.2868C36.9176 47.9762 37.2351 47.1753 37.2351 46.884C37.2351 46.3925 37.2351 45.6499 37.2154 44.6625C37.1958 43.6752 37.1936 42.9325 37.1936 42.4389C37.1936 42.2554 37.2242 42.1549 37.2853 42.1352H37.6086C37.9799 42.1352 38.5435 42.1156 39.2949 42.0785C40.0463 42.0413 40.6055 42.0238 40.9812 42.0238C41.1844 42.0238 41.2871 42.1047 41.2871 42.2663C41.2871 42.7862 41.2783 43.5711 41.2608 44.621C41.2434 45.671 41.2346 46.4595 41.2346 46.9867C41.2346 47.4046 40.5699 48.9439 39.2403 51.6044C38.7146 52.5626 37.9552 54.0072 36.962 55.9382C36.929 56.0277 36.8826 56.1116 36.8244 56.1872C36.7417 56.217 36.6546 56.2325 36.5667 56.2331C36.2143 56.2462 35.6805 56.2527 34.9655 56.2527Z" fill="#00B564"/>
<path d="M54.9062 47.4213C54.9062 49.0552 54.4774 50.379 53.6196 51.3925C52.7022 52.4643 51.4367 53.0009 49.8232 53.0024C49.5524 53.0024 49.1461 52.9871 48.6022 52.9565C48.0583 52.9259 47.652 52.9106 47.3811 52.9106C47.1103 52.9106 46.9443 53.0351 46.9443 53.2863C46.9443 53.5965 46.9748 54.0589 47.036 54.6734C47.0972 55.2879 47.127 55.7474 47.1256 56.0517C47.1256 56.2068 47.0557 56.2832 46.9071 56.2832C46.4943 56.2832 45.8783 56.2723 45.0548 56.2483C44.2313 56.2243 43.6131 56.2134 43.2003 56.2134C43.1604 56.2189 43.1197 56.215 43.0815 56.2021C43.0434 56.1892 43.0087 56.1676 42.9803 56.139C42.9519 56.1104 42.9306 56.0756 42.918 56.0373C42.9053 55.999 42.9018 55.9583 42.9076 55.9185C42.9076 55.17 42.9192 54.0443 42.9425 52.5415C42.9658 51.0386 42.9775 49.913 42.9775 49.1645C42.9775 47.0442 42.8865 44.8161 42.7044 42.4803L42.6935 42.3384C42.6804 42.2095 42.7809 42.133 42.9971 42.1046C43.5243 42.0376 44.6856 42.0042 46.4812 42.0042C47.5428 42.0042 48.5621 42.0173 49.5393 42.0435C51.1411 42.0915 52.4306 42.5947 53.4078 43.5529C54.4053 44.5402 54.9048 45.8297 54.9062 47.4213ZM50.8652 47.5852C50.8652 46.0095 50.0992 45.2224 48.5672 45.2239C47.4751 45.2239 46.9202 45.285 46.8656 45.4074C46.8176 45.4947 46.7935 46.2746 46.7935 47.7468C46.7935 47.9652 46.7935 48.2645 46.8198 48.673C46.846 49.0814 46.846 49.3894 46.846 49.5991C46.846 49.7346 47.4532 49.8023 48.6677 49.8023C50.1341 49.8023 50.8666 49.0647 50.8652 47.5895V47.5852Z" fill="#00B564"/>
<path d="M69.8449 42.319C69.8449 43.0879 69.8129 44.2441 69.7488 45.7877C69.6848 47.3313 69.6527 48.4905 69.6527 49.2652V55.9406C69.6527 56.1219 69.5544 56.2136 69.3578 56.2136C69.1962 56.2136 68.9515 56.2202 68.6239 56.2333C68.2962 56.2464 68.0516 56.2529 67.8899 56.2529C67.7152 56.2529 67.4531 56.2398 67.0992 56.2136C66.7453 56.1874 66.4854 56.1721 66.3107 56.1721C66.1883 56.1721 66.0442 56.0607 65.8738 55.8379C65.3889 55.1826 64.2967 53.7308 62.5973 51.4823C62.1327 50.8547 61.4243 49.93 60.4719 48.7082C60.4306 48.6572 60.3783 48.6161 60.319 48.5881C60.2902 48.6163 60.2681 48.6505 60.2541 48.6882C60.2401 48.726 60.2347 48.7664 60.2382 48.8065C60.2382 49.5914 60.26 50.7666 60.3037 52.332C60.3474 53.8975 60.3692 55.0719 60.3692 55.8554C60.3692 56.0935 60.2775 56.2114 60.0962 56.2114H56.5903C56.3937 56.2114 56.2954 56.1066 56.2954 55.8969C56.2954 55.1688 56.3311 54.0686 56.4024 52.5963C56.4738 51.1241 56.5095 50.0195 56.5095 49.2827C56.5095 48.5065 56.4774 47.3459 56.4134 45.8008C56.3493 44.2558 56.3173 43.0973 56.3173 42.3255C56.3173 42.1799 56.4483 42.1071 56.7104 42.1071C57.1036 42.1071 57.5871 42.0802 58.1608 42.0263C58.2948 42.0132 58.5613 41.9695 58.9603 41.8952C59.2237 41.842 59.4912 41.8113 59.7598 41.8035C59.8406 41.8035 59.9651 41.9192 60.1355 42.1486L63.9122 47.3233C64.2515 47.7879 64.7612 48.4694 65.4413 49.3679C65.6095 49.5863 65.7558 49.6824 65.8782 49.6824C66.0005 49.6824 66.0114 49.4203 66.0114 48.8939C66.0114 48.1847 65.9721 47.1173 65.8934 45.6916C65.8148 44.266 65.7719 43.1956 65.7646 42.4806C65.7646 42.2294 65.8367 42.1049 65.983 42.1049C66.3871 42.1049 66.9987 42.0896 67.8157 42.0547C68.6326 42.0197 69.2421 42.0044 69.6483 42.0044C69.7816 42.0044 69.8449 42.1093 69.8449 42.319Z" fill="#00B564"/>
</svg>
