<svg width="69" height="39" viewBox="0 0 69 39" fill="none" xmlns="http://www.w3.org/2000/svg">
<path d="M51.446 12.1691L57.1123 2.36389C57.2643 2.09409 57.3038 1.77531 57.2225 1.47655C57.1411 1.1778 56.9453 0.923109 56.6776 0.767628C56.4098 0.612147 56.0916 0.568385 55.7918 0.645817C55.492 0.723249 55.2347 0.915642 55.0757 1.18135L49.3437 11.1016C44.7681 9.04455 39.8085 7.98097 34.7918 7.98097C29.7752 7.98097 24.8155 9.04455 20.24 11.1016L14.5079 1.18135C14.3489 0.915642 14.0917 0.723249 13.7919 0.645817C13.4921 0.568385 13.1739 0.612147 12.9061 0.767628C12.6383 0.923109 12.4426 1.1778 12.3612 1.47655C12.2798 1.77531 12.3194 2.09409 12.4713 2.36389L18.1377 12.1691C8.36527 17.4577 1.72989 27.2958 0.760864 38.9078H68.7571C67.7881 27.2958 61.1363 17.4577 51.446 12.1691ZM19.1231 29.2175C18.5644 29.2175 18.0182 29.0518 17.5537 28.7414C17.0891 28.431 16.727 27.9898 16.5132 27.4736C16.2994 26.9574 16.2434 26.3894 16.3524 25.8414C16.4614 25.2934 16.7305 24.79 17.1256 24.395C17.5207 23.9999 18.024 23.7308 18.572 23.6218C19.12 23.5128 19.688 23.5688 20.2042 23.7826C20.7204 23.9964 21.1616 24.3585 21.472 24.823C21.7824 25.2876 21.9481 25.8338 21.9481 26.3925C21.9481 27.1417 21.6505 27.8603 21.1207 28.3901C20.5909 28.9198 19.8724 29.2175 19.1231 29.2175ZM50.4277 29.2175C49.8689 29.2175 49.3228 29.0518 48.8582 28.7414C48.3937 28.431 48.0316 27.9898 47.8177 27.4736C47.6039 26.9574 47.548 26.3894 47.657 25.8414C47.766 25.2934 48.035 24.79 48.4301 24.395C48.8252 23.9999 49.3286 23.7308 49.8766 23.6218C50.4245 23.5128 50.9925 23.5688 51.5087 23.7826C52.0249 23.9964 52.4661 24.3585 52.7766 24.823C53.087 25.2876 53.2526 25.8338 53.2526 26.3925C53.2526 27.1417 52.955 27.8603 52.4252 28.3901C51.8954 28.9198 51.1769 29.2175 50.4277 29.2175Z" fill="#3DDC84"/>
</svg>
