<svg width="85" height="85" viewBox="0 0 85 85" fill="none" xmlns="http://www.w3.org/2000/svg">
<path d="M46.9766 5.68901C46.6543 6.02592 46.5518 6.2603 46.5518 6.7144C46.5518 7.87162 47.3574 8.32572 49.4375 8.34037C51.8398 8.34037 55.6924 9.13139 58.3584 10.1421C66.3418 13.2037 72.7871 19.7222 75.5996 27.6031C76.625 30.4449 77.3135 33.9458 77.3135 36.2603C77.3135 36.9048 77.3867 37.6665 77.4599 37.9595C77.7822 39.1167 79.1299 39.4976 79.9648 38.6773C80.3896 38.2525 80.3896 38.2232 80.3896 36.5825C80.375 31.397 78.5879 25.3033 75.7314 20.7476C74.1933 18.2867 72.9922 16.7632 71.0879 14.8443C69.0957 12.8374 67.9092 11.8706 65.6387 10.3765C60.7168 7.1685 54.5205 5.2642 49.0273 5.2642C47.4307 5.2642 47.4014 5.2642 46.9766 5.68901Z" fill="white"/>
<path d="M47.0793 14.3609C46.7717 14.6245 46.6545 14.8882 46.5959 15.3863C46.5227 15.9868 46.5666 16.1187 46.9475 16.5435C47.3723 17.0122 47.387 17.0122 49.2034 17.1441C54.4328 17.481 58.842 19.4732 62.5188 23.1353C64.8332 25.4644 66.5032 28.1304 67.4846 31.0747C68.0998 32.9644 68.3635 34.2974 68.51 36.4507C68.6418 38.2671 68.6418 38.2818 69.1106 38.7066C69.5354 39.0874 69.6672 39.1314 70.2678 39.0581C70.7658 38.9995 71.0295 38.8823 71.2932 38.5747C71.6301 38.1646 71.6448 38.1206 71.5569 36.1724C71.1906 27.8814 66.2102 20.2935 58.6223 16.4995C55.7219 15.0347 52.675 14.2437 49.4817 14.0972C47.5334 14.0093 47.4895 14.024 47.0793 14.3609Z" fill="white"/>
<path d="M14.5303 16.2359C13.8271 16.6021 13.1533 17.1734 11.498 18.8726C9.16894 21.2603 8.1875 22.5493 7.2207 24.4536C5.91699 27.0464 5.38965 29.3169 5.38965 32.2906C5.38965 35.7329 5.94629 37.8277 7.83594 41.4165C10.8682 47.2173 14.1787 52.2124 18.3975 57.3394C20.4043 59.7857 26.1465 65.5425 28.6074 67.5786C33.4707 71.6216 38.2314 74.8003 43.7099 77.6567C47.5478 79.6489 49.7597 80.2642 53.1435 80.2642C56.9228 80.2642 60.3213 79.1948 63.3974 77.0269C63.998 76.6021 65.5361 75.2251 66.7959 73.98C69.4619 71.3433 69.7549 70.8599 69.7695 69.2046C69.7695 67.2271 69.9453 67.4468 62.914 60.3862C58.5049 55.9624 56.3955 53.9409 55.8828 53.6626C54.9013 53.1353 53.4951 53.0181 52.3965 53.3843C51.6933 53.6187 51.2832 53.9702 48.5146 56.6948C46.6103 58.5845 45.2334 59.8296 44.8965 59.9761C44.2226 60.2544 43.4609 60.2544 42.8017 59.9761C42.1865 59.7271 39.9892 58.2183 38.1582 56.7974C37.0303 55.9331 36.7812 55.8013 36.2392 55.8013C35.5215 55.8013 35.082 56.065 34.833 56.6655C34.4668 57.5444 34.7305 58.0571 36.0488 59.1118C37.8945 60.5767 40.5312 62.3931 41.4248 62.8179C42.1279 63.1548 42.4209 63.1987 43.7685 63.1987C45.2041 63.1987 45.3799 63.1694 46.332 62.7153C47.2256 62.2905 47.7236 61.8511 50.375 59.229C53.0996 56.5191 53.4365 56.2407 53.876 56.2407C54.3447 56.2407 54.8428 56.6948 60.4238 62.2759C63.749 65.5864 66.5468 68.5015 66.6347 68.7358C66.9131 69.395 66.5322 69.937 64.291 72.0903C61.4345 74.8296 59.6474 75.9282 56.7178 76.7778C55.707 77.0708 55.2383 77.1147 53.0703 77.1001C50.7851 77.1001 50.4775 77.0708 49.2617 76.6899C46.3174 75.7964 39.3447 71.8413 34.8476 68.5161C24.7109 61.0308 16.4932 51.3628 10.6631 40.0835C9.93066 38.6626 9.18359 36.9927 8.96387 36.2456C8.58301 35.0298 8.55371 34.7222 8.55371 32.437C8.53906 29.7271 8.68555 28.9068 9.52051 26.8853C10.3115 24.9517 11.1758 23.7798 13.6514 21.2603C15.8047 19.0777 16.0391 18.8872 16.5078 18.8872C16.9912 18.8872 17.3867 19.2534 23.0117 24.8491C26.3076 28.145 29.0908 31.0161 29.208 31.2359C29.3398 31.4702 29.3838 31.7779 29.3252 31.9683C29.2812 32.1441 27.9043 33.6382 26.2637 35.2935C23.041 38.5747 22.6455 39.1167 22.3672 40.8599C22.1621 42.1196 22.3965 43.4819 23.0117 44.5659C23.876 46.104 25.9267 48.9312 26.3516 49.1362C26.9961 49.4732 27.5967 49.4146 28.124 48.9312C28.5342 48.565 28.6074 48.4038 28.6074 47.8618C28.6074 47.3052 28.4609 47.0269 27.3476 45.4741C25.5166 42.9107 25.3994 42.6763 25.3994 41.812C25.3994 41.4019 25.5166 40.8599 25.6631 40.5669C25.8096 40.2886 27.2744 38.7066 28.9004 37.0513C32.2256 33.6821 32.416 33.3745 32.4014 31.6167C32.3867 29.8443 32.3574 29.8003 25.2822 22.7544C21.1221 18.6089 18.7344 16.3531 18.3535 16.1626C17.9727 15.9868 17.3428 15.8697 16.5957 15.8404C15.5264 15.7964 15.3506 15.8257 14.5303 16.2359Z" fill="white"/>
<path d="M47.3281 22.9741C47.1523 23.062 46.9033 23.311 46.7861 23.56C46.4345 24.2339 46.4931 24.8198 46.9618 25.3472C47.3574 25.7866 47.4599 25.8159 48.7636 25.9331C50.6093 26.0942 51.6347 26.3725 53.2167 27.1636C55.6191 28.3354 57.3036 30.0347 58.4902 32.437C59.2665 33.9751 59.5448 35.0298 59.7206 36.9048C59.8378 38.1938 59.8818 38.311 60.3066 38.6919C60.8193 39.1606 61.4198 39.2192 62.0644 38.8823C62.7089 38.56 62.87 37.9741 62.7675 36.4214C62.2841 29.1997 56.2636 23.2378 49.1152 22.9009C48.3095 22.8716 47.5038 22.9009 47.3281 22.9741Z" fill="white"/>
<path d="M47.298 31.8218C46.5949 32.2319 46.3605 33.1694 46.7707 33.9605C47.005 34.4146 47.4738 34.6489 48.4259 34.7515C49.6711 34.898 50.755 35.9819 50.9015 37.2417C51.048 38.5161 51.5461 39.1021 52.4836 39.1021C53.5822 39.1021 54.1242 38.2964 53.963 36.8608C53.6847 34.1655 51.341 31.8804 48.6457 31.6899C47.9425 31.646 47.547 31.6753 47.298 31.8218Z" fill="white"/>
<path d="M30.79 51.3921C30.3213 51.5971 29.8525 52.271 29.8525 52.7544C29.8525 54.0141 31.0391 54.7173 32.1816 54.1167C33.002 53.7065 33.1338 52.3882 32.4307 51.7143C32.0498 51.3481 31.2588 51.2016 30.79 51.3921Z" fill="white"/>
</svg>
