<svg width="52" height="51" viewBox="0 0 52 51" fill="none" xmlns="http://www.w3.org/2000/svg">
<path d="M-1.02917 0.329102H51.1548V50.698H-1.02917V0.329102Z" fill="#EE1C25"/>
<path d="M14.6596 26.5433L18.4303 15.1475L22.2009 26.5433L12.1459 19.5792H24.7147L14.6596 26.5433Z" fill="#FFFF00"/>
<path d="M31.0148 15.3664L27.1344 16.2327L29.7228 13.1941L29.4689 17.2837L27.3155 13.6632L31.0148 15.3664Z" fill="#FFFF00"/>
<path d="M34.9317 20.3662L31.0215 19.6486L34.5771 17.8591L32.7687 21.5294L32.1777 17.3509L34.9317 20.3662Z" fill="#FFFF00"/>
<path d="M34.3605 27.3813L31.0808 25.1194L35.0517 24.9465L31.9146 27.5546L33.0666 23.4966L34.3605 27.3813Z" fill="#FFFF00"/>
<path d="M29.4284 31.9636L27.2704 28.6011L30.9994 29.9867L27.1059 31.1718L29.7243 27.8769L29.4284 31.9636Z" fill="#FFFF00"/>
</svg>
