<svg width="289" height="57" viewBox="0 0 289 57" fill="none" xmlns="http://www.w3.org/2000/svg">
<path d="M27.3219 56.4412C23.4819 56.4412 19.9085 55.7479 16.6019 54.3612C13.2952 52.9212 10.4152 50.9212 7.96188 48.3612C5.50854 45.8012 3.58854 42.8412 2.20188 39.4812C0.868542 36.0679 0.201875 32.4146 0.201875 28.5212C0.201875 24.5746 0.868542 20.9212 2.20188 17.5612C3.53521 14.2012 5.40188 11.2679 7.80188 8.76123C10.2552 6.25457 13.1085 4.3079 16.3619 2.92123C19.6152 1.48123 23.1352 0.761231 26.9219 0.761231C30.8152 0.761231 34.4419 1.5079 37.8019 3.00123C41.1619 4.49456 44.0685 6.57456 46.5219 9.24123L44.6819 11.0812C42.5485 8.6279 39.9352 6.7079 36.8419 5.32123C33.8019 3.93457 30.4952 3.24123 26.9219 3.24123C23.5085 3.24123 20.3352 3.88123 17.4019 5.16123C14.5219 6.44123 11.9885 8.2279 9.80188 10.5212C7.61521 12.8146 5.90854 15.5079 4.68188 18.6012C3.50854 21.6412 2.92188 24.9479 2.92188 28.5212C2.92188 32.0946 3.53521 35.4279 4.76188 38.5212C5.98854 41.6146 7.66854 44.3346 9.80188 46.6812C11.9885 48.9746 14.5485 50.7612 17.4819 52.0412C20.4685 53.3212 23.6685 53.9612 27.0819 53.9612C30.7085 53.9612 34.0685 53.2679 37.1619 51.8812C40.3085 50.4412 42.9485 48.4946 45.0819 46.0412L46.9219 47.8812C44.5219 50.5479 41.6419 52.6546 38.2819 54.2012C34.9219 55.6946 31.2685 56.4412 27.3219 56.4412ZM72.335 56.4412C68.7617 56.4412 65.535 55.5879 62.655 53.8812C59.8283 52.1746 57.5617 49.8546 55.855 46.9212C54.2017 43.9879 53.375 40.7079 53.375 37.0812C53.375 33.5079 54.2017 30.2812 55.855 27.4012C57.5617 24.5212 59.8283 22.2546 62.655 20.6012C65.535 18.8946 68.7617 18.0412 72.335 18.0412C75.855 18.0412 79.0283 18.8946 81.855 20.6012C84.735 22.2546 87.0017 24.5212 88.655 27.4012C90.3617 30.2812 91.215 33.5079 91.215 37.0812C91.215 40.7612 90.3617 44.0679 88.655 47.0012C87.0017 49.8812 84.735 52.1746 81.855 53.8812C79.0283 55.5879 75.855 56.4412 72.335 56.4412ZM72.335 54.1212C75.4283 54.1212 78.2017 53.3746 80.655 51.8812C83.1083 50.3879 85.055 48.3612 86.495 45.8012C87.935 43.1879 88.655 40.2546 88.655 37.0012C88.655 33.8546 87.935 31.0279 86.495 28.5212C85.055 26.0146 83.1083 24.0412 80.655 22.6012C78.2017 21.1079 75.4283 20.3612 72.335 20.3612C69.2417 20.3612 66.4417 21.1079 63.935 22.6012C61.4817 24.0412 59.535 26.0146 58.095 28.5212C56.655 31.0279 55.935 33.8812 55.935 37.0812C55.935 40.3346 56.655 43.2412 58.095 45.8012C59.535 48.3612 61.4817 50.3879 63.935 51.8812C66.4417 53.3746 69.2417 54.1212 72.335 54.1212ZM130.114 55.6412V33.6412C130.114 29.6412 128.968 26.4146 126.674 23.9612C124.381 21.5079 121.314 20.2812 117.474 20.2812C114.861 20.2812 112.541 20.8679 110.514 22.0412C108.541 23.1612 106.968 24.7079 105.794 26.6812C104.674 28.6546 104.114 30.9479 104.114 33.5612L102.434 32.6012C102.434 29.8279 103.101 27.3479 104.434 25.1612C105.821 22.9746 107.661 21.2412 109.954 19.9612C112.301 18.6812 114.941 18.0412 117.874 18.0412C120.808 18.0412 123.368 18.7079 125.554 20.0412C127.794 21.3746 129.528 23.2146 130.754 25.5612C131.981 27.9079 132.594 30.6012 132.594 33.6412V55.6412H130.114ZM101.634 55.6412V18.8412H104.114V55.6412H101.634ZM173.083 55.6412V33.6412C173.083 29.6412 171.936 26.4146 169.643 23.9612C167.35 21.5079 164.283 20.2812 160.443 20.2812C157.83 20.2812 155.51 20.8679 153.483 22.0412C151.51 23.1612 149.936 24.7079 148.763 26.6812C147.643 28.6546 147.083 30.9479 147.083 33.5612L145.403 32.6012C145.403 29.8279 146.07 27.3479 147.403 25.1612C148.79 22.9746 150.63 21.2412 152.923 19.9612C155.27 18.6812 157.91 18.0412 160.843 18.0412C163.776 18.0412 166.336 18.7079 168.523 20.0412C170.763 21.3746 172.496 23.2146 173.723 25.5612C174.95 27.9079 175.563 30.6012 175.563 33.6412V55.6412H173.083ZM144.603 55.6412V18.8412H147.083V55.6412H144.603ZM204.452 56.4412C200.772 56.4412 197.465 55.6146 194.532 53.9612C191.652 52.2546 189.359 49.9612 187.652 47.0812C185.999 44.1479 185.172 40.8412 185.172 37.1612C185.172 33.5346 185.972 30.2812 187.572 27.4012C189.225 24.5212 191.465 22.2546 194.292 20.6012C197.172 18.8946 200.399 18.0412 203.972 18.0412C207.279 18.0412 210.185 18.7879 212.692 20.2812C215.252 21.7212 217.252 23.7479 218.692 26.3612C220.132 28.9746 220.852 31.9879 220.852 35.4012C220.852 35.6146 220.825 35.9612 220.772 36.4412C220.772 36.8679 220.719 37.4279 220.612 38.1212H186.932V35.8012H219.012L218.292 36.3612C218.505 33.2146 218.025 30.4412 216.852 28.0412C215.679 25.6412 213.972 23.7746 211.732 22.4412C209.545 21.0546 206.932 20.3612 203.892 20.3612C200.692 20.3612 197.865 21.0812 195.412 22.5212C193.012 23.9079 191.119 25.8546 189.732 28.3612C188.399 30.8146 187.732 33.6946 187.732 37.0012C187.732 40.4146 188.425 43.4012 189.812 45.9612C191.252 48.5212 193.252 50.5212 195.812 51.9612C198.372 53.4012 201.359 54.1212 204.772 54.1212C207.332 54.1212 209.679 53.6412 211.812 52.6812C213.999 51.7212 215.839 50.2812 217.332 48.3612L219.012 50.0412C217.359 52.0146 215.252 53.5879 212.692 54.7612C210.185 55.8812 207.439 56.4412 204.452 56.4412ZM247.491 56.4412C243.918 56.4412 240.691 55.5879 237.811 53.8812C234.985 52.1746 232.718 49.8546 231.011 46.9212C229.358 43.9879 228.531 40.7079 228.531 37.0812C228.531 33.5079 229.358 30.2812 231.011 27.4012C232.718 24.5212 234.985 22.2546 237.811 20.6012C240.691 18.8946 243.918 18.0412 247.491 18.0412C250.158 18.0412 252.638 18.5479 254.931 19.5612C257.278 20.5212 259.278 21.8812 260.931 23.6412L259.251 25.3212C257.811 23.7746 256.078 22.5746 254.051 21.7212C252.025 20.8146 249.838 20.3612 247.491 20.3612C244.398 20.3612 241.598 21.1079 239.091 22.6012C236.638 24.0412 234.691 26.0146 233.251 28.5212C231.811 31.0279 231.091 33.8812 231.091 37.0812C231.091 40.3346 231.811 43.2412 233.251 45.8012C234.691 48.3612 236.638 50.3879 239.091 51.8812C241.598 53.3746 244.398 54.1212 247.491 54.1212C249.891 54.1212 252.105 53.6946 254.131 52.8412C256.211 51.9346 257.998 50.6812 259.491 49.0812L261.171 50.7612C259.465 52.5746 257.411 53.9879 255.011 55.0012C252.665 55.9612 250.158 56.4412 247.491 56.4412ZM276.381 55.6412V3.16123H278.861V55.6412H276.381ZM266.621 21.0012V18.8412H288.541V21.0012H266.621Z" fill="url(#paint0_linear_240_234)" fill-opacity="0.6"/>
<defs>
<linearGradient id="paint0_linear_240_234" x1="143.422" y1="-54.3459" x2="143.422" y2="55.6412" gradientUnits="userSpaceOnUse">
<stop stop-color="white"/>
<stop offset="1" stop-color="#070E2E"/>
</linearGradient>
</defs>
</svg>
