<svg width="348" height="58" viewBox="0 0 348 58" fill="none" xmlns="http://www.w3.org/2000/svg">
<path d="M1.72188 56.6412V54.2412H19.4019C24.2019 54.2412 28.4419 53.1746 32.1219 51.0412C35.8552 48.9079 38.7619 46.0012 40.8419 42.3212C42.9219 38.5879 43.9619 34.3212 43.9619 29.5212C43.9619 24.7746 42.9219 20.5612 40.8419 16.8812C38.7619 13.1479 35.8552 10.2412 32.1219 8.16123C28.4419 6.0279 24.2019 4.96123 19.4019 4.96123H2.04188V2.56123H19.4019C23.4019 2.56123 27.0552 3.2279 30.3619 4.56123C33.6685 5.89457 36.5485 7.76123 39.0019 10.1612C41.4552 12.5612 43.3485 15.4146 44.6819 18.7212C46.0152 22.0279 46.6819 25.6546 46.6819 29.6012C46.6819 33.4946 46.0152 37.0946 44.6819 40.4012C43.3485 43.7079 41.4552 46.5879 39.0019 49.0412C36.6019 51.4412 33.7485 53.3079 30.4419 54.6412C27.1352 55.9746 23.5085 56.6412 19.5619 56.6412H1.72188ZM0.841876 56.6412V2.56123H3.40188V56.6412H0.841876ZM74.9444 57.4412C71.371 57.4412 68.1444 56.5879 65.2644 54.8812C62.4377 53.1746 60.171 50.8546 58.4644 47.9212C56.811 44.9879 55.9844 41.7079 55.9844 38.0812C55.9844 34.5079 56.811 31.2812 58.4644 28.4012C60.171 25.5212 62.4377 23.2546 65.2644 21.6012C68.1444 19.8946 71.371 19.0412 74.9444 19.0412C78.4644 19.0412 81.6377 19.8946 84.4644 21.6012C87.3444 23.2546 89.611 25.5212 91.2644 28.4012C92.971 31.2812 93.8244 34.5079 93.8244 38.0812C93.8244 41.7612 92.971 45.0679 91.2644 48.0012C89.611 50.8812 87.3444 53.1746 84.4644 54.8812C81.6377 56.5879 78.4644 57.4412 74.9444 57.4412ZM74.9444 55.1212C78.0377 55.1212 80.811 54.3746 83.2644 52.8812C85.7177 51.3879 87.6644 49.3612 89.1044 46.8012C90.5444 44.1879 91.2644 41.2546 91.2644 38.0012C91.2644 34.8546 90.5444 32.0279 89.1044 29.5212C87.6644 27.0146 85.7177 25.0412 83.2644 23.6012C80.811 22.1079 78.0377 21.3612 74.9444 21.3612C71.851 21.3612 69.051 22.1079 66.5444 23.6012C64.091 25.0412 62.1444 27.0146 60.7044 29.5212C59.2644 32.0279 58.5444 34.8812 58.5444 38.0812C58.5444 41.3346 59.2644 44.2412 60.7044 46.8012C62.1444 49.3612 64.091 51.3879 66.5444 52.8812C69.051 54.3746 71.851 55.1212 74.9444 55.1212ZM112.521 56.6412L98.9212 19.8412H101.561L113.961 54.4012H112.521L125.081 19.8412H126.521L139.081 54.4012H137.641L150.041 19.8412H152.681L139.081 56.6412H137.561L124.841 21.6012H126.761L114.041 56.6412H112.521ZM190.224 56.6412V34.6412C190.224 30.6412 189.077 27.4146 186.784 24.9612C184.49 22.5079 181.424 21.2812 177.584 21.2812C174.97 21.2812 172.65 21.8679 170.624 23.0412C168.65 24.1612 167.077 25.7079 165.904 27.6812C164.784 29.6546 164.224 31.9479 164.224 34.5612L162.544 33.6012C162.544 30.8279 163.21 28.3479 164.544 26.1612C165.93 23.9746 167.77 22.2412 170.064 20.9612C172.41 19.6812 175.05 19.0412 177.984 19.0412C180.917 19.0412 183.477 19.7079 185.664 21.0412C187.904 22.3746 189.637 24.2146 190.864 26.5612C192.09 28.9079 192.704 31.6012 192.704 34.6412V56.6412H190.224ZM161.744 56.6412V19.8412H164.224V56.6412H161.744ZM204.713 56.6412V0.961232H207.193V56.6412H204.713ZM236.585 57.4412C233.012 57.4412 229.785 56.5879 226.905 54.8812C224.078 53.1746 221.812 50.8546 220.105 47.9212C218.452 44.9879 217.625 41.7079 217.625 38.0812C217.625 34.5079 218.452 31.2812 220.105 28.4012C221.812 25.5212 224.078 23.2546 226.905 21.6012C229.785 19.8946 233.012 19.0412 236.585 19.0412C240.105 19.0412 243.278 19.8946 246.105 21.6012C248.985 23.2546 251.252 25.5212 252.905 28.4012C254.612 31.2812 255.465 34.5079 255.465 38.0812C255.465 41.7612 254.612 45.0679 252.905 48.0012C251.252 50.8812 248.985 53.1746 246.105 54.8812C243.278 56.5879 240.105 57.4412 236.585 57.4412ZM236.585 55.1212C239.678 55.1212 242.452 54.3746 244.905 52.8812C247.358 51.3879 249.305 49.3612 250.745 46.8012C252.185 44.1879 252.905 41.2546 252.905 38.0012C252.905 34.8546 252.185 32.0279 250.745 29.5212C249.305 27.0146 247.358 25.0412 244.905 23.6012C242.452 22.1079 239.678 21.3612 236.585 21.3612C233.492 21.3612 230.692 22.1079 228.185 23.6012C225.732 25.0412 223.785 27.0146 222.345 29.5212C220.905 32.0279 220.185 34.8812 220.185 38.0812C220.185 41.3346 220.905 44.2412 222.345 46.8012C223.785 49.3612 225.732 51.3879 228.185 52.8812C230.692 54.3746 233.492 55.1212 236.585 55.1212ZM282.444 57.4412C278.818 57.4412 275.564 56.6146 272.684 54.9612C269.858 53.2546 267.618 50.9612 265.964 48.0812C264.311 45.2012 263.484 41.9479 263.484 38.3212C263.484 34.6946 264.311 31.4412 265.964 28.5612C267.618 25.6279 269.858 23.3079 272.684 21.6012C275.511 19.8946 278.711 19.0412 282.284 19.0412C285.111 19.0412 287.644 19.5746 289.884 20.6412C292.178 21.6546 294.071 23.1212 295.564 25.0412C297.111 26.9612 298.178 29.2546 298.764 31.9212V44.4812C298.124 47.1479 297.031 49.4679 295.484 51.4412C293.991 53.3612 292.124 54.8546 289.884 55.9212C287.698 56.9346 285.218 57.4412 282.444 57.4412ZM282.764 55.1212C287.351 55.1212 291.004 53.6012 293.724 50.5612C296.444 47.4679 297.804 43.3879 297.804 38.3212C297.804 34.9079 297.164 31.9479 295.884 29.4412C294.658 26.8812 292.898 24.9079 290.604 23.5212C288.311 22.0812 285.644 21.3612 282.604 21.3612C279.404 21.3612 276.551 22.1079 274.044 23.6012C271.591 25.0412 269.644 27.0412 268.204 29.6012C266.764 32.1079 266.044 34.9879 266.044 38.2412C266.044 41.4946 266.764 44.4012 268.204 46.9612C269.644 49.4679 271.618 51.4679 274.124 52.9612C276.684 54.4012 279.564 55.1212 282.764 55.1212ZM297.724 56.6412V46.8012L298.444 37.6812L297.724 28.8012V19.8412H300.204V56.6412H297.724ZM328.994 57.4412C325.474 57.4412 322.327 56.6146 319.554 54.9612C316.834 53.2546 314.674 50.9612 313.074 48.0812C311.474 45.2012 310.674 41.9479 310.674 38.3212C310.674 34.6412 311.474 31.3612 313.074 28.4812C314.674 25.5479 316.86 23.2546 319.634 21.6012C322.407 19.8946 325.527 19.0412 328.994 19.0412C331.66 19.0412 334.167 19.5479 336.514 20.5612C338.86 21.5746 340.86 23.0412 342.514 24.9612C344.22 26.8812 345.367 29.2012 345.954 31.9212V44.4812C345.314 47.0946 344.167 49.3879 342.514 51.3612C340.914 53.2812 338.94 54.7746 336.594 55.8412C334.3 56.9079 331.767 57.4412 328.994 57.4412ZM329.474 55.1212C332.514 55.1212 335.18 54.4012 337.474 52.9612C339.82 51.5212 341.634 49.5479 342.914 47.0412C344.247 44.4812 344.914 41.5746 344.914 38.3212C344.914 34.9612 344.247 32.0279 342.914 29.5212C341.58 26.9612 339.74 24.9612 337.394 23.5212C335.047 22.0812 332.327 21.3612 329.234 21.3612C326.14 21.3612 323.394 22.0812 320.994 23.5212C318.594 24.9612 316.7 26.9612 315.314 29.5212C313.927 32.0279 313.234 34.9346 313.234 38.2412C313.234 41.4946 313.927 44.4012 315.314 46.9612C316.7 49.5212 318.62 51.5212 321.074 52.9612C323.527 54.4012 326.327 55.1212 329.474 55.1212ZM347.314 56.6412H344.834V46.8012L345.634 37.6812L344.834 28.8012V0.961232H347.314V56.6412Z" fill="url(#paint0_linear_240_231)" fill-opacity="0.6"/>
<defs>
<linearGradient id="paint0_linear_240_231" x1="173.422" y1="-14.0956" x2="173.422" y2="50.7496" gradientUnits="userSpaceOnUse">
<stop stop-color="white"/>
<stop offset="1" stop-color="#029CE3"/>
</linearGradient>
</defs>
</svg>
