<svg width="58" height="37" viewBox="0 0 58 37" fill="none" xmlns="http://www.w3.org/2000/svg">
<path d="M2.75899 3.34523C2.75899 3.96611 2.38093 4.42541 1.73237 4.42541C1.19228 4.42541 0.786987 3.96611 0.786987 3.34523C0.786987 2.75068 1.21906 2.2646 1.78638 2.2646C2.38093 2.2646 2.75899 2.75068 2.75899 3.34523ZM1.26399 35.8119V10.9768H2.28199V35.8119H1.26399ZM36.1415 18.1169C36.1415 30.6379 29.1907 36.3297 21.5822 36.3297C13.8099 36.3297 7.51586 30.1731 7.51586 18.6348C7.51586 6.78728 14.0292 0.422852 22.1296 0.422852C30.0657 0.421944 36.1415 6.68244 36.1415 18.1169ZM8.54748 18.3756C8.54748 27.8694 13.1487 35.2445 21.6303 35.2445C30.171 35.2445 35.0695 27.6424 35.0695 18.2676C35.0695 9.57396 31.1445 1.64009 22.1881 1.64009C13.2317 1.64009 8.54748 9.11012 8.54748 18.3756ZM39.8776 33.1209C41.5855 34.2592 44.5333 35.3585 47.0686 35.3585C51.8803 35.3585 56.1598 31.9922 56.1598 27.0375C56.1598 22.4394 53.3091 20.0403 48.4692 17.9794C44.1375 16.1349 40.243 14.133 40.243 9.21768C40.243 4.09591 44.2782 0.47323 49.7626 0.47323C52.7118 0.47323 54.9366 1.30106 55.9714 2.02542L55.5602 2.91861C54.6806 2.29819 52.3033 1.50757 49.7173 1.50757C43.9211 1.50757 41.3963 5.88728 41.3963 9.11148C41.3963 13.5647 44.8483 15.0538 49.2979 17.1751C54.4714 19.7099 57.2132 21.9452 57.2132 26.8092C57.2132 32.0349 53.4884 36.2766 46.8657 36.2766C44.123 36.2766 40.9674 35.3458 39.4152 34.1553L39.8776 33.1209Z" fill="black"/>
</svg>
