<svg width="409" height="83" viewBox="0 0 409 83" fill="none" xmlns="http://www.w3.org/2000/svg">
<path d="M41.0472 77.1918C60.5774 77.1918 76.4097 61.3595 76.4097 41.8293C76.4097 22.2991 60.5774 6.4668 41.0472 6.4668C21.517 6.4668 5.68469 22.2991 5.68469 41.8293C5.68469 61.3595 21.517 77.1918 41.0472 77.1918Z" stroke="white" stroke-width="2.5625" stroke-miterlimit="10" stroke-linecap="round" stroke-linejoin="round"/>
<path d="M58.6001 29.4012C56.1658 15.1793 49.247 6.4668 41.047 6.4668C32.847 6.4668 25.9283 15.1793 23.4939 29.4012" stroke="white" stroke-width="2.5625" stroke-miterlimit="10" stroke-linecap="round" stroke-linejoin="round"/>
<path d="M58.6001 52.7205C56.1658 66.9423 49.247 77.1923 41.047 77.1923C32.847 77.1923 25.9283 66.9423 23.4939 52.7205" stroke="white" stroke-width="2.5625" stroke-miterlimit="10" stroke-linecap="round" stroke-linejoin="round"/>
<path d="M41.0474 77.1923V52.7205" stroke="white" stroke-width="2.5625" stroke-miterlimit="10" stroke-linecap="round" stroke-linejoin="round"/>
<path d="M41.0474 29.4012V6.4668" stroke="white" stroke-width="2.5625" stroke-miterlimit="10" stroke-linecap="round" stroke-linejoin="round"/>
<path d="M18.7534 41.8298H5.68469" stroke="white" stroke-width="2.5625" stroke-miterlimit="10" stroke-linecap="round" stroke-linejoin="round"/>
<path d="M76.4098 41.8298H63.3411" stroke="white" stroke-width="2.5625" stroke-miterlimit="10" stroke-linecap="round" stroke-linejoin="round"/>
<path d="M60.1378 52.7202H21.9565C20.1628 52.7202 18.7534 51.3108 18.7534 49.5171V34.1421C18.7534 32.3483 20.1628 30.939 21.9565 30.939H60.0097C61.8034 30.939 63.2128 32.3483 63.2128 34.1421V49.5171C63.3409 51.3108 61.8034 52.7202 60.1378 52.7202Z" stroke="white" stroke-width="2.5625" stroke-miterlimit="10" stroke-linecap="round" stroke-linejoin="round"/>
<path d="M33.8724 36.5767L29.5161 47.0829L25.0317 36.5767" stroke="white" stroke-width="2.5625" stroke-miterlimit="10" stroke-linecap="round" stroke-linejoin="round"/>
<path d="M38.1005 47.0829V36.5767H42.8411C44.2505 36.5767 45.4036 37.7298 45.4036 39.1392C45.4036 40.5485 44.2505 41.7017 42.8411 41.7017H38.1005" stroke="white" stroke-width="2.5625" stroke-miterlimit="10" stroke-linecap="round" stroke-linejoin="round"/>
<path d="M49.6317 47.0829V36.5767L57.063 47.0829V36.5767" stroke="white" stroke-width="2.5625" stroke-miterlimit="10" stroke-linecap="round" stroke-linejoin="round"/>
<path d="M94.8535 51.3298L102.237 33.2858H104.005L111.363 51.3298H108.711L102.653 36.0678H103.563L97.4535 51.3298H94.8535ZM98.3635 47.2478V45.1158H107.853V47.2478H98.3635ZM118.722 51.5898C117.509 51.5898 116.408 51.3038 115.42 50.7318C114.449 50.1598 113.678 49.3885 113.106 48.4178C112.551 47.4298 112.274 46.3378 112.274 45.1418C112.274 43.9285 112.551 42.8365 113.106 41.8658C113.678 40.8952 114.449 40.1325 115.42 39.5778C116.408 39.0058 117.509 38.7198 118.722 38.7198C119.675 38.7198 120.559 38.9018 121.374 39.2658C122.189 39.6125 122.891 40.1238 123.48 40.7998L121.92 42.3598C121.539 41.9092 121.071 41.5712 120.516 41.3458C119.979 41.1032 119.381 40.9818 118.722 40.9818C117.942 40.9818 117.249 41.1638 116.642 41.5278C116.035 41.8745 115.559 42.3598 115.212 42.9838C114.865 43.6078 114.692 44.3272 114.692 45.1418C114.692 45.9565 114.865 46.6758 115.212 47.2998C115.559 47.9238 116.035 48.4178 116.642 48.7818C117.249 49.1458 117.942 49.3278 118.722 49.3278C119.381 49.3278 119.979 49.2152 120.516 48.9898C121.071 48.7472 121.547 48.4005 121.946 47.9498L123.48 49.5098C122.908 50.1685 122.206 50.6798 121.374 51.0438C120.559 51.4078 119.675 51.5898 118.722 51.5898ZM131.214 51.5898C130.001 51.5898 128.9 51.3038 127.912 50.7318C126.941 50.1598 126.17 49.3885 125.598 48.4178C125.043 47.4298 124.766 46.3378 124.766 45.1418C124.766 43.9285 125.043 42.8365 125.598 41.8658C126.17 40.8952 126.941 40.1325 127.912 39.5778C128.9 39.0058 130.001 38.7198 131.214 38.7198C132.167 38.7198 133.051 38.9018 133.866 39.2658C134.681 39.6125 135.383 40.1238 135.972 40.7998L134.412 42.3598C134.031 41.9092 133.563 41.5712 133.008 41.3458C132.471 41.1032 131.873 40.9818 131.214 40.9818C130.434 40.9818 129.741 41.1638 129.134 41.5278C128.527 41.8745 128.051 42.3598 127.704 42.9838C127.357 43.6078 127.184 44.3272 127.184 45.1418C127.184 45.9565 127.357 46.6758 127.704 47.2998C128.051 47.9238 128.527 48.4178 129.134 48.7818C129.741 49.1458 130.434 49.3278 131.214 49.3278C131.873 49.3278 132.471 49.2152 133.008 48.9898C133.563 48.7472 134.039 48.4005 134.438 47.9498L135.972 49.5098C135.4 50.1685 134.698 50.6798 133.866 51.0438C133.051 51.4078 132.167 51.5898 131.214 51.5898ZM143.784 51.5898C142.554 51.5898 141.444 51.3125 140.456 50.7578C139.468 50.1858 138.688 49.4145 138.116 48.4438C137.544 47.4732 137.258 46.3725 137.258 45.1418C137.258 43.9285 137.536 42.8365 138.09 41.8658C138.662 40.8952 139.425 40.1325 140.378 39.5778C141.349 39.0058 142.432 38.7198 143.628 38.7198C144.772 38.7198 145.778 38.9798 146.644 39.4998C147.528 40.0198 148.213 40.7392 148.698 41.6578C149.201 42.5765 149.452 43.6165 149.452 44.7778C149.452 44.9512 149.444 45.1418 149.426 45.3498C149.409 45.5405 149.374 45.7658 149.322 46.0258H138.896V44.0758H148.074L147.216 44.8298C147.216 43.9978 147.069 43.2958 146.774 42.7238C146.48 42.1345 146.064 41.6838 145.526 41.3718C144.989 41.0425 144.339 40.8778 143.576 40.8778C142.779 40.8778 142.077 41.0512 141.47 41.3978C140.864 41.7445 140.396 42.2298 140.066 42.8538C139.737 43.4778 139.572 44.2145 139.572 45.0638C139.572 45.9305 139.746 46.6932 140.092 47.3518C140.439 47.9932 140.933 48.4958 141.574 48.8598C142.216 49.2065 142.952 49.3798 143.784 49.3798C144.478 49.3798 145.11 49.2585 145.682 49.0158C146.272 48.7732 146.774 48.4092 147.19 47.9238L148.698 49.4578C148.109 50.1512 147.381 50.6798 146.514 51.0438C145.665 51.4078 144.755 51.5898 143.784 51.5898ZM155.93 51.5898C155.236 51.5898 154.578 51.5032 153.954 51.3298C153.347 51.1392 152.784 50.8792 152.264 50.5498C151.744 50.2032 151.293 49.7958 150.912 49.3278L152.42 47.8198C152.87 48.3745 153.39 48.7905 153.98 49.0678C154.569 49.3278 155.228 49.4578 155.956 49.4578C156.684 49.4578 157.247 49.3365 157.646 49.0938C158.044 48.8338 158.244 48.4785 158.244 48.0278C158.244 47.5772 158.079 47.2305 157.75 46.9878C157.438 46.7278 157.03 46.5198 156.528 46.3638C156.025 46.1905 155.488 46.0258 154.916 45.8698C154.361 45.6965 153.832 45.4798 153.33 45.2198C152.827 44.9598 152.411 44.6045 152.082 44.1538C151.77 43.7032 151.614 43.1052 151.614 42.3598C151.614 41.6145 151.796 40.9732 152.16 40.4358C152.524 39.8812 153.026 39.4565 153.668 39.1618C154.326 38.8672 155.115 38.7198 156.034 38.7198C157.004 38.7198 157.862 38.8932 158.608 39.2398C159.37 39.5692 159.994 40.0718 160.48 40.7478L158.972 42.2558C158.625 41.8052 158.192 41.4585 157.672 41.2158C157.169 40.9732 156.597 40.8518 155.956 40.8518C155.28 40.8518 154.76 40.9732 154.396 41.2158C154.049 41.4412 153.876 41.7618 153.876 42.1778C153.876 42.5938 154.032 42.9145 154.344 43.1398C154.656 43.3652 155.063 43.5558 155.566 43.7118C156.086 43.8678 156.623 44.0325 157.178 44.2058C157.732 44.3618 158.261 44.5785 158.764 44.8558C159.266 45.1332 159.674 45.5058 159.986 45.9738C160.315 46.4418 160.48 47.0572 160.48 47.8198C160.48 48.9812 160.064 49.8998 159.232 50.5758C158.417 51.2518 157.316 51.5898 155.93 51.5898ZM167.025 51.5898C166.332 51.5898 165.673 51.5032 165.049 51.3298C164.443 51.1392 163.879 50.8792 163.359 50.5498C162.839 50.2032 162.389 49.7958 162.007 49.3278L163.515 47.8198C163.966 48.3745 164.486 48.7905 165.075 49.0678C165.665 49.3278 166.323 49.4578 167.051 49.4578C167.779 49.4578 168.343 49.3365 168.741 49.0938C169.14 48.8338 169.339 48.4785 169.339 48.0278C169.339 47.5772 169.175 47.2305 168.845 46.9878C168.533 46.7278 168.126 46.5198 167.623 46.3638C167.121 46.1905 166.583 46.0258 166.011 45.8698C165.457 45.6965 164.928 45.4798 164.425 45.2198C163.923 44.9598 163.507 44.6045 163.177 44.1538C162.865 43.7032 162.709 43.1052 162.709 42.3598C162.709 41.6145 162.891 40.9732 163.255 40.4358C163.619 39.8812 164.122 39.4565 164.763 39.1618C165.422 38.8672 166.211 38.7198 167.129 38.7198C168.1 38.7198 168.958 38.8932 169.703 39.2398C170.466 39.5692 171.09 40.0718 171.575 40.7478L170.067 42.2558C169.721 41.8052 169.287 41.4585 168.767 41.2158C168.265 40.9732 167.693 40.8518 167.051 40.8518C166.375 40.8518 165.855 40.9732 165.491 41.2158C165.145 41.4412 164.971 41.7618 164.971 42.1778C164.971 42.5938 165.127 42.9145 165.439 43.1398C165.751 43.3652 166.159 43.5558 166.661 43.7118C167.181 43.8678 167.719 44.0325 168.273 44.2058C168.828 44.3618 169.357 44.5785 169.859 44.8558C170.362 45.1332 170.769 45.5058 171.081 45.9738C171.411 46.4418 171.575 47.0572 171.575 47.8198C171.575 48.9812 171.159 49.8998 170.327 50.5758C169.513 51.2518 168.412 51.5898 167.025 51.5898ZM181.501 51.3298V33.8058H183.841V51.3298H181.501ZM178.459 41.1118V38.9798H186.883V41.1118H178.459ZM197.912 51.3298V44.1278C197.912 43.1918 197.617 42.4205 197.028 41.8138C196.438 41.2072 195.676 40.9038 194.74 40.9038C194.116 40.9038 193.561 41.0425 193.076 41.3198C192.59 41.5972 192.209 41.9785 191.932 42.4638C191.654 42.9492 191.516 43.5038 191.516 44.1278L190.554 43.5818C190.554 42.6458 190.762 41.8138 191.178 41.0858C191.594 40.3578 192.174 39.7858 192.92 39.3698C193.665 38.9365 194.506 38.7198 195.442 38.7198C196.378 38.7198 197.201 38.9278 197.912 39.3438C198.64 39.7598 199.212 40.3405 199.628 41.0858C200.044 41.8312 200.252 42.6892 200.252 43.6598V51.3298H197.912ZM189.176 51.3298V32.7658H191.516V51.3298H189.176ZM209.14 51.5898C207.909 51.5898 206.8 51.3125 205.812 50.7578C204.824 50.1858 204.044 49.4145 203.472 48.4438C202.9 47.4732 202.614 46.3725 202.614 45.1418C202.614 43.9285 202.891 42.8365 203.446 41.8658C204.018 40.8952 204.78 40.1325 205.734 39.5778C206.704 39.0058 207.788 38.7198 208.984 38.7198C210.128 38.7198 211.133 38.9798 212 39.4998C212.884 40.0198 213.568 40.7392 214.054 41.6578C214.556 42.5765 214.808 43.6165 214.808 44.7778C214.808 44.9512 214.799 45.1418 214.782 45.3498C214.764 45.5405 214.73 45.7658 214.678 46.0258H204.252V44.0758H213.43L212.572 44.8298C212.572 43.9978 212.424 43.2958 212.13 42.7238C211.835 42.1345 211.419 41.6838 210.882 41.3718C210.344 41.0425 209.694 40.8778 208.932 40.8778C208.134 40.8778 207.432 41.0512 206.826 41.3978C206.219 41.7445 205.751 42.2298 205.422 42.8538C205.092 43.4778 204.928 44.2145 204.928 45.0638C204.928 45.9305 205.101 46.6932 205.448 47.3518C205.794 47.9932 206.288 48.4958 206.93 48.8598C207.571 49.2065 208.308 49.3798 209.14 49.3798C209.833 49.3798 210.466 49.2585 211.038 49.0158C211.627 48.7732 212.13 48.4092 212.546 47.9238L214.054 49.4578C213.464 50.1512 212.736 50.6798 211.87 51.0438C211.02 51.4078 210.11 51.5898 209.14 51.5898ZM228.409 51.5898C227.196 51.5898 226.095 51.3038 225.107 50.7318C224.137 50.1598 223.365 49.3885 222.793 48.4178C222.239 47.4298 221.961 46.3378 221.961 45.1418C221.961 43.9285 222.239 42.8365 222.793 41.8658C223.365 40.8952 224.137 40.1325 225.107 39.5778C226.095 39.0058 227.196 38.7198 228.409 38.7198C229.363 38.7198 230.247 38.9018 231.061 39.2658C231.876 39.6125 232.578 40.1238 233.167 40.7998L231.607 42.3598C231.226 41.9092 230.758 41.5712 230.203 41.3458C229.666 41.1032 229.068 40.9818 228.409 40.9818C227.629 40.9818 226.936 41.1638 226.329 41.5278C225.723 41.8745 225.246 42.3598 224.899 42.9838C224.553 43.6078 224.379 44.3272 224.379 45.1418C224.379 45.9565 224.553 46.6758 224.899 47.2998C225.246 47.9238 225.723 48.4178 226.329 48.7818C226.936 49.1458 227.629 49.3278 228.409 49.3278C229.068 49.3278 229.666 49.2152 230.203 48.9898C230.758 48.7472 231.235 48.4005 231.633 47.9498L233.167 49.5098C232.595 50.1685 231.893 50.6798 231.061 51.0438C230.247 51.4078 229.363 51.5898 228.409 51.5898ZM240.902 51.5898C239.688 51.5898 238.596 51.3038 237.626 50.7318C236.655 50.1598 235.884 49.3885 235.312 48.4178C234.74 47.4298 234.454 46.3292 234.454 45.1158C234.454 43.9198 234.74 42.8452 235.312 41.8918C235.884 40.9212 236.655 40.1498 237.626 39.5778C238.596 39.0058 239.688 38.7198 240.902 38.7198C242.098 38.7198 243.181 39.0058 244.152 39.5778C245.14 40.1325 245.92 40.8952 246.492 41.8658C247.064 42.8365 247.35 43.9198 247.35 45.1158C247.35 46.3292 247.064 47.4298 246.492 48.4178C245.92 49.3885 245.14 50.1598 244.152 50.7318C243.181 51.3038 242.098 51.5898 240.902 51.5898ZM240.902 49.3278C241.682 49.3278 242.375 49.1458 242.982 48.7818C243.588 48.4178 244.065 47.9238 244.412 47.2998C244.758 46.6585 244.932 45.9305 244.932 45.1158C244.932 44.3185 244.75 43.6078 244.386 42.9838C244.039 42.3598 243.562 41.8745 242.956 41.5278C242.366 41.1638 241.682 40.9818 240.902 40.9818C240.122 40.9818 239.428 41.1638 238.822 41.5278C238.215 41.8745 237.738 42.3598 237.392 42.9838C237.045 43.6078 236.872 44.3185 236.872 45.1158C236.872 45.9305 237.045 46.6585 237.392 47.2998C237.738 47.9238 238.215 48.4178 238.822 48.7818C239.428 49.1458 240.122 49.3278 240.902 49.3278ZM258.722 51.3298V44.1278C258.722 43.1918 258.427 42.4205 257.838 41.8138C257.249 41.2072 256.486 40.9038 255.55 40.9038C254.926 40.9038 254.371 41.0425 253.886 41.3198C253.401 41.5972 253.019 41.9785 252.742 42.4638C252.465 42.9492 252.326 43.5038 252.326 44.1278L251.364 43.5818C251.364 42.6458 251.572 41.8138 251.988 41.0858C252.404 40.3578 252.985 39.7858 253.73 39.3698C254.475 38.9365 255.316 38.7198 256.252 38.7198C257.188 38.7198 258.011 38.9538 258.722 39.4218C259.45 39.8898 260.022 40.5052 260.438 41.2678C260.854 42.0132 261.062 42.8105 261.062 43.6598V51.3298H258.722ZM249.986 51.3298V38.9798H252.326V51.3298H249.986ZM265.976 51.3298V33.8058H268.316V51.3298H265.976ZM262.934 41.1118V38.9798H271.358V41.1118H262.934ZM278.989 51.5898C277.759 51.5898 276.649 51.3125 275.661 50.7578C274.673 50.1858 273.893 49.4145 273.321 48.4438C272.749 47.4732 272.463 46.3725 272.463 45.1418C272.463 43.9285 272.741 42.8365 273.295 41.8658C273.867 40.8952 274.63 40.1325 275.583 39.5778C276.554 39.0058 277.637 38.7198 278.833 38.7198C279.977 38.7198 280.983 38.9798 281.849 39.4998C282.733 40.0198 283.418 40.7392 283.903 41.6578C284.406 42.5765 284.657 43.6165 284.657 44.7778C284.657 44.9512 284.649 45.1418 284.631 45.3498C284.614 45.5405 284.579 45.7658 284.527 46.0258H274.101V44.0758H283.279L282.421 44.8298C282.421 43.9978 282.274 43.2958 281.979 42.7238C281.685 42.1345 281.269 41.6838 280.731 41.3718C280.194 41.0425 279.544 40.8778 278.781 40.8778C277.984 40.8778 277.282 41.0512 276.675 41.3978C276.069 41.7445 275.601 42.2298 275.271 42.8538C274.942 43.4778 274.777 44.2145 274.777 45.0638C274.777 45.9305 274.951 46.6932 275.297 47.3518C275.644 47.9932 276.138 48.4958 276.779 48.8598C277.421 49.2065 278.157 49.3798 278.989 49.3798C279.683 49.3798 280.315 49.2585 280.887 49.0158C281.477 48.7732 281.979 48.4092 282.395 47.9238L283.903 49.4578C283.314 50.1512 282.586 50.6798 281.719 51.0438C280.87 51.4078 279.96 51.5898 278.989 51.5898ZM295.945 51.3298V44.1278C295.945 43.1918 295.65 42.4205 295.061 41.8138C294.471 41.2072 293.709 40.9038 292.773 40.9038C292.149 40.9038 291.594 41.0425 291.109 41.3198C290.623 41.5972 290.242 41.9785 289.965 42.4638C289.687 42.9492 289.549 43.5038 289.549 44.1278L288.587 43.5818C288.587 42.6458 288.795 41.8138 289.211 41.0858C289.627 40.3578 290.207 39.7858 290.953 39.3698C291.698 38.9365 292.539 38.7198 293.475 38.7198C294.411 38.7198 295.234 38.9538 295.945 39.4218C296.673 39.8898 297.245 40.5052 297.661 41.2678C298.077 42.0132 298.285 42.8105 298.285 43.6598V51.3298H295.945ZM287.209 51.3298V38.9798H289.549V51.3298H287.209ZM303.199 51.3298V33.8058H305.539V51.3298H303.199ZM300.157 41.1118V38.9798H308.581V41.1118H300.157ZM320.337 51.4338L314.981 38.9798H317.581L321.559 48.7298H320.727L324.913 38.9798H327.513L321.741 51.4338H320.337ZM316.801 56.5038L320.441 49.0418L321.741 51.4338L319.401 56.5038H316.801ZM334.593 51.5898C333.38 51.5898 332.288 51.3038 331.317 50.7318C330.346 50.1598 329.575 49.3885 329.003 48.4178C328.431 47.4298 328.145 46.3292 328.145 45.1158C328.145 43.9198 328.431 42.8452 329.003 41.8918C329.575 40.9212 330.346 40.1498 331.317 39.5778C332.288 39.0058 333.38 38.7198 334.593 38.7198C335.789 38.7198 336.872 39.0058 337.843 39.5778C338.831 40.1325 339.611 40.8952 340.183 41.8658C340.755 42.8365 341.041 43.9198 341.041 45.1158C341.041 46.3292 340.755 47.4298 340.183 48.4178C339.611 49.3885 338.831 50.1598 337.843 50.7318C336.872 51.3038 335.789 51.5898 334.593 51.5898ZM334.593 49.3278C335.373 49.3278 336.066 49.1458 336.673 48.7818C337.28 48.4178 337.756 47.9238 338.103 47.2998C338.45 46.6585 338.623 45.9305 338.623 45.1158C338.623 44.3185 338.441 43.6078 338.077 42.9838C337.73 42.3598 337.254 41.8745 336.647 41.5278C336.058 41.1638 335.373 40.9818 334.593 40.9818C333.813 40.9818 333.12 41.1638 332.513 41.5278C331.906 41.8745 331.43 42.3598 331.083 42.9838C330.736 43.6078 330.563 44.3185 330.563 45.1158C330.563 45.9305 330.736 46.6585 331.083 47.2998C331.43 47.9238 331.906 48.4178 332.513 48.7818C333.12 49.1458 333.813 49.3278 334.593 49.3278ZM348.67 51.5898C347.647 51.5898 346.728 51.3645 345.914 50.9138C345.116 50.4458 344.492 49.8045 344.042 48.9898C343.591 48.1752 343.366 47.2305 343.366 46.1558V38.9798H345.706V46.0518C345.706 46.7278 345.818 47.3172 346.044 47.8198C346.286 48.3052 346.633 48.6778 347.084 48.9378C347.534 49.1978 348.063 49.3278 348.67 49.3278C349.588 49.3278 350.308 49.0418 350.828 48.4698C351.348 47.8805 351.608 47.0745 351.608 46.0518V38.9798H353.948V46.1558C353.948 47.2305 353.722 48.1752 353.272 48.9898C352.821 49.8045 352.197 50.4458 351.4 50.9138C350.62 51.3645 349.71 51.5898 348.67 51.5898ZM362.492 51.3298V32.7658H364.832V51.3298H362.492ZM373.898 51.5898C372.684 51.5898 371.592 51.3038 370.622 50.7318C369.651 50.1598 368.88 49.3885 368.308 48.4178C367.736 47.4298 367.45 46.3292 367.45 45.1158C367.45 43.9198 367.736 42.8452 368.308 41.8918C368.88 40.9212 369.651 40.1498 370.622 39.5778C371.592 39.0058 372.684 38.7198 373.898 38.7198C375.094 38.7198 376.177 39.0058 377.148 39.5778C378.136 40.1325 378.916 40.8952 379.488 41.8658C380.06 42.8365 380.346 43.9198 380.346 45.1158C380.346 46.3292 380.06 47.4298 379.488 48.4178C378.916 49.3885 378.136 50.1598 377.148 50.7318C376.177 51.3038 375.094 51.5898 373.898 51.5898ZM373.898 49.3278C374.678 49.3278 375.371 49.1458 375.978 48.7818C376.584 48.4178 377.061 47.9238 377.408 47.2998C377.754 46.6585 377.928 45.9305 377.928 45.1158C377.928 44.3185 377.746 43.6078 377.382 42.9838C377.035 42.3598 376.558 41.8745 375.952 41.5278C375.362 41.1638 374.678 40.9818 373.898 40.9818C373.118 40.9818 372.424 41.1638 371.818 41.5278C371.211 41.8745 370.734 42.3598 370.388 42.9838C370.041 43.6078 369.868 44.3185 369.868 45.1158C369.868 45.9305 370.041 46.6585 370.388 47.2998C370.734 47.9238 371.211 48.4178 371.818 48.7818C372.424 49.1458 373.118 49.3278 373.898 49.3278ZM386.763 51.3298L381.095 38.9798H383.695L388.245 49.4058H386.737L391.313 38.9798H393.809L388.141 51.3298H386.763ZM401.067 51.5898C399.837 51.5898 398.727 51.3125 397.739 50.7578C396.751 50.1858 395.971 49.4145 395.399 48.4438C394.827 47.4732 394.541 46.3725 394.541 45.1418C394.541 43.9285 394.819 42.8365 395.373 41.8658C395.945 40.8952 396.708 40.1325 397.661 39.5778C398.632 39.0058 399.715 38.7198 400.911 38.7198C402.055 38.7198 403.061 38.9798 403.927 39.4998C404.811 40.0198 405.496 40.7392 405.981 41.6578C406.484 42.5765 406.735 43.6165 406.735 44.7778C406.735 44.9512 406.727 45.1418 406.709 45.3498C406.692 45.5405 406.657 45.7658 406.605 46.0258H396.179V44.0758H405.357L404.499 44.8298C404.499 43.9978 404.352 43.2958 404.057 42.7238C403.763 42.1345 403.347 41.6838 402.809 41.3718C402.272 41.0425 401.622 40.8778 400.859 40.8778C400.062 40.8778 399.36 41.0512 398.753 41.3978C398.147 41.7445 397.679 42.2298 397.349 42.8538C397.02 43.4778 396.855 44.2145 396.855 45.0638C396.855 45.9305 397.029 46.6932 397.375 47.3518C397.722 47.9932 398.216 48.4958 398.857 48.8598C399.499 49.2065 400.235 49.3798 401.067 49.3798C401.761 49.3798 402.393 49.2585 402.965 49.0158C403.555 48.7732 404.057 48.4092 404.473 47.9238L405.981 49.4578C405.392 50.1512 404.664 50.6798 403.797 51.0438C402.948 51.4078 402.038 51.5898 401.067 51.5898Z" fill="white"/>
</svg>
