<svg width="292" height="83" viewBox="0 0 292 83" fill="none" xmlns="http://www.w3.org/2000/svg">
<path d="M41.0474 77.3203C63.0849 71.9391 62.3162 43.2391 62.3162 43.2391L51.1693 32.4766H30.9255L19.7787 43.2391C19.7787 43.2391 19.0099 71.9391 41.0474 77.3203Z" stroke="white" stroke-width="2.5625" stroke-miterlimit="10" stroke-linecap="round" stroke-linejoin="round"/>
<path d="M29.3881 27.0955C35.7943 20.6892 46.3006 20.6892 52.7068 27.0955" stroke="white" stroke-width="2.5625" stroke-miterlimit="10" stroke-linecap="round" stroke-linejoin="round"/>
<path d="M23.3661 21.4579C33.1036 11.7204 48.863 11.7204 58.6005 21.4579" stroke="white" stroke-width="2.5625" stroke-miterlimit="10" stroke-linecap="round" stroke-linejoin="round"/>
<path d="M17.4723 16.0765C30.541 3.00771 51.6817 3.00771 64.7504 16.0765" stroke="white" stroke-width="2.5625" stroke-miterlimit="10" stroke-linecap="round" stroke-linejoin="round"/>
<path d="M35.1536 49.5173L31.5661 57.9736L27.9786 49.5173" stroke="white" stroke-width="2.5625" stroke-miterlimit="10" stroke-linecap="round" stroke-linejoin="round"/>
<path d="M38.613 57.9736V49.5173H42.5849C43.738 49.5173 44.763 50.4142 44.763 51.6955C44.763 52.8486 43.8662 53.8736 42.5849 53.8736H38.613" stroke="white" stroke-width="2.5625" stroke-miterlimit="10" stroke-linecap="round" stroke-linejoin="round"/>
<path d="M48.0941 57.9736V49.5173L54.116 57.9736V49.5173" stroke="white" stroke-width="2.5625" stroke-miterlimit="10" stroke-linecap="round" stroke-linejoin="round"/>
<path d="M104.369 51.5898C103.069 51.5898 101.865 51.3558 100.755 50.8878C99.6462 50.4025 98.6755 49.7352 97.8435 48.8858C97.0288 48.0365 96.3962 47.0485 95.9455 45.9218C95.4948 44.7952 95.2695 43.5905 95.2695 42.3078C95.2695 41.0078 95.4948 39.7945 95.9455 38.6678C96.3962 37.5412 97.0288 36.5618 97.8435 35.7298C98.6755 34.8805 99.6375 34.2218 100.729 33.7538C101.839 33.2685 103.043 33.0258 104.343 33.0258C105.765 33.0258 107.013 33.2685 108.087 33.7538C109.162 34.2392 110.115 34.8978 110.947 35.7298L109.257 37.4198C108.685 36.7785 107.983 36.2758 107.151 35.9118C106.337 35.5478 105.401 35.3658 104.343 35.3658C103.39 35.3658 102.515 35.5392 101.717 35.8858C100.92 36.2152 100.227 36.6918 99.6375 37.3158C99.0482 37.9398 98.5888 38.6765 98.2595 39.5258C97.9475 40.3752 97.7915 41.3025 97.7915 42.3078C97.7915 43.3132 97.9475 44.2405 98.2595 45.0898C98.5888 45.9392 99.0482 46.6758 99.6375 47.2998C100.227 47.9238 100.92 48.4092 101.717 48.7558C102.515 49.0852 103.39 49.2498 104.343 49.2498C105.47 49.2498 106.449 49.0678 107.281 48.7038C108.113 48.3225 108.815 47.8112 109.387 47.1698L111.077 48.8338C110.245 49.7005 109.266 50.3765 108.139 50.8618C107.03 51.3472 105.773 51.5898 104.369 51.5898ZM118.9 51.5898C117.686 51.5898 116.594 51.3038 115.624 50.7318C114.653 50.1598 113.882 49.3885 113.31 48.4178C112.738 47.4298 112.452 46.3292 112.452 45.1158C112.452 43.9198 112.738 42.8452 113.31 41.8918C113.882 40.9212 114.653 40.1498 115.624 39.5778C116.594 39.0058 117.686 38.7198 118.9 38.7198C120.096 38.7198 121.179 39.0058 122.15 39.5778C123.138 40.1325 123.918 40.8952 124.49 41.8658C125.062 42.8365 125.348 43.9198 125.348 45.1158C125.348 46.3292 125.062 47.4298 124.49 48.4178C123.918 49.3885 123.138 50.1598 122.15 50.7318C121.179 51.3038 120.096 51.5898 118.9 51.5898ZM118.9 49.3278C119.68 49.3278 120.373 49.1458 120.98 48.7818C121.586 48.4178 122.063 47.9238 122.41 47.2998C122.756 46.6585 122.93 45.9305 122.93 45.1158C122.93 44.3185 122.748 43.6078 122.384 42.9838C122.037 42.3598 121.56 41.8745 120.954 41.5278C120.364 41.1638 119.68 40.9818 118.9 40.9818C118.12 40.9818 117.426 41.1638 116.82 41.5278C116.213 41.8745 115.736 42.3598 115.39 42.9838C115.043 43.6078 114.87 44.3185 114.87 45.1158C114.87 45.9305 115.043 46.6585 115.39 47.2998C115.736 47.9238 116.213 48.4178 116.82 48.7818C117.426 49.1458 118.12 49.3278 118.9 49.3278ZM136.72 51.3298V44.1278C136.72 43.1918 136.426 42.4205 135.836 41.8138C135.247 41.2072 134.484 40.9038 133.548 40.9038C132.924 40.9038 132.37 41.0425 131.884 41.3198C131.399 41.5972 131.018 41.9785 130.74 42.4638C130.463 42.9492 130.324 43.5038 130.324 44.1278L129.362 43.5818C129.362 42.6458 129.57 41.8138 129.986 41.0858C130.402 40.3578 130.983 39.7858 131.728 39.3698C132.474 38.9365 133.314 38.7198 134.25 38.7198C135.186 38.7198 136.01 38.9538 136.72 39.4218C137.448 39.8898 138.02 40.5052 138.436 41.2678C138.852 42.0132 139.06 42.8105 139.06 43.6598V51.3298H136.72ZM127.984 51.3298V38.9798H130.324V51.3298H127.984ZM150.964 51.3298V44.1278C150.964 43.1918 150.67 42.4205 150.08 41.8138C149.491 41.2072 148.728 40.9038 147.792 40.9038C147.168 40.9038 146.614 41.0425 146.128 41.3198C145.643 41.5972 145.262 41.9785 144.984 42.4638C144.707 42.9492 144.568 43.5038 144.568 44.1278L143.606 43.5818C143.606 42.6458 143.814 41.8138 144.23 41.0858C144.646 40.3578 145.227 39.7858 145.972 39.3698C146.718 38.9365 147.558 38.7198 148.494 38.7198C149.43 38.7198 150.254 38.9538 150.964 39.4218C151.692 39.8898 152.264 40.5052 152.68 41.2678C153.096 42.0132 153.304 42.8105 153.304 43.6598V51.3298H150.964ZM142.228 51.3298V38.9798H144.568V51.3298H142.228ZM162.192 51.5898C160.962 51.5898 159.852 51.3125 158.864 50.7578C157.876 50.1858 157.096 49.4145 156.524 48.4438C155.952 47.4732 155.666 46.3725 155.666 45.1418C155.666 43.9285 155.944 42.8365 156.498 41.8658C157.07 40.8952 157.833 40.1325 158.786 39.5778C159.757 39.0058 160.84 38.7198 162.036 38.7198C163.18 38.7198 164.186 38.9798 165.052 39.4998C165.936 40.0198 166.621 40.7392 167.106 41.6578C167.609 42.5765 167.86 43.6165 167.86 44.7778C167.86 44.9512 167.852 45.1418 167.834 45.3498C167.817 45.5405 167.782 45.7658 167.73 46.0258H157.304V44.0758H166.482L165.624 44.8298C165.624 43.9978 165.477 43.2958 165.182 42.7238C164.888 42.1345 164.472 41.6838 163.934 41.3718C163.397 41.0425 162.747 40.8778 161.984 40.8778C161.187 40.8778 160.485 41.0512 159.878 41.3978C159.272 41.7445 158.804 42.2298 158.474 42.8538C158.145 43.4778 157.98 44.2145 157.98 45.0638C157.98 45.9305 158.154 46.6932 158.5 47.3518C158.847 47.9932 159.341 48.4958 159.982 48.8598C160.624 49.2065 161.36 49.3798 162.192 49.3798C162.886 49.3798 163.518 49.2585 164.09 49.0158C164.68 48.7732 165.182 48.4092 165.598 47.9238L167.106 49.4578C166.517 50.1512 165.789 50.6798 164.922 51.0438C164.073 51.4078 163.163 51.5898 162.192 51.5898ZM176.054 51.5898C174.841 51.5898 173.74 51.3038 172.752 50.7318C171.781 50.1598 171.01 49.3885 170.438 48.4178C169.883 47.4298 169.606 46.3378 169.606 45.1418C169.606 43.9285 169.883 42.8365 170.438 41.8658C171.01 40.8952 171.781 40.1325 172.752 39.5778C173.74 39.0058 174.841 38.7198 176.054 38.7198C177.007 38.7198 177.891 38.9018 178.706 39.2658C179.521 39.6125 180.223 40.1238 180.812 40.7998L179.252 42.3598C178.871 41.9092 178.403 41.5712 177.848 41.3458C177.311 41.1032 176.713 40.9818 176.054 40.9818C175.274 40.9818 174.581 41.1638 173.974 41.5278C173.367 41.8745 172.891 42.3598 172.544 42.9838C172.197 43.6078 172.024 44.3272 172.024 45.1418C172.024 45.9565 172.197 46.6758 172.544 47.2998C172.891 47.9238 173.367 48.4178 173.974 48.7818C174.581 49.1458 175.274 49.3278 176.054 49.3278C176.713 49.3278 177.311 49.2152 177.848 48.9898C178.403 48.7472 178.879 48.4005 179.278 47.9498L180.812 49.5098C180.24 50.1685 179.538 50.6798 178.706 51.0438C177.891 51.4078 177.007 51.5898 176.054 51.5898ZM184.878 51.3298V33.8058H187.218V51.3298H184.878ZM181.836 41.1118V38.9798H190.26V41.1118H181.836ZM201.887 51.5898C201.193 51.5898 200.535 51.5032 199.911 51.3298C199.304 51.1392 198.741 50.8792 198.221 50.5498C197.701 50.2032 197.25 49.7958 196.869 49.3278L198.377 47.8198C198.827 48.3745 199.347 48.7905 199.937 49.0678C200.526 49.3278 201.185 49.4578 201.913 49.4578C202.641 49.4578 203.204 49.3365 203.603 49.0938C204.001 48.8338 204.201 48.4785 204.201 48.0278C204.201 47.5772 204.036 47.2305 203.707 46.9878C203.395 46.7278 202.987 46.5198 202.485 46.3638C201.982 46.1905 201.445 46.0258 200.873 45.8698C200.318 45.6965 199.789 45.4798 199.287 45.2198C198.784 44.9598 198.368 44.6045 198.039 44.1538C197.727 43.7032 197.571 43.1052 197.571 42.3598C197.571 41.6145 197.753 40.9732 198.117 40.4358C198.481 39.8812 198.983 39.4565 199.625 39.1618C200.283 38.8672 201.072 38.7198 201.991 38.7198C202.961 38.7198 203.819 38.8932 204.565 39.2398C205.327 39.5692 205.951 40.0718 206.437 40.7478L204.929 42.2558C204.582 41.8052 204.149 41.4585 203.629 41.2158C203.126 40.9732 202.554 40.8518 201.913 40.8518C201.237 40.8518 200.717 40.9732 200.353 41.2158C200.006 41.4412 199.833 41.7618 199.833 42.1778C199.833 42.5938 199.989 42.9145 200.301 43.1398C200.613 43.3652 201.02 43.5558 201.523 43.7118C202.043 43.8678 202.58 44.0325 203.135 44.2058C203.689 44.3618 204.218 44.5785 204.721 44.8558C205.223 45.1332 205.631 45.5058 205.943 45.9738C206.272 46.4418 206.437 47.0572 206.437 47.8198C206.437 48.9812 206.021 49.8998 205.189 50.5758C204.374 51.2518 203.273 51.5898 201.887 51.5898ZM214.776 51.5898C213.546 51.5898 212.436 51.3125 211.448 50.7578C210.46 50.1858 209.68 49.4145 209.108 48.4438C208.536 47.4732 208.25 46.3725 208.25 45.1418C208.25 43.9285 208.528 42.8365 209.082 41.8658C209.654 40.8952 210.417 40.1325 211.37 39.5778C212.341 39.0058 213.424 38.7198 214.62 38.7198C215.764 38.7198 216.77 38.9798 217.636 39.4998C218.52 40.0198 219.205 40.7392 219.69 41.6578C220.193 42.5765 220.444 43.6165 220.444 44.7778C220.444 44.9512 220.436 45.1418 220.418 45.3498C220.401 45.5405 220.366 45.7658 220.314 46.0258H209.888V44.0758H219.066L218.208 44.8298C218.208 43.9978 218.061 43.2958 217.766 42.7238C217.472 42.1345 217.056 41.6838 216.518 41.3718C215.981 41.0425 215.331 40.8778 214.568 40.8778C213.771 40.8778 213.069 41.0512 212.462 41.3978C211.856 41.7445 211.388 42.2298 211.058 42.8538C210.729 43.4778 210.564 44.2145 210.564 45.0638C210.564 45.9305 210.738 46.6932 211.084 47.3518C211.431 47.9932 211.925 48.4958 212.566 48.8598C213.208 49.2065 213.944 49.3798 214.776 49.3798C215.47 49.3798 216.102 49.2585 216.674 49.0158C217.264 48.7732 217.766 48.4092 218.182 47.9238L219.69 49.4578C219.101 50.1512 218.373 50.6798 217.506 51.0438C216.657 51.4078 215.747 51.5898 214.776 51.5898ZM228.638 51.5898C227.425 51.5898 226.324 51.3038 225.336 50.7318C224.365 50.1598 223.594 49.3885 223.022 48.4178C222.467 47.4298 222.19 46.3378 222.19 45.1418C222.19 43.9285 222.467 42.8365 223.022 41.8658C223.594 40.8952 224.365 40.1325 225.336 39.5778C226.324 39.0058 227.425 38.7198 228.638 38.7198C229.591 38.7198 230.475 38.9018 231.29 39.2658C232.105 39.6125 232.807 40.1238 233.396 40.7998L231.836 42.3598C231.455 41.9092 230.987 41.5712 230.432 41.3458C229.895 41.1032 229.297 40.9818 228.638 40.9818C227.858 40.9818 227.165 41.1638 226.558 41.5278C225.951 41.8745 225.475 42.3598 225.128 42.9838C224.781 43.6078 224.608 44.3272 224.608 45.1418C224.608 45.9565 224.781 46.6758 225.128 47.2998C225.475 47.9238 225.951 48.4178 226.558 48.7818C227.165 49.1458 227.858 49.3278 228.638 49.3278C229.297 49.3278 229.895 49.2152 230.432 48.9898C230.987 48.7472 231.463 48.4005 231.862 47.9498L233.396 49.5098C232.824 50.1685 232.122 50.6798 231.29 51.0438C230.475 51.4078 229.591 51.5898 228.638 51.5898ZM240.709 51.5898C239.686 51.5898 238.767 51.3645 237.953 50.9138C237.155 50.4458 236.531 49.8045 236.081 48.9898C235.63 48.1752 235.405 47.2305 235.405 46.1558V38.9798H237.745V46.0518C237.745 46.7278 237.857 47.3172 238.083 47.8198C238.325 48.3052 238.672 48.6778 239.123 48.9378C239.573 49.1978 240.102 49.3278 240.709 49.3278C241.627 49.3278 242.347 49.0418 242.867 48.4698C243.387 47.8805 243.647 47.0745 243.647 46.0518V38.9798H245.987V46.1558C245.987 47.2305 245.761 48.1752 245.311 48.9898C244.86 49.8045 244.236 50.4458 243.439 50.9138C242.659 51.3645 241.749 51.5898 240.709 51.5898ZM249.123 51.3298V38.9798H251.463V51.3298H249.123ZM251.463 44.2838L250.579 43.8938C250.579 42.3165 250.943 41.0598 251.671 40.1238C252.399 39.1878 253.448 38.7198 254.817 38.7198C255.441 38.7198 256.004 38.8325 256.507 39.0578C257.01 39.2658 257.478 39.6212 257.911 40.1238L256.377 41.7098C256.117 41.4325 255.831 41.2332 255.519 41.1118C255.207 40.9905 254.843 40.9298 254.427 40.9298C253.56 40.9298 252.85 41.2072 252.295 41.7618C251.74 42.3165 251.463 43.1572 251.463 44.2838ZM264.872 51.5898C263.641 51.5898 262.532 51.3125 261.544 50.7578C260.556 50.1858 259.776 49.4145 259.204 48.4438C258.632 47.4732 258.346 46.3725 258.346 45.1418C258.346 43.9285 258.623 42.8365 259.178 41.8658C259.75 40.8952 260.513 40.1325 261.466 39.5778C262.437 39.0058 263.52 38.7198 264.716 38.7198C265.86 38.7198 266.865 38.9798 267.732 39.4998C268.616 40.0198 269.301 40.7392 269.786 41.6578C270.289 42.5765 270.54 43.6165 270.54 44.7778C270.54 44.9512 270.531 45.1418 270.514 45.3498C270.497 45.5405 270.462 45.7658 270.41 46.0258H259.984V44.0758H269.162L268.304 44.8298C268.304 43.9978 268.157 43.2958 267.862 42.7238C267.567 42.1345 267.151 41.6838 266.614 41.3718C266.077 41.0425 265.427 40.8778 264.664 40.8778C263.867 40.8778 263.165 41.0512 262.558 41.3978C261.951 41.7445 261.483 42.2298 261.154 42.8538C260.825 43.4778 260.66 44.2145 260.66 45.0638C260.66 45.9305 260.833 46.6932 261.18 47.3518C261.527 47.9932 262.021 48.4958 262.662 48.8598C263.303 49.2065 264.04 49.3798 264.872 49.3798C265.565 49.3798 266.198 49.2585 266.77 49.0158C267.359 48.7732 267.862 48.4092 268.278 47.9238L269.786 49.4578C269.197 50.1512 268.469 50.6798 267.602 51.0438C266.753 51.4078 265.843 51.5898 264.872 51.5898ZM273.092 51.3298V32.7658H275.432V51.3298H273.092ZM282.911 51.4338L277.555 38.9798H280.155L284.133 48.7298H283.301L287.487 38.9798H290.087L284.315 51.4338H282.911ZM279.375 56.5038L283.015 49.0418L284.315 51.4338L281.975 56.5038H279.375Z" fill="white"/>
</svg>
