<svg width="85" height="85" viewBox="0 0 85 85" fill="none" xmlns="http://www.w3.org/2000/svg">
<path d="M38.2293 5.61134C35.3397 6.13939 33.4768 6.77011 30.9833 8.04623C24.236 11.4932 19.5569 17.6685 17.8847 25.2812C17.5914 26.66 17.5474 27.2027 17.5474 30.415C17.562 34.434 17.7234 35.5781 18.7355 38.6291C20.2023 43.0588 22.5198 46.7258 29.4431 55.6147C31.4967 58.2402 33.1395 60.4111 33.1101 60.4404C33.0808 60.4698 32.1127 60.6898 30.9393 60.9245C24.2213 62.2886 19.5862 64.7528 17.9727 67.8185C17.5767 68.5519 17.5474 68.7572 17.5474 70.1653C17.5474 71.6321 17.562 71.7495 18.0461 72.6296C19.6889 75.6512 24.5293 78.1741 31.2033 79.4649C35.281 80.2423 36.6598 80.3596 42.4097 80.3596C48.1595 80.3596 49.5383 80.2423 53.616 79.4649C60.3193 78.1594 65.1305 75.6658 66.7733 72.6296C67.2573 71.7495 67.272 71.6321 67.272 70.1653C67.272 68.6985 67.2573 68.5812 66.7733 67.7011C65.1305 64.6795 60.554 62.2739 53.8801 60.9245C52.7066 60.6898 51.7385 60.4698 51.7092 60.4404C51.6799 60.4111 52.4279 59.399 53.3667 58.1962C61.3314 48.0606 63.8103 44.3789 65.5265 40.0812C66.3186 38.1157 66.964 35.6808 67.1986 33.7446C67.4627 31.6324 67.316 27.0853 66.9053 25.2078C64.8224 15.4096 57.3124 7.89955 47.4701 5.75802C45.3433 5.30331 40.3415 5.2153 38.2293 5.61134ZM45.4166 8.57428C52.0466 9.4397 58.1045 13.6054 61.5661 19.6633C62.4462 21.2035 63.3263 23.5063 63.7957 25.4865C64.1624 26.9973 64.1917 27.3494 64.1917 30.3416C64.177 33.3046 64.1477 33.7006 63.7957 35.1821C63.0329 38.4384 61.6395 41.4747 59.3219 45.0097C57.7084 47.4592 56.0216 49.7181 51.2252 55.864C49.0836 58.6069 46.2527 62.3033 44.9326 64.0781C43.5978 65.8529 42.4683 67.3051 42.395 67.3051C42.3363 67.3051 41.7056 66.513 41.0015 65.5449C39.3294 63.2567 36.1318 59.0763 32.7434 54.7639C31.2473 52.8717 29.3698 50.4222 28.5484 49.3367C23.5613 42.7215 21.5811 38.8051 20.7743 33.9646C20.393 31.7351 20.525 27.5694 21.0384 25.4132C22.0211 21.3061 24.0306 17.7271 27.0082 14.7642C31.9367 9.87974 38.4933 7.67953 45.4166 8.57428ZM36.3958 64.5622C36.9092 65.2662 38.1559 66.953 39.1534 68.3318C41.5296 71.6028 41.5589 71.6321 42.4097 71.6321C43.2311 71.6321 43.3924 71.4855 45.3433 68.7719C46.106 67.7158 47.3381 66.073 48.0862 65.0902L49.4357 63.3154L50.7411 63.5061C58.3978 64.6502 64.265 67.5104 64.265 70.136C64.265 70.9867 64.001 71.4268 62.9743 72.3802C59.7326 75.3725 51.5039 77.3673 42.4097 77.3673C34.9436 77.3673 28.3137 76.1059 24.016 73.8617C22.6518 73.1576 21.141 71.8962 20.7597 71.1774C20.481 70.62 20.4956 69.5786 20.8037 69.1386C22.5932 66.4397 27.6683 64.4155 35.369 63.3007C35.413 63.286 35.8677 63.8581 36.3958 64.5622Z" fill="white" stroke="#020617" stroke-width="0.6"/>
<path d="M41.5736 11.4638C41.1776 11.7572 40.9429 12.4613 41.0456 13.004C41.2656 14.1187 42.8351 14.5588 43.6272 13.7227C44.1992 13.136 44.1845 12.1532 43.6125 11.5958C43.1138 11.1118 42.1017 11.0531 41.5736 11.4638Z" fill="white" stroke="#020617" stroke-width="0.6"/>
<path d="M47.2506 12.6373C46.4438 13.4587 46.7518 14.7201 47.8666 15.1602C53.0591 17.2137 56.6234 21.1887 57.9729 26.4252C58.1342 27.0413 58.3249 28.3467 58.3983 29.3001C58.5156 30.9136 58.5596 31.075 58.9263 31.4563C59.2637 31.8084 59.4544 31.8817 60.0117 31.8817C60.5691 31.8817 60.7598 31.8084 61.0825 31.471C61.4492 31.0896 61.4785 30.9723 61.4785 29.6522C61.4785 27.1879 60.7158 24.049 59.557 21.7314C58.2662 19.1499 55.9194 16.3776 53.6018 14.7348C51.8417 13.4733 49.4948 12.3439 48.4827 12.2559C47.7639 12.1972 47.6613 12.2266 47.2506 12.6373Z" fill="white" stroke="#020617" stroke-width="0.6"/>
<path d="M39.8423 20.2353C39.3583 20.3527 38.4049 20.7194 37.7155 21.0567C36.7034 21.5555 36.2193 21.9222 35.1485 23.0076C33.007 25.1345 32.1416 27.2173 32.1416 30.2683C32.1416 32.1751 32.4056 33.3486 33.1977 34.962C33.6964 35.9741 34.0631 36.4582 35.1485 37.5289C37.2754 39.6705 39.3583 40.5359 42.4092 40.5359C44.3161 40.5359 45.4895 40.2719 47.103 39.4798C48.1151 38.9811 48.5991 38.6144 49.6699 37.5289C51.8114 35.4021 52.6768 33.3192 52.6768 30.2683C52.6768 28.3614 52.4128 27.188 51.6207 25.5745C51.122 24.5624 50.7553 24.0784 49.6699 23.0076C47.5137 20.8367 45.4455 20.0006 42.3359 20.0153C41.4558 20.0153 40.3264 20.118 39.8423 20.2353ZM45.3868 23.697C46.9563 24.4451 48.2324 25.7212 48.9658 27.2907C49.4645 28.3174 49.5232 28.5814 49.5672 29.8429C49.6699 32.1311 49.0392 33.7886 47.4844 35.3434C46.5603 36.2675 45.3282 37.0009 44.1987 37.3089C43.3333 37.5289 41.3091 37.4996 40.4877 37.2503C38.4489 36.6195 36.762 35.1674 35.8379 33.2459C35.2952 32.1164 35.2952 32.0871 35.2952 30.2683C35.2952 28.4494 35.2952 28.4201 35.8379 27.2907C36.7327 25.4132 38.4195 23.9463 40.429 23.2863C40.8104 23.1543 41.5878 23.0956 42.6292 23.1249C44.1547 23.1543 44.3014 23.1836 45.3868 23.697Z" fill="white" stroke="#020617" stroke-width="0.6"/>
</svg>
