<svg width="184" height="61" viewBox="0 0 184 61" fill="none" xmlns="http://www.w3.org/2000/svg">
<rect x="0.9104" y="0.15625" width="182.881" height="60.3179" rx="15" fill="white"/>
<g clip-path="url(#clip0_276_508)">
<path fill-rule="evenodd" clip-rule="evenodd" d="M65.531 16.282C65.531 15.1849 66.4301 14.2954 67.5394 14.2954H71.0382C71.8276 14.2954 72.5927 14.566 73.2031 15.0612L74.2675 15.9246L74.2941 15.9486C74.3187 15.9404 74.3432 15.9324 74.3678 15.9246C76.288 15.3162 78.6178 15.2005 80.9956 15.2005C83.3734 15.2005 85.7031 15.3162 87.6233 15.9246C87.6479 15.9324 87.6725 15.9404 87.697 15.9486L87.7236 15.9246L88.788 15.0612C89.3984 14.566 90.1635 14.2954 90.953 14.2954H94.4517C95.561 14.2954 96.4601 15.1849 96.4601 16.282V17.5101C96.4601 18.4603 96.0555 19.3665 95.3454 20.0065L94.4868 20.7804C94.0676 21.1582 93.5645 21.4331 93.0181 21.583L92.815 21.6387C93.6106 23.5165 94.0501 25.5238 94.0501 27.1475C94.0501 33.6793 89.9644 36.5002 86.3644 38.9858C83.5293 40.9433 80.9956 42.6927 80.9956 45.8827C80.9956 42.6927 78.4618 40.9433 75.6268 38.9858C72.0268 36.5002 67.941 33.6793 67.941 27.1475C67.941 25.5238 68.3806 23.5165 69.1762 21.6387L68.9731 21.583C68.4266 21.4331 67.9235 21.1582 67.5043 20.7804L66.6457 20.0065C65.9356 19.3665 65.531 18.4603 65.531 17.5101V16.282ZM83.6065 32.4875C83.6065 32.7996 83.4689 33.0988 83.2241 33.3195C82.9793 33.5401 82.6473 33.6641 82.301 33.6641C82.0021 33.6641 81.7137 33.5716 81.483 33.4044C81.8757 34.4444 82.8809 35.4298 84.4098 33.8451C85.7595 32.3726 84.3498 29.2668 82.9764 27.4239C82.5186 26.8096 81.7671 26.5139 80.9956 26.5139C80.224 26.5139 79.4725 26.8096 79.0147 27.4239C77.6413 29.2668 76.2316 32.3726 77.5813 33.8451C79.1102 35.4298 80.1154 34.4444 80.5082 33.4044C80.2774 33.5716 79.989 33.6641 79.6901 33.6641C79.3439 33.6641 79.0118 33.5401 78.767 33.3195C78.5222 33.0988 78.3846 32.7996 78.3846 32.4875H83.6065ZM75.9963 23.2939H72.3595L75.2257 25.564C75.8564 26.0635 76.7783 25.9038 77.1685 25.2275C77.6613 24.3735 77.0068 23.2939 75.9963 23.2939ZM85.9948 23.2939H89.6316L86.7654 25.564C86.1347 26.0635 85.2129 25.9038 84.8226 25.2275C84.3298 24.3735 84.9843 23.2939 85.9948 23.2939Z" fill="#72B800"/>
<path d="M100.792 36.6696H104.014V24.5164H100.792V36.6696ZM100.792 22.6212H104.014V19.731H100.792V22.6212Z" fill="#355030"/>
<path d="M106.09 40.6494H109.312V35.2954H109.36C110.047 36.3378 111.16 37.0248 112.866 37.0248C115.993 37.0248 118.125 34.5373 118.125 30.6047C118.125 26.8142 116.064 24.1846 112.842 24.1846C111.184 24.1846 110.047 24.9664 109.265 26.0324H109.194V24.5162H106.09V40.6494ZM112.179 34.3478C110.26 34.3478 109.241 32.9026 109.241 30.6994C109.241 28.5199 110.047 26.7905 112.06 26.7905C114.05 26.7905 114.856 28.4015 114.856 30.6994C114.856 32.9974 113.813 34.3478 112.179 34.3478Z" fill="#355030"/>
<path d="M124.552 37.0248C127.585 37.0248 129.67 35.556 129.67 33.1159C129.67 30.273 127.419 29.7044 125.382 29.278C123.652 28.9227 122.041 28.8279 122.041 27.7855C122.041 26.909 122.87 26.4352 124.126 26.4352C125.5 26.4352 126.329 26.909 126.471 28.2119H129.385C129.148 25.7718 127.372 24.1846 124.173 24.1846C121.402 24.1846 119.222 25.4402 119.222 28.0698C119.222 30.7231 121.354 31.3154 123.534 31.7418C125.192 32.0735 126.732 32.1919 126.732 33.3528C126.732 34.2056 125.926 34.7505 124.505 34.7505C123.06 34.7505 122.065 34.1345 121.852 32.7368H118.867C119.056 35.3191 121.023 37.0248 124.552 37.0248Z" fill="#355030"/>
<path d="M141.902 36.6693V24.5161H138.681V31.5285C138.681 33.1394 137.757 34.2766 136.24 34.2766C134.866 34.2766 134.227 33.4948 134.227 32.0734V24.5161H131.029V32.6182C131.029 35.2716 132.545 37.001 135.245 37.001C136.951 37.001 137.899 36.3613 138.728 35.2479H138.799V36.6693H141.902Z" fill="#355030"/>
<path d="M143.986 36.6694H147.208V29.6097C147.208 27.9987 148.085 26.9563 149.388 26.9563C150.572 26.9563 151.259 27.6671 151.259 29.0411V36.6694H154.481V29.6097C154.481 27.9987 155.31 26.9563 156.661 26.9563C157.845 26.9563 158.532 27.6671 158.532 29.0411V36.6694H161.754V28.4962C161.754 25.8429 160.309 24.1846 157.75 24.1846C156.211 24.1846 154.931 24.99 154.102 26.3167H154.055C153.462 25.0374 152.231 24.1846 150.691 24.1846C149.009 24.1846 147.824 25.0374 147.161 26.1509H147.09V24.5162H143.986V36.6694Z" fill="#355030"/>
<path d="M19.4507 36.6696H22.6726V19.731H19.4507V36.6696Z" fill="#355030"/>
<path d="M30.5505 37.0248C34.3173 37.0248 36.8995 34.2293 36.8995 30.6047C36.8995 26.98 34.3173 24.1846 30.5505 24.1846C26.7837 24.1846 24.2014 26.98 24.2014 30.6047C24.2014 34.2293 26.7837 37.0248 30.5505 37.0248ZM30.5505 34.561C28.5605 34.561 27.4707 32.9737 27.4707 30.6047C27.4707 28.2356 28.5605 26.6247 30.5505 26.6247C32.5168 26.6247 33.6302 28.2356 33.6302 30.6047C33.6302 32.9737 32.5168 34.561 30.5505 34.561Z" fill="#355030"/>
<path d="M43.7512 40.8152C45.5517 40.8152 47.1153 40.3888 48.134 39.4412C49.0342 38.612 49.5791 37.4512 49.5791 35.7455V24.5162H46.4756V25.7955H46.4282C45.6938 24.7768 44.5804 24.1846 43.0642 24.1846C39.9845 24.1846 37.8049 26.5062 37.8049 30.1309C37.8049 33.8029 40.4583 35.935 43.159 35.935C44.6988 35.935 45.6228 35.3191 46.3335 34.5136H46.4046V35.8403C46.4046 37.4986 45.528 38.3751 43.7038 38.3751C42.2113 38.3751 41.5243 37.7829 41.2637 37.0248H38.0655C38.3972 39.3938 40.4346 40.8152 43.7512 40.8152ZM43.7038 33.3528C42.0455 33.3528 40.9558 32.1446 40.9558 30.0835C40.9558 28.0461 42.0455 26.7668 43.6802 26.7668C45.6228 26.7668 46.5704 28.283 46.5704 30.0598C46.5704 31.8603 45.7412 33.3528 43.7038 33.3528Z" fill="#355030"/>
<path d="M57.4106 37.0248C61.1773 37.0248 63.7596 34.2293 63.7596 30.6047C63.7596 26.98 61.1773 24.1846 57.4106 24.1846C53.6438 24.1846 51.0615 26.98 51.0615 30.6047C51.0615 34.2293 53.6438 37.0248 57.4106 37.0248ZM57.4106 34.561C55.4206 34.561 54.3308 32.9737 54.3308 30.6047C54.3308 28.2356 55.4206 26.6247 57.4106 26.6247C59.3769 26.6247 60.4903 28.2356 60.4903 30.6047C60.4903 32.9737 59.3769 34.561 57.4106 34.561Z" fill="#355030"/>
<path d="M161.609 21.8631C161.609 21.3179 162.05 20.876 162.596 20.876H164.57C165.115 20.876 165.557 21.3179 165.557 21.8631C165.557 22.4082 165.115 22.8502 164.57 22.8502H162.596C162.05 22.8502 161.609 22.4082 161.609 21.8631Z" fill="#355030"/>
</g>
<defs>
<clipPath id="clip0_276_508">
<rect width="146.881" height="32.3769" fill="white" transform="translate(18.9104 14.127)"/>
</clipPath>
</defs>
</svg>
