<svg width="133" height="61" viewBox="0 0 133 61" fill="none" xmlns="http://www.w3.org/2000/svg">
<rect x="0.45752" y="0.15625" width="132.523" height="60.3179" rx="15" fill="white"/>
<g clip-path="url(#clip0_276_537)">
<path d="M87.0742 43.616C87.6603 43.616 88.007 43.172 88.007 42.4778C88.007 41.7581 87.6348 41.3396 87.0866 41.3396C86.7731 41.3396 86.5553 41.4786 86.3924 41.6994H86.3847V40.562H86.0449V43.5527H86.3847V43.2685H86.3924C86.5685 43.511 86.7816 43.616 87.0742 43.616ZM87.0495 43.3311C86.5893 43.3311 86.3631 42.9674 86.3631 42.4817C86.3631 42.0137 86.5808 41.6284 87.0534 41.6284C87.4634 41.6284 87.6603 41.9967 87.6603 42.4817C87.6603 42.9712 87.4634 43.3311 87.0495 43.3311ZM88.5808 44.2685C88.8441 44.2685 89.0116 44.1758 89.1869 43.728L90.112 41.3898H89.7522L89.258 42.7373C89.1916 42.9172 89.1159 43.1596 89.1159 43.1596H89.1082C89.1082 43.1596 89.0279 42.9172 88.9615 42.7373L88.451 41.3898H88.0827L88.9275 43.4901L88.8441 43.7033C88.7607 43.9125 88.6642 43.9673 88.5221 43.9673C88.4427 43.9714 88.3636 43.9554 88.292 43.921H88.275V44.2222C88.3676 44.26 88.451 44.2685 88.5808 44.2685ZM90.9792 43.5527H91.5483V40.562H90.9792V43.5527ZM92.9397 43.616C93.6046 43.616 94.0609 43.1218 94.0609 42.4817C94.0609 41.8415 93.6054 41.3481 92.9397 41.3481C92.2749 41.3481 91.8185 41.8423 91.8185 42.4817C91.8185 43.1226 92.2741 43.616 92.9397 43.616ZM92.9397 43.1805C92.5884 43.1805 92.3961 42.9002 92.3961 42.4817C92.3961 42.0639 92.5884 41.779 92.9397 41.779C93.2872 41.779 93.4834 42.0639 93.4834 42.4817C93.4834 42.9002 93.2872 43.1805 92.9397 43.1805ZM95.271 44.2847C95.5891 44.2847 95.8648 44.2098 96.0447 44.0422C96.2038 43.8955 96.3003 43.6909 96.3003 43.3897V41.4068H95.752V41.633H95.7435C95.6138 41.4531 95.4177 41.3481 95.149 41.3481C94.6061 41.3481 94.2208 41.7581 94.2208 42.3983C94.2208 43.0469 94.6895 43.4229 95.1667 43.4229C95.4385 43.4229 95.6015 43.3148 95.7265 43.172H95.7397V43.4067C95.7397 43.6994 95.5852 43.8546 95.2625 43.8546C94.9991 43.8546 94.8779 43.7496 94.8316 43.6152H94.2671C94.325 44.0337 94.6849 44.2847 95.271 44.2847ZM95.2632 42.9674C94.9698 42.9674 94.7768 42.7542 94.7768 42.3898C94.7768 42.0299 94.9698 41.8045 95.2586 41.8045C95.6015 41.8045 95.769 42.0716 95.769 42.3859C95.769 42.704 95.6223 42.9674 95.2625 42.9674H95.2632ZM97.6833 43.616C98.3481 43.616 98.8045 43.1218 98.8045 42.4817C98.8045 41.8415 98.3481 41.3481 97.6833 41.3481C97.0176 41.3481 96.562 41.8423 96.562 42.4817C96.562 43.1226 97.0176 43.616 97.6833 43.616ZM97.6833 43.1805C97.3319 43.1805 97.1389 42.9002 97.1389 42.4817C97.1389 42.0639 97.3319 41.779 97.6833 41.779C98.03 41.779 98.2269 42.0639 98.2269 42.4817C98.2269 42.9002 98.03 43.1805 97.6833 43.1805ZM99.0685 43.5527H99.6376V41.4068H99.0685V43.5527ZM99.0685 41.0724H99.6376V40.562H99.0685V41.0724ZM100.004 44.2554H100.574V43.311H100.581C100.703 43.4955 100.899 43.6168 101.201 43.6168C101.753 43.6168 102.129 43.1766 102.129 42.4824C102.129 41.8129 101.766 41.3489 101.197 41.3489C101.073 41.3468 100.95 41.3756 100.84 41.4326C100.729 41.4896 100.635 41.5731 100.565 41.6755H100.553V41.4076H100.004V44.2569V44.2554ZM101.079 43.1434C100.74 43.1434 100.56 42.8878 100.56 42.4986C100.56 42.1141 100.703 41.8083 101.058 41.8083C101.41 41.8083 101.552 42.0925 101.552 42.4986C101.552 42.9048 101.368 43.1434 101.079 43.1434ZM103.265 43.616C103.8 43.616 104.168 43.3565 104.168 42.9257C104.168 42.4237 103.77 42.3234 103.411 42.2477C103.106 42.1851 102.821 42.1682 102.821 41.9844C102.821 41.8299 102.967 41.745 103.189 41.745C103.432 41.745 103.578 41.8299 103.604 42.0593H104.118C104.076 41.6284 103.763 41.3489 103.197 41.3489C102.708 41.3489 102.323 41.5697 102.323 42.0346C102.323 42.5025 102.699 42.6075 103.085 42.6832C103.377 42.7411 103.649 42.762 103.649 42.9674C103.649 43.1179 103.507 43.2145 103.256 43.2145C103.001 43.2145 102.825 43.1056 102.787 42.8585H102.261C102.294 43.3141 102.641 43.616 103.265 43.616ZM106.329 43.5527V41.4068H105.76V42.6454C105.76 42.9295 105.596 43.1303 105.329 43.1303C105.086 43.1303 104.973 42.9921 104.973 42.7411V41.4068H104.408V42.8376C104.408 43.3063 104.676 43.6114 105.153 43.6114C105.454 43.6114 105.621 43.4986 105.768 43.3025H105.78V43.5527H106.329ZM106.696 43.5527H107.265V42.3071C107.265 42.0222 107.42 41.8384 107.65 41.8384C107.859 41.8384 107.98 41.9643 107.98 42.2068V43.5534H108.549V42.3071C108.549 42.0222 108.696 41.8384 108.935 41.8384C109.144 41.8384 109.265 41.9643 109.265 42.2068V43.5534H109.834V42.1102C109.834 41.6415 109.579 41.3489 109.127 41.3489C108.855 41.3489 108.629 41.4909 108.483 41.7257H108.475C108.423 41.6117 108.339 41.5153 108.234 41.4483C108.128 41.3814 108.005 41.3468 107.88 41.3489C107.754 41.3457 107.63 41.3763 107.521 41.4374C107.411 41.4985 107.32 41.588 107.257 41.6963H107.244V41.4076H106.696V43.5542V43.5527Z" fill="#E5708C"/>
<path d="M109.947 16.5313C109.947 15.6178 110.687 14.8765 111.601 14.8765H112.704C113.143 14.8765 113.564 15.0508 113.874 15.3611C114.185 15.6715 114.359 16.0924 114.359 16.5313C114.359 16.9701 114.185 17.391 113.874 17.7014C113.564 18.0117 113.143 18.186 112.704 18.186H111.601C111.383 18.186 111.168 18.1432 110.968 18.0601C110.767 17.9769 110.584 17.855 110.431 17.7013C110.277 17.5476 110.155 17.3652 110.072 17.1645C109.989 16.9637 109.947 16.7485 109.947 16.5313ZM63.6227 25.9063C63.6227 31.9973 58.6853 36.9354 52.5936 36.9354C46.5026 36.9354 41.5645 31.9973 41.5645 25.9063C41.5645 19.8138 46.5026 14.8772 52.5936 14.8772C58.6853 14.8772 63.6227 19.8138 63.6227 25.9063ZM39.4132 25.8515C40.0232 25.8515 40.522 26.3457 40.461 26.9526C40.2526 29.0297 39.4589 31.0049 38.1724 32.6487C36.8858 34.2926 35.1591 35.5376 33.193 36.239C31.2269 36.9404 29.1021 37.0695 27.0656 36.6112C25.0291 36.1528 23.1644 35.126 21.6884 33.6499C20.2123 32.1739 19.1854 30.3092 18.7271 28.2727C18.2688 26.2361 18.3979 24.1114 19.0993 22.1453C19.8007 20.1792 21.0457 18.4525 22.6895 17.1659C24.3334 15.8793 26.3086 15.0857 28.3856 14.8772C28.9918 14.8155 29.4868 15.3158 29.4868 15.9243V24.748C29.4868 25.3581 29.981 25.8515 30.5902 25.8515H39.4132ZM79.064 39.1415C79.9415 39.1415 80.7831 39.4901 81.4037 40.1107C82.0242 40.7312 82.3728 41.5728 82.3728 42.4503C82.3728 43.3279 82.0242 44.1695 81.4037 44.79C80.7831 45.4105 79.9415 45.7591 79.064 45.7591H73.5498C72.6723 45.7591 71.8307 45.4105 71.2101 44.79C70.5896 44.1695 70.241 43.3279 70.241 42.4503C70.241 41.5728 70.5896 40.7312 71.2101 40.1107C71.8307 39.4901 72.6723 39.1415 73.5498 39.1415H79.064ZM75.7552 36.9354C81.8469 36.9354 86.785 31.9973 86.785 25.9063C86.7877 24.0353 86.3121 22.1946 85.4036 20.559L87.2259 18.7366C87.4359 18.5266 87.6023 18.2773 87.7159 18.003C87.8295 17.7286 87.8879 17.4346 87.8878 17.1376C87.8877 16.8407 87.8292 16.5467 87.7155 16.2724C87.6018 15.9981 87.4352 15.7489 87.2252 15.539C87.0152 15.3291 86.7659 15.1626 86.4915 15.049C86.2172 14.9355 85.9231 14.8771 85.6262 14.8771C85.3293 14.8772 85.0353 14.9358 84.761 15.0495C84.4867 15.1632 84.2375 15.3298 84.0276 15.5398L82.4369 17.1305C80.5178 15.6648 78.1691 14.8726 75.7544 14.8765C69.6642 14.8772 64.7269 19.8138 64.7269 25.9063C64.7269 31.9973 69.6642 36.9354 75.7552 36.9354ZM109.947 25.9063C109.947 31.9973 105.009 36.9354 98.9168 36.9354C92.8258 36.9354 87.8877 31.9973 87.8877 25.9063C87.8877 19.8138 92.8258 14.8772 98.9168 14.8772C105.009 14.8772 109.947 19.8146 109.947 25.9063Z" fill="url(#paint0_linear_276_537)"/>
</g>
<defs>
<linearGradient id="paint0_linear_276_537" x1="18.4577" y1="27.2268" x2="110.347" y2="27.2268" gradientUnits="userSpaceOnUse">
<stop stop-color="#64C2DB"/>
<stop offset="0.307" stop-color="#7476ED"/>
<stop offset="0.604" stop-color="#C994DF"/>
<stop offset="1" stop-color="#E56F8C"/>
</linearGradient>
<clipPath id="clip0_276_537">
<rect width="96.5228" height="30.8873" fill="white" transform="translate(18.4575 14.8716)"/>
</clipPath>
</defs>
</svg>
