<svg width="101" height="61" viewBox="0 0 101 61" fill="none" xmlns="http://www.w3.org/2000/svg">
<rect x="0.167969" y="0.15625" width="100.754" height="60.3179" rx="15" fill="white"/>
<g clip-path="url(#clip0_276_575)">
<path d="M76.1028 30.0859C76.1028 32.3791 74.3331 34.2791 71.9412 34.2791C69.5485 34.2791 67.8127 32.3791 67.8127 30.0859C67.8127 27.7919 69.5493 25.8911 71.9412 25.8911C74.3331 25.8911 76.1028 27.7927 76.1028 30.0859Z" fill="#FFD43D"/>
<path d="M56.676 29.9548C56.676 32.2812 54.8416 34.0178 52.5144 34.0178C50.2211 34.0178 48.3867 32.2805 48.3867 29.9548C48.3867 27.6277 50.2211 25.9243 52.5152 25.9243C54.8416 25.9243 56.676 27.6284 56.676 29.9548Z" fill="#FF0C81"/>
<path d="M34.0201 34.2791C36.412 34.2791 38.1817 32.3791 38.1817 30.0859C38.1817 27.7919 36.412 25.8911 34.0201 25.8911C31.6273 25.8911 29.8916 27.7919 29.8916 30.0851C29.8916 32.3791 31.6281 34.2791 34.0201 34.2791Z" fill="#11EEFC"/>
<path d="M71.9413 38.6383C66.9608 38.6383 63.16 34.7713 63.16 30.0529C63.16 25.367 66.9939 21.5007 71.9413 21.5007C76.955 21.5007 80.7557 25.4001 80.7557 30.0529C80.7557 34.7713 76.9218 38.6375 71.9413 38.6375V38.6383ZM71.9413 34.2793C74.334 34.2793 76.1029 32.3793 76.1029 30.0861C76.1029 27.7921 74.334 25.8913 71.9413 25.8913C69.5493 25.8913 67.8128 27.7921 67.8128 30.0853C67.8128 32.3793 69.5493 34.2793 71.9413 34.2793ZM52.1874 46.1087C48.3867 46.1087 45.4704 44.4378 43.9961 41.4228L47.8623 39.3262C48.5833 40.7349 49.9266 41.8492 52.1219 41.8492C54.8747 41.8492 56.7415 39.916 56.7415 36.7376V36.4422C55.8571 37.5565 54.2848 38.4085 51.9908 38.4085C47.4359 38.4085 43.7994 34.87 43.7994 30.0529C43.7994 25.367 47.6002 21.5339 52.5807 21.5339C57.6591 21.5339 61.3951 25.1703 61.3951 30.0529V36.6065C61.3951 42.3735 57.4625 46.1087 52.1874 46.1087ZM52.5151 34.0179C54.8415 34.0179 56.6768 32.2806 56.6768 29.955C56.6768 27.6278 54.8415 25.9245 52.5151 25.9245C50.2211 25.9245 48.3867 27.6286 48.3867 29.955C48.3867 32.2814 50.2211 34.0179 52.5151 34.0179ZM34.02 38.6383C29.0395 38.6383 25.2388 34.7713 25.2388 30.0529C25.2388 25.367 29.0719 21.5007 34.02 21.5007C39.0329 21.5007 42.8344 25.4001 42.8344 30.0529C42.8344 34.7713 39.0005 38.6375 34.02 38.6375V38.6383ZM34.02 34.2793C36.412 34.2793 38.1816 32.3793 38.1816 30.0861C38.1816 27.7921 36.412 25.8913 34.02 25.8913C31.6273 25.8913 29.8916 27.7921 29.8916 30.0853C29.8916 32.3793 31.6281 34.2793 34.02 34.2793ZM18.168 14.5215H22.8208V38.2119H18.168V14.5215ZM82.9218 19.6544C82.9218 20.178 82.7138 20.6801 82.3436 21.0504C81.9733 21.4206 81.4712 21.6286 80.9476 21.6286C80.424 21.6286 79.9219 21.4206 79.5516 21.0504C79.1814 20.6801 78.9734 20.178 78.9734 19.6544C78.9734 19.1308 79.1814 18.6287 79.5516 18.2584C79.9219 17.8882 80.424 17.6802 80.9476 17.6802C81.4712 17.6802 81.9733 17.8882 82.3436 18.2584C82.7138 18.6287 82.9218 19.1308 82.9218 19.6544Z" fill="#171A26"/>
</g>
<defs>
<clipPath id="clip0_276_575">
<rect width="64.7538" height="31.5872" fill="white" transform="translate(18.168 14.5215)"/>
</clipPath>
</defs>
</svg>
