<svg width="171" height="61" viewBox="0 0 171 61" fill="none" xmlns="http://www.w3.org/2000/svg">
<rect x="0.521729" y="0.15625" width="170.389" height="60.3179" rx="15" fill="white"/>
<g clip-path="url(#clip0_276_496)">
<path d="M56.8352 37.347H65.7054V34.8212H59.54V23.0273H56.8352V37.347Z" fill="#23216E"/>
<path d="M71.036 37.6455C72.11 37.6455 73.0547 37.4068 73.8701 36.9295C74.6921 36.4455 75.3319 35.7793 75.7894 34.9307C76.2534 34.0755 76.4854 33.091 76.4854 31.9773C76.4854 30.8702 76.2567 29.8923 75.7993 29.0437C75.3418 28.1886 74.7021 27.519 73.88 27.035C73.0646 26.5511 72.1166 26.3091 71.036 26.3091C69.9753 26.3091 69.0372 26.5478 68.2218 27.0251C67.4064 27.5024 66.7666 28.1686 66.3025 29.0239C65.8385 29.8724 65.6064 30.8569 65.6064 31.9773C65.6064 33.0844 65.8319 34.0656 66.2827 34.9207C66.7401 35.7693 67.3765 36.4356 68.1919 36.9195C69.0074 37.4035 69.9554 37.6455 71.036 37.6455ZM71.036 35.1197C70.194 35.1197 69.5543 34.8379 69.1168 34.2744C68.6858 33.7043 68.4704 32.9386 68.4704 31.9773C68.4704 31.0425 68.6759 30.2868 69.087 29.71C69.5046 29.1266 70.1543 28.8349 71.036 28.8349C71.8912 28.8349 72.5343 29.12 72.9652 29.6901C73.4027 30.2603 73.6215 31.0226 73.6215 31.9773C73.6215 32.8988 73.4061 33.6545 72.9751 34.2446C72.5508 34.8279 71.9044 35.1197 71.036 35.1197Z" fill="#23216E"/>
<path d="M81.8342 37.6455C82.3381 37.6455 82.8021 37.5858 83.2265 37.4665C83.6574 37.3472 84.0485 37.1781 84.3999 36.9593V38.0432C84.4132 38.441 84.3103 38.7725 84.0916 39.0376C83.8794 39.3095 83.5944 39.5117 83.2364 39.6443C82.8784 39.7835 82.4972 39.8531 82.0928 39.8531C81.7149 39.8531 81.3636 39.7702 81.0388 39.6045C80.7205 39.4388 80.4752 39.1968 80.3028 38.8786L77.7969 40.0917C78.2079 40.7878 78.7946 41.348 79.557 41.7723C80.3195 42.2032 81.1581 42.4187 82.0729 42.4187C82.8618 42.4187 83.5944 42.3126 84.2706 42.1005C84.9468 41.895 85.5169 41.5801 85.981 41.1557C86.4516 40.7315 86.7732 40.1912 86.9456 39.5349C87.0052 39.3028 87.045 39.0675 87.0649 38.8288C87.0914 38.5968 87.1047 38.3482 87.1047 38.083V26.6074H84.738V27.2041C84.3733 26.919 83.959 26.7002 83.4949 26.5478C83.0375 26.3886 82.5304 26.3091 81.9735 26.3091C80.9459 26.3091 80.0509 26.5544 79.2886 27.0449C78.5262 27.5355 77.9328 28.2084 77.5085 29.0637C77.0908 29.9122 76.8821 30.8835 76.8821 31.9773C76.8821 33.0513 77.0876 34.0158 77.4986 34.871C77.9162 35.7262 78.4963 36.4025 79.2388 36.8997C79.9813 37.3968 80.8465 37.6455 81.8342 37.6455ZM82.2718 35.239C81.6884 35.239 81.2111 35.0931 80.8398 34.8014C80.4686 34.5098 80.1934 34.1186 80.0145 33.628C79.8355 33.1308 79.746 32.5806 79.746 31.9773C79.746 31.3806 79.8388 30.837 80.0244 30.3464C80.2101 29.8492 80.4951 29.4548 80.8796 29.163C81.2707 28.8647 81.768 28.7156 82.3712 28.7156C83.2198 28.7156 83.8264 29.0172 84.191 29.6205C84.5557 30.2171 84.738 31.0028 84.738 31.9773C84.738 32.9518 84.5523 33.7407 84.1811 34.344C83.8165 34.9407 83.1801 35.239 82.2718 35.239Z" fill="#23216E"/>
<path d="M93.5291 37.6455C94.6032 37.6455 95.5479 37.4068 96.3633 36.9295C97.1851 36.4455 97.8251 35.7793 98.2821 34.9307C98.7462 34.0755 98.9783 33.091 98.9783 31.9773C98.9783 30.8702 98.7501 29.8923 98.2923 29.0437C97.8352 28.1886 97.1953 27.519 96.3732 27.035C95.5578 26.5511 94.6097 26.3091 93.5291 26.3091C92.4684 26.3091 91.5304 26.5478 90.715 27.0251C89.8996 27.5024 89.2598 28.1686 88.7957 29.0239C88.3317 29.8724 88.0996 30.8569 88.0996 31.9773C88.0996 33.0844 88.325 34.0656 88.7759 34.9207C89.2332 35.7693 89.8697 36.4356 90.6851 36.9195C91.5006 37.4035 92.4486 37.6455 93.5291 37.6455ZM93.5291 35.1197C92.6872 35.1197 92.0474 34.8379 91.6099 34.2744C91.179 33.7043 90.9636 32.9386 90.9636 31.9773C90.9636 31.0425 91.1691 30.2868 91.5801 29.71C91.9977 29.1266 92.6474 28.8349 93.5291 28.8349C94.3844 28.8349 95.0274 29.12 95.4583 29.6901C95.8959 30.2603 96.1146 31.0226 96.1146 31.9773C96.1146 32.8988 95.8992 33.6545 95.4682 34.2446C95.044 34.8279 94.3976 35.1197 93.5291 35.1197Z" fill="#23216E"/>
<path d="M100.171 25.1156H102.876V22.729H100.171V25.1156ZM100.171 37.347H102.876V26.6072H100.171V37.347Z" fill="#23216E"/>
<path d="M104.644 42.1204H107.368V36.9593C107.72 37.1781 108.107 37.3472 108.532 37.4665C108.963 37.5858 109.43 37.6455 109.934 37.6455C110.922 37.6455 111.787 37.3968 112.53 36.8997C113.272 36.4025 113.849 35.7262 114.26 34.871C114.678 34.0158 114.886 33.0513 114.886 31.9773C114.886 30.8835 114.675 29.9122 114.25 29.0637C113.832 28.2084 113.242 27.5355 112.48 27.0449C111.717 26.5544 110.823 26.3091 109.795 26.3091C109.238 26.3091 108.728 26.3886 108.264 26.5478C107.806 26.7002 107.395 26.919 107.031 27.2041V26.6074H104.644V42.1204ZM109.497 35.239C108.595 35.239 107.959 34.9407 107.587 34.344C107.216 33.7407 107.031 32.9518 107.031 31.9773C107.031 31.0028 107.213 30.2171 107.578 29.6205C107.949 29.0172 108.555 28.7156 109.397 28.7156C110.001 28.7156 110.494 28.8647 110.879 29.163C111.27 29.4548 111.559 29.8492 111.744 30.3464C111.93 30.837 112.023 31.3806 112.023 31.9773C112.023 32.5806 111.933 33.1308 111.754 33.628C111.575 34.1186 111.3 34.5098 110.929 34.8014C110.558 35.0931 110.08 35.239 109.497 35.239Z" fill="#23216E"/>
<path d="M119.787 37.6455C121.191 37.6455 122.292 37.3306 123.088 36.7008C123.883 36.0709 124.281 35.2058 124.281 34.1053C124.281 33.27 124.022 32.6104 123.506 32.1265C122.995 31.6425 122.127 31.2414 120.9 30.9232C120.065 30.711 119.441 30.5387 119.03 30.4061C118.626 30.2735 118.358 30.1442 118.225 30.0183C118.099 29.8923 118.036 29.7365 118.036 29.5509C118.036 29.2393 118.185 29.0007 118.483 28.8349C118.789 28.6692 119.19 28.6029 119.687 28.636C120.741 28.7156 121.318 29.1664 121.417 29.9884L124.182 29.4912C124.043 28.5167 123.565 27.7444 122.749 27.1742C121.934 26.5975 120.894 26.3091 119.627 26.3091C118.328 26.3091 117.29 26.614 116.514 27.2239C115.739 27.8338 115.351 28.6559 115.351 29.6901C115.351 30.5122 115.62 31.1618 116.157 31.6392C116.693 32.1099 117.618 32.5142 118.931 32.8524C119.707 33.0579 120.277 33.2236 120.641 33.3496C121.013 33.4755 121.252 33.6048 121.357 33.7374C121.463 33.8634 121.516 34.0324 121.516 34.2446C121.516 34.5827 121.384 34.8478 121.119 35.0401C120.854 35.2257 120.476 35.3185 119.985 35.3185C119.388 35.3185 118.894 35.176 118.504 34.8909C118.119 34.6059 117.87 34.2114 117.758 33.7076L114.993 34.1252C115.172 35.2456 115.676 36.1141 116.505 36.7306C117.34 37.3405 118.434 37.6455 119.787 37.6455Z" fill="#23216E"/>
<path d="M129.27 37.6654C130.046 37.6654 130.722 37.5361 131.3 37.2776C131.876 37.019 132.36 36.6743 132.751 36.2434V37.3472H135.138V26.6074H132.413V32.0569C132.413 32.7198 132.336 33.2568 132.184 33.6678C132.039 34.0722 131.85 34.3805 131.618 34.5926C131.386 34.7982 131.137 34.9373 130.871 35.0103C130.607 35.0832 130.358 35.1197 130.126 35.1197C129.549 35.1197 129.102 34.9904 128.784 34.7318C128.472 34.4733 128.246 34.1518 128.107 33.7673C127.968 33.3827 127.885 33.0016 127.859 32.6237C127.832 32.2392 127.819 31.9243 127.819 31.679V26.6074H125.074V32.6337C125.074 32.8126 125.087 33.0977 125.114 33.4888C125.14 33.88 125.217 34.3142 125.343 34.7915C125.469 35.2622 125.677 35.7163 125.969 36.1539C126.268 36.5914 126.682 36.9527 127.212 37.2378C127.742 37.5228 128.429 37.6654 129.27 37.6654Z" fill="#23216E"/>
<path d="M136.704 37.3469H139.429V30.8434C139.429 30.2269 139.597 29.7264 139.936 29.3418C140.28 28.9507 140.734 28.7551 141.298 28.7551C141.888 28.7551 142.349 28.9541 142.68 29.3518C143.018 29.743 143.188 30.2932 143.188 31.0025V37.3469H145.893V30.8434C145.893 30.2269 146.061 29.7264 146.4 29.3418C146.744 28.9507 147.198 28.7551 147.761 28.7551C148.352 28.7551 148.812 28.9541 149.144 29.3518C149.482 29.743 149.652 30.2932 149.652 31.0025V37.3469H152.356V30.2865C152.356 29.1131 152.041 28.1651 151.411 27.4425C150.788 26.7133 149.863 26.3486 148.637 26.3486C147.947 26.3486 147.315 26.4978 146.737 26.7961C146.161 27.0945 145.7 27.5022 145.355 28.0193C145.077 27.5155 144.679 27.1111 144.162 26.8061C143.645 26.5011 143.002 26.3486 142.233 26.3486C141.583 26.3486 140.987 26.4779 140.443 26.7365C139.899 26.9884 139.448 27.3365 139.09 27.7806V26.6072H136.704V37.3469Z" fill="#23216E"/>
<path d="M34.1483 14.6885C25.518 14.6885 18.5217 21.6847 18.5217 30.3151C27.1521 30.3151 34.1483 23.3188 34.1483 14.6885Z" fill="#45D2B0"/>
<path d="M34.1482 45.9415C42.7785 45.9415 49.7748 38.9453 49.7748 30.3149C41.1445 30.3149 34.1482 37.3112 34.1482 45.9415Z" fill="#45D2B0"/>
<path d="M34.1482 14.6885C42.7785 14.6885 49.7748 21.6847 49.7748 30.3151C41.1445 30.3151 34.1482 23.3188 34.1482 14.6885Z" fill="#23216E"/>
<path d="M34.1483 45.9415C25.518 45.9415 18.5217 38.9453 18.5217 30.3149C27.1521 30.3149 34.1483 37.3112 34.1483 45.9415Z" fill="#23216E"/>
</g>
<defs>
<clipPath id="clip0_276_496">
<rect width="134.389" height="31.2532" fill="white" transform="translate(18.5217 14.6885)"/>
</clipPath>
</defs>
</svg>
