<svg width="164" height="61" viewBox="0 0 164 61" fill="none" xmlns="http://www.w3.org/2000/svg">
<rect x="0.980225" y="0.15625" width="162.349" height="60.3179" rx="15" fill="white"/>
<path fill-rule="evenodd" clip-rule="evenodd" d="M39.9895 15.0931C38.8099 13.914 36.8979 13.9143 35.7188 15.0939L25.8783 24.9384L25.8699 24.936L25.8388 24.9393C25.8516 24.9455 25.8642 24.9516 25.8765 24.9577C24.1503 25.1385 23.4179 25.6573 23.4096 26.3235C23.4125 26.5713 23.5142 26.8389 23.7009 27.1167L23.692 27.1257C25.2613 29.4926 33.0356 32.6149 38.5357 30.4995C34.4136 32.5605 24.7058 32.969 21.8545 28.9672C21.2352 29.6371 20.9762 30.5175 21.0737 31.3634C21.827 35.5151 30.2483 36.6478 38.6697 30.6325L40.492 32.4549C38.2244 34.7846 34.8748 48.3169 39.8519 46.2508C39.97 46.1707 40.0702 46.099 40.2065 45.9958L40.4283 45.7864C40.4155 45.7896 40.4028 45.7926 40.3902 45.7956L53.72 33.2115C54.9576 32.043 54.9857 30.0831 53.7818 28.8797L39.9895 15.0931ZM38.538 19.1941L38.9935 17.3718L39.4491 19.1941L40.8159 19.6497L39.4491 20.1053L38.9935 21.9276L38.538 20.1053L37.1712 19.6497L38.538 19.1941ZM32.8989 25.1431L33.2026 23.9281L33.5063 25.1431L34.4176 25.4468L33.5063 25.7505L33.2026 26.9654L32.8989 25.7505L31.9878 25.4468L32.8989 25.1431ZM43.4772 35.3907L43.1735 36.6055L42.2623 36.9093L43.1735 37.213L43.4772 38.4279L43.7809 37.213L44.6921 36.9093L43.7809 36.6055L43.4772 35.3907Z" fill="#4845D2"/>
<path d="M62.3321 21.8462H59.5034V34.61H67.3342V32.109H62.3321V21.8462Z" fill="#4845D2"/>
<path d="M67.6045 30.2806C67.6045 33.0059 69.4328 34.8169 72.1925 34.8169C74.9351 34.8169 76.7634 33.0059 76.7634 30.2806C76.7634 27.5553 74.9351 25.7271 72.1925 25.7271C69.4328 25.7271 67.6045 27.5553 67.6045 30.2806ZM70.278 30.2634C70.278 28.9697 71.0369 28.1073 72.1925 28.1073C73.3309 28.1073 74.0899 28.9697 74.0899 30.2634C74.0899 31.5742 73.3309 32.4367 72.1925 32.4367C71.0369 32.4367 70.278 31.5742 70.278 30.2634Z" fill="#4845D2"/>
<path d="M77.1904 30.1425C77.1904 32.7469 78.8808 34.5062 81.2783 34.5062C82.434 34.5062 83.4344 34.0923 83.9345 33.4196V34.6098C83.9345 35.7999 83.1929 36.5934 81.882 36.5934C80.7091 36.5934 79.8985 36.0414 79.8467 35.0582H77.156C77.3974 37.4213 79.2258 39.0081 81.7268 39.0081C84.6763 39.0081 86.5391 37.0936 86.5391 34.0578V25.9856H84.1415L84.0036 26.8652C83.5206 26.1581 82.5029 25.6924 81.3301 25.6924C78.9153 25.6924 77.1904 27.5034 77.1904 30.1425ZM79.8812 30.0735C79.8812 28.8316 80.7092 28.0036 81.7613 28.0036C82.9859 28.0036 83.8828 28.8143 83.8828 30.0735C83.8828 31.3326 83.0032 32.195 81.7786 32.195C80.7264 32.195 79.8812 31.3326 79.8812 30.0735Z" fill="#4845D2"/>
<path d="M87.3135 30.2806C87.3135 33.0059 89.1417 34.8169 91.9015 34.8169C94.644 34.8169 96.4724 33.0059 96.4724 30.2806C96.4724 27.5553 94.644 25.7271 91.9015 25.7271C89.1417 25.7271 87.3135 27.5553 87.3135 30.2806ZM89.9869 30.2634C89.9869 28.9697 90.7459 28.1073 91.9015 28.1073C93.0399 28.1073 93.7988 28.9697 93.7988 30.2634C93.7988 31.5742 93.0399 32.4367 91.9015 32.4367C90.7459 32.4367 89.9869 31.5742 89.9869 30.2634Z" fill="#4845D2"/>
<path d="M98.7624 24.6401C99.59 24.6401 100.263 23.9674 100.263 23.1222C100.263 22.277 99.59 21.6216 98.7624 21.6216C97.9171 21.6216 97.2444 22.277 97.2444 23.1222C97.2444 23.9674 97.9171 24.6401 98.7624 24.6401ZM97.4169 34.6096H100.091V25.9854H97.4169V34.6096Z" fill="#4845D2"/>
<path d="M101.646 38.7492H104.268V33.7472C104.769 34.4027 105.907 34.8511 107.098 34.8511C109.667 34.8511 111.22 32.8848 111.15 30.1596C111.082 27.3826 109.478 25.7095 107.08 25.7095C105.855 25.7095 104.7 26.2442 104.217 27.0376L104.079 25.9855H101.646V38.7492ZM104.32 30.2975C104.32 29.0039 105.183 28.1415 106.425 28.1415C107.684 28.1415 108.477 29.0212 108.477 30.2975C108.477 31.574 107.684 32.4536 106.425 32.4536C105.183 32.4536 104.32 31.5912 104.32 30.2975Z" fill="#4845D2"/>
<path d="M111.434 31.8844C111.503 33.6265 112.883 34.8338 115.056 34.8338C117.143 34.8338 118.592 33.7299 118.592 31.9534C118.592 30.677 117.833 29.8318 116.418 29.4869L114.883 29.1074C114.331 28.9694 113.987 28.8315 113.987 28.383C113.987 27.9346 114.349 27.6413 114.883 27.6413C115.487 27.6413 115.884 28.038 115.866 28.6245H118.265C118.195 26.8307 116.833 25.7095 114.935 25.7095C113.02 25.7095 111.589 26.8479 111.589 28.5727C111.589 29.7284 112.227 30.677 113.935 31.1255L115.453 31.5222C115.901 31.6429 116.091 31.8499 116.091 32.1432C116.091 32.5743 115.694 32.8503 115.021 32.8503C114.245 32.8503 113.831 32.4881 113.831 31.8844H111.434Z" fill="#4845D2"/>
<path d="M122.658 34.8337C123.71 34.8337 124.762 34.3508 125.297 33.6436L125.47 34.6095H127.971V25.9854H125.314V30.4699C125.314 31.7635 124.934 32.4708 123.71 32.4708C122.761 32.4708 122.14 32.0395 122.14 30.4354V25.9854H119.484V31.4013C119.484 33.4539 120.623 34.8337 122.658 34.8337Z" fill="#4845D2"/>
<path d="M132.183 34.6098V29.901C132.183 28.4521 132.959 28.0381 133.718 28.0381C134.563 28.0381 135.115 28.5556 135.115 29.625V34.6098H137.736V29.901C137.736 28.4349 138.495 28.0209 139.254 28.0209C140.099 28.0209 140.669 28.5383 140.669 29.625V34.6098H143.256V28.9696C143.256 27.0033 142.221 25.6924 139.996 25.6924C138.754 25.6924 137.736 26.2961 137.288 27.2274C136.771 26.2961 135.874 25.6924 134.442 25.6924C133.494 25.6924 132.614 26.1235 132.097 26.8135L131.993 25.9856H129.509V34.6098H132.183Z" fill="#4845D2"/>
<path fill-rule="evenodd" clip-rule="evenodd" d="M54.7464 16.2988C51.8967 16.2988 49.1942 17.5646 47.3698 19.7538L40.8794 27.5424L44.6272 21.9206L38.4061 24.5868C37.616 24.9254 37.4178 25.9547 38.0256 26.5626L40.0276 28.5645L39.0054 29.7911L41.2542 32.0398L42.4807 31.0176L44.4827 33.0196C45.0905 33.6274 46.1199 33.4292 46.4584 32.6392L49.1246 26.418L43.5029 30.1659L51.2914 23.6754C53.4807 21.8511 54.7464 19.1486 54.7464 16.2988ZM48.5625 22.4829C49.1834 23.1038 50.1902 23.1038 50.8112 22.4829C51.4321 21.8619 51.4321 20.8551 50.8112 20.2342C50.1902 19.6132 49.1834 19.6132 48.5625 20.2342C47.9415 20.8551 47.9415 21.8619 48.5625 22.4829Z" fill="#A3A2FF"/>
<path opacity="0.6" d="M21.782 28.8628C23.2709 33.964 32.3232 33.698 38.5339 30.5005C34.3751 32.5786 24.5372 32.9755 21.782 28.8628Z" fill="#424242"/>
<path opacity="0.6" d="M39.8518 46.251C35.658 47.9919 37.3763 38.6575 39.3777 34.2827C37.9188 38.1713 36.6735 46.7433 40.4282 45.7865L40.2064 45.996C40.0701 46.0991 39.9699 46.1708 39.8518 46.251Z" fill="#424242"/>
</svg>
