<svg width="53" height="62" viewBox="0 0 53 62" fill="none" xmlns="http://www.w3.org/2000/svg">
<path d="M26.0844 15.5731C29.4666 15.5731 32.4335 14.2524 34.9853 11.6109C37.5371 8.9695 38.813 5.89797 38.813 2.39635C38.813 2.01177 38.7826 1.46527 38.7219 0.756836C38.2763 0.817559 37.9422 0.868161 37.7194 0.908643C34.6005 1.35394 31.8563 2.88214 29.4868 5.49315C27.1173 8.10424 25.9326 10.8975 25.9326 13.8729C25.9326 14.2169 25.9832 14.7837 26.0844 15.5731ZM38.2054 61.9954C40.6155 61.9954 43.2786 60.3458 46.195 57.0465C49.1114 53.7473 51.339 49.8711 52.8782 45.4182C47.1468 42.463 44.2811 38.2226 44.2811 32.6968C44.2811 28.0819 46.6 24.135 51.2378 20.856C48.0177 16.828 43.7647 14.814 38.4789 14.814C36.2511 14.814 34.2158 15.148 32.3728 15.816L31.2184 16.241L29.6691 16.8483C28.6565 17.2328 27.735 17.4252 26.9047 17.4252C26.2566 17.4252 25.4059 17.2025 24.3529 16.7572L23.1681 16.2714L22.0441 15.816C20.4036 15.1278 18.6417 14.7837 16.7583 14.7837C11.7154 14.7837 7.66499 16.4839 4.60687 19.8844C1.54874 23.2848 0.0197144 27.7682 0.0197144 33.3344C0.0197144 41.1676 2.47022 48.4037 7.3713 55.0427C10.7737 59.6778 13.8824 61.9954 16.6975 61.9954C17.8924 61.9954 19.0772 61.7626 20.2518 61.2971L21.7403 60.6898L22.9251 60.2648C24.5858 59.6778 26.1148 59.3843 27.5122 59.3843C28.9906 59.3843 30.6918 59.7588 32.6158 60.5077L33.5576 60.872C35.522 61.6209 37.0714 61.9954 38.2054 61.9954Z" fill="black"/>
</svg>
