<svg width="81" height="81" viewBox="0 0 81 81" fill="none" xmlns="http://www.w3.org/2000/svg">
<path d="M72.1758 59.1654C71.1468 59.7379 70.086 60.2499 68.9925 60.6708C65.5007 62.0602 61.8118 62.8108 58.0476 62.8894C43.5722 63.1919 30.7559 53.5098 30.4886 40.7184C30.4463 37.2292 32.3072 33.9758 35.3329 32.2594C22.2463 33.0839 19.1651 46.8024 19.332 54.7894C19.8045 77.4039 40.6933 79.2635 45.192 79.1695C47.6096 79.119 51.2367 78.3391 53.4254 77.5892L53.8207 77.4585C62.2065 74.3749 69.2487 68.5334 73.8649 60.8751C74.2199 60.286 74.021 59.5554 73.4624 59.1997C73.0595 58.9632 72.5692 58.9429 72.1758 59.1654Z" fill="url(#paint0_linear_66_756)"/>
<path opacity="0.35" d="M72.1758 59.1654C71.1468 59.7379 70.086 60.2499 68.9925 60.6708C65.5007 62.0602 61.8118 62.8108 58.0476 62.8894C43.5722 63.1919 30.7559 53.5098 30.4886 40.7184C30.4463 37.2292 32.3072 33.9758 35.3329 32.2594C22.2463 33.0839 19.1651 46.8024 19.332 54.7894C19.8045 77.4039 40.6933 79.2635 45.192 79.1695C47.6096 79.119 51.2367 78.3391 53.4254 77.5892L53.8207 77.4585C62.2065 74.3749 69.2487 68.5334 73.8649 60.8751C74.2199 60.286 74.021 59.5554 73.4624 59.1997C73.0595 58.9632 72.5692 58.9429 72.1758 59.1654Z" fill="url(#paint1_radial_66_756)"/>
<path d="M34.1531 75.5421C31.3943 73.9159 28.9911 71.7313 27.07 69.1692C18.7912 58.3208 20.8859 42.8166 31.7349 34.5382C32.8805 33.6877 34.0581 32.8977 35.3306 32.2589C36.2697 31.78 37.8751 30.9505 40.0485 30.9357C43.1401 30.9017 46.0781 32.3098 47.9967 34.7495C49.2554 36.3764 50.0008 38.3508 50.0749 40.4311C50.0736 40.3699 57.0637 15.9157 25.0833 16.5839C11.6485 16.8646 0.867368 29.8562 1.10076 41.0257C1.16297 46.9331 2.57108 52.7817 5.16184 58.0851C13.9843 75.9023 34.7339 84.2858 53.4544 77.6186C47.0393 79.7732 39.982 79.0329 34.1531 75.5421Z" fill="url(#paint2_linear_66_756)"/>
<path opacity="0.41" d="M34.1531 75.5421C31.3943 73.9159 28.9911 71.7313 27.07 69.1692C18.7912 58.3208 20.8859 42.8166 31.7349 34.5382C32.8805 33.6877 34.0581 32.8977 35.3306 32.2589C36.2697 31.78 37.8751 30.9505 40.0485 30.9357C43.1401 30.9017 46.0781 32.3098 47.9967 34.7495C49.2554 36.3764 50.0008 38.3508 50.0749 40.4311C50.0736 40.3699 57.0637 15.9157 25.0833 16.5839C11.6485 16.8646 0.867368 29.8562 1.10076 41.0257C1.16297 46.9331 2.57108 52.7817 5.16184 58.0851C13.9843 75.9023 34.7339 84.2858 53.4544 77.6186C47.0393 79.7732 39.982 79.0329 34.1531 75.5421Z" fill="url(#paint3_radial_66_756)"/>
<path d="M47.8216 46.9384C47.5832 47.2495 46.8277 47.7245 46.8481 48.7037C46.8648 49.4994 47.401 50.2535 48.3325 50.877C52.8033 53.8451 61.0885 53.274 61.1191 53.2733C64.3937 53.2049 67.5579 52.251 70.3388 50.5397C76.0219 47.0533 79.4433 40.8283 79.3039 34.1571C79.2525 27.3005 76.6172 22.794 75.5651 20.7954C68.8118 8.23135 54.6427 1.21046 39.4329 1.52824C18.0106 1.97583 0.92614 19.5383 1.06772 40.9657C0.987337 29.7929 11.9077 20.5334 25.1283 20.2572C26.1994 20.2348 32.322 20.1987 38.0462 23.0794C43.0895 25.6069 45.7873 28.7038 47.6587 31.8181C49.6246 35.0528 50.0469 39.1463 50.0814 40.7988C50.1153 42.4207 49.3402 44.8861 47.8216 46.9384Z" fill="url(#paint4_radial_66_756)"/>
<path d="M47.8216 46.9384C47.5832 47.2495 46.8277 47.7245 46.8481 48.7037C46.8648 49.4994 47.401 50.2535 48.3325 50.877C52.8033 53.8451 61.0885 53.274 61.1191 53.2733C64.3937 53.2049 67.5579 52.251 70.3388 50.5397C76.0219 47.0533 79.4433 40.8283 79.3039 34.1571C79.2525 27.3005 76.6172 22.794 75.5651 20.7954C68.8118 8.23135 54.6427 1.21046 39.4329 1.52824C18.0106 1.97583 0.92614 19.5383 1.06772 40.9657C0.987337 29.7929 11.9077 20.5334 25.1283 20.2572C26.1994 20.2348 32.322 20.1987 38.0462 23.0794C43.0895 25.6069 45.7873 28.7038 47.6587 31.8181C49.6246 35.0528 50.0469 39.1463 50.0814 40.7988C50.1153 42.4207 49.3402 44.8861 47.8216 46.9384Z" fill="url(#paint5_radial_66_756)"/>
<defs>
<linearGradient id="paint0_linear_66_756" x1="19.3616" y1="56.142" x2="73.9217" y2="55.0019" gradientUnits="userSpaceOnUse">
<stop stop-color="#0C59A4"/>
<stop offset="1" stop-color="#114A8B"/>
</linearGradient>
<radialGradient id="paint1_radial_66_756" cx="0" cy="0" r="1" gradientUnits="userSpaceOnUse" gradientTransform="translate(49.5111 55.9456) rotate(-1.19692) scale(29.1928 27.7285)">
<stop offset="0.72" stop-opacity="0"/>
<stop offset="0.95" stop-opacity="0.53"/>
<stop offset="1"/>
</radialGradient>
<linearGradient id="paint2_linear_66_756" x1="47.6527" y1="31.8931" x2="14.3467" y2="69.7305" gradientUnits="userSpaceOnUse">
<stop stop-color="#1B9DE2"/>
<stop offset="0.16" stop-color="#1595DF"/>
<stop offset="0.67" stop-color="#0680D7"/>
<stop offset="1" stop-color="#0078D4"/>
</linearGradient>
<radialGradient id="paint3_radial_66_756" cx="0" cy="0" r="1" gradientUnits="userSpaceOnUse" gradientTransform="translate(23.1428 62.7943) rotate(-82.5792) scale(43.8913 35.4689)">
<stop offset="0.76" stop-opacity="0"/>
<stop offset="0.95" stop-opacity="0.5"/>
<stop offset="1"/>
</radialGradient>
<radialGradient id="paint4_radial_66_756" cx="0" cy="0" r="1" gradientUnits="userSpaceOnUse" gradientTransform="translate(8.4755 16.6841) rotate(91.094) scale(61.9971 132.069)">
<stop stop-color="#35C1F1"/>
<stop offset="0.11" stop-color="#34C1ED"/>
<stop offset="0.23" stop-color="#2FC2DF"/>
<stop offset="0.31" stop-color="#2BC3D2"/>
<stop offset="0.67" stop-color="#36C752"/>
</radialGradient>
<radialGradient id="paint5_radial_66_756" cx="0" cy="0" r="1" gradientUnits="userSpaceOnUse" gradientTransform="translate(74.2219 24.4989) rotate(72.5386) scale(29.7883 24.2297)">
<stop stop-color="#66EB6E"/>
<stop offset="1" stop-color="#66EB6E" stop-opacity="0"/>
</radialGradient>
</defs>
</svg>
