<svg width="82" height="82" viewBox="0 0 82 82" fill="none" xmlns="http://www.w3.org/2000/svg">
<g filter="url(#filter0_d_66_780)">
<path d="M42.166 79.891C63.8051 79.4389 80.9805 61.5303 80.5284 39.891C80.0763 18.2518 62.1678 1.07623 40.5287 1.52837C18.8896 1.98051 1.71419 19.8891 2.16633 41.5284C2.61847 63.1676 20.5269 80.3432 42.166 79.891Z" fill="url(#paint0_linear_66_780)"/>
</g>
<path d="M42.1039 76.9529C62.1201 76.5347 78.0073 59.9692 77.5891 39.9529C77.1709 19.9366 60.6055 4.04922 40.5894 4.46746C20.5732 4.88569 4.68597 21.4511 5.10419 41.4675C5.52242 61.4837 22.0878 77.3711 42.1039 76.9529Z" fill="url(#paint1_radial_66_780)"/>
<path d="M40.8373 13.2819C40.5924 13.2871 40.3743 13.1079 40.3692 12.863L40.2355 6.46541C40.2304 6.22053 40.4408 6.03239 40.6857 6.02727C40.9306 6.02215 41.1487 6.20134 41.1538 6.44622L41.2875 12.8438C41.262 13.0893 41.0822 13.2768 40.8373 13.2819Z" fill="#F3F3F3"/>
<path d="M40.8418 13.3122C40.5663 13.318 40.3476 13.1082 40.3425 12.8633L40.2088 6.46575C40.2037 6.22086 40.4135 6.00211 40.689 5.99636C40.9645 5.9906 41.1832 6.2004 41.1883 6.44528L41.322 12.8429C41.3271 13.0877 41.0867 13.3071 40.8418 13.3122ZM40.6903 6.05758C40.476 6.06206 40.2656 6.2502 40.27 6.46447L40.4037 12.862C40.4082 13.0763 40.5957 13.2561 40.8406 13.251C41.0548 13.2465 41.2653 13.0584 41.2608 12.8441L41.1271 6.44656C41.092 6.23293 40.9045 6.0531 40.6903 6.05758Z" fill="white"/>
<path d="M43.8263 9.78882C43.5808 9.76333 43.3933 9.5835 43.3882 9.33862L43.543 6.48737C43.5685 6.24185 43.7789 6.05371 44.0244 6.0792C44.2699 6.1047 44.4574 6.28452 44.4626 6.52941L44.3078 9.38065C44.2823 9.62617 44.0718 9.81431 43.8263 9.78882Z" fill="#F3F3F3"/>
<path d="M43.8309 9.81969C43.5547 9.79484 43.3666 9.5844 43.3615 9.33952L43.5163 6.48827C43.5417 6.24275 43.7515 6.024 44.0277 6.04885C44.3038 6.07371 44.4919 6.28414 44.4971 6.52903L44.3423 9.38027C44.3174 9.6564 44.107 9.84454 43.8309 9.81969ZM44.029 6.11007C43.8147 6.11455 43.6036 6.27208 43.6081 6.48635L43.4533 9.3376C43.4578 9.55187 43.6147 9.73234 43.8602 9.75783C44.0745 9.75335 44.2855 9.59582 44.2811 9.38155L44.4358 6.53031C44.4314 6.31603 44.2439 6.13621 44.029 6.11007Z" fill="white"/>
<path d="M46.2061 13.7207C45.9599 13.6646 45.8024 13.4536 45.8279 13.208L46.9518 6.90667C47.0079 6.66051 47.2189 6.50298 47.4651 6.55909C47.7113 6.61519 47.8688 6.82626 47.8433 7.07179L46.7194 13.3731C46.6933 13.5881 46.4516 13.7462 46.2061 13.7207Z" fill="#F3F3F3"/>
<path d="M46.2086 13.7514C45.9318 13.6959 45.7737 13.4542 45.7992 13.2087L46.9231 6.90733C46.9792 6.66117 47.2202 6.47239 47.497 6.52785C47.7737 6.58332 47.9319 6.825 47.9064 7.07053L46.7825 13.3719C46.7264 13.618 46.4847 13.7762 46.2086 13.7514ZM47.4983 6.58907C47.2833 6.56294 47.0716 6.68986 47.0149 6.90541L45.891 13.2068C45.8649 13.4217 45.9918 13.6334 46.2379 13.6895C46.4528 13.7156 46.6646 13.5887 46.7213 13.3732L47.8452 7.0718C47.8707 6.82628 47.7138 6.64582 47.4983 6.58907Z" fill="white"/>
<path d="M49.8244 10.8886C49.5783 10.8325 49.4201 10.5908 49.4762 10.3447L50.1839 7.57374C50.24 7.32758 50.4823 7.20002 50.7285 7.25613C50.9747 7.31223 51.1328 7.55392 51.0767 7.80008L50.369 10.571C50.3129 10.8172 50.0706 10.9447 49.8244 10.8886Z" fill="#F3F3F3"/>
<path d="M49.8226 10.9192C49.5764 10.8631 49.387 10.5914 49.4737 10.3446L50.1814 7.57371C50.2375 7.32755 50.5098 7.16874 50.756 7.22485C51.0021 7.28095 51.1915 7.55261 51.1048 7.79941L50.3971 10.5703C50.341 10.8165 50.0993 10.9747 49.8226 10.9192ZM50.7579 7.31668C50.5423 7.25993 50.3 7.38749 50.2433 7.60304L49.5356 10.374C49.4788 10.5895 49.6057 10.8012 49.8519 10.8573C50.0674 10.9141 50.3098 10.7865 50.3665 10.571L51.0742 7.80005C51.1003 7.58513 50.9734 7.37342 50.7579 7.31668Z" fill="white"/>
<path d="M51.4131 15.174C51.1663 15.0872 51.0687 14.8137 51.1561 14.5975L53.4814 8.63851C53.5688 8.42232 53.8417 8.29412 54.0585 8.41208C54.3053 8.4988 54.4029 8.77237 54.3156 8.98856L51.9902 14.9475C51.9028 15.1637 51.6299 15.2919 51.4131 15.174Z" fill="#F3F3F3"/>
<path d="M51.4129 15.2043C51.1661 15.1176 51.0379 14.8447 51.1246 14.5979L53.45 8.6389C53.5367 8.3921 53.8103 8.29451 54.0877 8.38058C54.3345 8.4673 54.4627 8.74023 54.376 8.98704L52.0506 14.946C51.9333 15.1935 51.6603 15.3217 51.4129 15.2043ZM54.0584 8.44244C53.8422 8.35509 53.5992 8.45204 53.5119 8.66823L51.1865 14.6272C51.0991 14.8434 51.226 15.0551 51.4422 15.1425C51.6584 15.2298 51.9014 15.1329 51.9887 14.9167L54.3141 8.9577C54.3715 8.77276 54.2746 8.5298 54.0584 8.44244Z" fill="white"/>
<path d="M55.5055 13.1287C55.2887 13.0108 55.1917 12.7678 55.2791 12.5516L56.5116 9.98409C56.6296 9.76726 56.8725 9.67031 57.12 9.78764C57.3368 9.9056 57.4338 10.1486 57.3464 10.3648L56.1139 12.9323C55.9959 13.1491 55.7529 13.2461 55.5055 13.1287Z" fill="#F3F3F3"/>
<path d="M55.5025 13.1588C55.2551 13.0415 55.1575 12.7679 55.2748 12.5205L56.5073 9.95293C56.6247 9.70548 56.8982 9.6079 57.1457 9.72522C57.3931 9.84255 57.4907 10.1161 57.3734 10.3636L56.1408 12.9311C56.0235 13.1785 55.7499 13.2761 55.5025 13.1588ZM57.1163 9.78708C56.9002 9.69973 56.6566 9.76607 56.5692 9.98226L55.3367 12.5498C55.2487 12.7354 55.3456 12.9783 55.5318 13.0969C55.748 13.1843 55.9916 13.118 56.079 12.9018L57.3115 10.3342C57.3995 10.1487 57.3026 9.90569 57.1163 9.78708Z" fill="white"/>
<path d="M56.2119 17.6461C55.9944 17.4975 55.9275 17.2233 56.0767 17.0365L59.5168 11.6667C59.6348 11.4498 59.9096 11.4135 60.1264 11.5314C60.3439 11.68 60.4109 11.9542 60.2617 12.1411L56.8216 17.5109C56.7036 17.7277 56.4294 17.7947 56.2119 17.6461Z" fill="#F3F3F3"/>
<path d="M56.2117 17.6766C55.9942 17.5281 55.9266 17.2232 56.0446 17.0064L59.4847 11.6366C59.6333 11.4191 59.9075 11.3522 60.1556 11.5001C60.373 11.6487 60.4407 11.9535 60.3227 12.1703L56.8826 17.5401C56.734 17.7576 56.4292 17.8252 56.2117 17.6766ZM60.1262 11.562C59.94 11.4433 59.6652 11.4797 59.5466 11.6659L56.1064 17.0357C55.9878 17.2219 56.0542 17.4656 56.2404 17.5842C56.4266 17.7028 56.7015 17.6664 56.8201 17.4802L60.2608 12.141C60.3794 11.9548 60.3125 11.6806 60.1262 11.562Z" fill="white"/>
<path d="M60.6554 16.42C60.4686 16.2708 60.4016 15.9965 60.5508 15.8097L62.2795 13.538C62.4287 13.3512 62.7036 13.3148 62.8905 13.464C63.0773 13.6132 63.1443 13.8874 62.9951 14.0743L61.2664 16.346C61.1172 16.5328 60.8423 16.5692 60.6554 16.42Z" fill="#F3F3F3"/>
<path d="M60.627 16.4509C60.4096 16.3023 60.3726 15.9968 60.5211 15.7794L62.2498 13.5077C62.3984 13.2902 62.7039 13.2532 62.922 13.4324C63.1395 13.581 63.1765 13.8865 63.0279 14.1039L61.2992 16.3756C61.1506 16.5931 60.8452 16.6301 60.627 16.4509ZM62.8621 13.4949C62.6752 13.3457 62.431 13.3814 62.2817 13.5683L60.553 15.8399C60.4344 16.0262 60.4702 16.2704 60.657 16.4196C60.8439 16.5688 61.0881 16.5331 61.2373 16.3463L62.966 14.0746C63.0846 13.8884 63.0483 13.6135 62.8621 13.4949Z" fill="white"/>
<path d="M60.4445 21.0176C60.257 20.8377 60.2512 20.5623 60.4317 20.4054L64.868 15.811C65.0478 15.6235 65.3239 15.6483 65.4802 15.7982C65.6364 15.948 65.6734 16.2535 65.493 16.4104L61.0873 21.0041C60.9075 21.1916 60.632 21.1974 60.4445 21.0176Z" fill="#F3F3F3"/>
<path d="M60.4186 21.049C60.2311 20.8692 60.2247 20.5631 60.4046 20.3756L64.8409 15.7812C65.0207 15.5937 65.3268 15.5873 65.5143 15.7671C65.7018 15.9469 65.7082 16.253 65.5283 16.4405L61.0921 21.0349C60.9122 21.2224 60.6061 21.2288 60.4186 21.049ZM65.4843 15.7984C65.3281 15.6485 65.0526 15.6543 64.9027 15.8105L60.4664 20.4049C60.3166 20.5611 60.3223 20.8366 60.4786 20.9865C60.6348 21.1363 60.9103 21.1306 61.0602 20.9743L65.4965 16.38C65.6463 16.2237 65.6412 15.9788 65.4843 15.7984Z" fill="white"/>
<path d="M65.0355 20.6771C64.8786 20.4966 64.8729 20.2211 65.0533 20.0642L67.1883 18.1822C67.3688 18.0253 67.6449 18.0502 67.8018 18.2306C67.9587 18.4111 67.9644 18.6866 67.784 18.8435L65.649 20.7255C65.4686 20.8824 65.1924 20.8575 65.0355 20.6771Z" fill="#F3F3F3"/>
<path d="M65.0006 20.7089C64.8125 20.4984 64.8367 20.1917 65.0172 20.0348L67.1521 18.1528C67.3319 17.9653 67.6387 17.9895 67.8268 18.1999C68.015 18.4104 67.9907 18.7171 67.8103 18.874L65.6753 20.756C65.4955 20.9435 65.1888 20.9193 65.0006 20.7089ZM67.7662 18.2318C67.6093 18.0514 67.3645 18.0565 67.1834 18.1827L65.0484 20.0648C64.8986 20.221 64.8731 20.4666 65.03 20.647C65.1868 20.8275 65.4317 20.8224 65.6128 20.6961L67.7478 18.8141C67.9282 18.6572 67.9231 18.4123 67.7662 18.2318Z" fill="white"/>
<path d="M63.9018 25.1104C63.7443 24.8994 63.7998 24.6226 64.0115 24.4957L69.2635 20.8336C69.4752 20.7067 69.752 20.7621 69.8782 20.9432C70.0358 21.1543 69.9803 21.4311 69.7686 21.558L64.5166 25.2201C64.3355 25.3464 64.0587 25.2909 63.9018 25.1104Z" fill="#F3F3F3"/>
<path d="M63.8703 25.1113C63.7128 24.9002 63.7676 24.5929 63.9787 24.4353L69.2307 20.7732C69.4418 20.6157 69.7491 20.6705 69.9073 20.9122C70.0648 21.1233 70.01 21.4307 69.7989 21.5882L64.547 25.2503C64.3359 25.4078 64.0285 25.353 63.8703 25.1113ZM69.8474 20.9747C69.7211 20.7936 69.4749 20.7375 69.2938 20.8638L64.0418 24.5259C63.8607 24.6522 63.8046 24.8983 63.9622 25.1094C64.0884 25.2905 64.3346 25.3466 64.5157 25.2203L69.7677 21.5582C69.9482 21.4013 69.9736 21.1558 69.8474 20.9747Z" fill="white"/>
<path d="M68.473 25.6585C68.346 25.4468 68.4015 25.1701 68.6132 25.0431L71.0632 23.5832C71.2749 23.4563 71.5523 23.5424 71.6793 23.7541C71.8062 23.9658 71.7507 24.2426 71.539 24.3695L69.089 25.8294C68.8773 25.9563 68.5999 25.8703 68.473 25.6585Z" fill="#F3F3F3"/>
<path d="M68.4462 25.6892C68.3187 25.4468 68.3742 25.1701 68.5859 25.0431L71.0359 23.5832C71.2476 23.4563 71.5556 23.5418 71.6825 23.7535C71.8101 23.9958 71.7546 24.2726 71.5429 24.3995L69.0929 25.8594C68.8812 25.9863 68.5732 25.9009 68.4462 25.6892ZM71.6526 23.7847C71.5256 23.573 71.2795 23.5169 71.0984 23.6432L68.6484 25.1031C68.4673 25.2294 68.4112 25.4755 68.5068 25.6573C68.6337 25.869 68.8799 25.9251 69.061 25.7988L71.511 24.3389C71.6928 24.2432 71.7489 23.9971 71.6526 23.7847Z" fill="white"/>
<path d="M66.511 29.7722C66.4141 29.5293 66.5008 29.2825 66.7437 29.1855L72.6003 26.6132C72.8127 26.5169 73.0907 26.6336 73.187 26.846C73.284 27.0889 73.1973 27.3357 72.9543 27.4327L67.0977 30.0049C66.8854 30.1013 66.608 30.0152 66.511 29.7722Z" fill="#F3F3F3"/>
<path d="M66.4791 29.8028C66.3821 29.5598 66.4682 29.2824 66.7105 29.1549L72.5671 26.5826C72.8101 26.4857 73.0881 26.6023 73.1851 26.8453C73.282 27.0883 73.196 27.3657 72.9536 27.4932L67.097 30.0655C66.8541 30.1625 66.576 30.0458 66.4791 29.8028ZM73.1245 26.8772C73.0282 26.6648 72.7814 26.5781 72.599 26.6432L66.7424 29.2155C66.5301 29.3118 66.4433 29.5586 66.5397 29.7709C66.636 29.9833 66.8828 30.07 67.0651 30.0049L72.9217 27.4327C73.1341 27.3363 73.2208 27.0895 73.1245 26.8772Z" fill="white"/>
<path d="M70.8547 31.2124C70.7578 30.9694 70.8751 30.722 71.1181 30.625L73.7932 29.6811C74.0056 29.5848 74.2843 29.7321 74.35 29.945C74.4469 30.188 74.3296 30.4355 74.0866 30.5324L71.4115 31.4764C71.1991 31.5727 70.9517 31.4554 70.8547 31.2124Z" fill="#F3F3F3"/>
<path d="M70.8277 31.2437C70.7307 31.0008 70.8474 30.7227 71.121 30.6251L73.7961 29.6812C74.0391 29.5842 74.3178 29.7315 74.4147 29.9745C74.5117 30.2174 74.395 30.4955 74.1214 30.5931L71.4463 31.5371C71.2027 31.6034 70.9246 31.4867 70.8277 31.2437ZM74.3542 30.0064C74.2885 29.7934 74.041 29.676 73.828 29.7417L71.1529 30.6857C70.9399 30.7514 70.8532 30.9982 70.9189 31.2112C70.9846 31.4242 71.232 31.5415 71.445 31.4758L74.1201 30.5319C74.3325 30.4355 74.4199 30.2194 74.3542 30.0064Z" fill="white"/>
<path d="M68.1791 34.9124C68.1128 34.6688 68.2607 34.4207 68.5049 34.385L74.7545 33.0294C74.9981 32.9631 75.2162 33.1423 75.2825 33.3859C75.3488 33.6295 75.2009 33.8776 74.9567 33.9133L68.7072 35.2688C68.4629 35.3046 68.2148 35.1566 68.1791 34.9124Z" fill="#F3F3F3"/>
<path d="M68.1163 34.914C68.0493 34.6398 68.2278 34.3911 68.4714 34.3247L74.7209 32.9692C74.9645 32.9029 75.2132 33.0814 75.2802 33.3556C75.3472 33.6298 75.1687 33.8786 74.9251 33.9449L68.6756 35.3004C68.432 35.3668 68.1832 35.1882 68.1163 34.914ZM75.2196 33.3875C75.1846 33.1739 74.9671 33.0253 74.7535 33.0604L68.504 34.4159C68.2903 34.451 68.1424 34.6991 68.2081 34.9121C68.2432 35.1257 68.4606 35.2743 68.6743 35.2392L74.9238 33.8837C75.1368 33.818 75.2853 33.6005 75.2196 33.3875Z" fill="white"/>
<path d="M72.1443 37.1879C72.1085 36.9437 72.2571 36.7262 72.5014 36.6905L75.3105 36.2949C75.5547 36.2592 75.7728 36.4384 75.8085 36.6826C75.8443 36.9268 75.6957 37.1443 75.4514 37.18L72.6423 37.5756C72.4287 37.6107 72.18 37.4321 72.1443 37.1879Z" fill="#F3F3F3"/>
<path d="M72.1138 37.1886C72.0774 36.9137 72.2559 36.665 72.5002 36.6293L75.3093 36.2337C75.5535 36.198 75.8022 36.3765 75.8386 36.6514C75.875 36.9262 75.6964 37.175 75.4522 37.2107L72.6431 37.6062C72.3988 37.642 72.1501 37.4634 72.1138 37.1886ZM75.8086 36.6826C75.7735 36.469 75.5554 36.2898 75.3418 36.3249L72.5327 36.7205C72.3191 36.7555 72.1705 36.973 72.2056 37.1866C72.2407 37.4003 72.4588 37.5795 72.6724 37.5444L75.4815 37.1488C75.6951 37.1137 75.8437 36.8963 75.8086 36.6826Z" fill="white"/>
<path d="M68.7772 40.2284C68.7721 39.9836 68.9512 39.7654 69.1961 39.7603L75.5936 39.6267C75.8385 39.6215 76.0267 39.832 76.0318 40.0769C76.0369 40.3217 75.8577 40.5399 75.6128 40.545L69.2153 40.6786C68.9704 40.6838 68.7823 40.4733 68.7772 40.2284Z" fill="#F3F3F3"/>
<path d="M68.7485 40.2288C68.7428 39.9533 68.9526 39.7345 69.1974 39.7294L75.595 39.5957C75.8398 39.5906 76.0586 39.8004 76.0643 40.0759C76.0701 40.3514 75.8603 40.5702 75.6154 40.5753L69.2179 40.709C68.973 40.7141 68.7543 40.5043 68.7485 40.2288ZM76.0038 40.1078C75.9993 39.8935 75.8112 39.6831 75.5969 39.6876L69.1994 39.8213C68.9851 39.8257 68.8053 40.0132 68.8104 40.2581C68.8149 40.4724 69.003 40.6828 69.2173 40.6783L75.6148 40.5447C75.8284 40.5096 76.0082 40.3221 76.0038 40.1078Z" fill="white"/>
<path d="M72.2414 43.2496C72.2669 43.0041 72.4467 42.8166 72.6916 42.8115L75.5428 42.9662C75.7883 42.9917 75.9765 43.2022 75.951 43.4477C75.9255 43.6932 75.7456 43.8807 75.5008 43.8858L72.6495 43.731C72.4346 43.7049 72.2465 43.4945 72.2414 43.2496Z" fill="#F3F3F3"/>
<path d="M72.2088 43.2499C72.2337 42.9738 72.4441 42.7857 72.689 42.7805L75.5402 42.9353C75.7857 42.9608 76.0045 43.1706 75.9796 43.4468C75.9548 43.7229 75.7443 43.911 75.4994 43.9161L72.6482 43.7614C72.4027 43.7359 72.2139 43.4948 72.2088 43.2499ZM75.949 43.4474C75.9751 43.2325 75.787 43.022 75.5727 43.0265L72.7215 42.8717C72.5072 42.8762 72.3268 43.0331 72.3013 43.2786C72.2751 43.4935 72.4633 43.704 72.6776 43.6995L75.5288 43.8543C75.7431 43.8498 75.9229 43.6623 75.949 43.4474Z" fill="white"/>
<path d="M68.3417 45.5662C68.3978 45.32 68.6089 45.1625 68.8544 45.188L75.1557 46.3119C75.4019 46.368 75.5594 46.5791 75.5033 46.8252C75.4472 47.0714 75.2362 47.2289 74.9906 47.2034L68.6893 46.0795C68.4744 46.0534 68.3162 45.8117 68.3417 45.5662Z" fill="#F3F3F3"/>
<path d="M68.3092 45.5675C68.3646 45.2907 68.6063 45.1325 68.8518 45.158L75.1531 46.282C75.3993 46.3381 75.5881 46.5791 75.5326 46.8559C75.4771 47.1326 75.2355 47.2908 74.9899 47.2653L68.6886 46.1414C68.4425 46.0853 68.2843 45.8436 68.3092 45.5675ZM75.4714 46.8572C75.4975 46.6422 75.3706 46.4305 75.155 46.3738L68.8537 45.2499C68.6388 45.2237 68.4271 45.3507 68.371 45.5968C68.3449 45.8117 68.4718 46.0234 68.6873 46.0802L74.9887 47.2041C75.2342 47.2296 75.4146 47.0727 75.4714 46.8572Z" fill="white"/>
<path d="M71.1694 49.1817C71.2255 48.9355 71.4672 48.7773 71.7134 48.8334L74.4843 49.5411C74.7304 49.5972 74.858 49.8396 74.8019 50.0857C74.7458 50.3319 74.5041 50.4901 74.2579 50.434L71.487 49.7263C71.2409 49.6702 71.1133 49.4278 71.1694 49.1817Z" fill="#F3F3F3"/>
<path d="M71.1382 49.1825C71.1943 48.9364 71.466 48.7469 71.7128 48.8336L74.4837 49.5413C74.7298 49.5974 74.8887 49.8697 74.8326 50.1159C74.7764 50.3621 74.5048 50.5515 74.258 50.4648L71.4871 49.7571C71.2409 49.701 71.0828 49.4593 71.1382 49.1825ZM74.7407 50.1178C74.7975 49.9023 74.6699 49.6599 74.4544 49.6032L71.6835 48.8955C71.4679 48.8388 71.2562 48.9657 71.2001 49.2118C71.1433 49.4274 71.2709 49.6697 71.4864 49.7265L74.2574 50.4342C74.4723 50.4603 74.684 50.3334 74.7407 50.1178Z" fill="white"/>
<path d="M66.8845 50.7417C66.9712 50.4949 67.2448 50.3973 67.461 50.4847L73.4199 52.8101C73.6361 52.8974 73.7643 53.1704 73.677 53.3866C73.5903 53.6334 73.3167 53.731 73.1005 53.6436L67.1416 51.3182C66.8948 51.2315 66.7972 50.9579 66.8845 50.7417Z" fill="#F3F3F3"/>
<path d="M66.8538 50.7113C66.9405 50.4645 67.2135 50.3363 67.4603 50.423L73.4192 52.7484C73.666 52.8351 73.7636 53.1087 73.6775 53.3861C73.5908 53.6329 73.3179 53.7611 73.0711 53.6744L67.1121 51.349C66.8647 51.2316 66.7671 50.9581 66.8538 50.7113ZM73.6157 53.3567C73.703 53.1405 73.6061 52.8976 73.3899 52.8102L67.4309 50.4848C67.2147 50.3975 67.003 50.5244 66.9157 50.7406C66.8283 50.9568 66.9253 51.1997 67.1415 51.2871L73.1004 53.6125C73.3159 53.6692 73.5589 53.5723 73.6157 53.3567Z" fill="white"/>
<path d="M68.9644 54.8323C69.0823 54.6155 69.3253 54.5185 69.5415 54.6059L72.109 55.8385C72.3252 55.9258 72.4228 56.1994 72.3054 56.4468C72.1875 56.6637 71.9445 56.7606 71.7283 56.6733L69.1608 55.4407C68.944 55.3227 68.8464 55.0492 68.9644 54.8323Z" fill="#F3F3F3"/>
<path d="M68.9307 54.8021C69.048 54.5546 69.3216 54.457 69.569 54.5744L72.1365 55.8069C72.384 55.9242 72.4816 56.1978 72.3642 56.4452C72.2469 56.6927 71.9733 56.7903 71.7259 56.6729L69.1584 55.4404C68.9116 55.3537 68.8134 55.0495 68.9307 54.8021ZM72.2718 56.4165C72.3591 56.2004 72.2928 55.9568 72.0766 55.8694L69.5091 54.6368C69.3235 54.5489 69.0806 54.6458 68.9619 54.832C68.8746 55.0482 68.9409 55.2918 69.1571 55.3792L71.7246 56.6117C71.9408 56.6991 72.1844 56.6327 72.2718 56.4165Z" fill="white"/>
<path d="M64.4761 55.5082C64.6246 55.2907 64.8682 55.2244 65.0857 55.3729L70.4861 58.8125C70.7029 58.9304 70.7393 59.2053 70.6213 59.4221C70.4727 59.6396 70.2291 59.7059 70.0117 59.5573L64.6113 56.1178C64.3938 55.9692 64.3269 55.695 64.4761 55.5082Z" fill="#F3F3F3"/>
<path d="M64.4418 55.4779C64.5904 55.2604 64.8952 55.1928 65.112 55.3108L70.5124 58.7503C70.7299 58.8989 70.7968 59.1731 70.6489 59.4212C70.5003 59.6386 70.1955 59.7063 69.9787 59.5883L64.5783 56.1488C64.3302 56.0008 64.2932 55.6954 64.4418 55.4779ZM70.5564 59.3925C70.675 59.2063 70.6387 58.9314 70.4525 58.8128L65.0521 55.3733C64.8659 55.2547 64.6223 55.321 64.5037 55.5072C64.3851 55.6935 64.4214 55.9683 64.6076 56.0869L70.008 59.5264C70.1942 59.645 70.4378 59.5787 70.5564 59.3925Z" fill="white"/>
<path d="M65.7013 59.9224C65.8506 59.7355 66.1248 59.6685 66.3116 59.8178L68.5826 61.5159C68.7695 61.6651 68.8058 61.9399 68.6566 62.1268C68.5074 62.3136 68.2332 62.3806 68.0463 62.2314L65.7753 60.5333C65.5885 60.3841 65.5521 60.1092 65.7013 59.9224Z" fill="#F3F3F3"/>
<path d="M65.6699 59.8933C65.8185 59.6758 66.1239 59.6388 66.3414 59.7874L68.6124 61.4855C68.8299 61.634 68.8669 61.9395 68.7183 62.157C68.5697 62.3744 68.2643 62.4114 68.0468 62.2629L65.7758 60.5648C65.5583 60.4162 65.5213 60.1107 65.6699 59.8933ZM68.6564 62.1276C68.8056 61.9408 68.7699 61.6965 68.5831 61.5473L66.3121 59.8492C66.1258 59.7306 65.8816 59.7663 65.7324 59.9532C65.5832 60.1401 65.6189 60.3843 65.8058 60.5335L68.0768 62.2316C68.263 62.3502 68.5072 62.3145 68.6564 62.1276Z" fill="white"/>
<path d="M61.1333 59.7113C61.3131 59.5238 61.5886 59.518 61.7455 59.6985L66.3698 64.1036C66.5573 64.2834 66.5325 64.5595 66.3826 64.7158C66.2028 64.9033 65.9273 64.909 65.7704 64.7286L61.1461 60.3235C60.9898 60.1736 60.9834 59.8675 61.1333 59.7113Z" fill="#F3F3F3"/>
<path d="M61.1323 59.681C61.3122 59.4935 61.6183 59.4871 61.8058 59.6669L66.4301 64.072C66.6176 64.2518 66.624 64.558 66.4442 64.7455C66.2643 64.933 65.9582 64.9393 65.7707 64.7595L61.1464 60.3545C60.9283 60.1753 60.9219 59.8692 61.1323 59.681ZM66.3817 64.6855C66.5315 64.5293 66.5258 64.2538 66.3695 64.1039L61.7452 59.6988C61.5889 59.549 61.3134 59.5547 61.1636 59.711C61.0137 59.8672 61.0195 60.1427 61.1757 60.2926L65.8001 64.6977C65.957 64.8781 66.2018 64.873 66.3817 64.6855Z" fill="white"/>
<path d="M61.5014 64.2668C61.6818 64.1099 61.9573 64.1042 62.1142 64.2847L64.0262 66.3884C64.1831 66.5688 64.1583 66.845 63.9778 67.0019C63.7973 67.1587 63.5218 67.1645 63.3649 66.984L61.453 64.8803C61.2967 64.7305 61.3216 64.4543 61.5014 64.2668Z" fill="#F3F3F3"/>
<path d="M61.4746 64.2671C61.6851 64.0789 61.9612 64.1038 62.1487 64.2836L64.0607 66.3873C64.2482 66.5672 64.224 66.8739 64.0135 67.062C63.8031 67.2502 63.527 67.2253 63.3395 67.0455L61.4275 64.9418C61.27 64.7307 61.2636 64.4246 61.4746 64.2671ZM63.9816 67.0015C64.1621 66.8446 64.157 66.5997 64.0307 66.4186L62.1187 64.3149C61.9625 64.165 61.717 64.1395 61.5365 64.2964C61.356 64.4533 61.3611 64.6982 61.4874 64.8793L63.3994 66.983C63.5563 67.1635 63.8012 67.1583 63.9816 67.0015Z" fill="white"/>
<path d="M57.0707 63.1961C57.2818 63.0386 57.5586 63.0941 57.6855 63.3058L61.3469 68.5272C61.4738 68.7389 61.4184 69.0157 61.2373 69.1419C61.0262 69.2995 60.7494 69.244 60.6225 69.0323L56.9611 63.8109C56.8342 63.5992 56.8896 63.3224 57.0707 63.1961Z" fill="#F3F3F3"/>
<path d="M57.0703 63.1648C57.2814 63.0073 57.5888 63.0621 57.7463 63.2732L61.4077 68.4946C61.5652 68.7057 61.5104 69.013 61.2687 69.1712C61.0577 69.3287 60.7503 69.2739 60.5928 69.0628L56.9313 63.8414C56.7732 63.5997 56.8286 63.323 57.0703 63.1648ZM61.2368 69.1106C61.4179 68.9843 61.4741 68.7382 61.3478 68.5571L57.6863 63.3357C57.5601 63.1546 57.3145 63.1291 57.1028 63.256C56.9217 63.3823 56.8656 63.6284 56.9919 63.8095L60.6533 69.0309C60.779 69.1814 61.0557 69.2369 61.2368 69.1106Z" fill="white"/>
<path d="M56.5212 67.7401C56.7329 67.6132 57.0097 67.6686 57.1366 67.8803L58.5965 70.3304C58.7234 70.5421 58.6373 70.8195 58.4256 70.9464C58.2139 71.0733 57.9371 71.0179 57.8102 70.8061L56.3503 68.3561C56.254 68.1438 56.3095 67.867 56.5212 67.7401Z" fill="#F3F3F3"/>
<path d="M56.5235 67.7094C56.7659 67.5818 57.0426 67.6373 57.1695 67.849L58.6294 70.299C58.7563 70.5107 58.7015 70.8181 58.4592 70.9457C58.2169 71.0732 57.9401 71.0178 57.8132 70.8061L56.3533 68.356C56.2264 68.1443 56.2818 67.8676 56.5235 67.7094ZM58.4279 70.9157C58.609 70.7894 58.6958 70.5426 58.5695 70.3615L57.1096 67.9115C56.9833 67.7304 56.7372 67.6743 56.5554 67.77C56.3743 67.8962 56.2876 68.143 56.4139 68.3242L57.8738 70.7742C57.9694 70.9559 58.2468 71.042 58.4279 70.9157Z" fill="white"/>
<path d="M52.4112 65.8048C52.6542 65.7079 52.901 65.7946 52.9973 66.007L55.6002 71.863C55.6965 72.0753 55.5798 72.3534 55.3674 72.4497C55.1551 72.546 54.8777 72.4599 54.7814 72.2476L52.1785 66.3916C52.0822 66.1792 52.1989 65.9012 52.4112 65.8048Z" fill="#F3F3F3"/>
<path d="M52.4083 65.7744C52.6512 65.6774 52.9286 65.7635 53.0562 66.0058L55.6591 71.8618C55.756 72.1048 55.6393 72.3829 55.3964 72.4798C55.1534 72.5768 54.876 72.4907 54.7484 72.2484L52.1456 66.3924C52.0493 66.18 52.1659 65.9019 52.4083 65.7744ZM55.3339 72.4199C55.5462 72.3236 55.6329 72.0767 55.5373 71.895L52.9344 66.039C52.8381 65.8267 52.5913 65.7399 52.3789 65.8362C52.1666 65.9326 52.0799 66.1794 52.1755 66.3611L54.7784 72.2171C54.9053 72.4288 55.1215 72.5162 55.3339 72.4199Z" fill="white"/>
<path d="M50.998 70.183C51.241 70.0861 51.4884 70.2034 51.5854 70.4464L52.5293 73.1215C52.6257 73.3339 52.4784 73.6126 52.2654 73.6783C52.0224 73.7752 51.775 73.6579 51.678 73.4149L50.734 70.7398C50.6377 70.5274 50.7551 70.28 50.998 70.183Z" fill="#F3F3F3"/>
<path d="M50.9669 70.1524C51.2098 70.0555 51.4879 70.1722 51.5848 70.4151L52.5288 73.0903C52.6258 73.3333 52.4785 73.612 52.2355 73.7089C51.9925 73.8059 51.7145 73.6892 51.6175 73.4462L50.6736 70.771C50.6072 70.5274 50.7239 70.2494 50.9669 70.1524ZM52.2342 73.6477C52.4472 73.582 52.5645 73.3345 52.4988 73.1216L51.5549 70.4464C51.4892 70.2334 51.2424 70.1467 51.0294 70.2124C50.8164 70.2781 50.6991 70.5255 50.7648 70.7385L51.7087 73.4137C51.7744 73.6267 52.0219 73.744 52.2342 73.6477Z" fill="white"/>
<path d="M47.3305 67.4723C47.5741 67.406 47.8222 67.5539 47.8579 67.7981L49.2746 74.0464C49.341 74.29 49.1618 74.5081 48.9182 74.5745C48.6746 74.6408 48.4265 74.4929 48.3908 74.2486L46.974 68.0003C46.9389 67.7867 47.0869 67.5386 47.3305 67.4723Z" fill="#F3F3F3"/>
<path d="M47.3302 67.4421C47.6044 67.3752 47.8531 67.5537 47.9195 67.7973L49.3362 74.0456C49.4025 74.2892 49.2246 74.5685 48.9804 74.6042C48.7062 74.6712 48.4575 74.4927 48.3911 74.2491L46.9744 68.0008C46.908 67.7572 47.056 67.5091 47.3302 67.4421ZM48.9179 74.5443C49.1315 74.5092 49.2801 74.2917 49.2444 74.0475L47.8276 67.7992C47.7925 67.5856 47.5445 67.4377 47.3315 67.5034C47.1178 67.5384 46.9693 67.7559 47.005 68.0002L48.4217 74.2484C48.4874 74.4614 48.7043 74.5794 48.9179 74.5443Z" fill="white"/>
<path d="M45.0849 71.5001C45.3292 71.4644 45.5467 71.613 45.613 71.8566L46.0392 74.6651C46.0749 74.9093 45.8957 75.1274 45.6515 75.1632C45.4072 75.1989 45.1897 75.0503 45.1234 74.8067L44.6972 71.9982C44.6615 71.754 44.8407 71.5359 45.0849 71.5001Z" fill="#F3F3F3"/>
<path d="M45.0882 71.4697C45.363 71.4333 45.6118 71.6118 45.6475 71.8561L46.0737 74.6646C46.1094 74.9088 45.9308 75.1575 45.656 75.1939C45.3811 75.2303 45.1324 75.0517 45.0967 74.8075L44.6705 71.999C44.6348 71.7547 44.8133 71.506 45.0882 71.4697ZM45.6241 75.1333C45.8377 75.0982 46.0169 74.8801 45.9818 74.6665L45.5557 71.858C45.5206 71.6444 45.3031 71.4958 45.0895 71.5309C44.8758 71.566 44.6967 71.7841 44.7317 71.9977L45.1579 74.8062C45.193 75.0198 45.4105 75.1684 45.6241 75.1333Z" fill="white"/>
<path d="M41.8615 68.1376C42.1064 68.1325 42.3245 68.3117 42.3296 68.5566L42.4633 74.9541C42.4684 75.199 42.258 75.3872 42.0131 75.3923C41.7682 75.3974 41.5501 75.2182 41.545 74.9733L41.4113 68.5758C41.4368 68.3302 41.6166 68.1427 41.8615 68.1376Z" fill="#F3F3F3"/>
<path d="M41.8628 68.1077C42.1383 68.1019 42.357 68.3117 42.3622 68.5566L42.4958 74.9542C42.501 75.1991 42.2912 75.4178 42.0157 75.4236C41.7402 75.4293 41.5214 75.2195 41.5163 74.9746L41.3826 68.5771C41.3775 68.3322 41.6179 68.1128 41.8628 68.1077ZM42.0144 75.3624C42.2287 75.3579 42.4391 75.1697 42.4346 74.9555L42.3009 68.5579C42.2965 68.3436 42.109 68.1638 41.8641 68.1689C41.6498 68.1734 41.4394 68.3615 41.4439 68.5758L41.5775 74.9734C41.6126 75.187 41.8001 75.3668 42.0144 75.3624Z" fill="white"/>
<path d="M38.8721 71.63C39.1176 71.6555 39.3051 71.8353 39.3102 72.0802L39.1554 74.9314C39.1299 75.177 38.9195 75.3651 38.674 75.3396C38.4284 75.3141 38.241 75.1343 38.2358 74.8894L38.3906 72.0382C38.4161 71.7926 38.6266 71.6045 38.8721 71.63Z" fill="#F3F3F3"/>
<path d="M38.8734 71.6C39.1495 71.6249 39.3377 71.8353 39.3428 72.0802L39.188 74.9315C39.1625 75.177 38.9527 75.3957 38.6766 75.3709C38.4004 75.346 38.2123 75.1356 38.2072 74.8907L38.362 72.0395C38.3868 71.7633 38.5973 71.5752 38.8734 71.6ZM38.6753 75.3096C38.8896 75.3052 39.1006 75.1476 39.0962 74.9334L39.2509 72.0821C39.2465 71.8679 39.0896 71.6874 38.8441 71.6619C38.6298 71.6664 38.4187 71.8239 38.4232 72.0382L38.2684 74.8894C38.2729 75.1037 38.4604 75.2835 38.6753 75.3096Z" fill="white"/>
<path d="M36.4922 67.6989C36.7384 67.755 36.8959 67.9661 36.8704 68.2116L35.7465 74.513C35.6904 74.7591 35.4794 74.9167 35.2332 74.8605C34.987 74.8044 34.8295 74.5934 34.855 74.3478L35.9789 68.0465C36.005 67.8316 36.2467 67.6734 36.4922 67.6989Z" fill="#F3F3F3"/>
<path d="M36.4909 67.6683C36.7677 67.7238 36.9259 67.9655 36.9004 68.211L35.7765 74.5123C35.7204 74.7585 35.4793 74.9473 35.2026 74.8918C34.9258 74.8363 34.7676 74.5947 34.7931 74.3491L35.917 68.0478C35.9731 67.8016 36.2148 67.6435 36.4909 67.6683ZM35.2013 74.8306C35.4162 74.8567 35.6279 74.7298 35.6847 74.5143L36.8086 68.2129C36.8347 67.998 36.7078 67.7863 36.4616 67.7302C36.2467 67.704 36.035 67.8309 35.9782 68.0465L34.8543 74.3479C34.8289 74.5934 34.9857 74.7738 35.2013 74.8306Z" fill="white"/>
<path d="M32.8789 70.5305C33.1251 70.5866 33.2832 70.8283 33.2271 71.0745L32.5194 73.8454C32.4633 74.0916 32.221 74.2191 31.9748 74.163C31.7287 74.1069 31.5705 73.8652 31.6266 73.6191L32.3343 70.8482C32.3904 70.602 32.6327 70.4744 32.8789 70.5305Z" fill="#F3F3F3"/>
<path d="M32.8771 70.5002C33.1232 70.5563 33.3126 70.828 33.2259 71.0748L32.5182 73.8457C32.4621 74.0919 32.1898 74.2507 31.9437 74.1946C31.6975 74.1385 31.5081 73.8668 31.5948 73.62L32.3025 70.8491C32.3586 70.6029 32.6003 70.4448 32.8771 70.5002ZM31.9417 74.1028C32.1573 74.1595 32.3996 74.0319 32.4564 73.8164L33.1641 71.0455C33.2208 70.8299 33.0939 70.6182 32.8477 70.5621C32.6322 70.5053 32.3898 70.6329 32.3331 70.8485L31.6254 73.6194C31.5993 73.8343 31.7262 74.046 31.9417 74.1028Z" fill="white"/>
<path d="M31.2869 66.2462C31.5337 66.3329 31.6313 66.6064 31.5439 66.8226L29.2185 72.7816C29.1312 72.9978 28.8583 73.126 28.6414 73.008C28.4246 72.8901 28.297 72.6477 28.3844 72.4316L30.7098 66.4726C30.7971 66.2564 31.0701 66.1282 31.2869 66.2462Z" fill="#F3F3F3"/>
<path d="M31.2872 66.215C31.534 66.3017 31.6622 66.5746 31.5755 66.8214L29.2501 72.7804C29.1634 73.0272 28.8898 73.1248 28.6124 73.0387C28.3656 72.952 28.2374 72.6791 28.3241 72.4323L30.6495 66.4733C30.7668 66.2258 31.0397 66.0977 31.2872 66.215ZM28.6417 72.9769C28.8579 73.0642 29.1009 72.9673 29.1882 72.7511L31.5136 66.7921C31.601 66.5759 31.474 66.3642 31.2579 66.2768C31.0417 66.1895 30.7987 66.2864 30.7113 66.5026L28.386 72.4616C28.3286 72.6465 28.4255 72.8895 28.6417 72.9769Z" fill="white"/>
<path d="M27.1981 68.2915C27.4149 68.4095 27.5119 68.6525 27.4245 68.8687L26.192 71.4362C26.074 71.653 25.8311 71.75 25.5836 71.6326C25.3668 71.5147 25.2698 71.2717 25.3572 71.0555L26.5897 68.488C26.7077 68.2712 26.9507 68.1742 27.1981 68.2915Z" fill="#F3F3F3"/>
<path d="M27.1945 68.2604C27.4419 68.3777 27.5395 68.6513 27.4222 68.8987L26.1897 71.4662C26.0723 71.7137 25.7988 71.8113 25.5513 71.694C25.3039 71.5766 25.2063 71.3031 25.3236 71.0556L26.5562 68.4881C26.6735 68.2406 26.9471 68.1431 27.1945 68.2604ZM25.5807 71.6321C25.7969 71.7194 26.0405 71.6531 26.1278 71.4369L27.3603 68.8694C27.4483 68.6838 27.3514 68.4408 27.1652 68.3222C26.949 68.2349 26.7054 68.3012 26.618 68.5174L25.3855 71.0849C25.2975 71.2705 25.3944 71.5135 25.5807 71.6321Z" fill="white"/>
<path d="M26.49 63.7734C26.7075 63.9219 26.7745 64.1961 26.6252 64.383L23.1851 69.7528C23.0671 69.9696 22.7923 70.006 22.5755 69.888C22.358 69.7395 22.291 69.4652 22.4402 69.2784L25.8804 63.9086C25.9983 63.6918 26.2725 63.6248 26.49 63.7734Z" fill="#F3F3F3"/>
<path d="M26.4915 63.7433C26.709 63.8918 26.7766 64.1967 26.6586 64.4135L23.2185 69.7833C23.0699 70.0007 22.7957 70.0677 22.5476 69.9198C22.3302 69.7712 22.2625 69.4664 22.3805 69.2496L25.8206 63.8798C25.9692 63.6623 26.274 63.5947 26.4915 63.7433ZM22.577 69.8579C22.7632 69.9765 23.038 69.9402 23.1566 69.7539L26.5968 64.3842C26.7154 64.1979 26.649 63.9543 26.4628 63.8357C26.2766 63.7171 26.0017 63.7535 25.8831 63.9397L22.4424 69.2789C22.3238 69.4651 22.3907 69.7393 22.577 69.8579Z" fill="white"/>
<path d="M22.0467 64.9992C22.2336 65.1484 22.3005 65.4226 22.1513 65.6095L20.4226 67.8811C20.2734 68.068 19.9986 68.1043 19.8117 67.9551C19.6248 67.8059 19.5579 67.5317 19.7071 67.3448L21.4358 65.0732C21.585 64.8863 21.8598 64.85 22.0467 64.9992Z" fill="#F3F3F3"/>
<path d="M22.0743 64.9686C22.2918 65.1171 22.3288 65.4226 22.1802 65.6401L20.4515 67.9117C20.303 68.1292 19.9975 68.1662 19.7794 67.987C19.5619 67.8384 19.5249 67.533 19.6735 67.3155L21.4022 65.0438C21.5508 64.8264 21.8562 64.7894 22.0743 64.9686ZM19.8393 67.9245C20.0262 68.0737 20.2704 68.038 20.4196 67.8511L22.1483 65.5795C22.267 65.3933 22.2312 65.149 22.0444 64.9998C21.8575 64.8506 21.6133 64.8863 21.4641 65.0732L19.7353 67.3448C19.6167 67.5311 19.6531 67.8059 19.8393 67.9245Z" fill="white"/>
<path d="M22.2563 60.4024C22.4438 60.5822 22.4495 60.8577 22.2691 61.0146L17.8328 65.609C17.653 65.7965 17.3768 65.7717 17.2206 65.6218C17.0643 65.4719 17.0273 65.1665 17.2078 65.0096L21.6135 60.4158C21.7933 60.2283 22.0688 60.2226 22.2563 60.4024Z" fill="#F3F3F3"/>
<path d="M22.2858 60.3706C22.4733 60.5504 22.4797 60.8566 22.2998 61.0441L17.8635 65.6384C17.6837 65.8259 17.3776 65.8323 17.1901 65.6525C17.0026 65.4727 16.9962 65.1666 17.176 64.9791L21.6123 60.3847C21.7922 60.1972 22.0983 60.1908 22.2858 60.3706ZM17.2201 65.6213C17.3763 65.7711 17.6518 65.7654 17.8017 65.6091L22.238 61.0147C22.3878 60.8585 22.3821 60.583 22.2258 60.4331C22.0696 60.2833 21.7941 60.289 21.6442 60.4453L17.2079 65.0397C17.0581 65.1959 17.0632 65.4408 17.2201 65.6213Z" fill="white"/>
<path d="M17.669 60.7423C17.8259 60.9228 17.8316 61.1983 17.6511 61.3552L15.5162 63.2372C15.3357 63.3941 15.0596 63.3693 14.9027 63.1888C14.7458 63.0083 14.7401 62.7328 14.9205 62.5759L17.0555 60.6939C17.2359 60.537 17.5121 60.5619 17.669 60.7423Z" fill="#F3F3F3"/>
<path d="M17.6999 60.7116C17.888 60.9221 17.8638 61.2288 17.6833 61.3857L15.5484 63.2677C15.3686 63.4552 15.0618 63.431 14.8737 63.2206C14.6855 63.0102 14.7097 62.7034 14.8902 62.5465L17.0252 60.6645C17.205 60.477 17.5117 60.5012 17.6999 60.7116ZM14.9343 63.1887C15.0911 63.3692 15.336 63.3641 15.5171 63.2378L17.6521 61.3557C17.8019 61.1995 17.8274 60.954 17.6705 60.7735C17.5136 60.593 17.2688 60.5982 17.0877 60.7244L14.9527 62.6065C14.7722 62.7634 14.7774 63.0082 14.9343 63.1887Z" fill="white"/>
<path d="M18.8001 56.3094C18.9576 56.5205 18.9022 56.7973 18.6905 56.9242L13.4385 60.5863C13.2268 60.7132 12.95 60.6578 12.8237 60.4767C12.6662 60.2656 12.7217 59.9888 12.9334 59.8619L18.1854 56.1998C18.3665 56.0735 18.6432 56.129 18.8001 56.3094Z" fill="#F3F3F3"/>
<path d="M18.8292 56.3087C18.9867 56.5198 18.9319 56.8272 18.7208 56.9847L13.4688 60.6468C13.2578 60.8043 12.9504 60.7495 12.7922 60.5078C12.6347 60.2967 12.6895 59.9894 12.9006 59.8318L18.1526 56.1697C18.3636 56.0122 18.671 56.067 18.8292 56.3087ZM12.8522 60.4453C12.9784 60.6264 13.2246 60.6825 13.4057 60.5562L18.6577 56.8941C18.8388 56.7679 18.8949 56.5217 18.7374 56.3106C18.6111 56.1295 18.3649 56.0734 18.1838 56.1997L12.9318 59.8618C12.7514 60.0187 12.7259 60.2642 12.8522 60.4453Z" fill="white"/>
<path d="M14.2281 55.7619C14.355 55.9736 14.2995 56.2504 14.0878 56.3773L11.6378 57.8372C11.4261 57.9641 11.1487 57.8781 11.0218 57.6664C10.8949 57.4546 10.9503 57.1779 11.162 57.0509L13.612 55.5911C13.8238 55.4641 14.1012 55.5502 14.2281 55.7619Z" fill="#F3F3F3"/>
<path d="M14.2587 55.73C14.3863 55.9724 14.3308 56.2491 14.1191 56.3761L11.6691 57.8359C11.4574 57.9629 11.1493 57.8774 11.0224 57.6657C10.8949 57.4234 10.9503 57.1466 11.162 57.0197L13.612 55.5598C13.8238 55.4329 14.1318 55.5183 14.2587 55.73ZM11.0524 57.6345C11.1793 57.8462 11.4255 57.9023 11.6066 57.776L14.0566 56.3161C14.2377 56.1898 14.2938 55.9437 14.1981 55.7619C14.0712 55.5502 13.825 55.4941 13.6439 55.6204L11.1939 57.0803C11.0122 57.1759 10.9561 57.4221 11.0524 57.6345Z" fill="white"/>
<path d="M16.191 51.6479C16.288 51.8909 16.2013 52.1377 15.9583 52.2346L10.1017 54.8069C9.88935 54.9032 9.6113 54.7865 9.51499 54.5742C9.41805 54.3312 9.50476 54.0844 9.74772 53.9874L15.6043 51.4152C15.8167 51.3189 16.0941 51.4049 16.191 51.6479Z" fill="#F3F3F3"/>
<path d="M16.2222 51.6158C16.3191 51.8588 16.2331 52.1362 15.9907 52.2637L10.1341 54.836C9.89118 54.933 9.61313 54.8163 9.51618 54.5733C9.41923 54.3304 9.50531 54.0529 9.74763 53.9254L15.6042 51.3531C15.8472 51.2562 16.1252 51.3728 16.2222 51.6158ZM9.57676 54.5414C9.67307 54.7538 9.91987 54.8405 10.1023 54.7754L15.9589 52.2032C16.1712 52.1069 16.2579 51.8601 16.1616 51.6477C16.0653 51.4353 15.8185 51.3486 15.6361 51.4137L9.77952 53.986C9.56717 54.0823 9.48045 54.3291 9.57676 54.5414Z" fill="white"/>
<path d="M11.8442 50.2071C11.9411 50.4501 11.8238 50.6975 11.5808 50.7945L8.90568 51.7385C8.69332 51.8348 8.41463 51.6875 8.34894 51.4745C8.25199 51.2315 8.36931 50.9841 8.61228 50.8871L11.2874 49.9432C11.4998 49.8468 11.7472 49.9642 11.8442 50.2071Z" fill="#F3F3F3"/>
<path d="M11.8754 50.176C11.9724 50.419 11.8557 50.697 11.5821 50.7946L8.90698 51.7386C8.66401 51.8356 8.38532 51.6883 8.28838 51.4453C8.19143 51.2023 8.30811 50.9243 8.58169 50.8267L11.2568 49.8827C11.5004 49.8164 11.7785 49.9331 11.8754 50.176ZM8.34896 51.4134C8.41466 51.6264 8.6621 51.7437 8.87509 51.678L11.5502 50.734C11.7632 50.6684 11.8499 50.4215 11.7842 50.2086C11.7185 49.9956 11.4711 49.8782 11.2581 49.9439L8.58297 50.8879C8.37061 50.9842 8.28326 51.2004 8.34896 51.4134Z" fill="white"/>
<path d="M14.5245 46.5068C14.5909 46.7504 14.4429 46.9985 14.1987 47.0342L7.94918 48.3898C7.70558 48.4561 7.48747 48.2769 7.42113 48.0333C7.35479 47.7897 7.50273 47.5416 7.74697 47.5059L13.9965 46.1504C14.2407 46.1146 14.4888 46.2626 14.5245 46.5068Z" fill="#F3F3F3"/>
<path d="M14.5849 46.506C14.6519 46.7802 14.4733 47.0289 14.2297 47.0953L7.98024 48.4508C7.73664 48.5172 7.48792 48.3386 7.42094 48.0644C7.35396 47.7902 7.53251 47.5415 7.77611 47.4751L14.0256 46.1196C14.2692 46.0532 14.5179 46.2318 14.5849 46.506ZM7.48152 48.0325C7.51661 48.2461 7.73408 48.3947 7.94771 48.3596L14.1972 47.0041C14.4108 46.969 14.5588 46.7209 14.4931 46.5079C14.458 46.2943 14.2405 46.1457 14.0269 46.1808L7.77739 47.5363C7.5644 47.602 7.41582 47.8195 7.48152 48.0325Z" fill="white"/>
<path d="M10.5585 44.2314C10.5943 44.4757 10.4457 44.6931 10.2014 44.7289L7.39234 45.1244C7.1481 45.1601 6.92999 44.981 6.89427 44.7367C6.85854 44.4925 7.00711 44.275 7.25136 44.2393L10.0605 43.8437C10.2741 43.8086 10.5228 43.9872 10.5585 44.2314Z" fill="#F3F3F3"/>
<path d="M10.5866 44.2315C10.623 44.5063 10.4445 44.755 10.2002 44.7908L7.39113 45.1863C7.14688 45.222 6.89817 45.0435 6.8618 44.7686C6.82543 44.4938 7.00398 44.2451 7.24822 44.2093L10.0573 43.8138C10.3016 43.7781 10.5503 43.9566 10.5866 44.2315ZM6.89177 44.7374C6.92686 44.951 7.14497 45.1302 7.3586 45.0951L10.1677 44.6996C10.3813 44.6645 10.5299 44.447 10.4948 44.2334C10.4597 44.0197 10.2416 43.8406 10.028 43.8756L7.21889 44.2712C7.00526 44.3063 6.85668 44.5238 6.89177 44.7374Z" fill="white"/>
<path d="M13.9205 41.1911C13.9256 41.436 13.7464 41.6541 13.5015 41.6592L7.10398 41.7929C6.8591 41.798 6.67096 41.5876 6.66584 41.3427C6.66073 41.0978 6.83991 40.8797 7.08479 40.8746L13.4823 40.7409C13.7272 40.7358 13.9153 40.9462 13.9205 41.1911Z" fill="#F3F3F3"/>
<path d="M13.955 41.1902C13.9607 41.4657 13.7509 41.6844 13.5061 41.6895L7.10853 41.8232C6.86364 41.8283 6.6449 41.6185 6.63914 41.343C6.63338 41.0675 6.84318 40.8488 7.08806 40.8437L13.4856 40.71C13.7305 40.7049 13.9492 40.9147 13.955 41.1902ZM6.69972 41.3111C6.7042 41.5254 6.89234 41.7359 7.10661 41.7314L13.5041 41.5977C13.7184 41.5932 13.8982 41.4057 13.8931 41.1608C13.8886 40.9466 13.7005 40.7361 13.4862 40.7406L7.0887 40.8743C6.87507 40.9094 6.69524 41.0969 6.69972 41.3111Z" fill="white"/>
<path d="M10.4582 38.1703C10.4327 38.4158 10.2529 38.6033 10.008 38.6084L7.15679 38.4536C6.91126 38.4281 6.72313 38.2177 6.74862 37.9722C6.77411 37.7267 6.95394 37.5392 7.19882 37.534L10.05 37.6888C10.265 37.715 10.4531 37.9254 10.4582 38.1703Z" fill="#E2E2E2"/>
<path d="M10.4904 38.1693C10.4655 38.4455 10.2551 38.6336 10.0102 38.6387L7.15896 38.4839C6.91344 38.4585 6.6947 38.2487 6.71955 37.9725C6.7444 37.6964 6.95484 37.5082 7.19972 37.5031L10.0509 37.6579C10.2965 37.6834 10.4852 37.9245 10.4904 38.1693ZM6.75016 37.9719C6.72403 38.1868 6.91216 38.3972 7.12644 38.3928L9.97766 38.5475C10.1919 38.5431 10.3724 38.3862 10.3979 38.1407C10.424 37.9257 10.2359 37.7153 10.0216 37.7198L7.17039 37.565C6.95612 37.5695 6.77629 37.757 6.75016 37.9719Z" fill="white"/>
<path d="M14.3612 35.8537C14.3051 36.0999 14.094 36.2574 13.8485 36.2319L7.54657 35.0774C7.30041 35.0213 7.14289 34.8102 7.19899 34.564C7.25509 34.3179 7.46617 34.1603 7.71169 34.1858L14.013 35.3098C14.2285 35.3665 14.3867 35.6082 14.3612 35.8537Z" fill="#F3F3F3"/>
<path d="M14.3941 35.8528C14.3386 36.1295 14.097 36.2877 13.8514 36.2622L7.55013 35.1383C7.30397 35.0822 7.11519 34.8412 7.17065 34.5644C7.22612 34.2876 7.4678 34.1295 7.71332 34.1549L14.0146 35.2789C14.2608 35.335 14.419 35.5766 14.3941 35.8528ZM7.23187 34.5631C7.20574 34.778 7.33266 34.9897 7.54821 35.0465L13.8495 36.1704C14.0644 36.1965 14.2761 36.0696 14.3322 35.8234C14.3584 35.6085 14.2315 35.3968 14.0159 35.3401L7.7146 34.2162C7.46908 34.1907 7.28861 34.3476 7.23187 34.5631Z" fill="white"/>
<path d="M11.5284 32.2381C11.4723 32.4842 11.2306 32.6424 10.9845 32.5863L8.21358 31.8786C7.96742 31.8225 7.83986 31.5802 7.89597 31.334C7.95207 31.0879 8.19375 30.9297 8.43991 30.9858L11.2108 31.6935C11.457 31.7496 11.5845 31.9919 11.5284 32.2381Z" fill="#F3F3F3"/>
<path d="M11.5611 32.237C11.505 32.4832 11.2333 32.6726 10.9865 32.5859L8.2156 31.8782C7.96944 31.8221 7.81064 31.5498 7.86674 31.3036C7.92284 31.0574 8.1945 30.868 8.4413 30.9547L11.2122 31.6624C11.4584 31.7185 11.6165 31.9602 11.5611 32.237ZM7.95857 31.3017C7.90183 31.5172 8.02939 31.7596 8.24494 31.8163L11.0158 32.524C11.2314 32.5808 11.4431 32.4538 11.4992 32.2077C11.556 31.9921 11.4284 31.7498 11.2128 31.6931L8.44194 30.9854C8.22703 30.9592 8.01531 31.0861 7.95857 31.3017Z" fill="white"/>
<path d="M15.8174 30.6786C15.7307 30.9254 15.4571 31.023 15.2409 30.9357L9.28201 28.6103C9.06582 28.5229 8.93762 28.25 9.02498 28.0338C9.11169 27.787 9.38526 27.6894 9.60145 27.7768L15.5604 30.1022C15.8072 30.1889 15.9048 30.4625 15.8174 30.6786Z" fill="#F3F3F3"/>
<path d="M15.8474 30.7083C15.7607 30.9551 15.4878 31.0833 15.241 30.9966L9.28206 28.6712C9.03526 28.5845 8.93767 28.3109 9.02375 28.0335C9.11046 27.7867 9.38339 27.6585 9.63019 27.7452L15.5891 30.0706C15.8366 30.188 15.9342 30.4615 15.8474 30.7083ZM9.08561 28.0629C8.99825 28.279 9.0952 28.522 9.31139 28.6094L15.2703 30.9348C15.4865 31.0221 15.6982 30.8952 15.7856 30.679C15.8729 30.4628 15.776 30.2198 15.5598 30.1325L9.60086 27.8071C9.38531 27.7504 9.14235 27.8473 9.08561 28.0629Z" fill="white"/>
<path d="M13.739 26.5874C13.6211 26.8043 13.3781 26.9012 13.1619 26.8139L10.5944 25.5813C10.3782 25.494 10.2806 25.2204 10.3979 24.973C10.5159 24.7561 10.7589 24.6592 10.9751 24.7465L13.5426 25.9791C13.7594 26.097 13.857 26.3706 13.739 26.5874Z" fill="#F3F3F3"/>
<path d="M13.7685 26.6171C13.6512 26.8646 13.3776 26.9621 13.1302 26.8448L10.5627 25.6123C10.3153 25.4949 10.2177 25.2214 10.335 24.9739C10.4523 24.7265 10.7259 24.6289 10.9733 24.7462L13.5408 25.9788C13.7876 26.0655 13.8859 26.3697 13.7685 26.6171ZM10.4275 25.0026C10.3401 25.2188 10.4064 25.4624 10.6226 25.5498L13.1901 26.7823C13.3757 26.8703 13.6187 26.7734 13.7373 26.5871C13.8246 26.371 13.7583 26.1274 13.5421 26.04L10.944 24.8081C10.7584 24.7201 10.5148 24.7864 10.4275 25.0026Z" fill="white"/>
<path d="M18.229 25.912C18.0804 26.1294 17.8368 26.1958 17.6194 26.0472L12.2502 22.6376C12.0334 22.5197 11.997 22.2448 12.115 22.028C12.233 21.8112 12.5072 21.7442 12.7247 21.8928L18.125 25.3323C18.3112 25.4509 18.3782 25.7251 18.229 25.912Z" fill="#F3F3F3"/>
<path d="M18.2582 25.9415C18.1096 26.159 17.8048 26.2266 17.588 26.1086L12.2182 22.6685C12.0008 22.5199 11.9338 22.2457 12.0817 21.9976C12.2303 21.7801 12.5351 21.7125 12.7519 21.8305L18.1217 25.2707C18.3698 25.4186 18.4068 25.724 18.2582 25.9415ZM12.1436 22.0269C12.025 22.2132 12.0613 22.488 12.2476 22.6066L17.6479 26.0461C17.8341 26.1647 18.0777 26.0984 18.1963 25.9122C18.3149 25.726 18.2786 25.4511 18.0924 25.3325L12.692 21.893C12.5058 21.7744 12.2622 21.8407 12.1436 22.0269Z" fill="white"/>
<path d="M17.0004 21.4969C16.8512 21.6838 16.577 21.7507 16.3901 21.6015L14.1191 19.9034C13.9322 19.7542 13.8959 19.4794 14.0451 19.2925C14.1943 19.1056 14.4685 19.0387 14.6554 19.1879L16.9264 20.886C17.1132 21.0352 17.1496 21.31 17.0004 21.4969Z" fill="#F3F3F3"/>
<path d="M17.0347 21.5271C16.8861 21.7446 16.5807 21.7816 16.3632 21.633L14.0922 19.9349C13.8747 19.7863 13.8377 19.4808 13.9863 19.2634C14.1349 19.0459 14.4403 19.0089 14.6578 19.1575L16.9288 20.8556C17.1463 21.0041 17.1833 21.3096 17.0347 21.5271ZM14.0482 19.2927C13.8989 19.4796 13.9347 19.7238 14.1215 19.873L16.3925 21.5711C16.5787 21.6897 16.823 21.654 16.9722 21.4671C17.1214 21.2803 17.0857 21.036 16.8988 20.8868L14.6278 19.1887C14.4416 19.0701 14.1974 19.1058 14.0482 19.2927Z" fill="white"/>
<path d="M21.5656 21.7071C21.3858 21.8946 21.1103 21.9003 20.9534 21.7199L16.2984 17.3154C16.1109 17.1356 16.1358 16.8595 16.2857 16.7032C16.4655 16.5157 16.741 16.51 16.8979 16.6904L21.5222 21.0955C21.709 21.2447 21.7154 21.5508 21.5656 21.7071Z" fill="#F3F3F3"/>
<path d="M21.5677 21.7381C21.3879 21.9256 21.0818 21.932 20.8943 21.7522L16.2699 17.3471C16.0824 17.1673 16.076 16.8612 16.2559 16.6737C16.4357 16.4862 16.7418 16.4798 16.9293 16.6596L21.5536 21.0647C21.7717 21.2439 21.7781 21.55 21.5677 21.7381ZM16.3184 16.7336C16.1685 16.8899 16.1743 17.1654 16.3305 17.3152L20.9548 21.7203C21.1111 21.8702 21.3866 21.8644 21.5364 21.7081C21.6863 21.5519 21.6805 21.2764 21.5243 21.1265L16.8993 16.6909C16.7431 16.541 16.4982 16.5461 16.3184 16.7336Z" fill="white"/>
<path d="M21.1965 17.1522C21.0161 17.3091 20.7406 17.3149 20.5837 17.1344L18.6717 15.0307C18.5148 14.8502 18.5397 14.5741 18.7201 14.4172C18.9006 14.2603 19.1761 14.2546 19.333 14.435L21.245 16.5388C21.4012 16.6886 21.3764 16.9647 21.1965 17.1522Z" fill="#F3F3F3"/>
<path d="M21.2272 17.1516C21.0168 17.3398 20.7406 17.3149 20.5531 17.1351L18.6412 15.0314C18.4537 14.8515 18.4779 14.5448 18.6883 14.3567C18.8987 14.1685 19.1749 14.1934 19.3624 14.3732L21.2744 16.4769C21.4319 16.688 21.4383 16.9941 21.2272 17.1516ZM18.7202 14.4172C18.5397 14.5741 18.5448 14.819 18.6711 15.0001L20.5831 17.1038C20.7394 17.2537 20.9849 17.2792 21.1653 17.1223C21.3458 16.9654 21.3407 16.7205 21.2144 16.5394L19.3024 14.4357C19.1455 14.2552 18.9007 14.2603 18.7202 14.4172Z" fill="white"/>
<path d="M25.6292 18.2243C25.4181 18.3818 25.1414 18.3264 25.0144 18.1147L21.3224 12.8939C21.1955 12.6822 21.251 12.4054 21.4321 12.2791C21.6431 12.1216 21.9199 12.1771 22.0468 12.3888L25.7082 17.6102C25.8658 17.8213 25.8103 18.098 25.6292 18.2243Z" fill="#F3F3F3"/>
<path d="M25.6281 18.2542C25.417 18.4117 25.1097 18.3569 24.9521 18.1458L21.2907 12.9244C21.1332 12.7134 21.188 12.406 21.4297 12.2478C21.6407 12.0903 21.9481 12.1451 22.1057 12.3562L25.7671 17.5776C25.9253 17.8193 25.8698 18.096 25.6281 18.2542ZM21.4616 12.3084C21.2805 12.4347 21.2244 12.6808 21.3506 12.8619L25.0121 18.0833C25.1383 18.2644 25.3839 18.2899 25.5956 18.163C25.7767 18.0367 25.8328 17.7906 25.7065 17.6095L22.0457 12.4187C21.9194 12.2376 21.6427 12.1821 21.4616 12.3084Z" fill="white"/>
<path d="M26.1813 13.6795C25.9696 13.8064 25.6928 13.751 25.5659 13.5393L24.106 11.0892C23.9791 10.8775 24.0652 10.6001 24.2769 10.4732C24.4886 10.3463 24.7654 10.4017 24.8923 10.6135L26.3522 13.0635C26.4485 13.2758 26.393 13.5526 26.1813 13.6795Z" fill="#F3F3F3"/>
<path d="M26.1799 13.7103C25.9376 13.8379 25.6608 13.7824 25.5339 13.5707L24.074 11.1207C23.9471 10.909 24.0019 10.6016 24.2442 10.474C24.4866 10.3465 24.7633 10.4019 24.8902 10.6137L26.3501 13.0637C26.477 13.2754 26.4216 13.5522 26.1799 13.7103ZM24.2755 10.504C24.0944 10.6303 24.0077 10.8771 24.1339 11.0582L25.5938 13.5082C25.7201 13.6893 25.9663 13.7454 26.148 13.6498C26.3291 13.5235 26.4158 13.2767 26.2895 13.0956L24.8297 10.6455C24.734 10.4638 24.4566 10.3777 24.2755 10.504Z" fill="white"/>
<path d="M30.2913 15.6147C30.0483 15.7117 29.8015 15.625 29.7052 15.4126L27.1023 9.5566C27.006 9.34424 27.1227 9.06619 27.3351 8.96988C27.578 8.87293 27.8248 8.95965 27.9211 9.172L30.524 15.028C30.6203 15.2404 30.5036 15.5184 30.2913 15.6147Z" fill="#F3F3F3"/>
<path d="M30.2929 15.6458C30.0499 15.7428 29.7725 15.6567 29.6449 15.4144L27.0421 9.55837C26.9451 9.3154 27.0618 9.03735 27.3048 8.9404C27.5477 8.84345 27.8251 8.92953 27.9527 9.17185L30.5556 15.0279C30.6519 15.2402 30.5352 15.5183 30.2929 15.6458ZM27.3673 9.00034C27.1549 9.09665 27.0682 9.34345 27.1639 9.5252L29.7667 15.3812C29.863 15.5936 30.1098 15.6803 30.3222 15.584C30.5345 15.4877 30.6213 15.2408 30.5256 15.0591L27.9227 9.2031C27.7958 8.99139 27.5796 8.90404 27.3673 9.00034Z" fill="white"/>
<path d="M31.6993 11.2365C31.4564 11.3335 31.2089 11.2162 31.112 10.9732L30.168 8.29803C30.0717 8.08568 30.219 7.80699 30.432 7.74129C30.645 7.67559 30.9224 7.76167 31.0193 8.00463L31.9633 10.6798C32.0596 10.8922 31.9423 11.1396 31.6993 11.2365Z" fill="#F3F3F3"/>
<path d="M31.7312 11.2673C31.4882 11.3642 31.2102 11.2475 31.1133 11.0046L30.1693 8.32939C30.0723 8.08643 30.2196 7.80773 30.4626 7.71079C30.7055 7.61384 30.9836 7.73052 31.0805 7.97349L32.0245 10.6487C32.0909 10.8923 31.9742 11.1703 31.7312 11.2673ZM30.4639 7.77201C30.2509 7.83771 30.1335 8.08515 30.1992 8.29814L31.1432 10.9733C31.2089 11.1863 31.4557 11.273 31.6687 11.2073C31.8817 11.1416 31.999 10.8942 31.9333 10.6812L30.9894 8.00602C30.9237 7.79302 30.6762 7.6757 30.4639 7.77201Z" fill="white"/>
<path d="M35.3734 13.9473C35.1298 14.0137 34.8817 13.8657 34.846 13.6215L33.4293 7.37323C33.3629 7.12962 33.5421 6.91151 33.7857 6.84518C34.0293 6.77884 34.2774 6.92677 34.3131 7.17102L35.7299 13.4193C35.765 13.6329 35.617 13.881 35.3734 13.9473Z" fill="#F3F3F3"/>
<path d="M35.3695 13.9783C35.0953 14.0453 34.8465 13.8667 34.7802 13.6231L33.3635 7.37486C33.2971 7.13126 33.475 6.85193 33.7193 6.8162C33.9935 6.74922 34.2422 6.92777 34.3085 7.17137L35.7253 13.4196C35.7916 13.6632 35.6437 13.9113 35.3695 13.9783ZM33.7818 6.87614C33.5681 6.91123 33.4196 7.1287 33.4553 7.37294L34.872 13.6212C34.9071 13.8348 35.1552 13.9828 35.3682 13.9171C35.5818 13.882 35.7304 13.6645 35.6947 13.4203L34.2779 7.17201C34.2122 6.95902 33.9954 6.84105 33.7818 6.87614Z" fill="white"/>
<path d="M37.6124 9.91901C37.3682 9.95474 37.1507 9.80616 37.0843 9.56256L36.6582 6.75408C36.6225 6.50983 36.8016 6.29172 37.0459 6.25599C37.2901 6.22027 37.5076 6.36884 37.5739 6.61245L38.0001 9.42093C38.0358 9.66517 37.8566 9.88328 37.6124 9.91901Z" fill="#F3F3F3"/>
<path d="M37.6169 9.94975C37.3421 9.98612 37.0933 9.80757 37.0576 9.56333L36.6315 6.75485C36.5957 6.5106 36.7743 6.26188 37.0491 6.22552C37.324 6.18915 37.5727 6.36769 37.6084 6.61194L38.0346 9.42042C38.0703 9.66466 37.8918 9.91338 37.6169 9.94975ZM37.081 6.2861C36.8674 6.32118 36.6882 6.53929 36.7233 6.75293L37.1495 9.56141C37.1845 9.77504 37.402 9.92362 37.6156 9.88853C37.8293 9.85344 38.0085 9.63533 37.9734 9.4217L37.5472 6.61322C37.5121 6.39958 37.2946 6.25101 37.081 6.2861Z" fill="white"/>
<path d="M42.3215 76.9174C62.3376 76.4991 78.2249 59.9337 77.8066 39.9174C77.3884 19.9011 60.8231 4.0137 40.8069 4.43193C20.7908 4.85017 4.90349 21.4156 5.32172 41.4319C5.73995 61.4482 22.3053 77.3356 42.3215 76.9174Z" fill="url(#paint2_linear_66_780)" fill-opacity="0.2"/>
<g filter="url(#filter1_d_66_780)">
<path d="M66.1807 17.162L37.3394 36.5064L37.3088 36.507L37.3094 36.5376L37.2794 36.5689L19.6645 67.0401L46.0281 44.8995L46.0581 44.8682L46.0574 44.8376L66.1807 17.162Z" fill="black" fill-opacity="0.05"/>
</g>
<path d="M65.5961 15.4289L37.1292 36.5723L45.8779 44.9029L65.5961 15.4289Z" fill="#CD151E"/>
<path d="M37.1562 36.5105L41.5611 40.6751L65.5937 15.429L37.1562 36.5105Z" fill="#FA5153"/>
<path d="M37.1583 36.5099L45.9069 44.8405L17.4401 65.9838L37.1583 36.5099Z" fill="#ACACAC"/>
<path d="M17.4401 65.9838L41.5632 40.6745L37.1583 36.5099L17.4401 65.9838Z" fill="#EEEEEE"/>
<defs>
<filter id="filter0_d_66_780" x="0.893408" y="0.887561" width="80.9079" height="80.9085" filterUnits="userSpaceOnUse" color-interpolation-filters="sRGB">
<feFlood flood-opacity="0" result="BackgroundImageFix"/>
<feColorMatrix in="SourceAlpha" type="matrix" values="0 0 0 0 0 0 0 0 0 0 0 0 0 0 0 0 0 0 127 0" result="hardAlpha"/>
<feOffset dy="0.632092"/>
<feGaussianBlur stdDeviation="0.632092"/>
<feColorMatrix type="matrix" values="0 0 0 0 0 0 0 0 0 0 0 0 0 0 0 0 0 0 0.266007 0"/>
<feBlend mode="normal" in2="BackgroundImageFix" result="effect1_dropShadow_66_780"/>
<feBlend mode="normal" in="SourceGraphic" in2="effect1_dropShadow_66_780" result="shape"/>
</filter>
<filter id="filter1_d_66_780" x="18.4002" y="16.2138" width="49.0446" height="52.4064" filterUnits="userSpaceOnUse" color-interpolation-filters="sRGB">
<feFlood flood-opacity="0" result="BackgroundImageFix"/>
<feColorMatrix in="SourceAlpha" type="matrix" values="0 0 0 0 0 0 0 0 0 0 0 0 0 0 0 0 0 0 127 0" result="hardAlpha"/>
<feOffset dy="0.316046"/>
<feGaussianBlur stdDeviation="0.632092"/>
<feColorMatrix type="matrix" values="0 0 0 0 0 0 0 0 0 0 0 0 0 0 0 0 0 0 1 0"/>
<feBlend mode="normal" in2="BackgroundImageFix" result="effect1_dropShadow_66_780"/>
<feBlend mode="normal" in="SourceGraphic" in2="effect1_dropShadow_66_780" result="shape"/>
</filter>
<linearGradient id="paint0_linear_66_780" x1="42.166" y1="79.891" x2="40.5287" y2="1.52837" gradientUnits="userSpaceOnUse">
<stop offset="0.25" stop-color="#DBDBDA"/>
<stop offset="1" stop-color="white"/>
</linearGradient>
<radialGradient id="paint1_radial_66_780" cx="0" cy="0" r="1" gradientUnits="userSpaceOnUse" gradientTransform="translate(46.2727 32.6425) rotate(-1.197) scale(44.2483 44.2487)">
<stop stop-color="#2ABCE1"/>
<stop offset="0.113629" stop-color="#2ABBE1"/>
<stop offset="1" stop-color="#3375F8"/>
</radialGradient>
<linearGradient id="paint2_linear_66_780" x1="40.6592" y1="30.3261" x2="24.3771" y2="61.028" gradientUnits="userSpaceOnUse">
<stop stop-opacity="0"/>
<stop offset="1"/>
</linearGradient>
</defs>
</svg>
