<svg width="63" height="69" viewBox="0 0 63 69" fill="none" xmlns="http://www.w3.org/2000/svg">
<path d="M36.6556 57.6157H26.8364V64.5564H36.6556V57.6157Z" fill="#32314B"/>
<path d="M36.6556 57.6157H26.8364V60.0924H36.6556V57.6157Z" fill="#27273D"/>
<path d="M62.7471 12.5695V52.9274C62.7472 53.5427 62.6262 54.1521 62.3908 54.7206C62.1554 55.2892 61.8103 55.8058 61.3751 56.2409C60.94 56.676 60.4234 57.0211 59.8549 57.2565C59.2863 57.4919 58.677 57.613 58.0616 57.6128H5.43934C4.82341 57.6139 4.21332 57.4935 3.64399 57.2585C3.07466 57.0235 2.55726 56.6785 2.12142 56.2433C1.68557 55.8081 1.33984 55.2912 1.10401 54.7222C0.868186 54.1532 0.746891 53.5433 0.747071 52.9274V12.5695C0.746771 12.2832 0.823998 12.0022 0.970553 11.7562C1.11711 11.5103 1.32752 11.3086 1.57946 11.1726C1.62457 11.1466 1.66967 11.1261 1.71614 11.1043C1.76398 11.0838 1.81182 11.0674 1.86102 11.051C2.01456 11.003 2.17446 10.9786 2.33531 10.9785H61.1575C61.5791 10.9792 61.9832 11.1471 62.2812 11.4454C62.5792 11.7436 62.7467 12.1479 62.7471 12.5695Z" fill="#3E436D"/>
<path d="M17.1201 57.6142H5.43251C4.81704 57.6144 4.20757 57.4932 3.63894 57.2578C3.07031 57.0223 2.55366 56.677 2.11852 56.2418C1.68338 55.8065 1.33829 55.2897 1.10297 54.721C0.867649 54.1523 0.746712 53.5428 0.747071 52.9274V12.5695C0.746771 12.2832 0.823998 12.0022 0.970553 11.7562C1.11711 11.5103 1.32752 11.3086 1.57946 11.1726C1.62457 11.1466 1.66967 11.1261 1.71614 11.1043C1.76398 11.0838 1.81182 11.0674 1.86102 11.051C2.01456 11.003 2.17446 10.9786 2.33531 10.9785H14.0202C13.8114 10.9787 13.6048 11.02 13.412 11.1C13.2192 11.1801 13.0441 11.2973 12.8966 11.4451C12.7491 11.5928 12.6322 11.7681 12.5524 11.9611C12.4727 12.154 12.4318 12.3607 12.432 12.5695V52.9274C12.4316 53.5431 12.5526 54.1528 12.7881 54.7217C13.0236 55.2906 13.3689 55.8074 13.8044 56.2427C14.2398 56.678 14.7568 57.0232 15.3257 57.2585C15.8947 57.4939 16.5044 57.6147 17.1201 57.6142Z" fill="#32314B"/>
<path d="M44.1231 64.5552H19.3701C18.3171 64.5552 17.4634 65.4088 17.4634 66.4619V66.4632C17.4634 67.5163 18.3171 68.37 19.3701 68.37H44.1231C45.1762 68.37 46.0298 67.5163 46.0298 66.4632V66.4619C46.0298 65.4088 45.1762 64.5552 44.1231 64.5552Z" fill="#3E436D"/>
<path d="M31.7582 55.3851C32.7441 55.3851 33.5433 54.5859 33.5433 53.6C33.5433 52.6141 32.7441 51.8149 31.7582 51.8149C30.7723 51.8149 29.9731 52.6141 29.9731 53.6C29.9731 54.5859 30.7723 55.3851 31.7582 55.3851Z" fill="#27273D"/>
<path d="M62.7471 12.5695V50.042H0.747071V12.5695C0.746771 12.2832 0.823998 12.0022 0.970553 11.7562C1.11711 11.5103 1.32752 11.3086 1.57946 11.1726C1.62457 11.1466 1.66967 11.1261 1.71614 11.1043C1.76398 11.0838 1.81182 11.0674 1.86102 11.051C2.01456 11.003 2.17446 10.9786 2.33531 10.9785H61.1575C61.5791 10.9792 61.9832 11.1471 62.2812 11.4454C62.5792 11.7436 62.7467 12.1479 62.7471 12.5695Z" fill="white"/>
<path d="M14.0216 10.9785C13.8128 10.9787 13.6061 11.02 13.4133 11.1C13.2206 11.1801 13.0454 11.2973 12.8979 11.4451C12.7505 11.5928 12.6335 11.7681 12.5538 11.9611C12.4741 12.154 12.4331 12.3607 12.4333 12.5695V50.042H0.747071V12.5695C0.746771 12.2832 0.823998 12.0022 0.970553 11.7562C1.11711 11.5103 1.32752 11.3086 1.57946 11.1726C1.62457 11.1466 1.66967 11.1261 1.71614 11.1043C1.76398 11.0838 1.81182 11.0674 1.86102 11.051C2.01456 11.003 2.17446 10.9786 2.33531 10.9785H14.0216Z" fill="#DDDDDD"/>
<path d="M58.0702 55.9137C59.3482 55.9137 60.3842 54.8777 60.3842 53.5997C60.3842 52.3217 59.3482 51.2856 58.0702 51.2856C56.7922 51.2856 55.7562 52.3217 55.7562 53.5997C55.7562 54.8777 56.7922 55.9137 58.0702 55.9137Z" fill="#4F4F74"/>
<path d="M53.2489 55.2386C54.1539 55.2386 54.8877 54.5048 54.8877 53.5997C54.8877 52.6947 54.1539 51.9609 53.2489 51.9609C52.3438 51.9609 51.61 52.6947 51.61 53.5997C51.61 54.5048 52.3438 55.2386 53.2489 55.2386Z" fill="#4F4F74"/>
<path d="M43.5378 0.584961H20.0344C19.4392 0.584961 18.9566 1.06753 18.9566 1.6628V45.987C18.9566 46.5822 19.4392 47.0648 20.0344 47.0648H43.5378C44.1331 47.0648 44.6156 46.5822 44.6156 45.987V1.6628C44.6156 1.06753 44.1331 0.584961 43.5378 0.584961Z" fill="#3E436D"/>
<path d="M25.5836 47.0658H20.0355C19.7495 47.0655 19.4752 46.9517 19.2729 46.7495C19.0707 46.5472 18.9569 46.2729 18.9566 45.9869V1.6627C18.9572 1.37693 19.0711 1.10306 19.2734 0.90119C19.4757 0.699324 19.7498 0.585951 20.0355 0.585951H25.5836C25.4417 0.58523 25.301 0.612541 25.1697 0.666316C25.0384 0.720091 24.9189 0.799273 24.8183 0.899315C24.7176 0.999358 24.6377 1.11829 24.5832 1.24929C24.5286 1.3803 24.5004 1.52079 24.5003 1.6627V45.9869C24.5004 46.1289 24.5286 46.2695 24.5831 46.4006C24.6377 46.5317 24.7175 46.6508 24.8182 46.751C24.9188 46.8512 25.0382 46.9306 25.1695 46.9846C25.3009 47.0386 25.4416 47.0662 25.5836 47.0658Z" fill="#32314B"/>
<path d="M31.7867 46.1239C33.0632 46.1239 34.0979 45.0892 34.0979 43.8127C34.0979 42.5362 33.0632 41.5015 31.7867 41.5015C30.5102 41.5015 29.4755 42.5362 29.4755 43.8127C29.4755 45.0892 30.5102 46.1239 31.7867 46.1239Z" fill="#32314B"/>
<path d="M18.0642 9.60889H18.958V21.1771H18.0642C17.8608 21.1771 17.6658 21.0963 17.522 20.9525C17.3782 20.8087 17.2974 20.6137 17.2974 20.4103V10.3713C17.2986 10.1687 17.3799 9.97476 17.5235 9.83191C17.6672 9.68907 17.8616 9.60888 18.0642 9.60889Z" fill="#32314B"/>
<path d="M44.6167 9.60889H45.4514C45.6489 9.60889 45.8384 9.68736 45.9781 9.82705C46.1177 9.96674 46.1962 10.1562 46.1962 10.3537V11.9365C46.1962 12.1341 46.1177 12.3236 45.9781 12.4632C45.8384 12.6029 45.6489 12.6814 45.4514 12.6814H44.6167V9.60889Z" fill="#32314B"/>
<path d="M44.6167 18.103H45.4514C45.6489 18.103 45.8384 18.1815 45.9781 18.3212C46.1177 18.4609 46.1962 18.6503 46.1962 18.8479V20.4296C46.1962 20.5274 46.177 20.6243 46.1395 20.7146C46.1021 20.805 46.0472 20.8871 45.9781 20.9563C45.9089 21.0254 45.8268 21.0803 45.7364 21.1177C45.646 21.1552 45.5492 21.1744 45.4514 21.1744H44.6167V18.103Z" fill="#32314B"/>
<path d="M24.5047 5.21631H18.9566V40.5376H24.5047V5.21631Z" fill="#41C0E3"/>
<path d="M36.8418 5.83848C36.8418 6.18342 36.7049 6.51424 36.4611 6.75825C36.2172 7.00226 35.8865 7.13949 35.5416 7.13978H27.9562C27.611 7.13978 27.28 7.00268 27.036 6.75864C26.792 6.5146 26.6549 6.1836 26.6549 5.83848V5.21631H18.9566V40.5376H44.6167V5.21631H36.8396L36.8418 5.83848Z" fill="#7CC8FB"/>
<path d="M24.5047 5.21631H18.9566V40.5376H24.5047V5.21631Z" fill="#41C0E3"/>
<path d="M42.001 9.84717C42.4191 9.84717 42.7579 9.11351 42.7579 8.2085C42.7579 7.30348 42.4191 6.56982 42.001 6.56982C41.583 6.56982 41.2441 7.30348 41.2441 8.2085C41.2441 9.11351 41.583 9.84717 42.001 9.84717Z" fill="#B1E1FC"/>
<path d="M42.0014 12.6473C42.2894 12.6473 42.5228 12.1417 42.5228 11.518C42.5228 10.8943 42.2894 10.3887 42.0014 10.3887C41.7135 10.3887 41.48 10.8943 41.48 11.518C41.48 12.1417 41.7135 12.6473 42.0014 12.6473Z" fill="#B1E1FC"/>
</svg>
