<svg width="70" height="51" viewBox="0 0 70 51" fill="none" xmlns="http://www.w3.org/2000/svg">
<path d="M67.4566 0.244385H2.54446C1.15052 0.244385 0.0205078 1.37439 0.0205078 2.76833V48.117C0.0205078 49.5109 1.15052 50.6409 2.54446 50.6409H67.4566C68.8505 50.6409 69.9805 49.5109 69.9805 48.117V2.76833C69.9805 1.37439 68.8505 0.244385 67.4566 0.244385Z" fill="white"/>
<path d="M16.2469 50.6393H2.54409C1.87527 50.6384 1.23414 50.3721 0.761519 49.8988C0.2889 49.4256 0.0234369 48.7841 0.0234375 48.1153V2.76833C0.0238727 2.09964 0.289475 1.45842 0.762 0.985276C1.23452 0.512134 1.8754 0.245694 2.54409 0.244385H16.2469C15.5777 0.244821 14.936 0.510876 14.4627 0.984113C13.9895 1.45735 13.7234 2.09907 13.723 2.76833V48.1153C13.723 48.7847 13.9889 49.4267 14.4622 49.9C14.9356 50.3733 15.5775 50.6393 16.2469 50.6393Z" fill="#DDDDDD"/>
<path d="M69.9785 2.76834V8.35861H0.0234375V2.76834C0.0238727 2.09965 0.289475 1.45842 0.762 0.985281C1.23452 0.512138 1.8754 0.245699 2.54409 0.24439H67.4496C67.7815 0.243739 68.1102 0.308542 68.417 0.435091C68.7238 0.56164 69.0026 0.74745 69.2375 0.981885C69.4724 1.21632 69.6587 1.49478 69.7859 1.80132C69.913 2.10786 69.9785 2.43647 69.9785 2.76834Z" fill="#4F4F74"/>
<path d="M16.2469 0.244385C15.5777 0.244821 14.936 0.510876 14.4627 0.984113C13.9895 1.45735 13.7234 2.09907 13.723 2.76833V8.3586H0.0234375V2.76833C0.0238727 2.09964 0.289475 1.45842 0.762 0.985276C1.23452 0.512134 1.8754 0.245694 2.54409 0.244385H16.2469Z" fill="#3E436D"/>
<path d="M55.0128 5.92406C55.9087 5.92406 56.635 5.19778 56.635 4.30187C56.635 3.40596 55.9087 2.67969 55.0128 2.67969C54.1169 2.67969 53.3906 3.40596 53.3906 4.30187C53.3906 5.19778 54.1169 5.92406 55.0128 5.92406Z" fill="#DB1B1B"/>
<path d="M59.9718 5.92406C60.8677 5.92406 61.594 5.19778 61.594 4.30187C61.594 3.40596 60.8677 2.67969 59.9718 2.67969C59.0759 2.67969 58.3496 3.40596 58.3496 4.30187C58.3496 5.19778 59.0759 5.92406 59.9718 5.92406Z" fill="#F6C752"/>
<path d="M64.9308 5.92406C65.8267 5.92406 66.553 5.19778 66.553 4.30187C66.553 3.40596 65.8267 2.67969 64.9308 2.67969C64.0349 2.67969 63.3086 3.40596 63.3086 4.30187C63.3086 5.19778 64.0349 5.92406 64.9308 5.92406Z" fill="#00B564"/>
<path d="M44.754 30.8811C43.2005 30.8811 41.6863 31.3688 40.4248 32.2754C39.1633 33.1819 38.2182 34.4616 37.7229 35.9339H32.0056C31.4329 34.2335 30.2633 32.7982 28.7134 31.894C27.1635 30.9899 25.3384 30.6781 23.5763 31.0164C21.8141 31.3548 20.2343 32.3203 19.1296 33.7342C18.0248 35.1481 17.4699 36.9145 17.5677 38.7062C17.6655 40.4979 18.4093 42.1934 19.6614 43.4786C20.9136 44.7639 22.5891 45.5517 24.3776 45.6963C26.1661 45.8408 27.9464 45.3322 29.3886 44.2647C30.8309 43.1973 31.8374 41.6432 32.2216 39.8905H37.5135C37.8134 41.2567 38.4935 42.5102 39.4752 43.5065C40.4569 44.5028 41.7003 45.2013 43.0619 45.5213C44.4235 45.8414 45.8479 45.77 47.1706 45.3154C48.4934 44.8608 49.6607 44.0415 50.5379 42.952C51.415 41.8625 51.9663 40.5472 52.1281 39.1579C52.29 37.7686 52.0557 36.3618 51.4524 35.0999C50.8492 33.838 49.9014 32.7723 48.7185 32.0259C47.5357 31.2794 46.1659 30.8826 44.7672 30.8811H44.754Z" fill="#3E436D"/>
<path d="M24.9678 42.2234C27.1311 42.2234 28.8847 40.4697 28.8847 38.3064C28.8847 36.1431 27.1311 34.3894 24.9678 34.3894C22.8045 34.3894 21.0508 36.1431 21.0508 38.3064C21.0508 40.4697 22.8045 42.2234 24.9678 42.2234Z" fill="#7CC8FB"/>
<path d="M44.7549 42.2234C46.9182 42.2234 48.6719 40.4697 48.6719 38.3064C48.6719 36.1431 46.9182 34.3894 44.7549 34.3894C42.5916 34.3894 40.8379 36.1431 40.8379 38.3064C40.8379 40.4697 42.5916 42.2234 44.7549 42.2234Z" fill="#7CC8FB"/>
<path d="M15.9717 29.5625L22.0153 16.0179C22.2575 15.4746 22.6164 14.9913 23.0665 14.6024C23.5167 14.2135 24.047 13.9286 24.6197 13.7679C25.1924 13.6072 25.7936 13.5747 26.3803 13.6726C26.967 13.7706 27.525 13.9967 28.0144 14.3347L29.5641 15.403C30.4152 15.991 31.4099 16.3372 32.4422 16.4048C33.4744 16.4724 34.5057 16.259 35.4264 15.7871L41.5491 12.6548C42.0343 12.4058 42.5648 12.2574 43.1088 12.2185C43.6528 12.1797 44.199 12.2512 44.7147 12.4287C45.2303 12.6062 45.7048 12.8862 46.1096 13.2517C46.5144 13.6172 46.8411 14.0607 47.0701 14.5556L54.0271 29.5625H15.9717Z" fill="#3E436D"/>
<path d="M54.0254 29.5378H15.9717L22.0137 15.9899C22.414 15.0962 23.1239 14.3774 24.0125 13.966C24.9011 13.5545 25.9085 13.4782 26.8489 13.7511L25.1195 17.6269C24.6795 18.6131 24.493 19.6938 24.5771 20.7705C24.6611 21.8472 25.0131 22.8858 25.6009 23.7918C26.1888 24.6977 26.9938 25.4424 27.9428 25.9579C28.8918 26.4734 29.9546 26.7434 31.0346 26.7434H52.7313L54.0254 29.5378Z" fill="#32314B"/>
<path d="M57.1027 29.5574H12.8966C11.6064 29.5574 10.5605 30.6032 10.5605 31.8934V31.895C10.5605 33.1852 11.6064 34.231 12.8966 34.231H57.1027C58.3929 34.231 59.4387 33.1852 59.4387 31.895V31.8934C59.4387 30.6032 58.3929 29.5574 57.1027 29.5574Z" fill="#27273D"/>
</svg>
