<svg width="51" height="52" viewBox="0 0 51 52" fill="none" xmlns="http://www.w3.org/2000/svg">
<path d="M-7.64014 0.702148H58.6642V51.2197H-7.64014V0.702148Z" fill="#012169"/>
<path d="M0.129898 0.702148L25.4084 19.7515L50.5833 0.702148H58.6642V7.22733L33.8 26.0662L58.6642 44.7998V51.2197H50.3761L25.512 32.3809L0.7515 51.2197H-7.64014V44.905L17.1204 26.1714L-7.64014 7.43782V0.702148H0.129898Z" fill="white"/>
<path d="M36.2865 30.276L58.6642 47.0099V51.2197L30.5884 30.276H36.2865ZM17.224 32.3809L17.8456 36.0644L-2.04571 51.2197H-7.64014L17.224 32.3809ZM58.6642 0.702148V1.01788L32.8676 20.8039L33.0748 16.1732L53.4841 0.702148H58.6642ZM-7.64014 0.702148L17.1204 19.2253H10.9043L-7.64014 5.12244V0.702148Z" fill="#C8102E"/>
<path d="M17.3276 0.702148V51.2197H33.9036V0.702148H17.3276ZM-7.64014 17.5413V34.3805H58.6642V17.5413H-7.64014Z" fill="white"/>
<path d="M-7.64014 21.0144V31.1179H58.6642V21.0144H-7.64014ZM20.6428 0.702148V51.2197H30.5884V0.702148H20.6428Z" fill="#C8102E"/>
</svg>
