<svg width="51" height="51" viewBox="0 0 51 51" fill="none" xmlns="http://www.w3.org/2000/svg">
<path d="M-7.75391 0.133789H59.4047V50.5028H-7.75391" fill="#BD3D44"/>
<path d="M-7.75397 5.93652H59.4047H-7.75397ZM-7.75397 13.6703H59.4047H-7.75397ZM-7.75397 21.4355H59.4047H-7.75397ZM-7.75397 29.2007H59.4047H-7.75397ZM-7.75397 36.9659H59.4047H-7.75397ZM-7.75397 44.7311H59.4047H-7.75397Z" fill="black"/>
<path fill-rule="evenodd" clip-rule="evenodd" d="M59.4047 7.8787H-7.75397V3.99609H59.4047V7.8787ZM59.4047 15.6124H-7.75397V11.7298H59.4047V15.6124ZM59.4047 23.3776H-7.75397V19.495H59.4047V23.3776ZM59.4047 31.1429H-7.75397V27.2603H59.4047V31.1429ZM59.4047 38.9081H-7.75397V35.0255H59.4047V38.9081ZM59.4047 46.6733H-7.75397V42.7907H59.4047V46.6733Z" fill="white"/>
<path d="M-7.75391 0.133789H30.5265V27.2596H-7.75391" fill="#192F5D"/>
<path d="M0.86655 26.0185L2.86053 19.9922L4.85451 26.0185L-0.462769 22.3358H6.18382L0.86655 26.0185Z" fill="white"/>
<path d="M0.86655 19.5385L2.86053 13.5122L4.85451 19.5385L-0.462769 15.8558H6.18382L0.86655 19.5385Z" fill="white"/>
<path d="M0.86655 13.0585L2.86053 7.03223L4.85451 13.0585L-0.462769 9.37579H6.18382L0.86655 13.0585Z" fill="white"/>
<path d="M0.86655 6.57856L2.86053 0.552246L4.85451 6.57856L-0.462769 2.89581H6.18382L0.86655 6.57856Z" fill="white"/>
<path d="M8.73899 26.0185L10.733 19.9922L12.7269 26.0185L7.40967 22.3358H14.0563L8.73899 26.0185Z" fill="white"/>
<path d="M8.73899 19.5385L10.733 13.5122L12.7269 19.5385L7.40967 15.8558H14.0563L8.73899 19.5385Z" fill="white"/>
<path d="M8.73899 13.0585L10.733 7.03223L12.7269 13.0585L7.40967 9.37579H14.0563L8.73899 13.0585Z" fill="white"/>
<path d="M8.73899 6.57856L10.733 0.552246L12.7269 6.57856L7.40967 2.89581H14.0563L8.73899 6.57856Z" fill="white"/>
<path d="M16.6115 26.0185L18.6055 19.9922L20.5994 26.0185L15.2822 22.3358H21.9288L16.6115 26.0185Z" fill="white"/>
<path d="M16.6115 19.5385L18.6055 13.5122L20.5994 19.5385L15.2822 15.8558H21.9288L16.6115 19.5385Z" fill="white"/>
<path d="M16.6115 13.0585L18.6055 7.03223L20.5994 13.0585L15.2822 9.37579H21.9288L16.6115 13.0585Z" fill="white"/>
<path d="M16.6115 6.57856L18.6055 0.552246L20.5994 6.57856L15.2822 2.89581H21.9288L16.6115 6.57856Z" fill="white"/>
<path d="M23.9376 26.0185L25.9316 19.9922L27.9255 26.0185L22.6083 22.3358H29.2549L23.9376 26.0185Z" fill="white"/>
<path d="M23.9376 19.5385L25.9316 13.5122L27.9255 19.5385L22.6083 15.8558H29.2549L23.9376 19.5385Z" fill="white"/>
<path d="M23.9376 13.0585L25.9316 7.03223L27.9255 13.0585L22.6083 9.37579H29.2549L23.9376 13.0585Z" fill="white"/>
<path d="M23.9376 6.57856L25.9316 0.552246L27.9255 6.57856L22.6083 2.89581H29.2549L23.9376 6.57856Z" fill="white"/>
</svg>
